<svg xmlns="http://www.w3.org/2000/svg" xmlns:xlink="http://www.w3.org/1999/xlink" width="550" height="550"><defs><linearGradient id="A"><stop offset="0" stop-opacity="0"/><stop offset=".49" stop-opacity=".02"/><stop offset=".57" stop-opacity=".04"/><stop offset=".64" stop-opacity=".07"/><stop offset=".7" stop-opacity=".15"/><stop offset=".73" stop-opacity=".21"/><stop offset="1" stop-opacity=".55"/></linearGradient><radialGradient id="B" xlink:href="#A" cx="99.958" cy="139.375" r="45.07" fx="99.958" fy="139.375" gradientUnits="userSpaceOnUse" gradientTransform="matrix(-3.098 7.94-7.191-2.806 1578.963 266.342)"/></defs><path d="M549.248 275.104c.423-79.994-36.484-159.163-98.107-210.228C389.836 13.089 304.86-9.737 225.984 5.464c-84.018 14.42-159.213 71.149-196.518 147.77-34.7 68.85-38.064 152.549-8.836 223.939 30.519 78.024 99.268 139.712 180.065 161.784 77.74 22.602 165.118 7.721 231.251-38.999 66.603-45.839 110.714-122.804 116.387-203.526.72-6.532.907-13.183.914-19.804z" stroke="#99C" stroke-width="1.5" fill="none"/><path d="M549.248 275.104c.423-79.994-36.484-159.163-98.107-210.228C389.836 13.089 304.86-9.737 225.984 5.464c-84.018 14.42-159.213 71.149-196.518 147.77-34.7 68.85-38.064 152.549-8.836 223.939 30.519 78.024 99.268 139.712 180.065 161.784 77.74 22.602 165.118 7.721 231.251-38.999 66.603-45.839 110.714-122.804 116.387-203.526.72-6.532.907-13.183.914-19.804z" fill="#FFF"/><g stroke-width="1" stroke="#666"><path d="M242.619 1.794l-1.238.286h.635zm-1.238.286h-1.206l-.54.286zm5.491-.286l-1.809.286h.603l-1.523.317.286-.317-.984.222-.222-.222-.793.317h-.127l-1.809.286 1.523-.286-3.682.603.635-.317 1.523-.286-2.444.286-1.333.159 1.016-.159 1.714-.286h-1.714l-.603.286h-.92l-.286.159-.317.032v-.19l-.571.317h-1.27l-.444.254.952-.159-1.111.222.127-.063-.254.032-.127.031h-.952l-1.238.286h-.603l-1.523.317h.92l1.841-.317.984-.19-.222.095v.032h-.032l-.444.063h-.286l-.095.063h-.032l-1.714.254-1.523.286.92-.286-1.047.19.444-.19h-.317l-1.841.286h.317l-.317.159.92-.159h.317l-1.396.254.159-.095-.889.159h.317l-1.428.254.476-.254-1.523.317-1.269.286h-.254l-.19.095-1.016.222-.063.032-1.143.254h-.635l-.222.095-2.507.54h.317l-.92.286h-.317l-.286.317h-.635l-1.809.286-1.238.317-1.523.317-.603.286 1.523-.286-.92.286 2.158-.603-.635.317-.889.286-4.888 1.841-2.444.286h1.238l-5.205 1.523-1.809.92h-.603l-2.158.603 1.428-.222h.032l.381-.063-.762.222-.127.032-2.476.667v.286l1.523-.603h.92l-2.126.603h1.206l-2.126.317.317.286h-.317l-2.126 1.238.317-.92-1.238.317-1.523.889h1.238l-3.967 1.523h.603l-1.428.286-1.619.952-.603-.317-2.126.603 2.412-.286-1.523.286-.603.635-2.888.603 2.285-.603-.92.286 1.523-.286-.603-.635-.317.635-.286-.317-2.507 1.079-.54.127 1.206.317-2.444.317v.603l-1.809.286.222.222 2.825-.825v.317l-6.411 1.809-1.079.825-.444.095h.603l-1.777.888-.952.349-1.841 1.206 3.047-1.206 1.841-.92-2.444 1.809v-.603l-.286.317-2.158.603h1.238l-1.523.317v.286l-1.523.317.603.286-1.206.317h.603l-.92.317.317.286-2.158.92 1.841-.603-2.729 1.206v.317l-1.523.92 1.206-.317-1.841.603 1.523-.286-1.523.603h.317l-.92.286h.92l-1.523.317h.92l-1.523 1.206 3.967-.889-2.761 1.206 1.841-.603-2.444.92 1.523-.317-1.206.92 1.206-.603-2.126 1.523 1.809-.92.317.603.317-1.206h1.809v-.635l1.841-.603h.286v-.603l1.523-.317-.286-.286h1.523l-.603-.317 1.809-.603.92-.92.317.317.286-.92 1.841-.317 1.206-.889v.603l.92-.92.317.317v-.317l1.523-.317v-.603l.603.317 1.523-.92-.603-.317h1.523l2.126-1.809.286.286 1.841-.603.603-.286 2.126-.317 3.364-1.523.317.317-1.079.444-.444.444 2.729-.603.603-.603.92.317 6.697-2.761 2.126-.286 1.841-1.238-.92.92h2.126l.92-.603v.286l5.173-.603 9.14-2.444h.635l-3.047-.603-3.364.603-.603.317-.317-.317h-.603l3.65-.603h-3.047l3.65-1.206.635.286 2.412-.286-2.412-.603h1.809l-.286-.635 2.126.92-1.238 1.523 2.444-.603-1.206.603h1.206l.603-.92 1.841-.603h-.92l1.523-.603-1.809.317 1.809-.635-.92-.603-1.809.603.92-.603h1.206v-.603l-2.126.603v-.603l3.332-.317h-2.412l1.523-.286v-.317l.286.317 2.126-.317.317-.603v.603l.984-.222.54.54 2.729-.317 1.238-.286-.92-.317-1.523.317.603-.317 2.126-.92 1.238.603 1.523-.286h-.92l-.603-.317 1.523-.603h.286l-.603-.317 1.238.317h.286l1.841-.603h-.603l-1.238-.317 2.444-.286h-1.523l.603-.635h4.285l1.206-.603h-.92l-.603-.286h2.126l-.286-.317h-.317l-1.841.317 1.523-.635 3.682-.603 4.57-.92h-2.761l.92-.286h1.523l.095-.095 2.634-.222h-2.412l4.253-.286 3.047-.635h-1.841L251.442 3h-1.206l-5.173.603 5.776-.92-4.57.317 2.729-.317h-4.253l1.841-.286h3.047l3.332-.317h-1.809l1.523-.286-5.491.286 2.444-.286-3.364.286.603-.286zM223.1 11.22l-1.809.317 2.444.286zm-12.79 4.57l3.65-.286.635-.635zm-25.739 7.776l.159-.159-.286.222.127-.064zm-.127.063l-.952.381v.317zm-11.679-.92l-.286.095h.349l-.064-.095zm-.286.095h-.54l-.222.222zm-.762.222l-1.301.381 1.206-.286zM316.027 3l3.967.92 1.523.286-.286-.286-2.158-.317zm5.491 1.206h-.92l1.841.317h.317l-.92-.317zm-22.534-.889l-.603.603 1.809-.317zm7.014 0l-.92.286h-.317l1.523.317zm-28.945.286v.317h-1.523l.889.603 1.238-.317h1.523l-1.523.317 3.332.317 2.444-.635-2.126-.286H280.1l-.317-.317-.317.603-1.809-.254v-.032h-.317l-.286-.317zm44.464.317l1.841.603 3.332.603h.92l-.92-.286h-.413l-1.301-.286-.095-.032h-.063l-1.46-.317-1.523-.286.92.286-1.238-.286zm-49.034.286l-3.047.317 1.809 1.206 2.126-.603v.317l1.238-.317-1.523-.92-.603.635-1.523-.317zm2.126.92l.92.317-3.967.603.286.317 3.047-.317-2.126.317 1.238.286-2.158-.286 3.047 1.206 2.158-2.126h.889l1.238-.317-1.523-.286-1.523-.317-.603.317-.92-.635zm3.332.317l.92.286.603-.286zm.92.286l.317.92 1.523-.286.286.286 1.238-.286-1.523-.635zm46.622-1.206l1.809.444.159.032 4.443 1.047-2.158-.603-1.523-.317-2.729-.603zm7.934 1.841l5.459 1.206h-.286l1.111.317h-.19l.571.095.635.19-1.206-.286h-.317l.92.286 1.206.92 2.126.603-1.523-.286 5.205 1.523-2.444.286 4.856 1.523 3.65.92h-.603l-1.428-.222-.095-.095h-.603l-2.444-.603v.317l1.841.603h-1.65l-4.761-1.523 2.761.92 1.523 1.206 3.967 1.238 2.126.889 2.729 1.523 1.841-.286 2.729.603 3.047 1.206 1.238.92 2.126.603-2.444-.603-5.173-2.126-.92.317 3.967 1.809 2.729 3.047-4.856-.92 2.126-.603-3.65-2.729-3.047-.92-3.682-1.841-3.332-1.206-3.047-.92-3.65-1.809-1.841-.317h-1.841l3.682 1.841.286.889 3.65 1.523 1.841.92h1.206l3.364.92 1.841 1.523-6.728-1.841h1.238l-8.855-1.206v.603l3.682 1.238h-1.238l.317.286.603.603-3.047-1.206-.92.603h-2.729l.603.92h-1.206l-1.238.92 5.173 3.967h3.364l-3.364.286-5.459-4.253 1.523-.92h-1.238l-1.206-1.206.92-.317h-.92l-.317 1.206-.92-.603-3.935 1.238 1.523.603h-1.841l1.206 1.206-2.412.317-3.047-1.238 1.809-.603-.92-.603-6.094-.92 2.158.603 4.57 4.285-4.285-.92-1.809.92-.635.603-.286.317 1.206.889 1.841 1.238-.92-.317-3.364-.286-.603.286.317-.603-3.364-.603v.92l3.65.889-.603 1.238-6.094-1.523-2.126-1.841.603-.92-3.967-.889.92-.317-3.967-1.206 14.345 1.809.889-.603 1.238-1.206-3.65-1.523-.635-.317-9.14-2.126h-2.729l-.317.92v-.92h-2.126l-.603-.603h1.841l-2.158-.317-.889.603-1.841-.603-.92.317-1.523-.635-.603-.286 2.729.286.92-.603-3.65-.603-1.206.603.603-.92-1.523-.286-.317 1.206h-.92l-.286-.92-1.523 1.523.603-1.206-2.126-.317-1.238 1.523h-.286l-3.047-.286.603.286.603.635-1.523-.635-1.809 1.238h-.317l.317-.317.286-.92-.603.635-.317.603v-.92l-1.206.317.92.888-2.444-.603-.603 1.523-2.126.317h-.317l.317 1.206-.92-.92-1.238.317.92.317h-1.809l1.809.603-2.729.603 2.126.317-3.967.286.92.317-1.682 1.111-1.047.095.889.603-.889-.286-1.523 1.523 1.809-.317-3.332.92h1.809l-1.809.317.889.603-1.523.286-.286-.603-3.364 2.126h1.841l2.126-1.206-1.206 1.523-2.444.317v-.635l-2.761.317v1.523l-1.523-.603 1.238.92-1.46-.286-3.713.286.889.603-.603.603-1.206-.317.603.317-2.444-.317v.635l-.603.889h1.523l-1.841.317h1.523l-1.206.603 3.047-.285.603-.317 1.238.603.603-.92.286.635-1.809.888-.603-.603-3.967.317 1.206.286h-1.523l.603.635 1.238-.317-1.841.92.603.603.92-.603-.92 1.206 4.285-1.523-5.491 2.126.92.92 2.444-.92-2.158 1.238h1.841l-.92.603-1.523-.603-.286 1.206 3.047 1.523 3.047-.286 3.65-2.444h2.126l1.206-2.126.635 3.935 1.206-.286-.603 1.206 1.206-.92-.92 1.523 2.761 3.047-1.238.635.635 2.412h3.65l1.523-1.809h3.047l2.444-3.364-.635-2.729h1.238l-1.841-.317 3.364-.603.286-.92.635.92 1.809-1.206-1.523-.317 2.444-.603-2.729-2.126-1.841-.317 1.206-5.173.92.603 3.967-1.841 1.206-.286 1.841-1.523-1.206-1.841 1.206.317-.317-1.238 1.523.635.317-.92 3.65.285 2.444 1.523-8.22 4.888 2.126 2.729-.603 2.158 2.729.889 1.238-.286-.317 1.206 12.79-2.126.317.92 4.57.92-5.173.286-.317.92-5.491-.603-4.856 1.206.889 2.126h2.158v2.761l-1.841.92-3.047-2.158-2.126.317-1.523 2.729 1.206 4.285h-2.126l1.206-2.126-1.206 1.809-1.523.317v.92h1.206l-.889.286-1.841.92 1.206-1.206-2.729.888-2.444-1.523-9.14 2.444-.286 1.238-4.285-2.444-6.094 1.206.92-1.206-2.729.286-1.841-1.523.92-2.126 3.967-2.126-2.158-.603 1.841-2.761-5.491 1.523-2.126 6.411.92-.317.92 1.238-1.523.285 3.047 2.158-3.047-.92-.635 1.523-1.206-.92-2.729.317.889.889-4.253-.286-1.841.92.92 1.206-1.809.92-.92-1.841-2.761 2.761 1.523.889-3.65.317 2.126.603-8.22 1.523-.286 2.126-1.238.635-4.57 2.126-5.491-1.523.635 3.65-4.285.317-.603-1.238-5.491 1.238 1.523.889-1.523-.286.317 1.523 5.491 1.206.603 3.047 2.126.603-1.206 2.158.286.603-3.967 7.014h-17.36l-1.523-1.238-6.094 2.761 1.238 2.412-3.967 7.934-3.967 4.888 2.126-.635-1.809 2.158h1.206l-2.126 5.173 7.617-.92 3.047 4.887 4.856-2.761h8.252l3.332-3.047 2.761-.286 1.206-2.761 2.126-.92.92-.603-.603-.603-.603-.92.603-2.126 1.206-1.206 3.967-3.682 8.537-3.047v-3.333l1.523-1.523 2.729-.92 6.697 1.841 9.775-4.887 4.57 1.523 2.412 5.49 16.154 8.537 1.841 4.57-2.126 3.047 1.523.286 2.126-3.332 2.126-.92-2.444-2.444 1.238-2.729 3.65.603 1.809 1.809.635-1.206-9.14-4.888.603-1.523-4.888-.603-3.967-5.173-3.935-2.126-.635-4.285 4.888-1.206.92 3.364 2.444-1.841 4.57 6.411 3.332.286 2.761 1.841-2.444-.603 6.094 1.809 3.047 2.444-.92 5.173 2.729 2.444 2.761 2.729 1.523-.286-1.523.92 1.523 1.809 7.903.603-.889.92-5.808-1.206-.92 1.523 2.444 3.967 1.523-.92 1.523 2.444.317-1.523 2.444 1.523-2.158-4.284 3.047.317-2.126-1.523 1.841-.603 2.126 1.206v-1.841l-6.094-2.412 1.841-.635-.317-1.523 1.523.92-3.364-4.856 1.238-.635 3.967 2.444-.92-1.523 2.444.92-2.444-2.126 4.856-.92 6.094 1.206-1.809 2.158 4.253-3.364h5.173l-5.459-5.173h-1.238l3.65-3.65v-5.205l.635.92 1.809-.603-.603-3.047.603.603 2.126-1.523.317-1.523 3.65-1.206 1.841 1.206-3.047-.286 1.809.603-.603.603 5.808.317.603 1.206-3.364 1.206h2.126l1.523 2.761 2.158.92 7.617-3.364h-3.682l-3.047-2.729 3.047 3.047-1.809-.317-2.126-1.841 1.523-2.126v1.523l2.126-1.809 9.743-2.158-1.523 2.158-2.729-.317 3.65 2.126-1.238-.603-1.206 3.047-2.729.603 12.79 5.808 5.491 2.412 2.412 3.364-.603 1.523-3.332 1.841h-6.094l-7.014-1.238-5.808-3.047-5.459.317-6.728 3.332-7.3-.603.603 1.523 2.761.317-3.682.286.317.92h-7.934l-1.809 1.841-.317 1.523 3.364-.317-.603 3.364 1.809.92-1.809.286-.92-1.206-.603 1.523 3.935.92-.889 1.206 2.729 1.523-1.206 1.206 3.935-.285-3.332 1.523 3.967-.92 4.856 2.729h2.761l.286-2.729h2.126l6.728 3.364 4.253-.92 1.841-2.126 2.729.889 2.729-.889-.286 4.57 1.809 4.253-4.253 12.79-8.22 1.238-.92-1.841-3.65-.317-7.331 3.047-8.506-2.412-7.331-.317-1.206-1.841-6.697-.889-.92-1.841-5.491-1.206-6.411 3.047v5.459h-.286l-4.285 2.158-4.57-2.444-8.506-2.126-2.158-3.967-7.3-2.126-4.253.286-8.252-3.65-.603-1.841 4.888-3.936-2.444-3.682 2.444-3.65-2.444 1.523-2.444-2.444-7.014 2.158-5.459-1.238-4.285 1.841-5.173-1.238-10.981 1.841-4.57 2.444-3.332.603-4.57 2.444h-3.047l-.317-1.523-6.379.92-2.158-2.761-1.809.603-4.888 7.014-10.664 5.808-3.332 4.57-.92 5.459-.317.317-2.444 3.047-6.094 4.253-5.459 1.238-3.967 5.491-3.65 2.126-3.047 6.379-4.221 3.427-6.443 9.395-1.523 4.253.889-1.523 1.841 4.253-2.126 3.967.603 7.331-3.65 9.426-4.285 4.285 3.364 3.935-.317 2.444 3.682-.603-3.047 1.206-1.238-.889-.92 3.935h2.158l-2.158.92 3.047.317-1.523 1.206 1.841.317-.603 1.206 4.253-1.206-2.444.92 1.841.889-2.126 1.238.92 1.523 1.206-.603-.603 1.206 1.523-.92.603 4.284 1.841.889 1.809.92-.92 1.523 1.523.603.317 3.967 1.523-.286-2.126.603 3.332 3.333-.286 1.841 5.173 2.729 10.061 9.458 5.173 2.126 6.094-3.047 9.458-1.206 8.823 2.444 9.14-4.284 6.411-2.444 11.267-2.412-1.841 1.206 4.57.317 3.047 2.729 1.523-.92-1.523 1.238 2.126.286-1.523.317.635.92 1.523-.92-1.523 1.809 3.047 4.285 3.332-.317v-1.206l.603 1.206-.286-1.523.92 1.523.603-1.809 1.206 1.206 4.285-.317-.317-1.809 1.523 2.126 1.523-1.206 1.523 3.65 2.444-.603.603 1.206h-1.206l1.809 3.65-3.047 9.14 1.841.317-.317 3.047-1.523-.317 3.047 1.523-2.126.603-.92-1.206-.92 4.887h-2.126l4.57 8.22 10.061 9.743 2.126 6.094 2.444 1.206-2.126.635 5.491 10.949-1.841 3.047 2.126 4.284 2.126 4.856-.889 5.808-5.205 5.459-3.332 11.299.603 9.743 12.505 20.407 2.126 16.44 9.743 15.551 4.253 7.014.317 3.332-1.841 1.238 2.158 5.776 1.523-.92 4.57 3.047 10.346-3.332 8.823.92 8.855-2.444 13.107-9.14 4.253-5.49 1.841-2.126 4.856-3.967 3.967-10.346-.603.888-1.238-1.523 13.425-7.903 1.206-8.537-2.729-7.3.286-3.967.92.92 6.697-4.57 2.761-4.57 13.711-6.411.603-1.206 4.253-6.094-.889-8.855.889-.92-.603-6.697 1.523-3.047-2.729-2.126-1.238-.92v-.286l-1.206-7.934.92-2.126h-1.238l1.841-3.967-3.364-4.57 2.158-6.411 3.65-7.617.92-1.809 3.65-2.126-.92-1.523h2.444l9.743-12.822 10.346-8.22 7.617-9.743 10.061-23.454v-2.761l-.286-1.523 2.126-.603h-1.523l.286-6.379-2.126-.92-4.856 3.047-8.252.92-3.65 2.126-2.729-.92-4.888 2.444-6.379-5.808-2.761.317 3.65-2.126-.603-2.126-10.061-10.061-4.253-1.523-.92-1.523-.92-.92-.286 1.841-6.411-13.711-5.491-3.681-2.412-10.347.889.603-2.412-4.57-5.491-3.967-1.523-4.253h1.206l-3.047-2.444-8.22-14.313-4.57-4.888-1.206-3.935 3.935 5.776 4.57 3.364 2.477-7.62-1.556 6.097 2.761.286 10.029 12.187 1.523 3.65 4.57 2.444 3.682 6.094 1.206 5.808 7.3 6.094 9.775 13.71.603 6.982 4.856 11.902 6.411-.317 2.126-3.047 11.901-3.047 2.126-2.729 10.346-4.57.603-3.967 8.855-2.444.603-3.65 3.364-.603.603-3.65 3.332-1.238-1.206-5.49.92-1.809 1.206.92 2.126-7.934-5.173-5.776-5.491-1.841-2.729-2.444-2.444-4.856-.286-3.047-5.491 9.426-5.173-.286-1.523 1.206-3.364-1.523-.92-7.014-2.126-.286.603 5.459-4.253-5.459v-2.761l-5.808-4.253-4.856-7.332h-1.523l1.523-.889-1.238-1.841-.286-.317 3.332.317-.286-1.523 2.729 1.523 1.841-.603.603.603 6.697 8.823 3.967 1.238 5.776 3.967 3.967.889 5.173-3.047 3.967 6.094 9.458 1.841 5.776 1.523 13.108-2.729 1.841 3.333 1.809.317 1.841 3.65h.603l-.444-5.649-.159-1.65-3.65-5.808 3.65 5.49.159 1.968.444 4.729.92.92h.92l.286 1.523.92-1.206-.317 1.523 3.047 3.047 3.047-.635v1.841l-3.047 1.206 7.331 7.014 2.729-2.126-1.206-5.173 1.523.286-.603 1.238.603 1.523h.92l-.317 1.523 1.841 2.444.286 4.253 6.697 17.075 10.664 22.851 1.841 5.459 1.523 5.205 2.729 3.935 1.238-1.523v-3.047l1.809-1.206-.603-.92v-2.444l.317-1.206 1.206-.317-1.523-6.379v-7.617l-2.729-8.22v-2.761l1.206-.286v-2.444l1.841-1.238-.603-2.412 1.523-5.808v-4.856l1.523-2.444-.317-3.364-1.206-2.729.889-1.841-.603-2.126 1.523 2.729-.286-2.126 1.206 2.126-.603-2.126.603 1.523v-1.523l.603.92-.603-2.444 1.206 2.761-.889-3.681 1.206 2.761v-.603l-1.206-2.761h.889l5.808 11.267-.317-1.523.603 1.841 1.238.92 1.206 2.729 3.047 8.22 1.841 7.332v-1.523l.286 2.126v-1.206l.92 1.523-.286-1.841.603 1.841-.317-2.444.317-.603-.603-1.841.603 1.523v-1.523l-1.238-3.364 1.841 4.57.317-.286 2.126 7.903 1.809 6.094-.286-1.809 1.523 5.173.92 4.57.286.92.603 4.57.635 3.332v-1.523l.286 1.523.92 8.537.317-.92 1.523 6.697v.031l.032.095.254 1.111v.603l1.238 10.664.889 7.014 1.238 7.617v-1.841l.286 1.523-.603-6.982-.603-8.252-.317-3.935-1.523-7.014-.603-1.523-1.206-7.617-.603-2.444h-.317l-.603-3.364-.317-1.809-1.206-8.22v-.635l-.095-.254v-.032l-.222-1.238-.92-3.333.317-.92.92 3.967.286-.317.92 2.444 1.301 5.205.54 2.729v-.92l.92 3.333-.635-2.729-.762-4.253.762 3.65-1.523-7.617-.666-2.793-2.38-9.109-.222-1.492-.222-.825-.444-1.333-1.174-3.808.444 1.174-.508-2.539-.286-.317-3.047-9.426-1.523-4.284-.635-1.809-.603-2.126v.286l-.349-.889-.857-2.444.286.889-.603-1.523-.19-.476.032.19-.444-.92.317.317-.317-.635-.857-2.158-.063-.254.317.603-1.301-2.825-.222-.54.064.254.127.349.032.159.032.063.032.095.127.19.793 1.936-.603-1.206-.603-1.523.222.444-.54-1.365-.603-1.206-.603-1.841-.92-1.523.603.92-1.206-2.761-.603-.889v-.317l-.92-1.523-.603-1.841v.317l-.92-1.841.603.92-1.523-3.047-.92-1.523v-.286l-.92-1.523-.603-1.238-.286-.286-1.238-2.444-.286-.317v-.603l-.92-1.841-.317-.286-.92-1.841.635 1.523-.92-1.523-.571-1.143.571.857-1.238-2.444-.286-.286v-.031l-.127-.095-.19-.508-.286-.444v-.159h-.095l-.825-1.238.413.73-.413-.413v-.603l-.317-.317-.286-.603-.317-.317-.317-.603-.286-.286-.603-1.238-.317-.286-.317-.635-.127-.127-1.682-2.92-.317-.286v-.032l-.286-.571-.317-.317-.317-.603-.603-.603-.286-.635-.317-.286-.603-1.238-.317-.286-.603-1.238-.603-.286-.603-1.238-.317-.285-.603-1.238-.603-.286-.317-.92-.92-1.206-2.444-3.047-.286-.635-.317-.286-.603-1.238-.603-.286-.317-.603-.286-.317-.317-.603-.92-.92-.286-.603-.92-.92-.317-.571-1.809-2.158v-.317l-2.158-2.444-.889-.92-2.761-3.333-.603-.603-.317-.635-.889-.888-.317-.635-.603-.286-.317-.603-.603-.635-.317-.603-.603-.286-.286-.635-.635-.286-.286-.603-.603-.635-.635-.286-.286-.603-1.523-1.523-.317-.635-.603-.286-.317-.603-.603-.317-.286-.603-.635-.603-.603-.317-.286-.603-.635-.317-.286-.603-1.523-1.523-.603-.317-.317-.603-1.523-1.523-.603-.286-.317-.635-.603-.286-2.444-2.444-.603-.317-.317-.603-.603-.286-1.523-1.523-.603-.317-.317-.603-.603-.317-1.523-1.523-.603-.286-.317-.635-.603-.286-1.523-1.523-1.206-.603h.286l-.286-.317h-.159l-.159-.317-.286-.127v-.159h-.317l-1.206-1.206v-.032l-.317-.286-1.206-.603-.317-.635-.603-.286-.92-.92-.603-.317.603.635-.92-.635-.603-.603-.317-.286-1.016-.793.825.603-.698-.73-.635-.317.254.254-1.46-1.174-1.206-.984-.381-.254-.54-.286-.064-.127-.254-.159-.349-.349-.825-.54 1.777 1.492-2.126-1.523-.603-.317h.317l-.793-.54-1.047-.667.317.317-3.364-2.507-3.872-2.729-.381-.222v.254l1.555 1.079-1.872-1.079-.317-.603.635.349v-.032l.381.254 1.143.667-.635-.635-1.809-.888-.317-.635-2.444-1.206-.603-.603-.603-.317-.317-.286-1.206-.635-.603-.603-2.444-1.206-.92-.92-2.444-1.206-.159-.095-.032-.032-1.619-.793-.286-.285 1.904 1.079-1.999-1.174-.54-.54-2.539-1.27-1.428-.857.825.54-.508-.254-1.238-.603-.286-.286-1.841-.92-.286-.317-1.841-.92-.317-.286-1.206-.603h-.603l-.317-.317-2.444-1.206-.286-.317-1.841-.92h-.286l-1.238-.603-4.253-2.126h-.603l-.635-.317-.286-.286-3.65-1.841h-.635l-3.047-1.523h-.603l-2.444-1.206h-.603l-2.444-1.238h-.603l-2.444-1.206h-.603l-1.809-.92h-.635l-1.206-.603h-.603v-.317h-.603l-1.238-.603h-.603l-1.206-.603h-.635l-1.206-.603h-.603l-.159-.063.444.063-.793-.254-.317-.127-.635-.222-.667-.317h-.317l-1.047-.349-.476-.254h-.603l-.603-.317h-.444l.73.317-.825-.317h-.095l-.317-.159-1.174-.444h-.317l-.762-.254 1.047.254-1.428-.412.222.095-1.206-.285-1.238-.317 1.523.317-.317-.127.381.063-.159-.063-.571-.159-.857-.349.159.159-5.935-1.682-2.761-.603-2.285-.54-.127-.063h-.159l-1.365-.317-.635-.286h-.889l-1.238-.317-1.809-.286zm18.63 4.507l.127.063h.127zm.127.063h-.19l.698.19zm1.936.603l-1.523-.603h-.254zm1.206.444l.413.159h.095l-1.396-.603.889.444zm74.075 35.514l2.729 2.063 4.094 2.856 1.301.793-.825-.54-2.539-1.872-.508-.254-.095-.19-1.365-1.016-.667-.317-.54-.54-.064-.095-.095-.032-.54-.254-.286-.317-.603-.286zm9.077 6.347l.508.349-.159-.317-.603-.286zm1.587 1.174l.571.349-.286-.254-.444-.254zm89.88 117.397l.063.254.54 1.27-.603-1.523zm.063.254l-.159-.349.19.508-.032-.159zm12.346 40.211l.508 1.841-.127-.571-.92-3.65zm2.19 10.41l.349 1.809h.286l-.317-1.206v.92zm.635 3.332v-.603l-.254-.73zm0 0l.825 5.046-.222-2.285zm.825 5.046l.063.762v-.317zm-18.82-48.304h-.603l1.206 2.126zm-388.402-20.344l.254-.381-.92.92zM254.868 30.454l.54-.032-2.444-.317 1.904.349zm68.775-23.486l-.603.92h-2.729v.286l-1.238.92 2.444.603-.603.603.286.032-.603.603h2.761l-.92.603h3.047l-1.841-.603 1.523.286-1.523-.603 1.523.317-1.523-.635 1.238.317-1.841-.603h1.523l-.286-.317-.635-.92 2.444-.889-2.444-.92zm-.286 4.57l-1.523.286 1.206.317-.92.317h1.841l-.603 1.206 1.523.603 1.809-.286 2.761 1.206 4.57.317-6.411-1.841-1.809-1.206-.317-.635zm-88.071-2.761l-1.809.635h1.523zm110.319.317l1.206.317 1.523.603h.317l.603.286 1.809.635-2.729-.92h-.603l-.317-.317h-.286zm-116.095.92l-1.206.286h1.523zm-4.888.92l1.523.286-1.65-.254.127-.032zm113.969.286l-.92.317 1.206.286h.635zm-114.572.603l-1.809.317h-.92l-.603.603 1.206.317.825-.825 1.301.222zm-29.865.317l-.952.381.063-.063-.857.286h.222l-.508.159.825-.159 1.206-.603zm-2.126.603l-.857.317h-.064l-.222.127-1.301.476.92-.286-.603.286.92-.317.857-.286h-.254l.603-.317zm-.603.317l.54-.095.286-.19zm-1.523.603h-.603l-.666.317h-.254l-.698.286h-.222l-1.143.571h.064l.793-.254.889-.317h-.095l.222-.063-.127.063.92-.286.92-.317zm168.367-.793l.571.19h-.159zm-9.267 1.047l4.824 1.27-2.761-.603zm5.776.19l2.095.762 4.253 1.523 1.238.635.603-.317 2.126.603-2.729-.286-1.523-.635-1.238-.286-2.729-1.238.92.635zm-169.129.762l-.825.413 1.396-.413zm0 .317l-1.428.413-.19.095zm-1.619.508l-1.428.413-.635.19v.031l-.286.063h.286l1.238-.286-.857.159 1.46-.476zm-2.349.698l-1.523.635-2.126.603-2.158.92 1.238-.317-2.126.603h.603l.603-.286h.317l1.047-.444.762-.19 1.238-.603 1.206-.286zm0 0l.286-.095v-.032l-.286.127zm.286-.127l.413-.159h-.413zm.413-.159h.222l.603-.317.095-.032.698-.222h.064l-.571.254.73-.19.159-.095h-.159l.19-.063-.222.032-.032.031h-.349l-1.428.603zm-6.792 2.729l-3.364 1.238-4.57 1.809-.603.317-.317.286h.317l-1.999.857.476-.254 1.206-.603v-.286l-2.412 1.206v.317l-.92.286-3.047 1.841 4.57-2.126-1.238.92 2.158-1.238-.317.317 1.206-.603h.317l1.206-.635h.635l1.111-.825 1.016-.381-2.126.603 1.523-.603.286-.317 1.809-.508.952-.381-1.841.603 1.523-.603-.92.286-.92.317 2.158-.92-.635.317 1.523-.635h-.286l.92-.286zm-2.761 1.238l-.603.286 1.523-.603zm-8.506 3.332l-3.047 1.238-.92.603-2.444 1.206-.603.317h-.349l-.317.159-1.174.444-1.206.603-.92.603-.603.317-1.523.603-3.967 2.761 6.601-3.745.698-.222-4.253 2.444 2.729-1.523 4.888-2.444 1.27-.762-.666.444.984-.603 2.38-1.111zm-2.444 1.333l-.317.19 1.238-.603zm-4.919 2.031l1.777-.889-2.031.889zm179.189-10.981l1.206.603 2.444.635v-.317l-.603-.317h-.317zm-149.293.317l-.92.286-1.523.635.603.286-1.523.317 2.158-.317 1.523-.92.603-.286zm176.714.286h.317l2.412.92-2.412-.603zm-87.754.92l-1.206.92 1.809-.92zm18.884 0l-.286 1.238-2.126-.317zm31.388 0l-.286.603 1.809.635.92-.635zm40.529 0l1.523.317h-.92zm-94.768.92l-1.523.603h.92zm.635 0l-1.238 1.206 3.047-.889-1.523.286zm99.021.92h1.206l-.317.286zm-68.267.286l1.238 1.238-1.238.286zm-12.187.317h3.364l-.603.603zm-121.237 1.968l-.317.159-.92.317zm190.107.476l.286.603-2.412-.317zm-144.722.286l-1.841.92h-2.444l-.889.92.286-.92-2.444.92-.286-.603-.317-.317-3.332 1.841 1.809-1.523-1.523-.92-.603 1.206-.603-.603-.92.92-.92-.317-.286.635h2.729l-2.126.603.92.286-3.967.317 3.047 1.206-3.967 1.238 3.047-.317 1.206.317 1.238.603 4.253-.603 4.57-.92 3.65-1.523-.603-.317h1.238l-.317-2.126 1.523-.603-1.841.603zm161.765 0l1.841.317 2.444 1.206v-.286l2.126.603 3.65 1.841-3.967-1.841-1.809-.603.286.286 7.014 3.681.54.381 1.587.825 5.491 2.444-5.491-2.126-1.587-1.143-7.236-3.745-3.047-1.206zm-75.249.635l.92.889-1.523-.286zm-131.012.889v.317l-2.285.444zm190.424 1.523l5.173 2.761 1.238 1.523 10.664 3.65 7.903.317 6.728 1.523.444.19.444.095 4.57 2.126 1.238.317 2.126.92 5.776 2.444 2.158.889 3.047 1.523-5.205-2.412-7.617-2.761-1.523-.92-5.014-2.222-5.332-1.111-8.22-.317 2.444 1.238-14.631-5.49-2.126-1.841-4.285-2.444zm-66.109.92l3.047.92h-2.729zm15.837 1.523h.317l2.729.92h-1.523l.603 1.206zm14.028.317l2.444 1.206 8.22 2.444-8.22-2.126zm-29.262.286l5.491 2.761-2.444-.92.317 1.174-1.523-.571.603-.92zm14.314.317l1.238.603-1.523-.286zm-15.837.603l.603 1.841.317-1.238 1.206.635-.889-.92 1.523.603-2.761 1.841.286 1.333.286.159 1.555-.286-.286.92-1.27-.635-.254.031-.032-.19-.889-.444.603-.889.603-.92-.603-1.238-1.206-.286 1.206-.317zm18.598.603l3.047.92 3.047 3.047-.92.603-2.444-.286 1.841-.317-3.967-1.523-1.523-1.809 2.126 1.206-1.206-1.206 1.809 1.206.92-.317zm-163.321.635l-1.143.413-.19.127zm-1.333.54l-.19.063-3.047 1.523v.286l1.523-.889 1.714-.984zm-3.237 1.587l-2.476 1.46.667-.254zm-2.476 1.46l-.222.095.571-.349-1.206.603.413-.159-3.174 2 3.174-1.968-.127.127.571-.349zm-3.618 2.19h-.286l-.317.317zm9.521-5.364l.222-.127-1.523.603zm153.482-.413l1.523.286v1.523l-2.729.92 1.523.317-2.444.286-1.523-1.206 1.841.286 1.523-.603-2.412-.92h3.015zm-11.87.889h2.126l.317.635-2.158.286v.92l2.158-.92-1.523 1.238-.635-.317v.317zm16.154.92l5.776 2.761-2.729 1.523-4.888-3.047zm-165.161 3.364l-.889.476.603-.19zm-.889.476l-.317.127-.508.349zm-.825.476l-1.016.571-1.841.92-.889.603-1.238.603-3.65 2.126 2.444-1.523-2.761 1.523 3.364-2.126h-.317l-3.047 1.841-6.697 4.253-3.967 2.729-3.428 2.444 1.016-.603-1.238.92h-.19l-.413.286-7.617 5.49-1.523 1.238-.317.285h.317l-.317.317h.317l-4.253 3.333 3.364-2.825.571-.825-1.809 1.523-.603.603-.19.095-1.555 1.238-.095.19-.413.222-.349.254-.444.444-.222.127h-.032l-.381.19-.063.19h-.032l-.032.095h-.159v.317H99.1l-.286.317h.286l-.92.286-.286.603-.603.317-1.238 1.206-.603.317-.317.603-1.206.603-.317.635-.603.285-2.126 2.126-.603.317-.317.603-.603.317-1.65 1.65-.19.159-.286.317-2.444 2.444-.857.793-.063.127-.286.286-.19.095-.444.413v.095l-.889.825-.317.413-.825.603-.063.063-.19.159-.476.444-.032.032v.032l-.254.476-.603.317-.603.603-.317.603-.286.635 2.444-2.761-.92 1.238 2.126-1.523 1.206-1.523-.286.603 3.65-2.761-2.126 1.841h.92l-1.523 1.206.889-1.206-3.65 2.729-2.126 2.444-.92 1.238 4.285-3.967v.603l.889-.92 2.761-1.523.92-.603.476-.73.762-.476h-.349l2.761-2.158 2.444-2.412-4.285 3.332-.984 1.206.381-.603-1.523.635 1.523-2.158.92-.889 1.523-1.523h-.317l2.761-2.444-.92.603.92-.92v-.286h.603l1.809-1.238 2.444-2.126-.286-.317-2.761 1.841-3.332 2.729 1.809-1.809 4.285-3.047 2.729-2.126.92-.92h3.332l.635-.317.063-.159h.032l3.84-2.571 1.841-.603 3.364-1.841.889-1.206.635.286-.317-.603h.603l.603-.603 2.158-1.523 1.206-1.238-2.126.92 2.126-1.523.317-.603-2.095.984 1.777-.984-1.523.603 3.65-1.523v-.603l.92-.603-.92.286 1.238-.889-2.158 1.206 1.841-1.206.317-.317-.73.476-1.111.444 3.364-2.126v-.635l1.206-.603h-.317l.635-.603.603-.317.286-.286 2.158-1.238.889-.889.92-.317.92-.92.92-.603 1.206-.603-1.206.286 1.809-.889 1.523-.92h-.603l.92-.317 2.539-1.777zM88.754 74.917l-1.238 2.126 2.158-1.523h-.92l1.809-2.126zm1.523.889l-1.682 1.714.762-.476h.317l.286-.603zm-1.682 1.714l-.73.444h.286zm-10.219 5.903l-.286.317-.603.317-.317.286-.317.603.317-.286h.317zm1.809-2.063l.349-.349-.317.286-.032.063zm2.761-2.603v-.19l-.286.286-.444.571zm17.836-16.186l.254-.222-.095.063-.159.159zm32.436-23.01l1.238-.603-.92.603 2.126-1.206h-.286zm190.139-3.65l.603.603h-1.841zm38.688.92l3.364 2.729-.317.603.92.698.349.222h1.777l-.92.317 1.523 1.206-2.38-1.523h-.064l-.286-.222-.603-.381-1.841-.317 1.206-.603-1.809-.317.603-.603-1.523-1.809zm-96.577 1.523h2.126l-.603 1.523-3.967.889.603-1.523h1.841zm58.492.286h2.126l-1.206.317.92.286 2.729 1.238-.603 1.206-4.285-1.809 2.761.603zm-36.879.603l1.238.635 1.523-.317-1.523-.317zm14.028 0v1.523l-1.841-1.206zm-79.82.92l-1.523 1.841h-1.523l-.317 1.809-2.444 1.238h2.761l-3.967 3.65 2.126-1.523 1.841-.92.286.92-.889-.317-2.444 3.047.286.635.635-.635 4.57-.286-2.158 1.206.635 1.238 1.206-.317-1.523 1.841.603.603-4.253.286-1.841 1.238 1.841-.317v1.238l-4.888 1.809 4.57 1.523 3.65-1.206-2.729 1.809h-3.364l-5.776 3.364 6.094-.603 1.206-1.238 10.061-.286 4.285-1.238.286-.603-3.047-.286 1.841-.317 3.332-2.729-.603-1.238h-3.967l.92-1.809-.603-.317h-1.206l2.126-.317v-.889l-2.444-1.238-.603-3.65-3.967-.603 3.364-.317-1.841-.286 2.444-.635 3.047-2.729-6.411.317 4.888-2.761h-4.57zm-3.047.317l-2.761 1.206-.286.603 1.523-.603zm68.553 0l.603 1.206 3.047-1.206zm23.454 0l1.206.92-2.126-.317zm-30.468 1.523l-2.126.92.286 1.206zm85.31 0l2.444 1.523-2.126 1.206 1.523-1.523zm-24.374.286l.317 3.047-2.158-2.412zm-124.918.317l.603 1.523.317-.603zm38.402 1.206l2.126.317-1.841.317.317.889-.92-.603-1.206.603zm87.722 1.238l3.967 1.523 3.967-.603-3.967.889-3.967-1.809zm-126.124.286l-1.206.92 1.809-.286zm-91.721 1.238l-1.206.92.603-.635zm138.026 0l-.603 1.206-.603-.92-2.761.635 2.761 3.332v-1.206l2.126-1.523zm99.624.603l.92.603-.603.317-3.65 1.809.286.635-.286.889 1.523.92 1.809-.286-.603 1.523 2.444.286-2.126.603.603-.286-3.967-2.444.317-2.729-.603-.92 1.523.603 2.729-.603zm-104.194.603l-1.809.317-.317 1.206h2.126zm167.891.317l.92.603.222.762.317.349 1.872 1.365 2.761 1.777-2.444-1.523-.317-.254-1.523-.952-.349-.412-.254-.19-.064-.159-1.143-1.365zm4.253 0l.603.286 1.523 1.238zm-219.369.286l-1.206 1.238-.317-.603-3.047 1.523h1.523l-1.523 1.206h-3.967l.635 1.206-2.444.92 3.047.603-3.967 2.158 3.65-.317-5.173 1.206h1.523l-2.444.92h2.444l-2.126.92 2.126-.317-1.206.635 5.173-1.238 5.173-.92 2.444-5.173 3.332-1.206-.603-2.126-3.332.603 1.206-.603zm-91.404.92l-2.476 2.063.952-.825zm313.756.286l.762.539-.095-.222zm-20.947.031h1.206l.317 1.206-1.523-.286zm-293.095.603l-2.444 1.841.286.286-1.206.317.92-.603-1.238.603-1.523 1.206.92-.92.603-.286.413-.381.508-.222.444-.317h-.127l1.809-1.206-1.682 1.206h.159zm146.849.603l-1.238.603 1.238.317zm-153.863 4.57l-1.523 1.238v-.317zm275.417 2.126l1.841 1.238-1.238.286zm57.191.73l.698.508-.286-.317zm-84.897.19l-1.523 1.523.603 1.841 2.444 1.809-1.841.317V62.73l-.603-.92-1.238-1.841zm-246.79.603l-4.888 3.047-2.444 2.158-2.126 1.523-.603.285-1.238 1.238.317-.635-3.047 2.158h.92l-3.047 1.809-.92 1.238 1.523-.92.317.92 2.412-1.238-2.126 1.523 2.126-.603-3.65 2.126h.92l3.967-3.047-1.238 1.523-2.412 2.126 2.126-1.523-2.126 2.158h.603l3.65-3.047.603-.92-1.523.92 2.761-2.158-3.047 2.158.889-.92.92-.603.317-.635 1.809-.889-1.523.286 3.682-2.729h-1.238l1.238-.92-2.761 1.523 2.126-1.523-1.523.317 2.444-1.523h-.286l.603-.635-.92.635 4.57-3.364.603-.92h.603l.635-.92zm332.1.635l1.809 1.206 2.126 1.841zm-341.589 1.079l-.286.127-.286.317zm-.571.444l-.603.286-.19.349zm341.24.889l1.809 1.238.317.92-1.841-1.523zM283.75 64.254l.286.889v.317l-.286-.92zm-183.41.286l-1.523 2.444.889-.603.635-1.238zm218.448 0l11.267 4.284 1.523-.317 1.206 3.65-3.65.317-.603 1.809-3.047.635 2.729-.635.317-2.412h3.364l-.317-2.158-12.79-5.173zm119.428.317l.254.762.92.508 1.27.54.603 1.523 1.206.92v.603l2.444.92v.603l-3.047-1.523-1.523-3.047-.952-.54-.857-.349-.064-.159-.857-.476.603-.286zm-84.104.92h.317l.317.254 1.523.635v1.523l-.317 3.364-2.444.317-.603-1.523 1.841.603-.635-2.126h1.238l.92-1.523-1.523-1.27-.635-.254zm94.451.285l1.238.92.286.317zm2.761 3.047l.92.603.889 1.523zm-71.599 4.284l4.856.286 1.238 1.238.92 3.65 2.126.603-5.173-.317-.317 1.841L385.5 81.9l-3.65-.286.317.92 2.126.603 3.047 3.65 4.856 1.523.317 2.126 3.364 3.65-1.523-3.333 1.809-.603 5.173 3.936-2.126 1.523-3.332-1.523.889 2.761 1.841 2.126-.92-1.206 2.126.286 1.238 1.841-1.523-.603.603 1.809.92-.92 1.809 1.841 3.967 7.934-6.379.889-10.061-3.936-3.047-4.887.603-1.523h.317l-.92-3.047 2.126-.92-3.047-.92-8.537-6.982-2.444-4.57v1.523l-3.935-3.967v-3.65l3.935-.317v-2.729l4.285-1.523zm54.239.889l6.697 1.238.92-.92-.317 1.523-6.094-1.523v2.444l2.729 3.333-3.65-2.729-.603-2.126zm-346.921.444l-.413.19-.317.286-.159.286zm359.108.793l2.412 2.126-2.126-.92zM76.568 85.264l-.603.317-.317.603zm171.541 1.841l-3.364 2.412 1.206 3.047 2.158-2.126zM73.712 88.12l-1.111 1.111-.159.222.476-.222zm-1.27 1.333l-.159.063-.159.349.317-.413zm-.317.413l-.444.571.317-.286zm378.881-1.555l.92.317v1.523l-3.047-.92zm15.551 2.126l.92.92h-.92zm-395.003.159l-.793.762-.095.127-.19.19-.063.127-.444.571.063-.032.317-.413-.19.349.317-.317zm-1.396 1.682l-.127.063-.159.222.286-.286zm-.19.095l-.413.19-.317.635.317-.317zm176.619 1.111l-3.967.92.286 7.3 4.285-1.206 1.206-4.57zm-177.952.317l-.286.286-.92 1.238.286-.317zm-1.206 1.523l.127-.286-.73.889zm-.603.603l-.92.92-.127.254zm-1.047 1.174l-1.111 1.27.92-.92zm-1.111 1.27l-.286.286-1.016 1.333 1.016-1.015zm-.889 1.206l-1.365 1.809.73-.889zm-1.365 1.809l.222-.444-.698.92.317-.159zm-.476.476l-.317.159-.286.603zm-.603.762l-.603.603-.286.603zm-.889 1.206l-.571.762 1.396-1.746zm-.571.762l.317-.476-.984 1.238.286-.286zm-.666.762l.095-.159-.413.476.286-.254.032-.032v-.031zm.095-.159l.889-1.079.095-.127-.793.762zm3.332-4.253l.73-.952-.508.508zm4.919-5.903l.793-.952-.635.635zm309.408-.952l1.841.92-2.729-.286zm-152.625 3.967l-3.364 1.523 2.126.92 2.158-1.523zm84.707 2.126l-1.841.635 1.841.889h1.206zm25.263.92l1.238 2.444-1.523-.92zm-36.244.317l-1.841.603 6.094 3.364-1.206-2.444zm72.203.286l-.92 2.444-3.047-.603zm-82.549 1.841l-.635 1.206 1.841.317zm-18.281.92l-11.901.92.603 1.523 8.537 3.333zm107.526 0l3.047 3.332-1.206.92-3.047-3.967zm-317.755.603l-.603.889.159-.159zm-.444.73l-.222.413.317-.508zm-.222.286l-.476.73.222-.222.063-.159.095-.064.063-.095-.063.032.095-.222zm-.635.92l-.54.508-.317.603-.127.127.127-.444-.476.793.19-.159.127-.159-.127.444zm-1.333 1.587l-.413.444-.317.603-.603.603-.127.286-1.365 1.809-.032.032v.032l-.095.159-.19.413.825-1.143-.317.349.857-1.111-.476.698.317-.286.349-.698 1.174-1.46.413-.73zm-2.317 3.237l-.54.857.571-.857zm437.881-3.396l1.841 2.412-.317-.286-.603-.603-.603-.317v-.603zm-174.587 2.729l-2.126 1.206 1.238.635zm-264.214 1.904l-.54.54-.286.54zm-.857 1.143l-.54.73.254-.127zm-.286.603l-.603.603.349-.476-.349.19-.635 1.238.635-.635zm-1.238 1.555l-.286.286-.317.603.317-.317zm290.968-2.158l-8.22 2.444 3.047 2.126 3.65-1.523-.889-1.206zm-41.735.317v1.523l4.57.889h5.491l.317-1.206-1.841.92zm-249.868 2.793l-.254.254-.222.412zm-.476.666l-.603.889.19-.095zm-.603.889l-.413.222-.73 1.428zm-1.143 1.65l-.413.603.222-.222zm-.476.698l-.317.286-.381.73zm-.698 1.016l-.825 1.27.286-.159zm-.825 1.27l-.317.159-.603 1.206zm334.829 1.047l4.285 1.841 3.935.603 1.238 1.841-1.523-1.841h-2.761zm125.014 1.365l.381.667.127.127.222.413.635 1.047-.222-.254-.413-.793-.349-.54-.159-.19zm1.523 2.507l.317.508-.095-.095-.222-.413zm-7.109 4.983h.92v1.523zm10.981 1.365l.095.159h-.095zm.317.571l.095.19h-.095zm-358.315 5.078l-2.126 1.523 1.523-.635zm351.301 0l.92.888v.92zm-353.428 1.809l-3.047 3.047 1.809-.603zm-8.22.92l-3.047.92.286 1.523zm.889 1.523l-.603 1.206 1.523-.286zm285.509 5.173l-3.047 1.841 2.412-.92zm81.629 3.047v2.444l3.047 7.3-3.332-7.3zm-1.523 5.173l4.285 4.887-2.761-2.729zm-166.653 4.57l1.523 4.888-4.253.92-3.967 5.173 2.444-4.887 3.65-.889zM17.442 180.635l-.286 1.206-.317.92h-.286l-.635 1.841v.286l-.603 2.126v-.603l-.286.92-.317 1.047v-.127l-.92 3.047.603-1.841.317-.603v-.127l.603-1.396v1.206l.92-1.809.317-2.126.286-1.238v.317l.603-1.841zm-.286 7.014l-.92.286-.603 1.841.603-.317zm517.637 0l.317.286v.92zm-397.003 7.903l3.047 2.444 2.158 4.57-5.205-6.697-6.982.286zm-120.348.603l-.603.92-.286 1.523.889-1.206zm359.838 3.047l.317 1.238 1.809.286-1.809-1.523zm-198.962.92l1.523 1.841-1.206.286zm361.648 3.047l.92 3.967.349 1.016zm-281.193 4.887l.889 3.047 1.841-.92v1.523l4.253.603-5.459 2.761-3.364-6.411zm275.417 4.856v1.523l.603 1.238zm-101.147 1.841l2.729.92 1.841-.92zm-425.63.317l-.92 3.936-.317 1.523.159-.127.159-1.079.603-2.444zm-1.079 5.332l-.159 1.015v-.254l-.92 4.57v.889l-.286.92-.159.857.159-.54-.095.571-.127.381.063-.413-.159.667-.127.984.127-.73v.254l-.127.476.127-.381v.317l-.159.286-.032.095v.032l-.032.222-.063.476v.413l-.063.222v-.254l.063-.381v-.508l-.127 1.27-.095.73.127-.793-.222 2.444v-.286l-.19 1.27-.032.127-.095.73-.889 6.697-1.238 11.267v2.761l-.286 4.57v.92l-.317 3.332v17.678l.317.603v2.761l.254 3.269.032.063v1.841l.317.603.286 2.444v.286l-.286-2.412-.317-.635v1.841l.317.92v3.047l.286.603v2.444l.317.603v2.444l.317.603v2.126l.889 6.697 1.523 8.537 1.238 6.094 2.126 9.743.317 2.444 1.809 6.697 1.841 5.49.92 3.364 1.809 5.173 2.444 7.014 2.444 6.379 3.65 9.14 3.65 8.252L35.12 406.7l2.444 4.253.317.317 1.206 2.444 7.934 12.187 7.3 10.664 2.126 3.047.603.92 6.411 7.903 4.888 5.808 1.206 1.206.317.413v.19h.159l.73.92 2.444 2.444 3.047 3.333.92 1.238h.317v.286l5.173 5.205h.286l.762 1.016.571.508h.127l.159.254-.286-.254h-.095l.603.603.317.286-.349-.476.508.476h-.159l.286.317 1.841 1.841-.793-1.079.127.095.063.063.73.92h-.127l.381.317.222.286h.127l1.079.92.92.603v.286l.92.635-.603-.317 1.523 1.206 1.523 1.238 1.206 1.206.698.603h.222l.159.349.032.032 1.016.857.92.92 1.523 1.206.603.603.603.286.032.032 1.206.92 1.523 1.523 1.841 1.523 1.523 1.206-1.841-1.523.603.317.317.286 1.079.92h-.159l2.253 1.555.381.317.54.381.159.19.286.159h.032l.063.063.857.698.19.127.032.032.698.381.825.603-.222-.254.095.063.476.381.127.127.254.222-.73-.54.381.381.444.286h.063l.127.127-.19-.127h-.159l.317.317 1.523.92-.317-.317.635.318.603.286.286.317.444.444 1.999.762-.92-.921-3.935-2.126-2.126-1.492.286.286-.603-.317-.413-.19-.063-.127.476.317-.476-.349-.095-.19.698.444-2.888-2.031-.603-.603-2.729-2.126-.317-.317-1.809-1.523-3.364-2.729-.317-.349v-.286l-3.332-2.729-6.094-6.094-.92-.603-3.65-3.047-2.444-2.761-.603-.889-4.285-4.57-1.523-2.158-1.523-1.206v-.603l1.238 1.206-.603-.92-1.841-1.809.92 1.206-1.523-1.206-4.285-4.887 2.158 1.523v-.92l-4.888-5.776.603.317-2.126-2.158 1.523.635.317-.635.603-.889-.317-1.841-2.444-4.57-1.809-2.126-1.523-1.238-1.523-2.729-3.967-3.364-3.364-5.459 2.444 3.333 1.841 2.444 3.047 1.523 1.809-.92-2.126-6.379-2.444-5.205-1.523-5.776-1.206-1.523 2.126 1.841 1.523 6.982-.286-3.935-1.523-4.887-.92-2.729v-3.364l-2.444-5.776-2.126-3.682-.603-3.047-.92-.889.92.286-.317-3.333.92-3.364 1.809-.317.635-3.935 2.126.603.286-1.841.635 1.238 2.126.286-.603-2.126 1.523-2.444-.92-2.126.286-7.3v-1.238l-1.206-5.491.317-3.047-4.285-22.534.317-1.206.92 2.126.603-1.841 3.332-12.473 2.444-7.617-.286-5.808-1.841-7.903-1.206-1.841-4.285-.603-4.253-6.094-3.967-3.967h-5.776l-3.047-2.444-2.761 4.888v-3.65l.603-1.238-1.206.603.92-2.126-.92-3.047-.603 2.126-.317-2.412-.603.888.317-1.206-.635.92-.603-1.841-.286 1.238-.317-2.158-.317 1.238-1.809-2.761-.317 1.238-1.206-.92-.92 3.967.92.285-.603.92-.635-1.523-1.523 4.887.317-3.364-2.126 1.238 3.047-2.158.92-5.776-3.967-.92-.603 4.284-.317-2.158-.603 2.158v-2.444l-.603 2.444.603-4.57 2.444-6.094h-.317l.317-2.444-1.523-1.841-.317-10.346-.317-.603-.286 1.523-.92-4.285-2.444-4.253-4.253.286-.92-5.173-.603 2.444.603-4.57-.317-3.047-.603-2.444v-.603l-.92.317.635-4.285-.317-2.126-.603.603v-2.729l1.206-1.841-2.126.317.317.92-1.238 2.126-.286-2.761-.92.635.603-3.364-.286-1.047-.032.127v-.92l-.286 1.238-.159.159zm.444-.762l.032.159.286-1.079h-.159zm.159-.92l.476-2.444-.635 2.444zm109.97 279.226l-.444-.349v.191zm-.444-.349v-.095l-.889-.603.889.698zm-5.237-3.586l.063.127.603.317-.666-.444zm-1.46-1.079l-.698-.571-.508-.349 1.809 1.523-.286-.317zM4.144 232.588l.063-.667-.159.508v.92l.063-.508zm363.996-16.916l-.603 3.333-1.523-2.412zm-153.545 4.57l2.729 2.126-.92 4.253v.635l-.286-.635-.92-1.809 1.809-2.444zm-202.929 2.444l-.92.603v1.809l-.603 1.238.92-.317zm504.244 4.57l-.317.286-.286.317h.286l.92 1.206-.603-.603v2.444l.064.127v.032l.539 5.015-.603-.92 1.206 4.348v.54l.317.603.92 4.887 2.126-.92.92-3.967-2.126-7.014-3.364-6.379zm-506.37.603l-.603 4.856.286.317-1.999 2.761-1.047 1.809-.286-.92-.635.92-1.523 7.014.635-4.57.889-2.444.635-1.206.286 1.206.603-1.206.444-.603 1.396-2.444.317-1.523zm180.681 3.047l4.856 5.776.317.603.92-5.776-1.238 13.393v-1.523l-.286-.286-3.364-1.523 3.047.92.317-.635.603-2.412-.603-.92-.92-.317h-2.126l2.729-.92-3.047-1.523-.603-2.729h-3.364l3.047-.317-.286-1.809zm34.118 2.126l1.809 3.967-1.809 11.267 1.523-11.584-1.523-3.65zm-53.636 2.444l-1.206 3.332.603.92 1.206-.92-.603 2.444-1.809-2.126zM7.699 237.286l-.603 4.284.317-3.65zm531.982 2.761l.603 1.809v-1.206zm2.444 7.3l.889 4.57 1.523 4.57.92 6.697.92 2.761.317 7.014.603 3.936v1.238l.286 11.267.317 10.346-.317 2.761.317-1.841v1.523l-.317 3.047v-.286l-.063.571-.222.952v.889l-.317 2.158v.889l-.222 2.317.222-1.079v-.317l.603-4.253v-.317l.317-2.729v-1.523l1.206-16.757v-.603l-.286 1.523.286-2.444-.286-.603.286-4.57-.286-1.523v-6.094l-.063.317-.254-.952v-.603l-.92-7.014v2.444l-.603-5.173-.286-1.523-1.238-4.253v-1.523l-1.206-3.967-2.126-1.841zm4.634 65.379l-.698 3.491.317-.92.317-1.841.064-.73zM15.03 250.393v1.841l-.635.603zm349.143 1.523l2.126 10.981-3.65-6.094 1.523-4.887zm-128.251 4.284l-2.444 1.809v.317l1.206.603zm307.726 4.57l.889 2.126-.603-2.126zm-263.547 1.809l-2.158 13.71 3.364-7.014 3.967-2.126 3.332-1.809.92-.635 9.997-.825.381-.063.064.032.54-.032 10.061 6.982-10.6-6.95-.444.031-10.918 2.349-3.332.92-4.285 3.047.317 3.967-10.664 10.346-.317 4.284-.286-3.967 7.617-8.537 2.444-13.711zm62.745.317l-.92 3.333-3.332 3.047-.317-2.126zm9.458 3.333l-1.841.635.603 1.523-3.047-.92zm192.868.635v.603l.286 1.809.317 2.158v-2.158zm3.047.603l.286 1.809v-.889zm.286 1.809v.635l.317.889zM351.7 271.721l.603 1.523 2.126-.286 1.206 3.047 2.158-1.238.603.92-3.65 1.206-.317 4.57-3.65 2.444 3.047.92-2.126 1.523-2.158-.603.317 2.126-1.206.92.286-2.444-2.729-1.206-1.841 2.729-.92-3.967 1.841-9.426 3.047-1.523 1.523.889zm-328.45.92l-1.523.603.603 1.238zm312.296 2.126l-2.444 2.444.603-2.126zm-332.417.603l1.238.317.095.317h.19l.92 3.174.603 1.682 2.126 8.537h1.777l.159-.635.508-3.015.286.127.032-.127.286.317.635.286.889-2.729h1.523l.635.603v1.523l.603-.317 2.126-3.65-1.523 2.729-.603 1.238-1.238.286-.286 5.49v-6.094l.603.317-1.206-.92h.603l-.603-1.206-1.523 3.047-.635-.603-.317-.19-.793 2.888-.095.635h-.063l-.254.92-1.206-.92-.317.603-1.523 3.364-.19-.508-.095.19-.317-1.206-.603 3.65-.317-1.841v-.286l-.889-3.047v.92l-.635-3.967-.603-1.238-.603.317.92-.603 1.206 5.173.92 2.729.603-1.809.413 1.016.825-1.619v-1.841h.889l-.603-.603-1.523-7.617-.603-2-1.111-3.174H2.843zm237.65 2.761l1.523.603-1.523.92zm305.917.92l-.317.889.317 2.761zm-534.711 1.523l.889.603v1.523zm269.641 1.206l-1.238 1.841 1.523.603-1.809 2.729-.635-4.57zm49.955 0l1.523 2.126-2.444 2.126zm-311.978.92l1.809.286-.603 1.841.317 1.206-.92-3.047v2.444zm527.38 4.856v2.761l.317-1.841zM2.527 290.319v.603l-.603-.317zm330.259 0l2.761 11.584-1.238 2.126 3.967 3.333 2.444 8.537-3.047-1.206-1.523-5.808-4.253-5.459.286-9.775-.92 1.238 1.523-4.57zm45.099 11.267l-.603 2.126 1.523 1.523-.603-2.444zm-33.515 8.823l2.761 2.444-2.761-.603zm-10.346 4.285l1.809.286-3.047 1.841zm-2.761.603l-2.126 3.967-1.809.286.286-2.126zm22.248 4.253l2.126 2.158 1.523 6.982-1.523 4.57 1.841 9.14-2.729-1.206-2.158-8.823 1.841-2.761-1.206-7.903-.317-1.238h.317zm-19.201 6.411h.317v1.841l-1.523.603zm59.412 2.444l-.603 1.523.92.92zm24.089 2.729l-2.444 2.126-.317 4.284-2.412 2.126-1.238-.92v3.047h-.92l-1.809 3.65.286-1.809-2.126 2.444.603 1.206-1.206.603.317-1.809-2.158 1.523v2.126l-1.206-1.238-7.3 2.158-3.047 6.094.603 11.267-4.888 5.776-1.809 4.57.603 11.901 3.332 1.809 8.537-2.126 14.948-30.15.889-4.57 1.841-1.523v-6.094l1.206-.317.635 2.444 1.523-2.444-.635-11.267-2.412-3.364.603-1.523zm-19.804.317l-.92.603 1.206.92zm-68.87 21.01l-4.253 1.238-5.173 5.173 3.935-5.173zm-284.875 7.331l1.841 3.047-.317.889-.92-.286v-2.126l-.603.603zm397.923 8.22l-1.238 2.444 1.523-1.238zm-395.162 2.444l.286.889 1.238 1.841-1.841-2.126-.603.603 2.444 3.364-1.238-1.523-.286.889v-1.206l-1.523-2.126zm387.545 1.523l-1.523.603 1.523 1.523zM44.261 382.326h1.238l.286 1.206zm-5.173 17.36l3.364.92h-3.364l3.079 7.205.286.413 1.523 3.047 1.809 3.047.603 1.523 1.238 3.047 3.332 5.491-3.332-5.173-1.238-3.047-.889-2.158-1.523-2.729-1.238-2.126-.571-1.333-.349-.508-2.729-6.697v-.92zm274.814.603l-.92 1.841-1.65-.54h-.063l1.111.857-1.523-.635.413-.222-.095-.063.159.063zM43.055 413.714l.603 1.523-.92-1.238zm14.314 6.379l1.523 2.761h-.603l1.206 3.047-1.206-2.126zm-3.047.92v1.523l.603.92-.92-.317h-.286zM84.441 471h.032l.095.19zm.952 1.016l.984.889-.984-.793v-.095zm332.1 8.125l-3.047 3.333 1.523-.92.92.92-.317-1.206 1.523.286 1.238-1.206-2.761.603 1.238-.92-1.523.635zm-308.932 7.903l2.126 1.523.317-.286-1.238-.92.92.92zm2.126 1.523l.603.92.92.92-.603-.92v-.317zm-3.047-1.206l1.841 1.206.603.92.603-.317-1.841-1.809h-.603zm2.285 4.539l.666.413-.222-.095-.444-.317zm33.07 3.078l5.776 2.444-3.364-2.158zm-24.374 3.047l1.523 1.206.889.317zm38.085 19.804l.889.603.317-.317zm-.635.286l1.523 1.523 1.428.888.095.032 2.285 1.428 1.682.698 1.841 1.238 2.126.92 3.047 1.206-1.016-.222-2.349-.984 2.031.92-.19-.032.635.222 1.492.698h.317v-.286l3.047 1.523 3.65 1.587.92.222h-.317l.92.381 1.523.222.603.635 2.444.889 2.444.635 2.729.889 2.126.92h.317l4.57 1.523h.254l-.413-.127-.127-.127.666.254h.54l1.206.603h.603l.635.317.889.317h.635l.603.286h.603l.603.317.92.285h.603l.603.317h.635l.889.318.635.285h.603l.603.317h.603l.92.286h.603l.603.317h.635l.889.317.635.286h.603l.603.317h.603l.92.286h.603l.603.317h.635l.889.317h1.238l.603.286h.92l.603.317h.603l.603.286h.92l.603.317h1.238l.92.317h.603l.603.286h1.523l.603.317h1.238l.889.286h.635l.603.317h1.523l.603.317h1.523l.603.286h2.126l.635.317h1.206l.92.286h2.126l.603.317h2.126l.635.317h2.729l.603.286h2.761l.889.317h3.967l.92.286h5.491l.603.318h17.963l.92-.318h6.094l.603-.286h3.682l.889-.317h3.047l.635-.286h2.126l.603-.317h2.729l.635-.317h2.126l.603-.286h1.523l.603-.317h1.238l.889-.286h1.841l.603-.317h1.523l.603-.317h.635l.889-.286h1.238l.92-.317h1.206l.603-.286h.92l.603-.317h1.238l.603-.317h.603l.603-.286h.92l.603-.317h1.238l.889-.286h.635l.603-.317h.603l.603-.317h.92l.603-.286h.603l.635-.317h.603l.92-.286h.603l.603-.317h.603l.603-.317h.92l1.238-.603h.603l.603-.285h.92l.603-.318h.603l1.238-.603h.603l.92-.317h.603l1.206-.603h.603l.635-.317h.889l1.238-.603h.603l1.206-.603h.92l1.238-.603h.603l1.206-.603.92-.317h.603l1.238-.603h.603l1.206-.603.92-.317h.603l1.238-.603h.603v-.317h.603l1.206-.603h.635l1.206-.603h.317l1.809-.92h.603l1.841-.92h.603l1.238-.603.286-.318h.603l2.444-1.206 3.364-1.206h-.317l2.222-1.016-1.619.698 5.808-2.729-2.761 1.206.92-.603-2.444 1.206 2.444-1.809-4.856 2.126-2.444.92-.317-.317-3.047.603 2.761-1.523-5.491 1.238 1.809-1.523-2.412.889-2.761 1.841-3.332.92-1.841.603h-.603l-.127.127-1.111.19-4.253 1.523-3.364.603.92-.603-3.65.889 1.523-1.206-.92-.603 2.444-1.523-10.664-.603h-1.206l-2.158-.92 1.841-.92-3.364-1.206-6.379 1.206-1.523 1.523-1.523-.92-2.126.92h.889l-2.412.92-1.523-.92-1.523.92-10.061 1.523-2.761.92-3.332 1.523h-.317l-.286-.92-1.523.286-3.047-1.809-1.841.286-.92 1.238h-2.126l-.92-.92-3.65 1.206-3.364.635-5.459.603-5.491-.603-.92-.317-3.364-.317-3.65.317-.92-.92-3.65 1.238h-9.14l-.92.603-9.743-.603-2.444-1.841h-1.809l1.809 1.206-1.206.635-.603.286-7.331.603-2.126-.286-2.444 1.523.635.92h-2.761l-1.206.889h-2.126l1.523 1.238.286.286-.92 2.158 1.523.889.635 1.238h-1.238l1.523.92-2.92-.254-.127-.064h-.603l-.92-.317.603.317-1.523-.317.635.635-15.583-2.634h-.063l-.222-.127h-.444l-.222-.032h-.032l-.508-.254h-.92l-2.126-.635-6.697-2.126h-.317l-2.126-.92-11.267-3.65-1.238-.286-2.126-.92-.603-.317h-.127l-.889-.381-.19-.222h-.286l-.571-.254-.063-.063h-.095l-2.031-.889h-.635l-11.267-5.205-5.395-2.698 1.746.571-.603-.603-1.841-.603.571.571-.571-.286-.603-.889-1.841-.635zm40.307 17.678h-.127l.952.317zm-15.012-4.856l-1.206-.635h-.317zm-3.65-1.46h-.095l.413.159zm.317.159l.889.381.159.032-1.047-.413zm-.413-.159l-1.746-.698 1.523.635.222.063zm-18.598-8.95l-2.031-.889.603.317zm-1.428-.254l1.841.888v-.286zm35.038 14.313l2.158.603.603.222zM407.216 82.942l-.438.595-.438-1.19-.595-1.033.063-.72-.25-.72-.094-.908.282-.783.532-.438.626-.407.063.438.532.063.282.282.47.125.814.877.438.783.344 1.127-.47 1.096-.626-.595-.376-1.377-.751-1.409.188-.376-.219-.219-.313-.25-.376.188-.125.344-.125.595v.751l.376 1.284-.282 1.127zm.094-8.204l-.658.063-.407-.282-.344.626.532.376.407-.188.564.657.532.188s.783-.25.783-.376.094-.751.094-.751v-.188h-.25l-.094.282-.407.063zm-2.38 1.127l.407.689.438-.375z" fill="#E0E0E0"/><path d="M430.898 153.727l1.219 1.828m-35.952 36.562l7.922 3.351 2.195 1.632 6.336-8.944 21.328-7.922.305-8.836-2.437-3.047-11.578-1.219m-3.961-81.654l6.398-.914 4.266 3.047.305-.609 1.219 2.133m13.101 18.585l-1.219-2.437-15.234-7.617m-52.709-4.57l-4.875.609m-2.742-6.398l-9.445-2.133-1.828.609m22.242 5.179l-5.18-2.742-3.351.305-2.437-1.219m28.944-36.257l2.133-.609m-92.013-3.047h-.609m1.828-.914l-1.219.914m-.609 0l-1.828.305m0 0l.914.914-1.523.914m12.187-1.828l-7.922-1.219m-4.266 3.047l-.609 2.438-6.398.304m-7.312-5.789l2.437-.914h7.617l4.875 2.133M107.33 490.093l1.828 1.219m.914.609l8.836 6.399m-16.453-11.883l-.305-.305 3.351 2.742 1.828 1.219m-55.147-68.857l4.265 7.008m4.57-1.828l-1.523-2.437-.609-1.523-2.437-2.742-5.18-4.875v.914l-3.047-3.961-.914.305m-.305-.914l.305.914 4.875 9.14m-13.101-10.054l.305.914 2.742 4.57 7.617 11.578 2.742 3.961 2.133 3.352 2.133 3.047 5.18 6.398 10.664 12.796.609.914 7.617 7.617.609.914 3.047 3.047 3.656 3.351 2.742 2.438 4.57 4.265.609.609M415.36 160.126l.305-.305m-17.976-22.851l1.219.609m25.593 17.976l2.133-.609m4.265-1.219l1.219 1.828m-35.952 36.562l7.922 3.351 2.248 1.653 6.283-8.965 21.327-7.922.305-8.836-2.437-3.047-11.578-1.219-7.922-9.463m11.162 26.414l.721 2.549 6.094 9.14m-35.647-58.803l-.914 3.656m35.647 12.187l2.437-2.133 1.828 4.265m-51.795-17.976l.305 1.828 1.523.609m12.492 52.709l-4.875-.305v3.656l-3.326 2.147m43.848-29.263l-.305-5.484 1.523-.609-1.523-3.352 1.523-.609m-33.21-21.327l.609.609m-51.186-.609l-.305 1.828m-1.219-1.828l.914 2.133m.247.552l4.628.667 2.133-2.742 2.742-.609m39.303 0h-3.047m-28.335-7.921l15.234 6.398.305 1.523m-7.922-37.78l-2.133.914 3.047 3.961-.305 1.523 6.398 7.312 3.656.914-.914 7.008 3.656 3.961 5.484 2.438 2.133 2.437.609 3.352h1.219l.609 1.828 2.437 2.133m-55.42-5.8l.941-1.918-.62-.415m1.681-5.342l1.064.021 1.064-.384 1.295-.557-.092 3.258m-3.33-8.969l4.497.381-1.052 5.353m13.716 5.23l2.742 1.219m-16.904-3.294l-1.466 1.486.326 1.172-.715 1.634 2.239 1.25m-6.037-1.083l3.972 6.756m10.664 0h.305l1.523-2.133-4.875-3.961 8.226-3.047-3.047-4.57-6.398 4.266-4.528-1.655.305 5.18-.042 1.35-.609 4.57M546.37 243.303h.305l-.305-1.219.609.914.609 4.265.305-.609-.305-2.437m-4.57-15.539v-2.133m3.047 16.757h.305m-1.828-25.593v.914m-15.234-46.007l.305 1.219m-1.219-2.437l1.219 2.438m15.843 50.577l.305 1.219-.305-.914.305 1.523m-4.266-20.718l.305.609-.305-.609m-5.18-14.015l-.609-3.047.609 1.828-.305-1.523m8.226 27.421l.305 1.523m-15.234-45.093l.609.914 1.219 5.179.609.914m7.008 15.843l.609 1.828m5.18 21.328v.305l.914 3.961-.305-.914.305 2.438m-13.711-44.788l.914 2.742h.609l2.742 8.836.305.305m-2.437-9.75l.609 1.828 1.219 2.437 3.047 9.445m5.18 23.156l-2.133-8.836-.609-3.656h.305m-12.797-36.562l1.523 3.352v-.305l.609 2.133.914 1.828.609.914-.609-1.523.609 1.219.305 1.219.914 1.828.609 1.828-.305-.305m2.133 7.008l-.305-1.219.305.305 1.523 4.265 2.437 7.922 1.828 7.008.305.914-.305-1.828-.305-.609m-11.883-32.296l.914 1.828h.305l-2.437-5.789.305.305-.609-1.523.914 1.523-.609-1.828.609 1.523-1.219-3.961.914 2.133.305.305 1.523 3.656v.609m12.492 54.537v-1.828m-14.625-53.624v.305m-36.257-34.428l10.054 8.836-.305-1.219 3.351 1.219m4.57.609l.914-.609-.914-3.047-.305-3.047m-3.351 11.883l2.133.609-3.047-6.703v-.609l3.656 5.484 3.352-.609-2.742-4.265-2.742-1.523.609 4.266m6.703-3.961l-.609-1.219.914 1.219 1.828 3.047.305-.305 1.828 3.351 1.828 4.266.914 3.047 2.133 5.18.609-.914 1.828 4.265.914.914.914 3.656.914.305m-18.89-31.382l1.219 1.219-.305-1.828.609.914.609 1.523v-.609l.914 1.219.305 1.523 1.523.914.914 2.438 1.219 2.133-1.219-.609.609 2.742 4.57 11.883-1.219-.914 3.047 7.922v1.219m-33.515-34.429l-.305 1.219 1.523 3.656 7.617 5.484h2.133l3.351 3.352 3.047.914m36.866 73.123l-.914-6.703-2.437-9.75-2.133-5.484-1.219-6.094v.609l-3.961-10.359.305-.305-1.828-5.484.609.305-.609-3.047.305.305m-12.797-5.789l-2.742-7.008-1.523-1.828-.914-2.742-1.523-1.828v-2.437l-2.133-2.437-1.219-3.352 2.437 2.438v-.914l2.133 4.265 3.656 1.523.914 5.18 1.828 3.351-.914-3.351h.305l4.875 10.664-.609-.609.305 1.219m-49.967-13.71l-1.523-.305-.609 3.047m3.047-27.116l-.305 8.531-2.133 1.219-1.828-1.523-.609 3.656.609 1.828 2.133.914.609 2.438 2.133 1.219 3.047 5.484-4.57.609m-17.671-24.374l.305.609-5.18 1.828-10.359-1.828m9.445 19.804l-.609-4.57 3.351-1.523-.305-2.133-2.133-.609-1.523-4.266-3.047-1.219-5.18-5.484v-.609m35.647-48.749h.609l3.991 4.275-2.389-2.854m10.585 46.414l1.523-.609 1.828 1.523M456.49 89.44l.609.609m-17.976-25.898l1.828 1.219 1.523.305-.305-.914 2.742 2.133m40.522 66.42l3.351 2.742v.914m-40.522-72.818l2.437.609-.609-.609m-4.875 2.438l-.609-2.437m4.266 16.148l1.219-1.219 1.828.609-1.523-1.523-4.266-5.18 3.351 1.219.305-.914-4.266-4.266.609-.305-1.828-1.828.914-.305 2.133 1.828 4.57 2.133 3.961 3.047 5.789 5.789 3.047.914 3.656 2.133 5.484 5.484 2.133.305m-18.281 2.742v-.609l-1.828-2.133-.609-1.828-5.18-5.179-1.219-.609m-7.922 16.757h-.305m-3.961-3.351l-.914-.609m5.18 3.656h-.914m3.351-1.828l-.305.914m-9.14-2.437l1.828-.305m-7.008-4.266l.914 1.523h.914l3.351 3.047m11.273 3.656l1.219.914zm-1.523-11.273l3.961 1.828m25.288 39.608v3.047m-56.67-45.093l6.398-.914 4.266 3.047.305-.609 1.219 2.133m-3.351 8.531l-3.656-3.961-1.523-.305m19.195 7.008V99.19l2.133.305-.305-2.133m0-.305l-.914-2.133 1.219.609.609-1.523 1.523 1.219m-4.266 5.179l2.437 1.219 2.437 3.047.914 3.656m1.219-8.531l1.523-.609 2.742 1.523 2.133-.914m-15.843-5.789l.305.914 1.828.609-.914-2.742 1.828-3.047m5.18 7.312l-2.742 1.219.914 1.219 3.047.305m1.523-11.883h6.094l2.742 1.523m-16.757.305l-.609-1.523.914-.609 4.57 1.523-1.523-2.133.609-.914m-.609 10.054l3.656 1.219 1.523-2.437-2.742-.609m0 0l-2.437-2.133.609 1.523-3.656-1.523.609-2.133-.914-.305m1.828 17.976l-1.219-2.437-15.234-7.617m45.702 17.062v3.352h-6.094l1.219 2.437 1.219.305.914 3.047 4.875 3.656m-53.014-34.124l-3.656-.609-1.828-2.742-.305-.305m17.062 24.679l-2.437-3.961h-2.133l-1.523-1.219m47.835 21.328l1.219 2.133v4.266m3.656-13.711l2.742 2.438-.305 1.523-1.523-.609 3.351 4.875.305-.305 3.047 2.133m-24.984-24.374l-4.875 2.133v1.523l3.047 3.351-.305 2.742 1.219 1.828h-2.742l2.742 3.047-1.523.914 1.828 4.57-5.18 3.047.914 4.875m-15.234 0l.914-4.265-.914-1.523-2.742-.305-3.656-6.398.305-1.828-1.523-.609-.914-1.828.914-.609-1.523-5.179 4.57 1.523v-2.437l2.742-1.523-.914-3.352 1.523-1.828 7.008 2.438 1.219-1.523 1.219.914.609-5.18 2.742 2.133 3.351 4.875 1.523-3.047 3.961.609m-11.883-27.421h-.305l.305-.305m28.031 41.436l.914 1.523-2.133-3.961-2.133-1.219-2.437-3.352-4.57-1.219-2.437-3.047-4.266-1.828.914-1.219-3.351-3.961-2.437-.305-2.437-3.351-.305-3.961 3.351.609-.914-2.437h2.133l.914-3.047m-89.271 17.062l.914.914m28.335-28.64l5.18-2.133 3.351 1.523 4.265 1.828 5.789 3.961m-10.968 7.617L397.687 80.3m-25.288 12.797l-4.875.609m-3.047-29.554l.609 4.875 2.133.609m6.703 29.249l3.351.609 2.437 2.742m-15.539 18.89l3.351-2.133-1.219-7.312 3.047-2.742m6.398-17.976l5.484 2.437 1.219-2.133m-10.054 1.828l4.875.914-1.523-3.047m-10.968-3.656l-9.445-2.133-3.023 1.804m52.99 6.117h-1.523l-5.789-3.656-3.656 2.133m-27.116-21.937l.914 1.219 4.57 1.219 2.437 2.133-1.219.304 2.742 1.219m-.914 15.234l-5.18-2.742-3.351.305-2.437-1.219m4.266 21.327l1.219-.914 4.57.305 1.219 1.219 1.219-.609m3.351-6.703l-.914-2.437-3.656-1.523.914-.914-4.57-3.961m-3.961-28.945h.305-.609m5.789 35.038l5.789 3.047 4.266-3.352 1.828 1.219-.305 2.133 3.351 1.523m-30.62-11.273l6.55-.305 3.656 2.438 1.219 2.742 4.266 1.828m40.218-9.445l-4.875-1.828-.914.609 1.828.914-1.828-.609-1.523 2.133 1.523 2.438-3.047-.305m19.804 16.148l-3.047-2.133-6.094-1.523-1.523-1.219-4.57.609-1.219 2.438-3.208.305m-37.01 0l-7.312 2.133m-.609 13.406l3.656-2.133m-3.047-11.273l-2.437.609-10.043-.609.211 2.73-2.637 1.02m97.778-55.241l2.742 1.523 4.57 3.656-.914-.914 1.523 1.219m-21.937-2.437l.609.305-1.219-1.523 3.351 1.523m0 0l1.219-.609 5.18 3.047m10.968 0l-.914-.914-2.742-2.133-3.656-3.656 1.219.914m.609 5.789l-1.219-2.742 2.437.914 2.133 1.523.305.305m-51.795-3.961l-.914-.609m-3.656-7.922h.914m.914 7.617l1.828.305m-2.742-7.922l.914-.609m24.984 3.047l7.922 4.875m-14.625-5.179h1.219v-1.828m-19.5 7.312l-2.742-1.219m7.008-9.445h3.351m0 0l3.047 1.828 1.219 1.219m-11.883-.609l2.133-.609m17.367 1.523l.609-.914.914 1.219 3.961 1.828m-22.851-3.656l2.742-.914-.305-.914m7.312 3.047l2.133.305-.914-.914 2.133 1.523 1.523-.609 1.523 1.828m14.625 5.179l3.351 2.438m-33.515-1.219l.609 1.523-3.351-.305m-2.742-3.352l1.219-.914-1.828-1.828 2.437-.305-2.742-.914v-.609l-1.523-.305-.609-.914 3.961-.609m-3.047 9.14l-.609-.305m.914 0l-.305.305m-11.882-1.219h-1.828m6.703 2.742l-4.875-2.742m-12.797 3.352l.305 1.219m10.664-4.57l-1.219-.914-.914.914-3.047-.914m23.765 2.742v1.219l-4.57-2.133m-.914 0l-.305.914-2.742-.609-.609 1.523-3.656-1.523.914 1.523m-13.711 1.828l-3.961-1.219m5.789-4.266l-3.351 3.352 1.828 2.133m-151.73 24.07l-5.18-2.437m-24.679 4.875h6.398l1.523 1.523-3.047 1.828-2.133 4.875-1.828.305 1.219 2.133-3.656 7.008m159.956-42.96l.609 1.219m0 .305v-.305m-.914-1.219h.305m-59.412 21.328l1.219.609-.914 1.219m8.226.914l-6.094 1.523m22.851 10.359l-.305.609m-3.351-5.484l-.609.609m3.351 5.484v.914m6.094 7.008h.609m-10.054-12.796l.305.914m6.703 10.359l.914.305m-5.789-9.141h1.219m-.305 3.961l.305.914m3.047 2.133l.609.914m.914 1.828l.609.914m2.133-35.647l-3.294 1.215-.043 2.466m26.188-.025l-.305.914m-22.242 31.382h1.523m-6.398-5.18v.609m32.601-38.085l.914.609m-33.21 1.219h-1.219m10.359 42.046l1.219.609M308.72 68.722l-2.742.914m2.742-.914l3.351 1.523m33.515-1.828l.305-1.523m-1.219 3.961l-1.828.914.305 1.523m1.523-2.437h2.133l-.305-1.828m-31.991 21.632l-3.656-.305-2.133 1.219m30.163-27.116l6.094.914m-27.421 9.75l-4.266-4.875m25.288-6.094l.305.305m-42.046 28.64l-.609-2.437-1.828-1.219 2.133-3.047-2.437-2.133.914-1.523m-8.531 15.843l.914.609 2.742-3.656-3.351-6.703h-.609m3.656 5.789l11.578-2.437 6.094.914.914-1.523 1.523 1.219-1.828 2.438M284.955 69.94l4.57-1.523 4.875 2.133m-2.437-1.523l2.133-1.828-.914-1.828 1.828-1.219m-8.836 12.187l3.047-.305 2.437-4.266 3.351-1.828 5.789 1.219 5.484-1.523 5.18 3.961.914 4.57 5.484 1.219m-32.296-3.047h.609l4.57 3.352-.305 1.219 4.57.609.914 2.742 8.531.609 5.18-1.828 5.484 1.523m-30.163-17.976h.305l4.57-.914 3.922 1.344m-19.765 8.101l-3.047 1.219-.914 2.438-6.094-.305m17.671-1.219l2.133 2.133-1.523 1.219m.914 4.57l2.742 1.523m-5.18 2.133l1.523-3.656 2.133-.305-1.219-1.219h1.219l-1.828-1.219.914-1.828-12.187-.914 1.523 3.351 7.922 5.789zm-38.39-4.265h.305m4.266 8.531l1.523-.305m1.828-3.961v-.609m25.898-17.976l-.305-.305m-24.374 3.352v-.609m32.296 25.593l1.523-.305m-35.343-10.664l-.609-.914m-27.116 2.438l-.914-.305zm5.18.305l-5.18-.305m19.804-24.679l-.914 1.219m-19.499 23.156l-4.875-.305m48.749-20.414l2.742.609 1.219-1.219 4.57.609 1.828 2.133m-11.273 8.226l-.914-2.133 1.219-.914-4.266-.609-.609-1.219-5.789.609m-17.671-9.75h-.305m6.398 1.523h-2.742l-.914-1.523m42.35 1.523l-6.094 2.742m10.968 20.414l-1.523-.305-.914 2.742m2.437 7.312h.305m-43.874-21.632l-.914-1.523-2.437.914 3.961-4.265 5.18-1.219 3.656.914m20.414 2.133l1.523-.305-.305-2.437 2.437-.914 4.57.914 4.266-1.219m-32.905 1.828l1.219.914 1.219-.914 2.437.609 3.351-1.219 2.437.914-.609-2.133 3.351-2.133-3.351-2.133-.914-1.523M242.909 84.26l.609-1.219-2.437-.609-.609-2.437 2.133-1.219-.914-1.219 3.656-.305 2.133-1.828 1.523 2.133 1.219-2.437 2.742.914 1.219-2.133-3.047-.609.305-1.523m-6.094 0l2.742-4.57-5.484-1.523v-1.523m22.242 10.969l2.742.609 5.484-1.828 5.18 3.656 7.312-1.219m-6.398-12.187l2.437 1.828 1.523-.609 1.828 1.219m-73.732-17.367l-3.351 1.828 4.266.914m88.662-16.757l-.305.914m1.828 1.828l.609.305m23.46 21.632v.305m-22.546-12.796h-.609m-1.219-8.836l.914-.305m14.015 14.015v.609m-11.883-6.398l-1.219.914m-.609 0l-1.828.305m15.539 4.57l-2.133-1.219m-12.797-8.226l.609-1.219m23.46 16.757l.305 1.523m-7.922-2.133l-2.437.305m-14.015-19.499l.609 3.047m-10.968 9.75l-.609-2.133m0 0l-4.961-.305m29.945 9.14l-.305 2.133m4.266-6.398l-3.047-.914m-4.875 7.008l3.656.305m10.664 0l3.351.914m-28.335-13.406l.914.914-1.523.914m19.195 4.266l-3.656.914m0 0l2.133 3.047m-17.671.609l5.789.914m-5.789-.914l-5.484.914m19.499-8.226l-1.828-3.352m-18.89-31.382l1.828.609.305 1.219 2.133-1.523m6.703 29.858l-3.047-3.656m5.18-12.797l-6.094 5.18m5.484 24.07l5.484.609m.914-12.187l-7.922-1.219m-3.047-3.656l-5.484-1.523-2.437.609m24.374 15.843l5.484-.914 2.133 1.523m3.656 2.742l1.828 1.828 5.18-.305 1.828 1.523m-37.78-14.625l-.609 2.438-6.398.305m-7.937-5.914l3.063-.789h7.617l4.875 2.133m-5.18-29.554l.305 1.219 2.742.914-.914 1.523 5.484 5.484-.914.914 4.266 1.828m-14.015-13.711l-2.437.609-1.219 1.828-4.266-.305-2.133-.914-1.219.609 5.789 1.828 2.133 4.57m-7.922-6.398l-.914.914m14.015 45.093l2.133-1.828-3.656-5.18 1.828-2.437-3.047-3.656h-8.226m-31.991-1.828l4.266.914M242.3 63.542l-.305.609m.609-2.437l-2.437-2.133-4.875.305m33.819 1.523l-.305-5.179-1.523-.609.664-2.469m-31.741 11L232.55 60.8m6.398 3.352l-.305-.609-2.133.609m44.483-45.093v.305l-3.351-.305-.305.914h-2.133l-2.437 3.047-1.828.305-2.133 3.047.914.914-3.047.305-1.828 1.523-.305 3.351 1.523.914-1.523.914.305 2.133-1.523.609-.914 2.133h-2.133m.914 24.984l-.609-1.219m23.46-11.883h-1.219m-40.218 13.101L242.3 60.8l.914-2.133 3.351-1.219-.914-.914 2.133-2.437-2.133-.609m14.929 9.445l9.445-1.828 3.656.914.609 1.828.914-1.219 2.437.305 1.523 1.219m14.32-47.835h.609m-.305 0h-.609M32.378 377.057H30.55m9.445 22.851l3.351.609m-2.133-7.922l1.219.305 3.047 6.398m-21.632-34.733l2.742 2.438 2.133 5.179 1.828 5.18m2.132 9.445l4.57 5.18 2.742 7.922m-7.921-13.711l.914.914m-.609-10.054l1.523 1.523 3.047 7.008 1.828.305 3.961 10.359.609 4.265m2.133-1.219l-.305 4.57 1.828 7.313m-27.421-60.327h1.828l1.218 4.57 2.437 4.266 2.133 8.835m-.914 9.445l-3.656-11.578 1.219-1.828m.609 15.843l-1.219-4.57 1.523 1.828 1.523 3.047-1.219-3.961h.609l4.875 7.921 1.523 1.523M7.394 326.176l1.828 7.312 3.351 14.32.914 3.351 1.219 3.961 1.218 4.266.305.914M6.176 321.605l.914 4.875.609.609v-2.133m.609-3.352l1.219 6.094.914 3.351.914 2.438.915.609 2.132 4.265 1.523 1.219 1.523 5.789 1.828 5.484h.304M7.699 324.957v-3.352m7.312 35.038l2.437 6.398.915 2.133 1.523 4.57 4.57 10.664.609.914 1.828 4.265.914 3.352 4.875 9.75v.305l4.57 9.14 1.828 3.047m-27.726-175.8l.305-.609v-1.523m4.265 29.554l1.219-5.179-.304-7.008 1.218-3.961m-4.875 18.281h.609v-3.047l1.523-.305 1.218 2.438.609-1.219 1.219.914 2.742-8.836m-11.578-1.828l.304 2.133-.609 5.484v4.57l.914 3.047 1.828-3.656 1.219.305-1.523-10.054.304-3.961.914-.914.305-2.133M10.746 236.6l.609-1.219m-8.835 30.468l-.305 3.047.305.305v1.828m.609-10.359l.304 1.828v5.789m0 0v-4.57l-.304 2.133-.305-1.523v1.523h-.304m2.133-18.598l-.915 5.192v5.484l-.609 2.742m6.702-11.578h-.609l-.305-3.352.609-3.656.914-1.828v-2.133l.305-1.523m-1.523 12.492v1.219l-.609 2.133-1.828 2.437-.304 2.133-.914-3.047m0 0l-.305 8.226.609.305v1.219l-1.828 7.312v-1.828l-.305 1.219-.304-2.133m1.828-37.78l-.609 4.875-.305 3.047-.304 2.438h.304l-.304 6.938.609-.553m5.179 1.841l-.304 3.351v.609m-3.351 68.553l-.305-2.742.305 2.742m-.609-2.437v.305l.609 2.133m-3.047-26.812l-.305-.914.305 4.57m4.57 23.156v-.305l.304-.914.304 1.219m-6.094-35.952v-1.523l.305 2.438.304 5.484.305 2.133-.609-14.32-.305-5.179v-3.352l.305-.305m15.538-89.271l-2.742 7.312m-7.617 28.64l-1.219 6.703M85.087 78.167l-1.219 1.523m2.437-3.351l4.875-4.265-.914.914m0 0l.609-.609-5.789 5.789M82.65 79.69l.609-.305 3.047-3.047" fill="none"/></g><path d="M246.861 107.793l-7.018 2.147-5.448-1.218-4.294 1.827-5.16-1.218-10.992 1.827-4.551 2.436-3.333.609-4.583 2.436h-3.044l-.32-1.506-6.377.929-2.147-2.788-1.827.609-4.871 7.019-10.672 5.801-3.333 4.583-.929 5.448-.32.321-2.436 3.044-6.089 4.262-5.448 1.25-3.974 5.48-3.653 2.115-3.045 6.377-4.23 3.429-6.442 9.39-1.506 4.262.865-1.506 1.859 4.23-2.115 3.974.577 7.339-3.653 9.422-4.262 4.294 3.365 3.91-.32 2.468 3.685-.609-3.045 1.218-1.25-.897-.929 3.942h2.179l-2.179.897 3.044.321-1.506 1.218 1.827.32-.609 1.186 4.262-1.186-2.436.929 1.827.865-2.115 1.25.929 1.506 1.186-.577-.577 1.186 1.506-.929.609 4.294 1.827.897 1.827.929-.929 1.506 1.538.609.288 3.974 1.538-.289-2.115.609 3.333 3.333-.288 1.827 5.16 2.724 10.063 9.454 5.192 2.147 6.089-3.044 9.454-1.218 8.813 2.436 9.134-4.262 6.409-2.468 11.281-2.404-1.859 1.218 4.583.32 3.045 2.724 1.538-.929-1.538 1.25 2.147.289-1.538.288.641.929 1.506-.929-1.506 1.827 3.044 4.294 3.333-.321v-1.218l.609 1.218-.288-1.538.897 1.538.609-1.827 1.218 1.218 4.294-.32-.32-1.795 1.506 2.115 1.538-1.218 1.506 3.653 2.468-.609.577 1.218h-1.186l1.795 3.654-3.045 9.134 1.859.32-.32 3.045-1.538-.321 3.045 1.538-2.115.609-.929-1.218-.929 4.871h-2.115l4.583 8.236 10.063 9.743 2.115 6.089 2.436 1.218-2.115.609 5.48 10.96-1.827 3.045 2.115 4.294 2.115 4.839-.865 5.833-5.224 5.448-3.333 11.313.609 9.742 12.499 20.382 2.147 16.44 9.742 15.575 4.23 6.986.32 3.333-1.827 1.25 2.147 5.769 1.538-.897 4.551 3.044 10.351-3.333 8.845.897 8.845-2.436 13.107-9.134 4.262-5.48 1.827-2.147 4.839-3.974 3.974-10.319-.609.865-1.218-1.506 13.428-7.916 1.186-8.524-2.724-7.307.288-3.974.929.929 6.698-4.583 2.756-4.551 13.716-6.41.609-1.218 4.23-6.089-.865-8.845.865-.929-.609-6.698 1.538-3.045-2.724-2.115-1.25-.929v-.288l-1.186-7.948.897-2.115h-1.218l1.827-3.974-3.365-4.551 2.147-6.409 3.653-7.627.929-1.827 3.653-2.115-.929-1.506h2.468l9.742-12.851 10.319-8.204 7.627-9.742 10.063-23.459v-2.756l-.288-1.538 2.115-.577h-1.506l.288-6.377-2.147-.929-4.839 3.044-8.268.929-3.621 2.115-2.756-.929-4.871 2.436-6.377-5.801-2.756.321 3.653-2.115-.609-2.147-10.063-10.063-4.262-1.506-.929-1.538-.897-.897-.288 1.827-6.409-13.716-5.512-3.686-2.404-10.319.897.577-2.404-4.551-5.512-3.974-1.506-4.262h1.186l-3.045-2.436-8.204-14.325-4.583-4.871-1.09-3.654c-.012-.019-.021-.045-.032-.064-.062-.103-.128-.225-.16-.353-.209-.836-.705-1.716-.705-2.788v-.448c0-.459-.058-.937-.128-1.41l-1.538.224-.897-1.859-3.653-.32-7.339 3.044-8.493-2.404-7.339-.321-1.218-1.827-6.698-.897-.929-1.859-5.48-1.186-6.409 3.045v5.448h-.288l-4.294 2.179-4.551-2.468-8.525-2.115-2.147-3.974-7.307-2.115-4.23.289-8.268-3.653-.609-1.859 4.903-3.91-2.436-3.686 2.436-3.653-2.436 1.506-2.468-2.436zm-108.096 55.218l.256-.385-.929.929zm50.475-50.09l.064.096.16-.096c-.075.004-.15-.003-.224 0zm-35.893 27.497l-2.147 1.538 1.538-.641zm-2.147 1.827l-3.044 3.044 1.827-.609zm-8.204.897l-3.044.929.288 1.538zm.897 1.538l-.609 1.218 1.506-.288zm198.95 17.947l1.538 4.903-4.262.929-3.974 5.16 2.436-4.871 3.653-.897zm-205.039 32.913l3.044 2.468 2.147 4.551-5.192-6.698-6.986.288zm239.49 3.653l.288 1.25 1.827.289-1.827-1.538zm-198.982.929l1.538 1.827-1.218.289zm80.471 7.948l.865 3.044 1.859-.929v1.506l4.262.609-5.48 2.756-3.365-6.409zm109.346 7.595l-.577 3.333-1.538-2.404zm-153.539 4.583l2.724 2.115-.897 4.262v.641l-.288-.641-.929-1.827 1.795-2.436zm-24.356 10.672l4.839 5.769.32.609.929-5.801-1.25 13.396v-1.506l-.288-.288-3.365-1.538 3.045.929.32-.641.609-2.403-.609-.929-.929-.321h-2.115l2.724-.897-3.045-1.538-.609-2.724h-3.365l3.077-.32zm34.098 2.115l1.827 3.974-1.827 11.249 1.538-11.569-1.538-3.653zm-53.615 2.436l-1.218 3.333.609.929 1.186-.929-.577 2.436-1.827-2.115zm193.47 16.44l2.115 10.992-3.653-6.089 1.538-4.903zm-128.254 4.294L233.465 258v.321l1.218.609zm44.161 6.377l-2.147 13.716 3.365-7.019 3.974-2.115 3.333-1.827.897-.641 9.999-.801.385-.064.064.032.545-.032 10.063 6.954-10.608-6.922-.449.032-10.896 2.339-3.333.929-4.294 3.045.32 3.942-10.672 10.352-.32 4.294-.288-3.974 7.627-8.525 2.436-13.716zm62.749.32l-.929 3.333-3.333 3.044-.32-2.115zm9.454 3.333l-1.827.641.609 1.506-3.045-.929zm-.609 5.48l.609 1.538 2.147-.288 1.186 3.044 2.179-1.25.577.929-3.653 1.218-.288 4.551-3.653 2.436 3.044.929-2.147 1.538-2.147-.609.32 2.115-1.218.929.288-2.436-2.724-1.218-1.827 2.724-.929-3.974 1.827-9.422 3.044-1.506 1.538.897zm-16.152 3.045l-2.436 2.436.609-2.115zm-94.764 3.365l1.538.609-1.538.929zm40.86 3.653l-1.25 1.859 1.538.577-1.827 2.756-.641-4.583zm49.962 0l1.506 2.115-2.436 2.147zm1.186 8.525l2.756 11.601-1.218 2.115 3.942 3.333 2.468 8.557-3.044-1.218-1.538-5.8-4.262-5.48.288-9.774-.897 1.25 1.506-4.583zm45.091 11.281l-.577 2.115 1.506 1.538-.609-2.436zm-33.49 8.813l2.756 2.468-2.756-.609zm-10.351 4.294l1.795.289-3.044 1.827zm-2.756.609l-2.147 3.974-1.795.288.288-2.147zm22.241 4.262l2.115 2.147 1.538 6.986-1.538 4.551 1.859 9.166-2.756-1.218-2.147-8.813 1.859-2.756-1.218-7.916-.32-1.25h.32zm-19.196 6.409h.32v1.827l-1.538.609zm59.416 2.436l-.609 1.506.897.929zm24.068 2.724l-2.436 2.115-.32 4.294-2.404 2.115-1.25-.897v3.045h-.929l-1.795 3.653.288-1.827-2.115 2.436.577 1.218-1.186.609.32-1.827-2.179 1.538v2.115l-1.186-1.218-7.307 2.147-3.045 6.089.609 11.281-4.903 5.769-1.795 4.583.609 11.89 3.333 1.795 8.525-2.115 14.934-30.157.897-4.551 1.859-1.538v-6.089l1.186-.321.641 2.436 1.506-2.436-.609-11.249-2.436-3.365.609-1.538zm-19.805.321l-.897.609 1.186.897zm-68.87 21.023l-4.23 1.218-5.192 5.191 3.942-5.191zm113.063 15.543l-1.25 2.436 1.538-1.25zm-7.627 3.974l-1.506.577 1.506 1.538zM313.904 400.29l-.929 1.827-1.634-.513h-.064l1.09.833-1.506-.609.417-.225-.096-.064.16.064 2.564-1.314z" fill="#E0E0E0"/><path d="M246.857 107.794l-7.018 2.147-5.448-1.218-4.294 1.827-5.16-1.218-10.992 1.827-4.551 2.436-3.333.609-4.583 2.436h-3.045l-.32-1.506-6.377.929-2.147-2.788-1.827.609-4.871 7.019-10.672 5.801-3.333 4.583-.929 5.448-.32.321-2.436 3.044-6.089 4.262-5.448 1.25-3.974 5.48-3.653 2.115-3.044 6.377-4.23 3.429-6.442 9.39-1.506 4.262.865-1.506 1.859 4.23-2.115 3.974.577 7.339-3.653 9.422-4.262 4.294 3.365 3.91-.32 2.468 3.685-.609-3.045 1.218-1.25-.897-.929 3.942h2.179l-2.179.897 3.045.321-1.506 1.218 1.827.32-.609 1.186 4.262-1.186-2.436.929 1.827.865-2.115 1.25.929 1.506 1.186-.577-.577 1.186 1.506-.929.609 4.294 1.827.897 1.827.929-.929 1.506 1.538.609.288 3.974 1.538-.289-2.115.609 3.333 3.333-.288 1.827 5.16 2.724 10.063 9.454 5.192 2.147 6.089-3.044 9.454-1.218 8.813 2.436 9.134-4.262 6.409-2.468 11.281-2.404-1.859 1.218 4.583.321 3.045 2.724 1.538-.929-1.538 1.25 2.147.289-1.538.288.641.929 1.506-.929-1.506 1.827 3.044 4.294 3.333-.321v-1.218l.609 1.218-.288-1.538.897 1.538.609-1.827 1.218 1.218 4.294-.32-.32-1.795 1.506 2.115 1.538-1.218 1.506 3.653 2.468-.609.577 1.218h-1.186l1.795 3.654-3.045 9.134 1.859.32-.32 3.045-1.538-.321 3.045 1.538-2.115.609-.929-1.218-.929 4.871h-2.115l4.583 8.236 10.063 9.743 2.115 6.089 2.436 1.218-2.115.609 5.48 10.96-1.827 3.045 2.115 4.294 2.115 4.839-.865 5.833-5.224 5.448-3.333 11.313.609 9.742 12.498 20.382 2.147 16.44 9.742 15.575 4.23 6.986.32 3.333-1.827 1.25 2.147 5.769 1.538-.897 4.551 3.044 10.351-3.333 8.845.897 8.845-2.436 13.107-9.134 4.262-5.48 1.827-2.147 4.839-3.974 3.974-10.319-.609.865-1.218-1.506 13.428-7.916 1.186-8.524-2.724-7.307.288-3.974.929.929 6.698-4.583 2.756-4.551 13.716-6.409.609-1.218 4.23-6.089-.865-8.845.865-.929-.609-6.698 1.538-3.044-2.724-2.115-1.25-.929v-.288l-1.186-7.948.897-2.115h-1.218l1.827-3.974-3.365-4.551 2.147-6.409 3.653-7.627.929-1.827 3.653-2.115-.929-1.506h2.468l9.742-12.851 10.319-8.204 7.627-9.742 10.063-23.458v-2.756l-.288-1.538 2.115-.577h-1.506l.288-6.377-2.147-.929-4.839 3.044-8.268.929-3.621 2.115-2.756-.929-4.871 2.436-6.377-5.801-2.756.321 3.653-2.115-.609-2.147-10.063-10.063-4.262-1.506-.929-1.538-.897-.897-.288 1.827-6.409-13.716-5.512-3.685-2.404-10.319.897.577-2.404-4.551-5.512-3.974-1.506-4.262h1.186l-3.044-2.436-8.204-14.325-4.583-4.871-1.09-3.653c-.012-.019-.021-.045-.032-.064-.062-.104-.128-.225-.16-.353-.209-.836-.705-1.716-.705-2.788v-.449c0-.459-.058-.937-.128-1.41l-1.538.224-.897-1.859-3.653-.321-7.339 3.044-8.493-2.403-7.339-.321-1.218-1.827-6.698-.897-.929-1.859-5.48-1.186-6.409 3.044v5.448h-.288l-4.294 2.179-4.551-2.468-8.525-2.115-2.147-3.974-7.307-2.115-4.23.288-8.268-3.653-.609-1.859 4.903-3.91-2.436-3.686 2.436-3.653-2.436 1.506-2.468-2.436zm-108.096 55.218l.256-.385-.929.929zm14.582-22.594l-2.147 1.538 1.538-.641zm-2.147 1.827l-3.045 3.044 1.827-.609zm-8.204.897l-3.045.929.288 1.538zm.897 1.538l-.609 1.218 1.506-.288zm198.95 17.947l1.538 4.903-4.262.929-3.974 5.16 2.436-4.871 3.653-.897zM137.8 195.54l3.044 2.468 2.147 4.551-5.192-6.698-6.986.288zm239.49 3.654l.288 1.25 1.827.289-1.827-1.538zm-118.511 8.877l.865 3.045 1.859-.929v1.506l4.262.609-5.48 2.756-3.365-6.41zm109.346 7.595l-.577 3.333-1.538-2.404zm-153.539 4.583l2.724 2.115-.897 4.262v.641l-.288-.641-.929-1.827 1.795-2.436zm-24.356 10.672l4.839 5.769.32.609.929-5.801-1.25 13.396v-1.506l-.288-.289-3.365-1.538 3.045.929.32-.641.609-2.404-.609-.929-.929-.32h-2.115l2.724-.897-3.045-1.538-.609-2.724h-3.365l3.077-.321zm34.098 2.115l1.827 3.974-1.827 11.249 1.538-11.569zm-53.615 2.436l-1.218 3.333.609.929 1.186-.929-.577 2.436-1.827-2.115zm193.47 16.44l2.115 10.992-3.653-6.089zm-128.254 4.294L233.461 258v.321l1.218.609zm44.161 6.377l-2.147 13.716 3.365-7.018 3.974-2.115 3.333-1.827.897-.641 9.999-.801.385-.064.064.032.545-.032 10.063 6.954-10.608-6.922-.449.032-10.896 2.339-3.333.929-4.294 3.044.32 3.942-10.672 10.351-.32 4.294-.288-3.974 7.627-8.525 2.436-13.716zm62.749.321l-.929 3.333-3.333 3.044-.32-2.115zm9.454 3.333l-1.827.641.609 1.506-3.045-.929zm-.609 5.48l.609 1.538 2.147-.289 1.186 3.045 2.179-1.25.577.929-3.653 1.218-.288 4.551-3.653 2.436 3.044.929-2.147 1.538-2.147-.609.32 2.115-1.218.929.288-2.436-2.724-1.218-1.827 2.724-.929-3.974 1.827-9.422 3.044-1.506 1.538.897zm-16.152 3.044l-2.436 2.436.609-2.115zm-94.764 3.365l1.538.609-1.538.929zm40.86 3.654l-1.25 1.859 1.538.577-1.827 2.756-.641-4.583zm49.962 0l1.506 2.115-2.436 2.147zm1.186 8.524l2.756 11.601-1.218 2.115 3.942 3.333 2.468 8.557-3.045-1.218-1.538-5.801-4.262-5.48.288-9.774-.897 1.25zm45.091 11.281l-.577 2.115 1.506 1.538-.609-2.436zm-33.49 8.813l2.756 2.468-2.756-.609zm-10.351 4.294l1.795.288-3.044 1.827zm-2.756.609l-2.147 3.974-1.795.288.288-2.147zm22.241 4.262l2.115 2.147 1.538 6.986-1.538 4.551 1.859 9.166-2.756-1.218-2.147-8.813 1.859-2.756-1.218-7.916-.32-1.25h.32zm-19.196 6.41h.32v1.827l-1.538.609zm59.416 2.436l-.609 1.506.897.929zm24.068 2.724l-2.436 2.115-.32 4.294-2.404 2.115-1.25-.897v3.044h-.929l-1.795 3.654.288-1.827-2.115 2.436.577 1.218-1.186.609.32-1.827-2.179 1.538v2.115l-1.186-1.218-7.307 2.147-3.044 6.089.609 11.281-4.903 5.769-1.795 4.583.609 11.89 3.333 1.794 8.525-2.115 14.934-30.156.897-4.551 1.859-1.538v-6.089l1.186-.32.641 2.436 1.506-2.436-.609-11.249-2.436-3.365zm-19.805.32l-.897.609 1.186.897zm-68.87 21.023l-4.23 1.218-5.192 5.192 3.942-5.192zm113.063 15.543l-1.25 2.436 1.538-1.25zm-7.627 3.974l-1.506.577 1.506 1.538zM313.9 400.291l-.929 1.827-1.634-.513h-.064l1.09.833-1.506-.609.417-.224-.096-.064.16.064 2.564-1.314zM102.156 203.128l.905-.038-1.019-1.471z" fill="#363"/><g stroke-width="1"><g stroke="#FFF"><path d="M390.488 214.619l-11.782-9.071-7.003-.328-2.326-1.624-1.229 3.617-4.405-.643m-44.967 206.44l-.914-.609m-.305-1.219l.305 1.219m.914.609l2.133.914 1.219-2.133 2.133-.609m56.366-86.224l1.828-.914m-53.319 53.014l.609.609m-13.711 10.664l-2.437.609m25.593 9.14l-.305-3.961m17.976-62.764v-.305zm-44.788 61.24l1.523-3.656m3.047 20.718l.914 1.523m-9.445-54.538l-13.101 2.438m52.709-3.047l-.609 4.57m-58.803 28.335v7.312m35.952 9.14l-4.266 1.219-3.351 3.047m57.28-81.349l6.703-3.352m-50.881 52.709l8.226.914 5.484-4.57m-20.413-3.961l.914 4.875 5.18 2.133m-25.288-18.281l1.523 2.438 7.312-3.352m23.765-9.75v1.523l11.273 3.352v3.047m-4.265 17.976l.305-3.351 2.742-2.742-.914-4.875 1.523-2.437m-9.14 17.976l2.133 9.14-.609 5.179-.914 1.523-3.047-.305-1.828 3.656 2.742 2.133h1.828l.305-2.133 3.656.305m-17.976 13.101l1.219-.305 1.523-2.437-2.742-3.047m-8.226-17.062l3.351-4.875 10.359-5.789m-21.632-21.023l3.656.305 4.57 8.836 6.703 4.57m-34.733 15.234v3.351l2.742 3.047v6.094m12.797-39.304l-10.359 1.523-.609 16.453h-4.266m16.148-19.5l-6.703-6.703.609-14.625h9.14l.305-10.054m3.961 66.725l-3.656.914-7.008-2.133-4.57 5.789-5.789.914m4.266-38.999l-6.398-.609m23.765-.609l7.922.914 3.961-4.57 4.266-1.828.914-2.742 6.703-1.523-.609-3.047 13.711-4.57m6.703-18.89l1.828 7.617m15.539-.914l-2.133-.609-2.437 2.133-7.008-1.523-5.484.914-1.219 3.047.609 5.179 5.18 7.008-.914 5.484-3.047 2.438.305 2.437-3.961-5.484 1.828-6.094h-3.961l-3.961-4.57 1.828-4.57 2.437-1.219-.914-7.008 1.828-1.523-1.219-2.742m-21.937 0l.609 3.352-1.828 3.961 2.742 3.961 3.656-.914-.305 6.094-3.656-.305-7.922-8.531-2.133 2.133-3.351-.609-3.047-1.219v-2.133l-4.875.914-1.219-2.437-8.226 1.828.305-4.266-.914-1.828m-10.969 74.646l-.305 8.531m0 0l-3.656 2.133-3.961-.305-3.351-.609-1.523-3.047-2.437 2.438m15.539-28.64l-.305 8.836m.609-27.116l-4.875-.305-2.133-2.133-20.413.305-2.742-2.133-7.312 1.219m130.707-99.021l3.351-2.742 4.875 1.523 7.617-4.57h5.484l11.578-14.625h-3.961l-15.234-6.703-1.828-2.742m-59.108 54.233l-1.523 1.523m21.937-9.445l-.305 6.094m2.742-10.055l-2.437 4.266m-21.937 9.14l-1.219 4.875m24.679-35.038l4.266-2.133 1.828 2.133m-23.46 33.515l1.523-1.523-1.828-4.875m.609 33.82l9.75 5.789m5.789-64.897l4.266 8.227.305 3.961-2.133 2.742m6.094-16.757h-7.008L352.9 256.1l-5.789 1.219-4.875-1.219-1.523 1.219m-6.703 38.085l.609 8.836 5.18 8.836-8.531 1.523m1.828-24.375l.914 5.18h1.523l5.18-7.008-1.828-.609.609-2.133-2.742-.609-1.219 2.438-3.047-.914.609 3.656m18.281 31.382l-1.828-2.742 6.094 1.523.609 1.219m-.914-95.06l-.305 6.703-3.961.609-.609 3.047 3.047.609 4.57 4.57 3.047 6.398 2.437.304.609 3.656 4.875.914 4.875 3.656 6.398.914 1.828-1.523m-76.17-29.858l.609.609-.609 5.484h3.351l-.305 1.828 5.18 2.133-.305 1.828 5.789 3.961.305 2.742 3.656 1.828 2.742 5.179 3.047 1.523 5.484-1.828 6.094 5.484-.609 5.18 2.437 1.523-6.094 6.094-1.828 10.664 5.484-1.828h15.234l15.843 9.445v2.438l7.008 5.484m-79.217 25.288l-1.523-2.742.305-10.055-8.531-.914m41.741 6.703l-2.742 3.656.914 3.351m-125.528-77.388l-.914.305m-1.828.609l-2.437-2.437m58.194 59.413l-3.656.914m-45.397-59.413l.305-7.008m48.444 59.717l-3.047 1.828.305 3.352-1.523.305m-49.967-75.256l.914 4.57.609 13.101m37.171 18.585l7.008.914.305 5.484-8.836.305m-27.116-42.96l-2.133 4.266-1.523.305-.609 5.484m-10.359-10.055l-.609 2.438 1.523.305v13.406m69.467-4.57l-5.18 7.008 3.047 10.359 4.875 4.875.305 5.484-7.617-2.133h-6.094m23.46-1.219l-2.437 14.32-7.312 7.617-1.219 8.531-6.094 4.57-1.219-3.047-4.57 3.047-3.047-2.437-3.656 3.047m-3.351-34.429l9.14-.305-.305 4.875 5.18-.609.914 2.438-2.742 4.875 3.047 2.133v3.656l-1.828 5.18-1.828-1.828-1.219 1.523-2.437-.305-1.523-2.437-.914 2.438h-4.266l1.828 6.094-2.133-.609-1.828 2.133m10.359-66.42l-8.226 16.148-1.828.609-2.742-3.352-3.656 1.828-4.57 4.57-1.523 5.484m54.538 56.061l-2.133-.305-.914 4.57-8.226.609-3.351-4.266-1.828-6.094-16.148-.305m-60.326-79.826v-.305m0 1.828v-1.523m1.523 3.047l-1.523-1.523m16.453-5.179l2.742-8.531 6.703-1.828m-15.234 10.359l.305-2.742 2.133-.609m-2.437 3.352l-4.266.914-1.523 2.133-4.875-.305m3.961.609l-.609 2.742 2.437 1.828m57.28-17.367l-.914-3.656 9.445-10.969 2.437-15.843-3.351-5.179-.914-6.398m-56.67 48.139l3.351 3.352.914 5.179-1.523 2.742m-14.32-1.219l-.305 1.219m24.679-18.281l3.961 1.219 2.133 3.047 3.961-1.828 8.531 2.742 4.875-2.742 8.226 1.523 5.484-3.047 2.437 6.094 2.133.914-.305 3.352-3.961 2.133-2.437 4.875m-76.17 23.156h.914m.609-2.133l-.609 2.133m2.133-17.367l.305 2.742-3.656 7.617 1.828 4.875m-31.687-14.015l-5.789 7.617m38.694-14.625l.305 5.789m-29.554 6.398l-1.523-5.484-4.266 1.523m13.101-.609l-2.437-.305.914 2.133-1.219 2.133-1.828-.609-2.133 2.133-.609-.914m-16.148-7.617l3.656-3.961 5.18-.609 2.437 4.57-.914 3.656m9.445 3.352l.609 2.438-1.523 2.437 4.875 3.352-.609 7.008m-.609-26.812l-.914 2.438 1.219.304.609 4.875m21.937-5.179l-2.133-2.133-6.398 1.219-1.523-1.523m216.627 28.64l-3.961 5.484m0 0v17.671l2.437 3.656m-64.287-31.991l-9.14-1.523-1.219 1.523-4.266-.305-4.57 2.438-2.437-.914-2.742 3.047-8.226-1.219-2.742-1.828m5.484-24.679l-3.656 3.961-1.828.305m-15.234 7.313l4.266-2.133m3.961 23.46l-.305-2.742-8.531.609-2.133 6.094m2.742-25.288l-1.219-1.523-4.875 1.523-1.523-4.57-5.789-5.179 1.219-1.828h7.008m20.413 24.679l-2.742-1.523-4.266 3.656.609 4.266m6.398-26.812l-4.875.609.609 1.219-2.437 3.047-4.265.305M196.6 221.367l-.609-.305m-57.28-5.18v-1.828m17.671 1.828l.305-1.219m-17.976 1.219l-1.219.609m15.843-69.771h16.757m1.828 77.693l-3.047.914m-12.187-10.664l1.828 2.438m10.359 8.226l.305-2.133-1.828.305m-21.632-19.195l.305 4.875m37.171-50.882l17.671 14.015m-4.266 49.053l-12.797.305m-35.647-6.398v1.828l1.523-.914 1.219 1.523m0 0l1.523-1.523 3.961-.305m25.593-4.57l4.875-4.875 1.828.609.305-1.828 5.789-2.437 3.047.305M167.35 223.5l-1.828 2.438-1.828-1.523-2.437 1.219m-28.64-3.656l1.523-2.437 3.961-1.219-.609-1.828m46.616 5.179v4.875m-9.75-25.593l.914-3.961-.914-.914 1.523-37.78h7.312l-13.406-9.75m4.57 52.405l-16.148-.914-.305 1.219h-5.484l-.914 1.523-2.133-2.742-2.742 4.265m-18.585 5.484l6.094-1.219 4.57 1.828-2.133.914-3.047-1.523-6.398 2.437m31.382 4.875l1.523 3.047-1.219 1.828 1.523-.305 1.219 3.656-.305 1.219m-15.539-17.367l2.742 3.351-.305 2.742-15.539-1.219-5.789 1.523m19.804-11.273l-7.922-8.836-7.617.609-1.219 2.133m44.178 28.335l-2.133-2.133 1.828-4.57-.609-1.828 4.57-2.437 2.133-5.484 2.133 1.219m-50.272-34.429l1.219-2.437h14.625l1.219-7.008 4.57-2.437 2.437-10.969h12.797l2.742-11.578 12.187-5.484m209.619 84.701l-4.875.305-.305-2.437 2.437-4.875 2.742-.914m.914 12.796l-2.133-3.047 2.437-3.961m-38.389-53.014l-6.094 5.789-3.656-.914m-35.647 0h27.421l.609-.914c10.484 20.161.305.914.305.914h7.312m-39.304 11.273l.609 17.367-4.875.609-4.875 12.796 3.047.914 2.133 7.922-5.484 1.219-2.437 3.047m12.492-89.576l1.219 3.047 2.437 40.218h-4.57l.305 2.438-18.281-9.14M196.6 221.976v-.609m67.334-8.227l-2.437-1.219m-43.264-27.726l7.008-1.219 7.617-6.398m-19.195 24.984l-15.843 1.523m35.038-26.507l20.413-11.882m-54.537 38.389l.914 5.179 3.351 2.438-1.523 1.523 2.742 1.828 2.437-.305.914 3.961m61.545 8.835l-2.742-2.437v-7.008l-2.437-3.961m-50.272-11.578l3.351-4.875 1.219-12.492-4.266.914v-3.961l-5.789-1.828-7.312-7.008m87.748 1.219l-17.671-8.836-7.922 3.961-3.047-2.437-6.703-1.523-1.523-3.352-5.789-1.523-3.351-6.703 2.133-1.523.914-5.484-1.828-9.14m-60.326 0l9.14-3.961v-3.047l3.961-1.523h6.398v-10.664l-1.523-1.219m106.942 13.711l-1.219 6.094.305.609m-63.069-.914l-1.219-7.617-2.742-1.828-2.742-5.484 3.351-3.047.609-7.008 1.828-1.828m.305 27.726l-.305-.305 3.961-2.742.609-3.961 5.484-3.047v-2.742m28.944 135.277l-1.523 3.047m21.938-40.217l3.047 4.266.599.99-.714 4.819m.62-3.194l3.678.031 3.02-3.263h3.391l1.963 2.856 7.14-.357 5.494-.1 2.359-.257v-1.606l2.499-1.25 3.57 2.499 1.606.714 4.864-6.187.134-3.629-1.101-1.057 3.064-.014-.178-1.218 1.963.147.357 8.21m0 0l1.963.535.892 1.785m0 0v2.677m0 0c14.379-1.307 1.963-.893 1.963-.893m0 0l.21-2.24v-2.742l1.219-1.523 1.219.914.914-5.179 2.437-3.961 1.828-.305 2.133-20.109h1.828l4.266-4.266" fill="none"/><path d="M326.992 230.067l2.701-.007 1.223-1.145-.138-2.174h-4.844l.195 2.07z" fill="#363" stroke-dasharray="1.2 0.6"/></g><path d="M363.796 127.897l17.733 7.568.552 3.315 1.492.552.331-.166 2.928 1.16 2.508.299 4.348-.066 7.001 1.923" stroke="#666" fill="none"/></g><path d="M137.4 37.2h275M36.9 137.7h476M.4 275.2h549M36.9 412.7h476M137.4 513.2h275m-139.2 36.3c-53.387.04-105.563-16.673-149.902-47.225-44.959-31.494-79.571-76.133-99.326-128.27C7.835 331.079 2.601 284.181 8.434 238.118c5.778-42.161 21.521-83.955 45.782-119.899 32.292-47.133 79.499-84.34 134.283-102.821 27.257-9.565 55.744-14.221 85.005-14.32M273.2 549.5c-37.549.09-71.971-14.314-101.458-37.171-30.952-25.046-54.873-59.056-71.536-96.761-22.715-53.033-31.25-110.421-27.18-168.919 4.296-52.405 19.057-103.555 46.921-149.292 21.218-33.177 49.562-62.789 85.31-80.131C226.152 6.928 249.05 1.139 273.2 1.078m0 548.422c-19.746-1.032-31.392-20.098-40.218-35.952-12.473-25.009-18.967-49.222-25.288-76.17-13.709-66.291-17.507-136.14-14.625-205.658 3.071-54.687 9.666-109.491 25.898-160.261 8.208-23.256 18.121-50.457 39.304-65.811 4.712-2.683 9.454-4.577 14.929-4.57m0 548.422c14.423-1.229 22.007-17.714 27.421-29.858 13.93-32.539 19.012-65.822 24.374-99.935 9.253-70.687 10.944-144.317 7.008-216.627-3.495-49.724-8.886-99.495-21.815-145.576-6.466-19.356-12.288-41.914-29.371-54.293-2.388-1.096-4.726-2.247-7.617-2.133m0 548.422c36.223.025 68.864-15.398 95.974-38.999 41.452-37.148 67.273-90.894 79.826-144.418 14.662-61.056 14.072-128.245-1.828-188.901-13.942-53.693-41.238-107.459-84.701-142.589C336.509 13.837 306.362 1.148 273.2 1.078m0 548.422c50.513-.01 99.223-15.41 141.676-43.569 42.524-29.001 76.206-69.941 97.049-118.233 19.44-45.6 26.662-95.428 21.166-145.314-5.652-47.642-23.581-95.101-52.709-134.363-27.387-37.607-64.427-67.499-108.161-86.529-31.504-13.355-64.702-20.355-99.326-20.414" stroke="#000" stroke-opacity=".5" stroke-width=".3" fill="none"/><path d="M551.048 777.404c.423-79.994-36.484-159.163-98.107-210.228-61.305-51.788-146.281-74.613-225.157-59.412-84.018 14.42-159.213 71.149-196.518 147.77-34.7 68.85-38.064 152.549-8.836 223.939 30.519 78.024 99.268 139.712 180.065 161.784 77.74 22.602 165.118 7.721 231.251-38.999 66.603-45.839 110.714-122.804 116.387-203.526.72-6.532.907-13.183.914-19.804z" opacity=".26" fill="url(#B)" transform="translate(-1.8 -502.3)"/></svg>