<svg xmlns="http://www.w3.org/2000/svg" xmlns:xlink="http://www.w3.org/1999/xlink" width="537" height="537" viewBox="0 0 536.58 536.395"><defs><clipPath id="A"><path d="M0 0z"/></clipPath><clipPath id="B"><path d="M0 0z"/></clipPath><clipPath id="C"><path d="M0 0z"/></clipPath><clipPath id="D"><path d="M0 0z"/></clipPath><linearGradient id="E"><stop offset="0" stop-opacity="0"/><stop offset=".493" stop-opacity=".024"/><stop offset=".571" stop-opacity=".035"/><stop offset=".636" stop-opacity=".067"/><stop offset=".696" stop-opacity=".149"/><stop offset=".73" stop-opacity=".213"/><stop offset="1" stop-opacity=".546"/></linearGradient><radialGradient xlink:href="#E" id="F" gradientUnits="userSpaceOnUse" gradientTransform="matrix(-0.2140537,1.3757674,-1.2456613,-0.1940294,303.11099,18.168516)" cx="99.958" cy="139.375" fx="99.958" fy="139.375" r="45.07"/><radialGradient gradientUnits="userSpaceOnUse" fy="189.75" fx="265.1" r="349.8" cy="189.75" cx="265.1" id="G"><stop offset="0" stop-opacity="0"/><stop offset=".49" stop-opacity=".023"/><stop offset=".57" stop-opacity=".035"/><stop offset=".64" stop-opacity=".067"/><stop offset=".7" stop-opacity=".149"/><stop offset=".73" stop-opacity=".213"/><stop offset="1" stop-opacity=".546"/></radialGradient></defs><g transform="matrix(1.25 0 0 -1.25 -91.731514 628.18689)"><path transform="matrix(4.666451 -1.031634 -1.031248 -4.664702 -91.453445 1084.159546)" d="M158.392 145.58a44.901 44.901 0 0 1-89.803 0 44.901 44.901 0 0 1 89.803 0z" opacity=".259" fill="url(#F)" fill-rule="evenodd"/><path d="M502.005 287.999c.669 75.592-42.372 149.749-108.662 186.178-65.455 38.053-151.193 36.818-215.662-2.853-65.771-38.642-107.169-114.901-103.432-191.171 1.913-77.056 49.66-150.984 119.363-184.037 67.044-34.114 152.073-28.193 213.998 14.504 58.46 38.657 94.826 107.298 94.396 177.38z" fill="#fff"/><path d="M294.666 489.391l1.425-.475 2.6.475h-2.125zm-1.2-.225l.25-.475-1.425.225-.975-.7-.7.475-1.8-.5 3-.225 2.6.95zm-4.65-.975l-.35.025.025-.1zm-.325-.075l-.5-.15h-.475l-.475.475-7.85-3.325-2.6-.7-1.675-1.425h1.9v-.475l-5.7-3.825-2.375-.7 1.425.95-2.15.225h2.625l1.675.725.475 1.675-1.675-.475 1.2 1.175-3.575-1.175.225-.475-.7.225.225-.475h-1.9l-.7-.95 1.65-.475-1.425-.95v.7l-.475-.7-.475.475-1.65-.725.7.475h-1.425l-.475.475-1.9-.475-1.425.475-5-1.425h-2.375l-.95-.95h-1.425l.475.475.7-.475.25.95-7.375-.225-.95-.475 2.85-.25-1.9-.225.25-.475-1.425.7-1.675-.225 2.15-1.425-2.375.95-1.45-.25-.225-.7v.95l-1.9-.475.425.425.275.05h-1.65l.7.7-1.275-.175 1.75.65-1.425.25-.95-.25.45-.675-3.775-.5.475 1.175-1.425-1.425-1.175.25-1.2.95-.475-1.2-.25.25-1.175-.25.95.95-.25.25-2.125-.725.7.95-2.375-.225-.225-1.2-.475.475-1.425-.7 1.65.95-3.325-.475.475.95-.475-.725-.725.25-.95-1.425.25 1.65h-.95l-.475-.7.475.95-1.425-.725 1.175.725-2.125-1.2 1.425 1.2-2.625-1.425.475.475-.95-.25-1.425-.475v-.475l-.225.25-.95-.475.225-.475-.475.475-1.175-.95.225.95h-.225l-1.45-.475v-.725h-.475l-.95-.225.475.7-1.175-1.175-1.2.475-1.65-.725-2.625.475h1.425v.725l.725-.725 4.275 2.375-3.575-.225-.7-.475-.475.7-.3-.2-3.975 1.4-3.1-.475-.725.475-3.55-.95-3.1-1.2-1.675-1.175-1.425-.475 1.675.7-.95-.225-7.125-3.325-.725-.25-1.675-.95-4.025-2.625-3.575-2.375-8.075-5-.475-.225-.25-.25-5.225-3.825-.25-.225v-.225l-.9-.525-2.175-1.85-.725-.475-2.925-2.725 2.925 2.5 1.2.95 5.95 4.5 3.325 2.15-5-4.05-2.85-1.9-2.375-1.65-3.575-3.1-1.425-1.2-.725-.7-4.275-4.05h-.225l-3.575-3.55-.7-.5-6.2-6.65-3.325-3.8-.4-.55-.55-.4-5.7-7.375-3.325-4.275-1.75-2.45-.05-.075-.1-.1h-.025l-.15-.275-.3-.425-.4-.625-.05-.075-.05-.025-.1-.225-.675-1.025-.4-.4-.425-.875-.05-.075v-.025l-4.325-6.85 6.225 9 .95 1.2 2.375 2.6.95.725-.475-.725-.225-.225.7.225 2.375 2.375.95.725-.7-1.675.95.95-1.2-1.65v.225l-.475-1.9.95.475-1.125-1.375-.525-1.225-2.15-4.05-.225-.725-2.4-3.55v-.725l-.7-.95.7.725-.475-1.2v-.7l.725 1.175-4.05-10.7-.7-.7v-1.675l-.25-.475-.475-1.175v-.025l-.225-.475-2.625-4.5-1.65-.95v-.95h-.725l-1.2-1.9-.225-.725-1.9-2.625-.95-2.375-.725-.475-.225-1.425-.25-.475 2.625 1.675 6.175 8.325 2.625 2.85 1.425-.725.475.725-.475-.95.7-.725 1.45-1.65 1.175-4.3.475 1.675.475-.7.725 1.65-.725-2.375.475-.725.725.95h-.475l.7.5v1.65l.725-.7-.725-1.45 1.425 1.45-2.125-2.4 2.6 2.875 1.2 2.85-.475-1.675.275.475h.675l.125.25h.575l1.425 3.325.725.225-1.9-3.075 3.1 2.6.475-1.425-1.675.25-2.15-3.1-1.9-.7h2.85l3.1 3.075-1.9-2.85 1.675-.475 1.9 1.425 1.175-.7.475-4.525.95.7-.7-1.175.225-2.375 1.2.7-.95.25 1.65 2.6 3.575.25v-.95l.95.475-.475-1.425 1.9.225-.95-.475.725-.95-.475-.7 1.175-1.675 1.2 1.2-.475-1.9 2.85-3.1-1.675.25.475-3.1-1.175.7.7 1.425-2.375 2.15-1.9-.95-.725-2.15 3.1-.7-.225-1.675.7.475 2.15-4.025.475-.475 1.175 2.85-.95 2.6 1.2 4.05 2.125 1.425-.225 1.425h2.15l-.725 1.425.725.725.225 2.125.25-3.075 1.425-1.2 1.65 1.675v3.325l-1.65 3.1-5.25 3.55 2.625-1.425 1.425.95 3.1-3.8 1.9-.225h.95l1.65-12.625.25-.225 3.325-.475 1.2-2.85 2.6-1.2.725 1.675.475-.95-.25 1.9.475-1.425.475 1.175 1.675.25.95 2.125-1.425.95 1.65.475.25 2.4-2.85 1.9-1.2.95 1.425-.95 2.625-1.675-1.2 1.9 2.625-3.075.25 1.65h.475l-.725 1.675.95.475-.7.475h.95l-1.9.475 1.65-.25-.475.95h.725l-.25.25-1.175.7 2.6.725-.7.225.7.25v2.375l.95-.475v1.2l.25-.725.225 1.425.475-.7.475 1.65-.225-1.65 1.65.225.725 2.625.7-.95.725 1.9h.7l-.7.95 1.65-.475-.7 1.425 1.425-.725 1.2.95-.475 1.425.7-.7 2.375 3.1.95-.25.25.95-2.15.25-1.175-1.2-.475.95-.475-.95-.95.95-1.675-.95 1.675 1.425-2.625.95 1.65 1.2-1.9.475 2.625.225-.25 3.1.975-.25-.725-.7h1.675v.7l2.125.725.25 1.9v-1.9l3.325.95-.95.225 1.175 2.875 1.425.475v.95l3.1 2.85-1.175.7 2.125 4.525-.95.95-2.375-1.425-2.375.475v-.95l-2.625-1.2-4.025 1.2-2.4-3.1-5.225-2.125h.475l-1.425-1.2.25 1.2h.7l-3.075.95-1.2 3.075-1.675-1.65-5.925-2.85-1.2.7-1.9-.95 1.675 1.425-1.45.25.25.475.725 1.425 1.175.225 4.275 4.3 6.675 1.65 1.65 4.75 9.75 10 .25 3.1.95-.725 4.75 1.425.95 1.425h-1.2l2.625 1.2 4.05-.475 2.375-1.9.95.475.7-2.4 1.2.725-.725-1.425.725-.95 2.15 1.425v.95l.475-.475 1.65 2.15.95-.25-4.275-3.8 1.675-.95-.95-2.15 2.6-1.425 4.525 4.75-.25-1.425-3.55-2.85 2.125-1.65 1.675.95-2.375-3.575 2.85 1.9-.475-1.65-1.9-.725 2.85-2.15 3.8 1.675.25-1.425 1.175.95.95-.725 1.675 2.15.225-.725 1.425 3.1-4.025-.95.475.95-4.525.95-.25 1.2 6.425.7 1.425.95-3.075 1.2 4.5.95-.225-1.2 1.9 2.625.95-.475.725-.25-.725-.95 7.375 1.9-2.625 2.625-.95-.7-1.9.7-.475.25-3.1-2.625.25.95-1.675.475.475-.7-1.65-.25-.475 2.15-2.85.225 1.65 1.2 2.375-.95-.475.95.725-.475 1.175.7.475 1.425-1.4-.175.45.175-.95.725.725 1.175 1.675 2.15 2.125.7 1.425 1.45 3.1.475.225 3.075-1.175-1.175-.475-1.9-.25 2.85-2.6-.475-.95.225 1.175.725h-2.375l3.325.475v-.725l3.8 1.2.725 1.9 3.575 2.6 1.175-.225-.95-1.425 2.375.225 1.9 1.675 4.275 1.425 2.625.725 1.675 2.125 1.425-.95.475-.225-.25.475-.475 1.425 2.85-.25 2.4-.225-1.675.475.475.475 1.9 2.85.25-1.9v-.475l.7.95 1.675 2.375 1.175.725 1.2-.725.95 1.675-1.675.7 6.9.25h4.75l10 1.175 1.65-.225-.225-.725 2.375.475 1.2-.7.95.95-.25-.95.95-.475 1.675 1.175 2.125.25.25.95.225-.25.25-.225 2.125.475.725.7 2.15 2.15h3.075l1.2.95-3.575 1.65-.475 1.2-3.1.225-.225.975-1.9.225h1.975l-.55.475h4.05l.7-.95 5.95 1.2-2.85 1.175h1.425l-.95 1.2-5 .7v-.475l-.475.475-1.675-.95-1.65.475 1.175.475-1.175.95.7.725 1.925-.25 1.9.95 1.65-.475 3.575 2.625-.95.95h-1.425l.7.225-3.075.5 2.125.225-.475 1.2-3.8-.475-1.2 1.65 1.2.725-3.325-.475-.725.225-2.125.725-.725-1.2-.7.725-2.625-.725 1.425 1.2-.475 1.175 5.225 1.675.725.225zm1.725-17.5l1.35-1.2-1.2 1.2zm-177.475-70.625l-1.425-1.65v-.725zm5.775 11.7l.175.425-.225-.475zm-12.225-10.95l-.675-.975-.5-.9zm-1.175-1.875l-1.4-2.2-.95-1.675 1.9 3.1zm-2.35-3.875l-1.9-3.325-.25-.225-.95-1.675-1.175-2.35.225.225-1.425-2.875.475 1.2-3.325-6.65-1.425-3.1-2.625-6.175.25.95-1.2-3.575-.475-1.175.25 1.175-1.675-4.775v-.225l-.25-.5-1.4-4v.475l-.125-.475-.05-.15-.075-.325-.075-.075-.15-.175-.15-.725-.025-.05-.075-.4-.225-.725-.25-.475-.225-.725-.25-.7 1.9 3.8.95 2.15 2.15 6.175 3.075 8.325.975 2.375h.225l1.425 2.15.475.95v-.25l-.95-1.65 1.2 1.175.475.95.95.25 1.9 4.275 1.65 4.75-1.425-1.65v.7l1.2 2.625zm-18.55-41.6l-.225-.475v-.275l-.25-.925.25.725v.025l.225.675zm67.575 99.575l.9.75v.025l-1.175-.95zm123.85 33.35l-2.375-1.2.7-.225h-1.425l.25-.475h1.9l.225.475.95-.25-.7.725 1.9-.25.475.475-1.425.25-.725-.25zm-1.675-2.15l-1.65-.7 1.9.225zm25.675-2.375l-1.175-.225.95-.725h2.375zm-2.375-.7l-1.65-.475.95-.25 1.425.25zm-68.475-1.45l-4.275-.7 2.85.225-.475-.475 1.65.475v-1.425l.725 1.425v-.7l2.15.475zm62.525-.225l.025-.05.225.05.95-.725 2.375-.475-3.075.475-.475.675-.35-.075-2.75-1.075.225-.7-.475-.475v.475l.25 1.175 2.75.6zm-58.25-1.425l-1.9-.25h-1.175l.7-.7 1.675.475-.95-.475 3.8.225-1.425.475-.725-.225zm2.625 0l.7-.95h.95zm-20.7-.475l-1.425-.95-.7-.25h-.25l-.125-.075h-.05l-3.625-.625-1.175-1.2-.475.725-4.05-2.15 6.175 1.425 1.2.25 6.65 2.85-1.2-.25-1.175-.7zm25.925 0l.475-.475-1.9-.25h2.15l-1.675-.225v-.25l2.85.725zm-2.85-.25l-.475-.95 1.175-.7 1.675.225zm-16.875-.475l-.25-.475h1.2zm9.5 0l-.7-.225.225-.475h.475zm-.475-.7l-.475.475-.7-.475zm73.95-.25l-1.65-.225 4.75-1.675.225.725zm-85.35-1.425l-.25-.7 1.425.7-1.9-1.175-3.325-1.425.95.95 2.375.475zm31.15 0l1.425-.225-.475-.725v.25zm-9.05-.225l.725-1.2 1.425.725-1.2-.725.725-.475-2.375.95zm66.575-1.425l1.425-.95-1.9-.25-.475-.7 1.2-.725-2.625.95.25-.7-1.2.475-1.65-.725 2.375-1.9 2.6-.95 1.675-.25-.25 1.9.475-3.075 4.775-4.275 3.55-3.1 3.575-1.2 1.65-1.175.725-.725h.475l.95.725-.225 1.425 1.425.225 1.65-2.125-.475-1.2h1.675l4.275-3.075h2.375l-.7-2.15h-.25l-.7-1.9 2.125-2.375 3.575-2.15.475-3.8-1.425.725v-1.675l.95-.95 3.325-.475-2.15-.725.95.725-2.125.225 2.125-4.975.725.475 1.425-.725h.25v.25l.225-.25.475.25h.725l.475.225h.475l.225.25.725-1.675h1.65l-.7-1.9 1.65-1.9-1.175-1.2 4.975-.95-3.55-3.075-.95 1.175-.725-1.175-.7.95-1.675-.725.725-2.125-1.425-1.675 3.8-1.175.225-2.625-.7-1.425-1.2.475-.225-2.625 2.125-2.125-2.85-.25 1.2-.475-1.425-.475.225-1.425 1.2-.475v1.2l1.65-4.3 1.425-1.175-3.075 1.9-5.725 6.425-2.125-.725.95.725-.95.475-3.325-1.675.95-3.325-1.425.95-.95-2.375-.95 1.65-1.425-1.175 2.125-2.375 2.15-.725-.25-.7-.225-.725 1.9.25-.95-.475.95-2.875-.95.725-.725-2.15.725-.475.225.95.475-6.4 1.675-.95-1.2-.25 3.8-.95-2.125-5.7 3.575-1.9 4.025.7 5.225-3.325.725 1.425-.7-1.425.7-.475-1.175-.25-.475-.95h-.025l.475.975h-.7l-2.375 1.9.95-1.425-3.1 3.325-.95-1.425-1.9-.725-1.9-.475v-1.175l1.425-.25-1.425-1.675h4.525l-2.375-1.425-5.725 2.875 2.15-1.45.7-3.325 3.35-.95 1.425-1.65 2.125-2.375 1.425 2.125 2.375.95 2.15-1.175.95-1.675 1.9.475-2.125-.95-3.825 2.375-.95-2.125 3.1-2.625 1.9-6.175-4.05-1.9 1.675 3.325-2.625 5.45-2.125.475-2.85 2.625-2.4 2.375-2.375.725-2.85 3.55-1.425-.225-1.65-1.425 2.85-4.275v-2.375l2.85-3.1 1.2-1.2 1.175.95 2.625-.475 1.175-3.075-3.025.425 3.125-2.45.5-.3.5-3.925-.9-5.3-1.2-4.825 5.8-8.025-.2-.4v-1l.825-.8 1.5-2.725 1.3-3.5 2-5.325-.5-1.4.2-2.4 1-.8h1.7l.925-.4.6-1.3-.6-1.925-2.325-2.2-.3-1 .9-.9 3.425-1.6.4.3h.8l.7 1.2.8 1.7.7.6 1.1-.1.5-.7.3-3.6.8-.8v-.425l.4-.4 1.225-.1 2.8-.8-.1-.9.9-.1.4-.4.9.5.8-.4.6.7.5-.3.825-1.8-.525-.7-1.2-1.2-1 .2-.175-1v-.05l.375-.7h-.025l-.35.7-.125-.65-.4.5-1.1-.8-1.1.2-.3.7-.7-.2-.7-.8-1.825-.1-1.2-.725-2.1-.5-2.3-.8-1.8-1.4-1.325-1.1-1.3-.9-1.7-1.6v-1.1l.8-2.525 3.625-3.1.6-2.3.4-1.725.9-.8.8-1v-.825l3.125 1.1.95-.7.725-4.275h1.425l-4.275-1.925-.25-2.375 1.9-.475-3.1-.95.25-.95h1.675l2.375-3.075 4.025.225v-2.375l2.4-2.85-.975 3.1 1.45 1.425 4.025-2.15-1.65-2.625-2.625.475.475-3.075 1.425-1.2-.7.725 1.65.7 1.2-1.425h-1.425l.475-1.65.7.95 1.425-.725 2.85-6.9-4.975-3.55h-8.1l-2.375 3.8.725 2.125-.447 3.104 1.723 1.544-2.404.099-.9.493-3.43.296-2.775.353-1.796-.242-.702-.05-1.055-.093-1.938-.398-1.396.048-5.47-.005-5.123.25-2.644-.003 4.292-1.886 2.188-2.563-.725-1.9-2.85-2.6h-.225v-.475l.225-.725-.25.725v.475l-4.5-1.425h-5.475l-4.275 2.125-4.525-1.175-5.225-4.525-5.7-.225.475-1.45 1.9-.225-2.625-.475v-1.2l-6.175-.475-1.675-1.9-.225-1.65 2.6.7-.475-3.325 1.425-.725-1.425-.7-.7 1.425-.475-1.675 3.075-.7-.7-1.2 1.9-1.175-.95-1.2 3.1.725-2.625-1.675 3.1 1.2 3.8-2.375 2.125.7.475 2.375 1.675.25 5-2.15 3.325 1.425 1.65 2.375 2.15-.475 2.15 1.675-.475-4.75 1.425-3.325-3.575-12.15-6.425-2.125-.95 1.425-2.6-.25-5.95-3.55-6.9 1.425-5.475-.25-.95 1.425-5.225.475-.725 1.425-4.275.975-5.225-2.625v-4.525l-.25-.225-3.325-1.675-3.55 2.15-6.675 1.9-1.65 3.55-5.475 2.15-3.325.25-6.2 4.025-.475 1.425 3.825 3.325-1.675 3.35 1.9 3.075-1.9-.95-1.675 2.375-5.7-.7-4.275 1.65-3.325-.95-4.05 1.9-8.325.475-3.55-1.175v-.95l-.25-.475.225.475v.95l-2.6.225-3.325-1.175-2.625.95v1.175l-5 .95-1.425 3.35h-1.425l-4.025-4.775-8.325-1.9-2.625-3.075-.725-4.45-.225-.075-2.15-1.675-4.5-1.425-4.3.95-3.325-2.85-2.6-.225-2.625-3.8-2.925-.775-5.4-4.225-.95-2.625.725.725 1.175-4.05-1.65-1.675.475-5.45-2.15-3.575.95.475 5.475-2.85 2.125-2.85 1.675-3.8-4.05 6.65-5.225 2.625-.95-.25-.7-1.175-3.35-.975 2.375-4.025-.225-1.425 2.85-1.2-2.375.475-.95 1.2-.725-2.15 1.675-.95-1.675.475 2.15-1.425h-1.2l1.45-1.2-.25-.475 3.1-1.175-1.9.475 1.425-1.2h-1.675l.725-1.425.95.25-.475-.725 1.175-.225.475-2.625 1.2-1.175 2.375-1.2-2.375 1.175 1.425-1.425-.725-.225 1.2-1.2.225-2.375.95-.475-1.425.475 2.375-3.075-.225-.725 4.05-3.575 7.6-8.55 4.05-2.85 4.5-.25 7.15-2.125 6.9-3.8h11.875l8.8-1.2-1.65-.25 3.8-.95 2.125-1.9 1.675-.7-1.2.225.725-.7.95.225-1.2-.7 2.375-2.375 2.625-.475v.475l.475-.725-.225.95.7-.95.25.95.95-.95 3.55-.475-.225.95 1.175-1.175.95.475 1.425-2.15h1.925l.225-.7-.95.225 1.675-1.9-2.375-4.05 1.175-.475v-1.175l-1.425.225 2.625-.95h-1.9l-.475.725-.975-2.15-1.425.25 3.35-4.05 7.825-5 1.675-2.6 1.9-.725-1.425-.225 4.275-4.3-1.425-.95 1.425-1.65 1.9-1.675-.7-1.675-4.05-1.425-2.375-2.85.475-2.375 9.975-5.475 2.15-2.6 7.85-2.15h5.95l.475-.225h5.225l.475.225h7.375l.475.25h3.575l.475.225h3.075l.475.25h2.15l.475.225h2.125l.475.25h1.675l.475.225h1.2l.475.25h1.425l.475.225h1.175l.475.25h1.2l.475.225h1.425l.475.25h.25l1.425.475 4.025.95 2.625 1.65-.475-.225h-.95l10.7 3.325.7 1.425-2.375.95.25.95h.7l5.25 1.9 2.125 1.675 10.7 4.525.725.475 3.325 2.6-.95 2.15.7.475-.475 1.9 1.2 1.2-2.15.225h-.95l-.475-.25h-.475l-.475-.225.475.25h.475l.475.225-1.175 2.375.7.95-.95-.225 1.425 1.65-2.6.95 1.65 3.1 2.85 3.8.725.95 2.85 1.9-.725.475 1.925.475 7.825 8.325 8.1 6.9 6.425 7.375 8.075 16.4v2.375l1.425 1.2-1.2-.725.5 4.05-1.675-.225-4.05-3.825-6.65-3.325-2.85-2.6-2.15-.25-4.025-3.1-5 1.675-2.15-.95 2.625 2.15-.25 1.425-7.85 3.325h-3.55l-.725.7-.475.475-.475-1.425-5 7.625-4.025 1.175-1.9 6.9.7-.25-1.9 2.625-4.275 1.9-.95 2.85.95.25-2.375 1.425-6.425 9.75-3.575 3.1-.7 3.075 2.85-4.275 3.575-1.9 1.65 6.425-.7-5 2.125.225 7.625-7.6 1.175-2.625 3.575-.95 2.85-3.55.7-4.05 3.1-1.2 2.85-1.175 7.625-6.9.225-4.275 3.8-6.175 5.25 2.125 1.65 2.625 9.525 5.95 1.9 2.6 8.325 6.9.475 2.85 7.125 5.7.7 2.875 2.625 1.9.725 3.075 2.6 2.625-.95 3.325.725 1.675h.95l1.9 7.6-3.8 1.9-4.775-1.425-1.9.475-2.125 2.85v2.625l-4.75-10.475-4.3-2.125-1.175-1.675h-2.625l-.475 5.475-1.65-.725.225-4.275-3.1 2.85-.225 2.375-4.525 1.2-3.8 4.525-.95-.475 1.2 1.175-.95 1.2h-.025l-.225.225 2.625.95v1.2l1.9-.25 1.425 1.2.475-.475 5.225-4.75 3.325.475 4.275-.95 3.35.95 4.275 5.225 3.075-3.1 7.625 3.1 4.75 2.375 10.7 10.7 1.425-1.65 1.425.95 1.425-1.9.475.475-.225 6.175-2.85 2.85 2.85-2.625v-.225l.225-5.475h.7l.725.725.475-1.425.725 2.125-.475-1.9 2.625-.225 2.6 3.075-.225-1.65-2.375-3.35 5.925-.225 2.15 4.275-.725 3.325 1.2 1.2-.475-1.675.475-.7.7.95-.225-1.9 1.2-.725.475-3.075 5.225-7.85 8.55-6.425 1.425-1.9 1.2-1.9 2.375.7.95 1.9v2.15l1.65 3.1-.7-.475.225 1.9v1.175l1.2 1.425-1.2 3.1v2.85l-.225.475.25-.475v2.625l-1.925 3.55-.225 1.9 1.175 1.925v2.375l1.675 3.325-.475 1.175 1.675 7.85.225 5 1.2 4.75v3.8l-.95 1.2.7 3.1-.225 1.9.95-.95v2.125h.95l-.475 1.2.7-.475-.225 1.65h.7l-.7 1.675 1.175-.475-.7 2.85.95-1.2v.725l-.95 1.2.95 1.9 4.75-2.375-.225 1.9.475-1.425.95 1.65.95-.475-.475-1.65 1.175.225-.475 1.425 2.375-2.6 1.425-4.775v1.9l.25-1.65v1.175l.7.25-.225 1.425h.7l-.475 1.9.475 2.15-.7.225.7.25v1.9l-.7 1.65 1.425-.95.225 1.2 1.675-3.575 1.425-1.9-.225 1.2 1.425-1.2.475-2.625.475.725.225-3.575.725-1.425v.25l-.25 1.175.25-.95.7-4.975.25 1.425 1.65.225h.25l.95-3.575.95-.95 1.175 3.35.25 2.125v.475l-.475.725-.475 3.55-.25.95-1.425-1.65-.7-2.625-1.2 2.15-.475.7-.225-1.9-.475 1.425-.25.725-.7 6.425-.25.475v.225l-.225.25-.725 1.65.475 3.325.725-2.125.475 2.85.95 1.425 1.175-1.425-.225 1.9.475-1.425v1.2l.95 2.375v-.25l.7-3.325.25 1.425-.25 4.05-.475.225-.7-.7-1.425 2.375.7-.95-.225 3.325v1.425l-2.375 4.75-.475-.7-.25 1.65-1.175-.475.7.95 1.2-.7.7-1.9.725-.25v-.95l.95-2.125v-.25l.225-4.525.95-.95.475 2.375v.95l-.225.725.225.95-.475 7.375-.95 3.325v.725l-2.375 4.025h-.95l-.95-2.125h-2.6l-1.2 2.85-.25 2.85-.7.95.225.475-.475.225v1.925l-.475 2.375v2.125l-.475.725.725.7-.475 2.15.225.475.95-2.15.725-.475v.95l-1.425 2.625.225-.25-.475 4.05-.475.725v1.65l-.225.725v1.175l-.95 1.2.7-.25-.475 1.2.25.225-1.425 1.2 1.175 1.2-.475.225-.475 2.15.25-.25-.725 1.9.475.25-.7 3.075-.725 1.2-.225-.475-.475 2.625-.475.95.225.225-1.175 2.375-.25-.475-.475 2.375-.475.475-.225 1.2-.5.225v.95l-.7.95.225.5-1.175.7-.725 1.9.25-.95-.25.725-.475-.25v1.2l-2.6 4.025-.25-.225-.95 2.85h-.475l-.7 1.425-.25-.475-.475 1.675-.475.475.475-1.675-1.175 2.625v-.95l.225-.475-.25.475v.475l-.225-1.2.95-3.075-2.625 5.7-.95-1.425.25-1.675-.725 4.275-.95-1.425-3.075 1.2-.25-.725v-1.425l-.7.475-1.9 2.85h-.025l-.025.025-.675 1.175h-.475l-.25 1.2-.95.95-1.65 3.325v1.175l-1.425.95.225-4.025 1.2-2.15 1.175-2.625-2.125.725v-2.375l-1.675.95-.7 3.325-2.375 3.325h-.025l-.025.025-2.35 3.3-1.175 2.15 1.175.25 3.1-3.575-.475 1.65 2.15-2.85-4.3 7.375-.95 4.05 2.15-1.9.225.7.725-1.425 1.2-1.425-.5 1.425.725-.7-.475 1.175-.25.475-.225 1.675 1.9-.475-.225-.475.95-1.2.475.25-.725.475 1.2-.725-.475.95 2.85-2.6.7.225.25-.95.475.25-1.675 2.375.475-.25-.95.95.25.475-.725.25-.225 1.425-.95.95-.25.95-2.375 2.15-2.15.95-2.375-.725-.475-1.65-1.175.95-4.525 5.925-2.15.95-2.125 2.4-.95.225-.25 1.2-2.375 1.65.25 2.15-4.3 4.75-9.975 7.375-7.85 4.275-1.425.725-2.6.225h-.025l-1.9.25-4.75 1.9-1.65-1.425-.25.95-.95.475-.475-2.375-.225-.25 1.175-1.9h.95l2.375-2.15-2.375.725 2.375-1.425-2.375.225 1.2-1.9-.475-.7-6.9 4.75-5 2.375-6.9 3.1-4.025 4.025.225.725-1.2.225-2.375 3.35-1.9.225-2.375 3.8 1.9-1.425.475.475-5.95 4.05-.475-.475 1.2-.95h-.95l-7.125 1.175-5.25 2.625-.475-.25-.7-.225-.475-.25-.725-.475.725.5.475.225.7.25.475.225-.475.475h1.425l.475.25.25.225h.475l-.725.475 1.2.25-5.225.95-1.425.7-1.675-.95-2.15.725-.475.95 1.925-.725 3.325 1.425 3.55-1.425 5.475-.475 4.75-.7 2.625-1.675h3.8l3.8.25 7.15 3.55-6.2 1.675-1.175-.475-2.85 1.9-.25-.25h-.475l-.225-.225h-.475l-.475-.25-4.775 2.15-2.6-1.2-2.15 1.2-.95-1.675-1.9.25 1.9-1.675-6.65-.225-1.425.7v.475l-3.575.475 1.2.95-2.15-.225-3.8 1.65-.725 1.675-1.175-.475-6.675.25-6.875.95-2.875 1.425-1.175-.25v-3.575l.225.475.475-1.175 2.4-.475-.475-.25 1.65-.7-6.65 2.125-.95-.225-1.675-.475-.7-1.425-1.425.225.95 1.675-2.85.7-.95 1.675-2.4 1.425-.7-.475v.725zm190.7-173.6l-.475-2.6.475.225.475.95-.475.25v.225l.25.25v.225h-.25l.25 1.2zm-324.4-91.35l.075.05-.725-.225zm6.975 261.85l-.475-.25h-.95v.025h.95zm11.65 0l.475-.225h1.425l.475-.25-.475.225h-1.425zm27.825-.475l-2.625-.25-.325-.225h.075l-2.6-1.675 2.525 1.675-2.775.225zm-18.325-1.425h.475l.5-.25h-.25zm1.675-.475h.225l.725-.25h-.25zm1.65-.475h.475l.5-.25h-.25zm146.25 0l1.65-.725 1.45.25zm-143.875-.725h.25l.475-.225.725-.25.475-.225h-.25l-.475.225-.725.25zm4.525-1.65h.25l.7-.25.475-.225.725-.25.475-.225.25-.175-.5.175-.475.225-.7.25-.475.225zm48.275-.475l.25-.725h-.025zm121.5-.95l2.85-.95-1.9.95zm-120.8-.25h.025l.475-.95.475-.7-.5.7zm-42.525-1.05l1.175-.375.225-.225-.7.225-.5.25zm23.525-.125l.05-.05.175.05.4-.5.55-.45 4.525-.25 2.375 1.2h2.625l1.425-1.9-2.375 1.9-4.775-1.675-3.8.475-.55.7-.575.45-6-1.375-1.425.475 1.425-.25zm-20.425-1.275l.45-.15.225-.25-.3.175-1.825-1.85-1.425-.475 3.225 2.325-.15.075zm-56.4-.15l-.225-.725-.725-.25-.475-.475-1.425-.7 1.2.7zm58.025-.7l.725-.25.275-.275-.75.25zm-52.775-.975l-2.625-1.425.725.475h-.475zm54.675 0l.475-.25.225-.15-.45.15zm9.275 0l-.475-1.675 1.2.25-1.675-1.425 2.625 1.175 1.425 1.675.95-.475-4.275-4.525-.25-.225-1.175-.475.475 1.175-.475.25-1.675-.95-.225-1.2-2.15 1.2 2.375 1.425-1.175.475.225.7.725 1.425.7-1.65.725 2.125zm-15.675-.475l-2.625-1.675.95-.95-.95-1.175 3.8.7-5.225-2.125-.5-2.35.025-.025-.05-.075-.2-.875-2.125-1.925 1.325 1.6-.85-.625.95 1.175-.95-.95.7 1.425v4.05l1.2 1.425zm-4.575-7.675l.025.1-.45.45-.45-1.6zm94.45 7.675l2.125-1.425.475.225 1.925.95h-1.2zm-81.825-.4l.25-.075.25-.25zm-2.125-1.025l-.475-.725-1.9-.225zm101.775-1.2l-.95-.225 1.2-.95zm-166.675-.95l-.475-1.425-.725.25zm44.7-1.425v-2.6l-5-4.3 3.575 4.3.225 2.125zm200.2-.225l1.675-1.675 3.575-1.9zm-67.275-.95l.7-.475 1.2-1.425h2.125l.375-.125 2.5-.125-.725-.475-1.775.6-2.5.125-1.2 1.175zm-162.9-.25l-2.375-3.075h-.7l.95.475 1.175 2.375zm20.925 0l-1.425-.475.25-.7 2.375.475-1.9-.95-1.425 1.175zm-14.5-.225l-.7-1.425.475-.475-1.2-.475zm44-.95l-3.325-1.675-.725.475zm-6.175-.725v-.7l-1.45-.5zm32.1 0l-.95-.475-3.575.25-1.425-2.15.7-.95v-.25l-.225-4.975 3.325.225.7 1.2h1.2l1.9.225 2.15 1.9-2.15.725zm-40.675-.225l.25-1.675-1.425 1.425zm15.225-.475l-.95-.25h1.425l-.475-.725-1.2.725zm110.1 0l.7-.475v-.025zm-140.075-.5l.475-1.425h-1.175zm23.325 0l-1.45-1.65.475 1.425zm191.875 0l.475-.7 2.85-1.425zm-73.95-.45l.475-.25-.475.225zm-160.5-.25l-.225-.475h-.025zm-30.625-.15l-1-.8-.225-.25zm90.55-.1l-3.8-1.65-1.675.225-3.1-3.8.25-2.85-2.85-.7-2.15-3.1h1.9l-.7 1.175 2.125-.225-1.175-.725.475-1.175-1.2-.25.95-.225.475-.25 5 2.375 5.7-1.175 2.375.475.475 1.175-4.75 1.425h5.475l.475.725-2.15-.225 1.2.475-.725.7.975.725.475-1.2 1.9.725.225 1.65 1.9-1.175 1.2 3.8-1.2 1.65-1.425-.7-.225.7-2.375-2.375 1.65 2.85-1.65.25-3.1-2.85-3.1-1.425 4.525 4.75h-.25zm-20.225-.225l-.225-1.425-2.85-1.2zm6.425 0l-4.05-1.2-.475.475zm191.65-.475l.975-.9.225-.05zm.975-.9l-2.15.425 1.65-1.2 1.2-1.9-.475-2.85 5.7-1.65 1.425-2.15.475.225 1.425-1.175.475-.475 1.9-.25-2.125 2.625.225-1.675-.95.725v.7l-1.9 1.45-.95 2.85-3.075 1.65zm-270.85.425l-3.7-3.4.125.075zm-3.7-3.4l-.35-.175-1.65-1.65zm263.825 3.15l-2.375-.95-2.375-1.425-6.65-.7.7-.725.95.725 1.9-1.425 2.875-.25 2.375.95 2.85-.225 9.5-1.2-2.375.95-.7 1.675 1.175-.25-1.175.475-1.675-1.425-3.8.95-1.675 1.675zm-199.975-1.425l1.2-.95-1.2-.475zm-35.175-.225l-.725-1.425-1.425-.725-.225-.475-.725-.225-1.675-1.9 1.675 2.375 1.675.7zm30.675 0h.225l.725-.725-1.675-.225zm-6.675-.475l1.425-.475-.225-.95-1.675.475zm-4.5-.475l1.425-.475-.95.225v-.95l2.375.475.475-1.9-2.85.475zm11.65 0h.225l1.9-.25h-.95l-.225-.7zm-1.9-1.9l.95-.725h-2.15zm58-.725l-.475-1.175h-1.65l.95-2.625-1.675.475 1.425-2.375 1.425.475.95 1.175-.225.95zm-79.175-.475h.725l-.475-.95-.975-.7-.7-.5h-3.325l3.075.5h.475zm163.6 0l4.375-.925.85.225-.7-.25-.15.025-.1-.025zm-162.175-.225l-.225-.95 1.425-.25h-1.2v-.725l-.225.5h-.725l-1.675-.975.975.975zm5.95-.25l.7-.475-1.9-.7zm18.55 0l.95-.225-.475-.725zm50.175 0l-.725-.95.95-.725zm148.85 0l.95-1.175.225-.25 1.675-1.425 3.575-3.1h.95l.225-.475.95-.475 4.275-2.375 4.775-5.225 3.075-2.85 2.375-3.325-4.025 4.75.95-2.625-1.2 2.625-6.9 6.9-1.9 1.175-.225-.475-.95.95v.25h-.25v.075l-1.425.4-6.65 5.475h-2.375l-.25-.5-.475.5h.725l.475.7 1.425-.475.7-.225-1.175.475.95-.25zm-196.425-.225l.25-1.925-1.9.725zm45.675 0l-2.15-.725.225-1.675-1.175.725-1.425-2.15.7 2.875-2.125-.725-.475-3.1-1.675-1.65 2.15-1.425 1.175.475-1.175.7 1.175.475 3.575-.7-.725 1.175-3.325.475 1.675 1.2 4.75.475.25.95-1.2-.475.725 1.425-1.425-.95.95 1.9-1.2-1.425zm-93.45-.725v-.95l3.8.725-5.475-1.45zm8.8-.7h2.125v-.025h-2.15zm214.7 0h2.375v-.025h-2.375l-.475-.225zm-195.225-.025l-.225-1.175.95-1.2-1.425.25zm8.575 0h.225l.725-.225 1.175-.25-.225-1.65-.95 1.175-.95-.475.95.725h-1.9zm-30.2-.225l-.725-.25h-.7l-.725-.225.725.25h.7zm37.575 0l.95-.475-1.2-.25h-.7l.225.25zm176.425 0l-.475-.25h-1.65l-.475-.225.475.25h1.65zm49.225 0l-2.85-.25.95-1.175.7.225.25-1.425 1.425-.95.475-.225 1.675-.95-.475.7v.25l.475-.25.7-.225 3.325-2.15 5.95-5.7v-.725l-1.65 1.425 1.175-1.425 4.275-3.075 3.8-6.675 5.25-6.65.7-.475-1.425 2.85-1.175 1.2h.225l-3.1 4.525-1.425 2.6 1.925-1.425-.25 1.2-.725.7-2.375 2.625v-.475l-1.175.95h.475l-.725.475-.225.7.95-.95-1.675 2.625-1.9 1.65.95-.225-1.65 1.2-.725 1.175-.95.725-.475.475.95-.475.25-.25h.225l-2.85 2.375h-.475l-2.15 1.425-2.125.725-1.2 1.175zm-255.625-.25l.25-.475-1.475-.525-.2-.175-3.55-1.2 3.75 1.375zm41.625 0l-1.2-1.9-.95-1.65v1.425l.25.225zm-37.35-.225l1.2-.475-1.675-1.675 2.15.25-1.175-.475-9.275-2.85-1.675.475 3.325.225v.95l2.15.475v.95l3.325 1.675v-.725zm26.4-.25h.475l.725-.225h-.475zm6.2 0l-.475-.95-1.925-3.325v1.9l1.675 1.675zm120.3-1.175l1.425-3.325 1.425 1.175-.475 1.425zm-89.875-.475l-2.625-.725v-.225l1.2-.95 1.675 1.425zm-38.05-.475l.475-.95-1.9-.25zm-47.8-.25l-3.075-1.9 1.9 1.675zm51.6-.475l-.7-1.175-.475.475zm49-.7l-1.425-.95.95-1.2 1.65 1.425zm-42.575-.475l.95-.725-1.425-.225zm22.825 0l-4.75-1.2-1.425-.475-.475-.95.7-.1-.225-1.075 2.85-.95 1.9 1.175 1.425-1.65 1.9 2.125.475.725h-1.65l.95.95-1.675-.95-.7.225-.475.25 2.125 1.175zm104.4 0l-.725-1.675 2.625-.95.225-.225v.225l-1.175 2.375zm-118.175-.25l-3.1-2.125.475-1.675 5 2.375zm-3.85-.35l-.2-.825-1.425.225zm39.275-.125l-1.2-2.125 1.425.225zm75.6-.225v-3.325h2.15l-.475-.475-.725-1.2 2.875-.725 1.9 1.45-.95 1.425-2.15 2.375-.45-.4zm44.95-.475l7.125-.475.25-.725-.475.725h-2.375l-4.5.225.025-.225.425-2.625h-.225l-.2 2.625-.05.225h.025zm-24.025-.475l.5-.725.475-.95h-.025l-.475.95zm-177.85-.725l.95-.475-.95-1.425zm-1.675-.225l.475-.25-1.175-.95zm70.15 0l-1.175-1.875h-.05l-.2.2-.225.725-1.675-.25-.725-1.425h.025l.7-.725 4.75-.475-.7.725.475.475.7.725-2.25-.225 2.5.7h-2.375zm-82.5-.725l1.175-.95.475.95.25-.95-2.375-1.2zm193.3-.475h.025l.225-.7zm21.9-.475h.225l1.9-4.75 3.325.7 4.05-2.125 4.525-6.675.95-4.025.7-1.2 1.2.475-.65-1.025-1.5 1.5-.7 4.275-6.675 7.625-4.5.475-2.15-3.8 2.375-1.675-.225-2.15v2.15l-1.675 1.2-1.9-2.15-7.6-1.2-9.05 2.875-1.65.225-1.9 1.9 1.9-1.65 1.65-.475 8.325-2.375 7.625.95 3.325 4.75zm-176.675-.225l-1.2-1.2.25.95zm52.775-.25l-.225-.95-2.4-1.2-.7-.225 2.625-.25h.95l3.325 1.675-1.675.725-.95-.975zm-24.025-.725l.725-1.425 1.425.475-.95-1.9 3.1-2.125 2.375 4.025zm-97.25-.225l-1.425-.725v.025zm107.725-.475l-2.375-1.9h3.575zm-75.375-.25l-1.675-1.65.475-1.2h-1.175l.475 1.2zm-5-.475h.725l-2.375-1.9zm86.8-.7l-2.85-.25-.475-1.65-5 .225-2.375-1.425.95-1.425-1.9-.475-.725-3.1 1.2-.225-1.9-1.2.7-1.425.25-.475.475.475h.95l.7-.475 1.675 1.675-.475 3.8 1.65 1.425-.7.25 2.125.475-.225.95.725-.95.95.95-.725-1.675 1.425 1.425.475-.475v1.9l1.675-.225zm3.8-.475l-1.2-.725 1.425-1.175 2.4 1.425zm-1.9-.475l-1.425-1.425h.95zm-22.825-.95l-1.9-2.85-.475-1.9 2.6.95h2.625l3.1-1.425.95 1.425-1.425 2.375zm.475-3.8l-1.9-1.425-2.15.225.95.25 1.2 4.275-2.15-.475-1.425-.95.475-1.425-1.9-.475-.25-.25-1.425-4.05.475.475v-.225l-1.175-.95.95.475-.25-1.425-.7-1.425.475.225-.25-.95-.95-.475.725-.475h-1.2v-.95l-1.65-.95-1.675.95.95-1.175-1.9-1.675.475-.475-4.75-2.625-1.675.725-.475-1.425.25 1.425-1.9 1.175-2.375-1.65-.475 2.85.95 2.15-3.35.225-.7-4.75 1.675.7-1.925-1.9h.95l-2.6-1.65-.95-2.15-.475 1.2-1.2-.95-3.55-9.275 5.7 6.175-1.2-2.15 1.2.725-3.325-5.475 3.8 2.15-1.675-1.9 2.375 1.175.95 1.675.475-.725 1.45 1.425-.975.475 1.45.95-1.2-.225 3.325 1.675-.95.95 2.15.7v-1.425l1.9 1.425v-1.425l-1.675-1.425 1.2-.25h-1.675l1.675-1.425-2.375.725-2.625-3.575 3.575 1.2-.95-1.425 1.9 1.175-.25-1.425.95 1.425v-1.65l.95 1.175.475-.95.95 1.2-1.425.475 1.2.475-.725.95 1.9-.25-1.65.475h1.175l-.95 1.2.95-.725.25 1.2v-1.2l1.675 1.2-.675.675-.3.05 1.2.95h-1.2l1.45.225-.95.25 1.175.225-.7.475 1.425.725-.25.7.725-1.175 1.175 3.55v-1.9l1.2.725-.725.7.95-.7.475 1.175-.475-2.85.95.95v3.1l.725-2.85.95.225h.225l.95 1.2-1.175.7.7-.225-.475 1.425 1.675-1.675.95 1.425-1.2.95 1.425-.475-2.85 1.2h1.675l-.25.7 2.15-.95-1.425 1.675 2.15-.95 1.425 1.425-2.15.95 2.625.25-1.9 1.175 1.65-.225v.7l1.425-.95-.475 1.9 1.9-.95 1.425 2.375-1.175.725-1.2-1.425.725 1.65-1.9-1.175 2.85 2.125-.25.25-.725.55 1.925-.325 3.8 1.2-.475 2.85-1.675-.95.725 1.425-1.425-1.175.95 1.425-3.575-1.2 1.2.95zm.7-7.625v-1.425l2.625 1.425.95 2.15.475.7-2.85-.475-.25-.225-.95-.725zm-18.25-16.2l1.15-.2-1.2.25zm220.125 27.15l2.15-1.675h-1.425zm-297.45-.475l-.25-.95-.475-.25zm22.575 0l1.675-4.525-.475-.95.95-.25h-.95l.225-.475.95.25-1.9-3.575-2.375-1.9-.95-1.9-3.95-1.85-.325-.775-.1-.075.35.8.075.05.375.9h.025l.7.25.95 4.5 1.425 1.2v1.175l1.425.725-.225 3.1.7.95h.725zm99.65 0l-1.425-2.625.225 2.15-2.15-.95v.7l-1.175-.225-.725-1.425h1.675l-1.9-.475 2.85-.725-1.425-.225 1.65-1.9 1.45.475v.95l3.075-.475-.95.475 5.475 1.425-1.425 1.425-1.425-.475.225 1.425-1.9-.725 1.2.95-.725.25-1.175-.95zm-126.75-.725l-.225-.475h-.025zm119.85-.225l-1.425-.475 1.175-.475zm-3.8-.475l-.95-.725 1.425-.225-1.9-.475h1.175l-1.425-.475 1.2-.25-1.675-.95 1.2-.725-1.2-.7 1.425.225-1.65-.7 1.65.225-2.85-1.175.475-.725.475-1.175 1.675-.25.65 1.35h.025l1.35-.05-.6-.825 2.125-.225-.225-1.425.95.475.475-.95.7.95v-1.2l2.15 2.375-.475-2.375 1.425 1.9.225-2.6 1.45.7-.725-1.65 1.425-.25.475.95v-1.175l1.2.475-.725-.725 4.05-1.9-1.425 2.375 1.65-1.425.725 1.425-.25-1.65 1.675-1.2 1.425-.475 1.425 1.425-.95 1.9 1.425-.7.725 3.8-.725 1.175-.475.95-2.625-.475 2.15 1.675-.725.7-1.425-.7 1.425 1.425-.95 1.9-.7-.95-.725.475v-1.425l-1.175 1.425v-2.625l-.475 2.4-1.425-.725 1.175-2.625-.95 1.675-.7.475.7-1.675-.475-.475-.7.725v-1.2l.7-.475h-.95l-.475 1.675-3.075-1.2 2.85 1.675.7 1.175-5-1.175v.7l-.225-1.65-.475.95-1.2-.475 1.675 1.425-.25 1.2-2.125.7.7-1.175h-1.175l1.65-.725-3.8.475 1.425-1.675-2.375 1.425 2.85 2.15-2.6-.7zm-116.775-.25h.025v-.475h-.025zm72.525 0l-.225-1.9-2.15-.7 2.625-2.625-1.9-.95-1.2-1.9.95-1.2 1.2 1.2v1.425h1.675l4.025 3.575-.7.475 2.6.95-5.7.475zm-39.45-2.125l.225-.475.475-.475-.95-.975h-.225l-1.2.475zm46.6-.95l-1.425-.5-.475-.95zm-85.85-.475v-.025l-.475-.225zm330.775-.025l.475-1.425 1.9-2.375h-.25l2.625-3.075-.725.95 1.2-.25-.95 1.2-1.675 1.9-.225 1.175-1.9 1.9zm-257.05-.95l-1.2-.475 1.9-2.125.25 1.425zm-35.425-1.425l-.475-.95-.25-.7.225.7zm58.475-.475l-.475-.95.725-.475-.25.725zm-71.575-1.65l2.15-.95-.95-1.2.475-1.65-1.425-3.575 1.3 1.075-3.2-7.5-2.375-2.625-.95-.95-.725.25v.225l.725 1.925 2.125 2.375-1.9-1.675-3.075-.475-.5 1.2h.025l2.85 1.9v2.125l1.175-.7 2.375 1.175 2.375 3.825-2.375.225 1.2.475-.725.95-4.275-1.65-2.375-.25v1.425l4.275 2.625h3.325zm12.375 0l-.7-1.425v-.475l-.25-.475.225.475v.475zm32.35-2.375l.7-.725 1.425.475zm56.1-.475l-2.6-2.625.475-1.9-1.2-.25v1.925l-.475-1.925-.225 3.35-1.425-2.625-.975 1.2-1.175-.975-.725-1.65 1.2.7-.725-1.425 1.425-1.175-.475-2.15-.95-.95-4.425-4.2-1.025.15.575-.575-.425-.375-.025-.025-3.45-1.625h-.025l-1.65-2.15-.475 1.2v-.95h-1.675l1.425-.475-2.375.7-.225-2.375 3.075 1.2-1.9-1.2.3-.925-.275-.275-.975.5.475-.95-.3-.3-.875.3.575-.575-.05-.05-.525.375v-.875l-.125-.1-.125.5-1.9-2.375.725 2.85-.95 1.425-1.425-3.075.875-1.975-.175-.175-2.85-.475.225-1.2-.95-.225.475 1.175-1.9-1.425-1.425.25-.475-1.675-.225 3.8-.25-1.9-.225 1.425-2.15-.225 2.625-1.675-.95.475 1.175-2.125-3.075 3.325.7-2.85-1.65 2.375-.25-2.375-1.2 1.175v-1.425l-.475 1.425-.475-.95-.95.25 4.05-1.675v-.95l-4.275 2.375.95-2.125-1.675 1.175-.95-1.425 2.15-.7v-1.2l-2.375 1.9.475-.7-1.9-.725 1.175-.7-1.425.475-1.65-.95 2.6-.725 1.2 1.2-1.9-3.35v.95l-1.675 1.425.725-2.125-1.2 1.65v-.95l-1.175.25.475-1.425-.95.7.475-1.65-.725 1.175.25-1.425-1.675-.475 1.2-.475-1.925-.225-.225-1.675-1.2-.225.95-.95-1.175.475.95-.475-1.2-.25.25-.95-.725.725.475-1.2-.95.725.725-1.675-1.425-1.425 2.85-2.625-2.15.475 1.425-.475-1.65-.225 1.175-.475-1.175-.95h1.425l-2.15-.725h1.9l-1.9-.95h1.425v-1.9l.725 2.625.95-1.9.225 1.425 1.425-.475-.475 1.425.725-1.425v1.425l1.2-.725-.25.95.95-.7-.225.95 1.425-.475.7 2.125.25-1.175.225 1.9 1.425-1.425.95 1.425v-1.425l.725 1.65.225-1.425.25.95.95-.7v1.425l.475-1.425 1.175.95-.475 1.425 1.2-1.2 1.9 2.85.25-1.425 1.425.725h.025l.75-.125 1.125-1.3 1.65.9 1.125-.15.075-.275-1.675-.475v-.725l.95.725-.475-.725 1.9-.95.725 1.2.7-1.425h.025l4.375 1.675 3.55-.525 1.1-.925.825.65h.025l.075-.025-.225-1.1 4.05-1.175 6.9.7h.7l-2.125 3.325-2.85.25-.475.475 1.1.425h.025l1.25-.2-.55.5.1.05 1.875-1.025.7 1.675-1.1-.075.775.3h1.05l-.2.325.8.325.35-1.125-1.2-3.325 1.925.725-.95-1.2.95-.475.475 1.9 1.65.95-.95.475 1.425.25-1.425.475 1.2.475-.35 2.1.6.225.7-1.85.7 2.375-.025.025.2.075.775-1.05v1.2l-.175.075.95.375h.025l2.05-.45.95 1.175-.175.425 1.05.4.1-.1-.025.125.25.1.25-.225 1.175.225-.7.725 1.425 1.9.225-.475 1.425 1.65-.225.475.7.95h.25l1.425 1.675 1.175-.475.95 1.425-.7.95.475.725.7-.25-.225.725 2.625 2.85 3.8 2.125-1.675.25.725.95 2.85-.25-1.9 1.45h.225l3.1-.725 2.625 1.9-1.45 1.425-1.65-.95-.475.725-.625 1.9.625.475-.775-.05-.575 1.7.625-.7 2.625.225-1.425 1.675 1.425.7-4.525 2.15 1.9.25 2.85-1.925-2.6 3.825-2.55-1.175-.075.225.725 2.125h-1.425l.175-1.575.025-.025.025-.3-.05.325-.9.975v.6l-.225-.35-.475.525v.3l-.125-.175-.95 1.025.125.35-.3-.175-1 1.075.1.05-1.675 1.65h-.7l-.25.725-2.85-.725.475.95-1.65-.475 1.425.725-3.1 1.2-.95-.25.475-1.675-4.05.475-.225 1.675zm-30.2-29.025l-.225 1.9-1.675.725zm240.4 29.025l-.475-1.425 2.625-4.05.225.475v-.475l.95-.475-.95 1.425h-.475l-.7 1.175.95-.475 2.85-2.85v.95l-1.2 1.2 1.45-1.2-1.45 2.15zm-61.825-.25l2.375-3.075-2.125-1.675 1.9 1.9zm-199.25-.225l-1.2-.95.95-.25zm12.35 0l.25-1.9h2.15l1.175 1.9zm139.825-.475l.25-1.2.95.475zm-183.575-.95l-1.425-2.875 1.675 1.45zm46.15-.725l-.975-1.675.975.475zm-38.3-.725l.25-1.175 1.65.475zm.25-1.175h-.725l1.675-.25zm239.2.475l.475-.225h.475l.475-.25-.475.225h-.475zm-78.7-.475l-2.625-.475 1.2-.95-2.15.475 5-2.625zm-187.625-1.425l-1.65-3.1.7-.225zm182.4-.475v-.25l-1.2-.225.725-.95-1.2.475 1.425-3.325 2.625 1.175.7 2.15h.25l-.6.175h-.05l-.075.05h-.075zm-3.35-.25l-2.6-.475 2.85-3.325 1.425.725-.225 2.125zm21.875-.225h.025l.95-2.625.95-.95-1.2-.95 2.15-.475-1.425.25-.25-.475-.7-.475-.25.7v.725h-2.15l2.15.475-.25 2.6-1.175.25zm-160.5-.475l.25-2.15-1.2-.475zm-69.2-.475h.025l-.25-.475zm84.9-.25l-2.85-2.6.225 2.125zm-85.375-.7h.025v-.275l-.025-.05zm65.875 0l.475-.725-1.175-1.65zm171.45-.475h.225l2.375-3.325 1.675.225-1.425-.475.95-2.375.25-.475-.475.475zm-218.3-.475l1.9-.725-.95-.95v1.2l-.7-.475.475-2.375-.725-3.35.475.95v-.95l.25-1.9h-.95l-1.425 4.275zm39.475 0l1.2-1.675-.725.725-.475-.725zm151.725 0l-.95-1.2 1.425-.475.225.95zm-181.45-1.425v-1.675l-.7-.725.475 1.2zm322.45-.25l1.175-1.9v.475zm-295.8-.475l.475-.475-1.2-.95zm-14.525-.7l-.475-1.45-.7.975zm-3.55-.25h.7l.725-.225-.95-.725h-.25zm284.375-.225h.475v-.025h-.475zm-8.55-.25l1.675-2.375-2.15 1.9zm9.275 0l.475-.225h.475v-.025h-.475zm-85.375-.475l.475-.225h.25l.95-.5-.95.475h-.25zm87.025-.225h.25l.475-.25-.475.225h-.225zm1.675-.725l.475-.225v-.025zm-305.075-1.425l1.2-.725-.725-4.275.475-.475.25 1.675.475-3.325 2.125-2.625 3.325-3.8-.225-.25-5.225 6.675-.725.7-1.425-1.175-.725 1.425zm18.3-.725l-.475-1.175-.95.475zm-8.55-.7l.7-.25-1.9-.95zm9.5-1.425l.95-1.9h-.225l-3.325 1.175zm-7.125-.25l.95-1.175-1.425-1.675.95 2.15zm40.175-1.175l-.7-1.2h.95zm222.1-.25l4.525-2.6 1.9-2.625.475.475 2.85-6.175 1.675-1.675.475-2.625-.725-1.65-.475 3.1-2.15 3.8-3.325 4.75-5.45 4.525zm-245.4-.7l.95-.475-.7-.725zm209.725-.475l2.875-1.425h.7l2.85-1.425h.475l3.8-1.925-3.8 1.9h-.475l-2.85 1.425h-.7zm-258.925-.25l.475-.225-.725-.725zm103.9 0l-.725-.225-1.425-.475.475-1.675h-1.175l1.65-1.425 1.2 1.65.475.725zm26.4-1.175v-.025l-.95-.475v.025zm211.375-.25l.475-.225v-.025zm-336.925-.7v-.025l-.475-.225zm124.125 0v-.025l-1.425-.7zm-87.275-.25v-.95l-.95-.25zm4.05-.95l1.425-.95-1.425-.25zm-4.3-1.2v-2.375l-3.075-.475zm204.025 0l-1.175-2.85-.25 1.425zm-210.9-.225l1.425-.725-1.675-1.9.95 1.675zm16.875-.475l-3.1-3.8.475-.725.25.25.225-1.2 1.675 1.2-1.9-2.15v-1.425l-.725 1.675.725 1.425-1.2.7-.95-1.175v.95l1.425.475 1.9 3.075zm2.625 0l.7-.475h-.225l-.725-.725zm194.975 0l-.475-2.85-.95-.475zm-210.675-1.2l-1.9-1.425-.95-.7.95 1.175.475.725zm203.3-.475l1.9-.95h-1.65l-.25.725zm-186.9-.225l.475-.95-.95-.25zm299.375-1.675l.475-1.425h-.25l-.225-.225-.25.475-.475.95zm-3.575-.225l.275-.1-.025.1.075-.125.4-.125.225-.7-.625.825-.05.025.2-1.1zm-58.5-.475l1.675-.475 4.75-1.9-.95-.25.725-.25h1.9l1.425-1.425-1.9.725-.25-.725v.725l-6.9 3.1-.225-1.9 1.35-.525.075.025.05-.075 1.625-.625h-1.2l-.425.625-.125.05-1.6-.675-.225 2.15zm-51.1-.25h1.65l9.15-5.4 1.325.875 1.925-.575.2 1.525 1.675.475-1.675-.7v-1.2l5.475-4.025 1.675-1.675-6.9 5.475-.45.125-.025-.125-1.9.7-1.2-.95-.125.075-.1-.075-9.05 5.25-2.125-1.425zm109.125-.475l.95-.225.45-1.475.025.05.25-.975-.275.925-.2-.45v.975h-.475l-.25.95zm-338.125-.225v-3.1l.95-.475zm33.525-1.425l-1.175-1.45v.95zm240.175 0l4.75-2.4-4.75 2.375zm-303.65-.25l-.475-1.675-.25-.95v-2.125l-.7-2.375-.25-.95.25 1.175-.725-1.175-1.675-5.725-.95-3.8-1.425-3.325-.475-2.85-.475-.95-.475.95-.95-7.85.25-1.675.95 5.25.7.7.725 3.8 3.8 11.65.95 3.575 1.675 7.125-.925-.475zm131.25-.475l-.475-.25v.025zm124.825-.475h.025l-.725-1.425zm-16.625-.475l-.725-.95.95-.95.475.95zm-234.7-.475v-.725l-.725-.7zm370.475-.725l.475-.225.475-1.675zm-2.625-.225l.225-1.425h-.475zm9.025 0l-.225-.725 3.575-6.65.7-1.425 1.2.475zm-223.025-.725l-1.425-.95 1.175-.7zm-103.925-1.175l-1.65-6.2h.7l.725 2.4zm-56.1-.475l-.725-.95-.225-.95zm377.35-3.8l.25-.475v-.05l.475-.9v-.025l-.25-.925v-.025l-.7-2.6-.25 1.65.725.725.2.425-.025.1-.175.175v.675zm-52.775-.725l1.425-.225 1.65-2.15zm54.45-.25l.7-1.175-.7-.95-.925 1.625.925-.9zm-331.95-.225l-1.2-4.275 1.425-1.2-.475 4.275 1.425.975zm72.05-.225l-.95-.5v.025zm-57.3-.475v-.025l-.975-.475v.025zm56.1-.475v-.025l-.95-.475zm207.825 0l1.425-.725-1.425.7zm-321.475-.025l-.95-1.9-.725-.225-.475-.95 1.2.7zm-2.625-1.425l-.7-.225-.725-1.9h.475zm389.975-.7l1.175-4.525 2.625-5 .25-.95v-.475l.175-.175.3-.775.7-.95.25-.225v.225l-.475 1.2v.7l.95-2.6-.25 1.65-.7 1.9v.95l-.475 1.425v.5l-.325 1.35-.5.975.1-.425.475-1.2-.475.25.475-1.675.475-.725v-.7l-.7.95-2.4 5.95-.7.7zm3.7-4.8l-.125.525-.25.225zm-395.325 2.9l-.25-.475h.25zm394.95-.475v-.475l.725-2.375v.325zm.725-2.525l.225-.8-.225.95zm-395.925 2.5l-.475-.925h.25zm1.9-.225l-1.175-2.6-.725-.725.95.725zm307.225-.475h.7l.25-2.85 1.9-.475 1.675-1.675-3.35.975zm-247.775-.225l-2.15-1.2-1.65-.7-.25.95-1.175-1.425.225 1.175-2.125.475.475-1.9-2.15 1.2-.7-1.2.95-1.175v-3.35l1.9-1.425-1.675-.225 1.425-2.375-2.6.95.7-1.425 3.1-.475-1.2-1.425-1.9-.475 1.675-.475-1.675-.95.25-.975 2.85.725.7.95-1.175.475 1.9.475h-2.15l.725 1.425.7-.225.25.95 1.425-1.2-1.2 2.15 2.85.475-.7 1.9.95.475-2.15.7 1.675.475-.95 1.675 1.9-.25-.725 1.45h.25l.475.225-.475.25-.175.15-.025.075 3.525.725.725 1.175.225-1.175.475 1.175zm-14.75-.475l-1.175-1.425 1.65-1.9.25-.25.225.475.475 1.2-1.9-.25-.225.725 1.9-.475 1.9 1.425zm349.55-1.675l.475-1.65.25-.5v.5l-.25.225v.25zm-139.1-1.175v-1.675l-1.875-1.175.025-.2.425-1.725 1.9-3.325 3.8-3.075 1.2-3.35 8.075-.95 6.65 6.425 5.475 2.85 4.275-.95.95.725 1.9.95 6.2.475 2.375-.475h-4.05l-5.95-1.425-1.425-.25-3.55.725-4.775-2.15-6.65-6.9 1.675-.475-11.425 1.425-1.425 3.575-3.325 2.625-2.15 3.55-.175 1.725-.05.175.025.025-.025.225zm123.4-.25l.475-2.15-.225-.475zm-39.7-.7l.475-.25-.475.225zm56.125-.5v-.225l.7-1.425zm.7-1.65v-.25l.175-.15.075-.325.225-.7.15-.55-.375 1.025.225-.725.725-2.125v-.25l.15-.325.075-.375.375-1.1-.125.625-.35 1.05-.075.4-.3 1.15-.4 1.125-.075.35v.2l-.1.2v.025l-.125.475-.25.475-.475 1.2.475-1.325zm1.8-5.85l.1-.575v.25zm.1-.575l-.7 2.375-.725 2.375-.475.95.475-1.175.475-1.9zm-410.25 5.525l-.15-.3v-.175zm-.15-.5l-.2-.625-.025-.05v-.05l.225.45zm3.55-.275l-.95-2.6-.475-4.525.725 3.1zm-3.8-.475l-.225-.7-.475-1.425-.1-.625.1.375.225.725.25.475v.375zm-.8-2.75l-1.1-3.675.95 2.875zm-1.1-3.675l-.4-2.025.4 1.325-.25-.725zm-.4-2.025l-.325-1.05.25.7zm336.625 8.45h1.425l.25-1.9-1.425.25zm74.675-.225l.475-2.85.225.225.25-.475-.25.95zm-69.675-1.2v-1.175l-1.2-.25zm-38.525-1.175l.25-.475h-.025zm63.25-2.15l.25-.475h-.025zm-23.075-.7l.725-2.15-1.425 1.9zm-35.9-1.2l.475-.225v-.025zm60.875 0l.475-.225v-.025zm-31.85-.25l-.95-1.9-.25-.7.225.7zm-328.625-.7l-.25-1.675.475.25zm-8.1-1.925l-.225-.45-.25-1.2v-.475l-.225-.475-.475-1.9-.25-1.675-.7-3.325v-.95h-.25l-1.175-6.175-.475-2.375-.25-1.9v-.475l-.075-.125-.075-.85.05.775-.125-.275v-1.2l-.25-.475v-1.65l-.225-.475v-.975l-.25-.7v-1.2l-.225-.7v-1.675l-.25-.7v-2.15l-.225-.7v-2.15l-.475-6.425-.25-6.425v-10.225l.25-.475v-2.125l.2-3.025.025-.075v.475l1.9-16.65 1.2-8.3.2-.875-.2.625-.725 2.85v-.7l.25-.475v-.95l.225-.475v-.725l.25-.475v-1.2l.225-.475v-.475l.25-.475v-.7l.225-.475v-.95l.25-.25v-.95l.225-.475v-.225l.25-.725v-.7l.125-.125.1-.35v-.475l.25-.475v-.725l.225-.475v-.25l.25-.475v-.7l.225-.475v-.475l.25-.475v-.25l.225-.475v-.7l.25-.475v-.475l.225-.475v-.475l.25-.475v-.25l.25-.475v-.475l.225-.475v-.225l.25-.475v-.5l.225-.7.25-.475v-.475l.225-.475v-.475l.125-.1v-.025l.125-.4v-.2l.225-.475v-.475l.25-.225v-.475l.225-.475.25-.725.225-.475v-.475l.25-.475v-.225l.225-.725.25-.475v-.225l.125-.125v-.025l.1-.325v-.25l.475-.95v-.25l.25-.475v-.475l.225-.7.25-.475.225-.725.25-.475.225-.7.25-.475.225-.725.25-.475.475-1.425.225-.475.25-.7.225-.475.25-.725.225-.475.475-1.425.25-.475.225-.725.25-.475.225-.7.25-.475.225-.725.475-.7.25-.475.225-.725.25-.475.475-1.425.25-.475.475-.7.225-.475.475-1.45.475-.475v-.475l.25-.225.475-.95-.575 1.3 2-4.175v-.225l.225-.475.25-.225.225-.475v-.25l.25-.475.475-.475v-.475l.225-.225.25-.475.225-.25v-.225l.25-.475.225-.25.25-.475v-.25l.225-.475.475-.475.25-.475v-.225l.225-.475.475-.475v-.475l.25-.25.225-.475.475-.475v-.475l.25-.225.225-.475.5-.475v-.475l.475-.475.225-.475.25-.25.225-.475v-.225l.25-.25.225-.475.25-.225.95-1.45h-.25l.275-.275.925-1.625.325-.425.15-.275.475-.475.05-.125-.225.3.65-1.125-.25.475-.15.35.625-.825.475-1.2 1.675-2.125.225-.475.475-.725.825-1.15.125-.275.15-.125.05-.075.05-.05v-.225l.225-.125.05-.025-.525.85.25-.225-3.575 7.125.25.25.7-1.425.475-.475h3.825l-.25 1.9-1.425 4.275-.95 1.675-3.1 4.275-3.075 5.95-2.85 5.7v-2.375l.225-.475-.25.475v2.375l-.225.225-4.05 5.95-1.9 4.05-2.125 1.9v1.175l.475-.475-.95 1.675.7-.7-.475 2.375-.7.225-.25 1.2-.225.225.225.25-.475.475-.475 1.65-.225-.225v.95h-.25l-1.425 3.8-.25-.25-.95 2.4-.475-.475.475-1.45-.475.725-.225 1.2-.95.225.225.95-1.65 2.85 2.125-3.55.475 1.175-2.6 5.95-.475-.725v1.2l-.475.225v1.2l-.475.25.225.7 1.9-1.425-.225.725.225.7-.95 3.1-.225 6.425-.25.95-.225-.475-.025.1-.45 3.7-1.675 7.6-2.85 8.55-.475 5.95h-.475l.475 1.425v3.1l-.475 4.05v.95l-.475 1.9.475 1.65v3.35l-.475 1.9-.475-3.1.225-1.425-.475 1.675-1.175 4.025-.25 1.675 1.425-5.7.25.475.475 2.375v.95l.225 1.9.725-2.15-1.2 6.9v-2.15l-.7 3.35v4.75l-.25 5.225.25 2.375.225 4.275.125.725-.125-.25v1.2l-.45 2.725.7 2.75.225-1.425.475 2.375-.7 2.375.225 2.85-.225-.475.225 2.15v.475h-.475v-.25l-.475-1.425.25 2.15-.475-1.9 1.175 5.7.725 4.275.475 2.15.225.7.25 1.9zm-2.25-28.75l.125.225v.425zm.125.65l.225 1.25-.225-.475zm34.75-148.225h.025l-.075.15zm-7.4 11.325l-.25.25.25-.5zm-8.825 15.725l-.45.9v-.225l.225-.475zm-20.2 62.025l-.225.95v-.475zm.725-2.85v.25l-.175.65zm-1.2 8.55l-1.175 8.8-.725 6.675v-.25l.25-2.6.2-2.825.025-.05v-.225l.2-2.275.05-.1v-.5l.125-1.425.1-.225v-.95l.15-.95v-.025l.1-.2v-.55l.125-.925.025-.025.075-.175v-.425l.175-1.175.075-.075v-.475l.225-1.425.2-1.575v-.025l.05-.05v-.25l.475-2.125zm0-2.375v-1.175l.15-.3zm0 0l-.225.9v-.425zm-1.9 17.6v-2.125l.225-.425zm1.825 44.825l.075.6v.475zm3.175 17l-.475-1.9v-.225l.225.95zm415.4 4.275l.475-1.425v-.225l.25-.725.7-2.375v.25l-.95 3.55zm1.425-4.75v-.475l.575-2.075zm.575-2.55l1.325-5.775-.7 3.575zm1.325-5.775l.475-2.175.25-1.625.225-.95-.225.725.95-5.725.225-.7-.475 2.375-.475 4.05v-.25l-.225.95-.025.2-.225 1.475zm1.675-9.75l.225-1.9v.475l.25-1.425v.475zm.475-2.85v-.7l.175-1.15zm.175-1.85l.3-3.15v1.2zm.3-3.15v-.225l.05-.3zm.05-.525l.425-5.4.25-3.025v2.075l-.25 3.325zm.675-8.425v-.325l.375-4.775-.15 2.4zm.375-5.1l.1-1.4v.25zm-3 27.85l-.25 1.425v-.475zM85.641 339.841l-.7-2.625v-4.75l-.95-3.1h.475l.475-.7-.25-6.2.475-.225.475 4.75.475-.95v1.675l.475 1.425.475 8.8-.225 1.425-.475-2.625-.475-.475-.725-2.375.725 5.7zm370.475-1.2l1.65-.225-.95-1.425-.475-.475-.225 1.175zm-60.4-1.65l.25-.475h-.025zm-3.325-1.675l.225-1.675-1.175-.95v1.45zm-40.2-1.65l.475-.25-.475.225zm136.975-.975v-4.975l.725-3.1 1.175-.95.25 1.425-.475 3.325-1.2 3.8zm-27.575-.225l.475-.225v-.025zm-49.225-.475l.225-1.2 1.675.725.225-2.85h1.2l-.25-1.2 2.15 1.2v-1.2l-2.625-.95-.475 2.15-.475 2.125-2.125-.225zm-5.95-5.475l.25-.475h-.025zm1.175-1.175h.025l.225-.475zm61.6-.725l.25-.475h-.025zm-60.625-.475l.475-.225v-.025zm9.5-4.275l1.9-1.2-1.65-.475zm16.4 0l.725-.25-.725-1.425zm-358.1-.725l-.225-1.65.1.9zm393.3-.225l-.225-.475v-.25l-.25-.475.225.475v.25zm-384.5-.25l-.475-.95.25-3.55.475-.25zm383.775-1.9h.025v-.475h-.025zm-54.675-.95l-.25-2.6-4.975-4.05-.475-4.05 2.125-3.075-2.85 1.175-.225 3.1.475 2.6 5.45 4.525zm-336.525-.25l-.425-2.6-.225-1.2-.25-.7v1.425l.475 2.85zm339.375-.45l.25-.475h-.025zm1.9-2.375l.475-.25-.475.225zm71.1-3.575l-.225-3.1-.25 1.425zm-63.25-5.475l.25-.475h-.025zm-4.75-.475l-.25-2.625-2.6-1.9 2.125 4.3zm-36.625-.7v-.025l-.475-.225zm42.325-.025l.25-.45.45-.25h.025l.475-.95h-.025l-.475.95-.475.225zm33.775-.475v-2.6l-.725.95zm-77.525-.7l-.475-.25v.025zm-299.375-2.85l-.225-1.2.475-.7.225 1.425zm380.45-.95l-.225-1.675-.725.95zm-89.175-.95h.025l.475-.95zm-300.075-2.15l.475-1.175-.95.225zm298.425-.225v-.025l-.475-.225zm127.7 0l-.25-2.875.25-4.275v4.525zm-128.9-.725l-.475-.25v.025zm-.95-.7v-.025l-.7-.225-.475-.25v.025l.475.225zm-1.65-.95v-.025l-.725-.225zm88.675-.25h.025v-.475h-.025zm42.1 0v-1.2l.25-.225zm-42.325-.725l-.225-.475-.25-.225.225.25zm-.725-1.425h.025l-.25-.475zm-19.975-.475h.025l.225-.475zm19.5-.225h.025v-.475h-.025zm-19.025-.475h.025l.475-.95h-.025zm-53.25-.475l-.25-3.1.725-1.425 3.1-.475-.475-1.65-.25-3.35 1.425-.7-1.9-2.15-.475-.475-1.175.95-2.4-1.9-2.125 3.325-.475 3.8 1.65 1.2-.95 1.425h1.2v.725l-.25 1.65 1.9.475zm53.975-.725l.25-.475h-.025zm-359.525-1.175l-.25-1.425-.225.7.475-2.6.475 1.425zm-2.625-2.625l.25-.7-.475-1.675zm393.55-2.375l-2.4-1.425-.95.7zm-26.175-1.65l.475-.25-.475.225zm-370.45-.975v-2.375l.175-.4zm374.25-4.75h.025l-.25-.475zm-373.775-3.1v-.95l.1-.175zm426.1-.95l-.25-.7-.225-2.625v1.675l-.25-1.2-.95-.95v-1.425l-.7-.475h-.25l-1.175-2.85v1.2l-.95-.725-2.15-5.95.725-1.175 1.425 1.9.95-.475.7 1.9.475-2.15.475.95.25.25.475-1.2.475 2.15v.7l.225.475v.725l.25 1.425v1.2l.225.225.725 6.9v.225l-.25-2.125-.225-.95.225 1.425-.225-.95.225 1.65-.475-2.6zm-.725-2.85l.2 1.325-.2-.375v.25l-.225-.475zm.2 1.325l.05.1v.25zm-425.35-.375v-.7l.075-.1zm412.55-2.375v-1.175l.25-.25zm-412.075-2.3v-.3l.05-.1zm364.05-.775l-.225-.475-.475-.5-.25-.45.225.475.475.475zm-1.425-1.9v-.025l-.475-.225-.225-.475h-.025l.25.475zm59.925-.025l-.25-1.175-.225.225zm-61.125-1.175h.025l-.25-.475zm20.925-1.9h.025l.225-.475zm-61.1-.25l.25-.475h-.025zm61.575-.95h.025l.225-.475zm34.025-.95l-.475-.475.225-.475zm-410.675-1.425l.475-.225v-1.2zm415.65 0l-.475-.7-.225-.95h.225l.475.475zm.725-1.175l-.25-1.675.475.725zm-2.15-.25l-.475-.475-.225-.95zm-66.825-1.175h.025l-.475-.5-.25-.45v-.025l-.475-.225.475.25.225.475zm-351.175-1.075l.925-3.7.475-.95.725-3.075.475-.475.45-1.375-.925 1.85-.725 2.85-.7 1.425zm349.525-.6l-.475-.25-.225-.475-.5-.475.475.5.25.45v.025zm4.275-3.1v-.225l-1.9-4.525zm-351.925-1.175l.725-2.375.225-1.2zm263.95-2.625l.25-.475v-.475l.225-.475-.25.475v.475zm11.175-2.125l-.725-2.625-2.6-.25zm-273.925-.025l.05-.15.25-.7.425-1.275.225-1.425v-.075l-.225.725-.25-1.125v2.025l-.075.2-.025.075-.05.175zm279.15-.7l2.375-2.375-.95-1.2-2.375 2.85zm55.65 0l-.225-.475h-.025l-.45-.25-.5-.475-.475-.225.475.25.475.475.475.225zm-1.9-1.65v-.025l-.475-.225zm-331.95-1.325l.2-.65-.2.3zm.225-.7l.25-.375 1.425-2.85-.95 1.675-.475.7zm244.225-2.5l.95-2.375-1.2.7zm-19.975-2.15l-1.425-.475 1.425-.95.95.25zm-219.95-1.425l.475-1.9h.475zm-1.425-.95l.475-1.05v.1l.075-.275.625-1.4h-.225l.225-.95-.625 2.35-.075.175v-.625zm143.375-4.275l-.225-.475v-.475l-.25-.475.225.475v.475zm242.775-1.425l-.475-.725.95.475-.7-.7v-.95l.225-.725v-.475l.25-.475v-.7l.225-.5v-.7l.25-.475v-.725l.225-.475.725-1.65 1.9 3.325.7 3.325-1.65 2.15zm-296.275-.25l.225-1.425 2.15.95zm53.025-.7l-.225-.475v-.475l-.25-.475.225.475v.475zm103.9-.25l-6.4-3.325 2.375-1.675 3.075 2.15-.7.95zm37.35 0l.95-1.425-.95 1.2-2.375-.95-4.05.7 3.1-.475zm-56.35-.475l-1.675-1.175.7-.475zm-134.825-.95l-.725-.7 1.425-.25zm7.125-.225l-1.425-.475 1.175-.25zm-1.675-.725l-2.375-1.2 1.425-.475zm217.575-1.9l-2.375-2.625 1.675 1.425zm-43.025-8.8l-.475-.25h-.475v.025h.475zm-1.2-.475l-.475-.25h-.475v.025h.475zm-1.65-.475l-.475-.25h-.475v.025h.475zm-262.775-5h.025v-.475l.225-.475-.25.475zm53.05-4.5l-.25-.975.725-.7zm-49.475-4.525v-.25l.25-.475.225-.225zm258-.725l.25-.475v-.95l.225-.475-.25.475v.95zm-22.35-11.4l.95-3.325-3.325-1.2-3.1-4.275 1.9 3.8 2.85 1.2zm-224.45-7.875l.225-.225v-.15zm299.35-.225l-3.8-1.9 2.375.475zm-187.375-.225l-.225-.475v-1.2l-.25-.475.225.475v1.2zm-.475-3.325l-.225-.475v-1.425h-.025v1.425zm-15.45-2.625l.95-1.675-.725.25zm14.975-.95l-.225-.475v-1.675l-.25-.45.225.475v1.65zm-45.425-1.65l1.9-.95v-.025l-1.9.95zm-59.375-.425l.175-.3.725-1.2-.65 1.125.175-.175-.25.475-.15.075zm244.85-1.25l.25-.725 1.65.25-1.65.475zm-166.2-7.375l1.425-.7v-.025zm4.5-1.9l1.45-.7h.475l1.425-.725-1.425.7h-.475zm154.325-3.1l-.225-1.9-1.425 1.2zm-153.85-2.125l-.95-1.425.475-.725.95.25-.475-1.2-1.425 1.675zm68.025 0l.7-1.9 1.425.225v-.95l3.35-.475-4.3-1.175-2.6 4.025zm-49-1.675h.025v-.475l-.25-.7.225.7zm14.75-.225l2.15-1.675-.725-2.15-.225-.475-.25.475h-.225l-.475.25.475-.225h.225l-.475 1.175 1.425.95zm-18.775-.725l3.55-4.525.25-.225.7 2.85-.025-.225.05.225-.575-4.125.075-.15-.125-.175-.35-2.45v.725l-.225.225-2.375 1.675 2.375-1.2v.725l.075.15.05.425.05.85v.025l-2.325.675h2.15l-2.375 1.425-.475 1.675-2.625.725 2.375-.5zm11.4-.95l.475-.225h.475l.475-.25-.475.225h-.475zm1.675-.475l.475-.225h.475l.475-.25-.475.225h-.475zm1.9-.475l.475-.225h.475v-.025h-.475zm2.15-.475l.475-.225h.475l.475-.25-.475.225h-.475zm9.025-5.7l1.425-2.375-1.2-5.725.95 5.95zm122.7-2.15l.225-.7v-.5l-.225.725zm-13.325-5.7l1.675-4.75-2.85 2.125zm13.55-.475l.25-.725v-.225l-.25.7zm-114.125-5.225l-1.675-.725.95-.475zm83.7-2.875l-.725-1.65-2.85-2.15v1.2zm7.375-.475l-1.4-.5.675-.45-2.6-.225 1.925.675-.025.025zm-.475-2.6l.475-.475 1.9.475.95-1.2 1.65.95.25-.225-2.625-1.2-.475-2.125-2.6-1.675 2.125.225-1.425-.95-1.9-.225.475-.725-1.175-.475.475.95-2.4.25-1.425-1.425-.7 1.425 1.425 4.275 2.375 1.2 1.2-.25zm-56.125-.25l-1.675-6.175 2.625 3.1 5.7 1.65.725.25 8.55.7 7.85-3.075-8.325 2.85-8.8-1.2-2.6-.475-3.325-1.175.225-1.925-8.325-4.025-.225-1.9-.25 1.65.475.25 5.475 3.075zm129.125-2.85l-.725-.7 1.2.7zm-85.6-.475l-1.925-1.2.5.975zm-74.2-1.2l1.2-.475-1.2-.225zm139.825-.7l-2.15-1.675v-1.175l-1.9-1.425-1.2-.25.25-.7-.95-.25-1.2-1.65.25.475-1.675-1.2.475-.225-1.175-.475.475.7-1.675-1.175-.225-.475-.95-.25-5.725-2.85-2.375-2.15.725-2.125-4.05-2.375-1.425-1.45.95-1.175 2.625.7 6.9 2.875 11.4 9.975.725 1.2 1.425.95v1.425l.7.7.725-.475 1.175 1.2-.7 2.6h-1.9zm-68.725-1.425l.95-.725-1.9-1.175zm36.625-.475l-.475-.95 1.175-.25-.475.725zm46.125 0l-1.2-.725 1.2.475zm-121.975-1.675l-.95-.7 1.175-.475-1.425-.95-.725 1.9zm39.925-1.175l2.4-4.525-.95-.95 3.075-.725 1.9-2.6h-2.375l-1.175 1.9-3.35 1.675.25 3.8-.725-.725zm52.325-1.9l-.95-.475h.95zm-3.575-.25l-.7-.7h.95zm-14.025-2.375l-.475-.25h-.475l-.475-.225.475.25h.475zm-25.45-1.9l2.15-.475-2.15-.25zm7.375-1.675l1.675-.475v-.225l1.425-1.9-1.2-1.675 1.425-2.125-2.375-.25-1.425 2.15 1.2 1.175-.95 2.375-.25.475h.25zm-14.025-.95l-2.375-1.175.95.95zm-3.575-.7l-1.425-1.675-1.65-.225.225.7zm2.625-3.325v-.475l-1.175-.475zm-4.05-8.1l-3.075-.7-4.05-1.675 2.85 1.425zm-10.925-10.225l-.725-.225h-.475z" fill="#b9b9b9"/><path d="M310.816 388.591l-.95-.95.95-.95zm0-2.375l-1.425-.5 1.2-.7zm-5.45-.725l-.725-3.1 1.425 1.9zm18.775-4.05l-.475-3.55-2.375-1.9v-1.2l-1.2-4.275 1.9-1.2-.475-2.125h1.425l-1.425-.25-.475-1.9 2.15.725-.725-1.675 2.4.95-1.425 1.2 1.425.475-1.425.225 1.175.25-1.175.95h1.175l-1.425 1.425 1.2.225-.25 1.425-.225 2.15 2.125 6.175zm-36.375-1.175v-1.425h-1.2l.475-1.425.95.225 1.2.25-1.2-1.2 2.625-.95 1.9 2.85-1.425 1.2-1.2-.95-.225 1.425-.25-1.9-1.425 1.425zm-2.15-1.675v-3.8l-1.175 3.1-.475-1.675-1.2 1.2 1.2.7-2.15-.7.95-4.775 1.9 1.9v-1.175l.725.7.7-.95-3.075-1.175.225-1.2 2.375.725-1.9-.95 1.2-.725-1.9.475 1.175-1.9 1.2-1.65 1.9 6.4.7.475 1.2.475-1.2 1.425v.025l-1.175 1.65-.475-.95zm3.575-4.75l-1.2-.475.725-.95zm.95-1.2l-1.425-.7v-2.15l1.175.475.25-1.175.95 1.425zm34.725-8.075l-1.675-.475-1.2-1.2.975-.475-.975-1.175 1.45.475-.725-3.8 1.2-.95 1.425 1.175 2.125-2.125 3.575 1.9-4.75 2.125-1.425 2.15zm18.3-5.225l-6.9-1.675v-1.425l2.625-1.425-.95-1.2.475-1.175-2.15 1.425-.7-2.625-2.15-1.425v-1.425l-1.9-.95-.725 2.15.725 1.175-.725-.475-.475-3.075-.7.95-3.1-4.3 1.2-.7-1.675-.95.725-2.375-1.9-.95-2.15 1.425 1.675 2.125-.725.95-5 .475 1.9-.95 3.1-8.075-3.325 1.2-1.425-2.625-.725-1.675-.15-.6.875-1.3 1.175-1.65h-3.325l-.475-.95.475 1.175-2.6.475-.25-1.65 2.85-.95-.475-2.15-4.75 1.675-1.675 3.075.475 1.9-3.075.725.95.7-3.1 2.15 11.175-1.2.95 1.675 1.2 2.85-3.025 2.3-.55.55-6.9 2.375-2.125-.225-.475-1.675.225 1.9-1.65-.225-.475 1.175h1.425l-1.425.725-.95-1.675-1.45.95-.7-.95-1.675 1.675h2.15l.95 1.425-2.85 1.2-1.2-1.675.725 1.9-1.2.475-.475-2.375-.7-.475v2.15l-1.425-3.35.475 2.875-1.425.475-1.2-3.825-2.35 1.475.225-1.475.475-.95-1.2.95-1.675-2.375-.225-.225.225.475.475 2.125-.475-.95-.475-1.175v1.425l-.95-.725.725-1.425-1.675.95-.7-2.85-1.675-.475 1.9-.475h-2.125v-2.125l-.475 1.65-1.2-.7.95-.475h-1.425l1.2-1.2-2.15-.95 1.425-.7-2.85-.5.7-.475-1.65-2.125 1.65.225-2.375-.7.725-.95-.725.475-1.175-2.375h1.425l-2.85-1.2 1.425.25-1.425-.95.7-.95-1.175-.475-.25 1.175-2.85-3.1 1.425-.475 1.9 1.675-.95-2.375-1.9-.25-.225 1.2-1.925-.475-.225-2.15-1.2.95.95-1.425-2.375 1.425 1.675-1.175-3.1.225 1.2-2.125-.725.95-.475-.725-.95.475.475-.7-1.9.95v-.95l2.625-.725-2.625.475-.7-.95 1.425-.7-1.675.225 1.2-.475-.95-.95h2.375l.475.725.95-1.2.7 1.2v-.95l-1.425-1.2-.475 1.2-3.075.225.95-.95h-1.2l.475-.95.95.475-1.425-1.2.25-.95.95.95-.95-1.9 3.325 1.675-4.05-2.85.475-.95 1.9.7-1.65-1.425 1.425-.475-.725-.7-1.175.95-.25-1.675 2.15-2.6h2.375l3.075 3.325 1.675-.475.95 3.075.175-3.875h-.05l.125-2.075.9.2-.25-1.225-.175-.625.5.75.4.625-.65-2.05-.025-.05 1.875-4.425-.925-.85-.225-.175v-.025l.45-3.55 2.9-.275 1.375 2.85 2.45-.425 1.875 4.975-.1 1.2-.025.225-.125 2.35.35.05h.6l-.75.375-.575.325.625.125 1.875.35.075.425.225.85.425-1.275.625.625 1.05.95-.075.05.05.05-.55.325-.1.075h-.025l-.45.325.1.075.1.05.175.125 1.475.925-1.125 1.8-.1.175-.65 1.1-1.675.5 1.175 8.475.575-.5.375-.375 3.025 2.575.05.05 1.2 1.175.025.075 1.4 2.3-.025.05-.65 3.2.4-.25.05-.025.475-.35-.1.875-.125 1.225.3-.175.85-.525v.025h.025l.025.175.025.075v.05l.25 1.125 2.775-.25 1.675-2.85-6.65-8.525-.025-.025 1.2-4.775-.475-3.325 2.15-1.425.175.125.05.05.7.45-.05-.45-.175-1.6.05.025 10.175 4.25.25-1.425 3.325-.95-4.05-1.175-.225-1.35v-.025l-2.15.175-.425.05h-.025l-1.7.2-3.4-1.6-.7-.325.75-3.35 1.7-.05-.25-3.825-.6-.525-.725-.475-1.1 1.25-.075.1-1.05 1.425-1.9-.95-.175-.5-.075-.15-.05-.15-1.225-3 .45-3.35.175-1.1.175-1.5h-1.425l1.075 2.6-1.075-2.125-1.2-.475v-1.2l.95.25-.875-.7h-.175l-.025-.125-1.3-.85 1.2 1.425-2.375-.95-1.9 1.9-7.15-2.6-.225-1.675-3.325 3.325-4.775-1.175.725 1.65h-2.15l-1.175 2.15.7 3.1 3.325 2.375-1.65 1.175 1.65 3.575-4.5-1.675-2.15-8.55.95.225.475-1.425-.95-.475 2.375-3.325-2.375 1.675-.7-1.9-.95 1.425h-1.9l.475-1.425-3.35 1.175-1.425-.95.725-1.9-1.425-.7-.725 2.6-2.375-3.325 1.2-1.2h-2.85l1.65-1.175-6.175-.25-.475-2.6-.95-.25-3.8-1.65-3.825 2.85v-4.275l-3.075.475-.475 1.65h-4.275l1.175-1.425-1.175.475v-1.9l4.275-2.625.475-4.025 1.425-1.2-.95-2.125.225-.5-3.325-7.125-13.325 5.225-1.175 1.675-4.75-.725.95-3.325-3.1-7.125-3.325-3.8h1.425l-1.2-1.425 1.45-.725h-.475l-1.925-4.275 5.725-1.425 2.125-5.7 4.05 1.175 6.175-2.375 2.625 2.15 2.125-.25 1.2 2.375 1.425.475.95.25-.475.7-.7.95.7 2.15.725.475 3.55 3.1 6.425 1.425v3.55l1.425 1.45 2.15.475 5.225-3.1 7.6 3.8 3.575-2.375 1.675-5.95 12.125-9.75 1.425-4.275-1.9-2.85 1.175-.475 1.675 3.1 1.9.7-1.9 2.625 1.175 2.375 2.625-.475 1.425-1.9.475 1.175-7.125 5.25.7 1.425-3.8.95-2.6 5.7-3.1 2.6-.25 4.525 3.575.95.275-1.125.45-2.575 1.875 1.775 3.35-6.85 2.325-.45 2.075-1.825.2-.45 3.1-1.425 2.025-2.275-.975-5.225 1.725-2.025.45-.6v.175l2.025-2.725 1.225.325-1-.825 1-1.625 6.175-.55-.9-.65-4.475.6-.7-1.125 1.625-3.8 1.375.875 1-2.225.45 1.5 1.625-1.2-1.25 3.85 2.225-.4-1.525 1.65 1.575.675 1.425-1.275.1 1.675-4.575 2.225 1.325.725-.1 1.2 1.05-.4-2.275 4.4 1.025.475 2.875-2.2-.6 1.425 1.825-.5-2.075 2.025 4.05 1.125 2.675-.525v.025l2.1-.425-1.675-2.375 3.575 3.8 4.025.475-2.8 3.325-1.225 1.475-.9-.225 2.825 4.275.1 2.725.1 2.575.425-.7.05-.125 1.675.95-.475 3.575.375-.75v-.025l.1-.175.325.625 1.35 1.5.475 1.9 2.85 1.675 1.425-1.2-2.625-.225 1.425-.25-.475-.7 4.75.475.25-1.2-2.625-2.125 1.675.475.95-3.1 1.675-.225 6.175 4.975-2.85-.95h-1.425l-1.675 1.675 1.425 2.6-.225-1.65 1.9 2.625 7.6 4.275-.95-2.625-2.15-.475 1.675-1.2-1.2-3.55-2.125-1.425 9.876-3.601 5.021-.284 2.713-.113c1.069-.105 2.143-.144 3.215-.196l3.535.147 1.996.451 2.093.251c1.226.113 2.072.167 3.201-.068.672.063 1.147-.093 1.77-.243l1.006-.006 1.908-.279-.879.56-.64.397-4.615 3.46-1.425 4.05-.25-1.45-3.075 3.1.225 4.525 3.1 1.65.225 3.1 3.325 3.8.925.325v.825l-.8 1-.9.8-.4 1.725-.6 2.3-3.625 3.1-.8 2.525v1.1l1.7 1.6 1.3.9 1.325 1.1 1.8 1.4 2.3.8 2.1.5 1.2.725 1.825.1.7.8.7.2.3-.7 1.1-.2 1.1.8.4-.5.125.675-1.075 2.125 1.075-2.1.175 1 1-.2 1.2 1.2.525.7-.825 1.8-.5.3-.6-.7-.8.4-.9-.5-.4.4-.9.1.1.9-2.8.8-1.225.1-.4.4v.425l-.8.8-.3 3.6-.5.7-1.1.1-.7-.6-.8-1.7-.7-1.2h-.8l-.4-.3-3.425 1.6-.9.9.3 1 2.325 2.2.6 1.925-.6 1.3-.925.4h-1.7l-1 .8-.2 2.4.5 1.4-2 5.325-1.3 3.5-1.5 2.725-.825.8v1l.2.4-5.8 8.025 1.2 4.825.9 5.3-.5 3.925-.5.3-3.125 2.45-1.95.275zm-10.225-1.425l.725-1.425h2.125l-.225.95-.25.225h-.475zm-103.425-8.575l-.725-2.375-.225 1.9-.975-1.65-.7 1.175-.25-1.175-.95.7 3.1-2.6h-1.675l.725-1.2-3.1 1.675 2.15-4.05-2.85-.475 2.125-.95 1.9-3.8 3.1-.25 3.575-.225 2.85 1.175-.475.95 1.175-.475-.225 4.525 1.425.475-1.675-.25-.225 1.925-1.2-1.2-1.9 1.425-.95-1.675.25 2.15-1.675-.95-.225 1.2-.25.7-2.6-2.15 1.425 2.625zm95.1 0l-.475-1.9 1.425-.7.95 1.9zm8.075-1.425l-1.175-3.075 3.8-6.9 2.625 1.65.7 4.05-.475-4.275-2.85-1.425-4.05 6.9zm9.525 0l.25-.475h-.025zm-57.55-5.95l-.95-1.9 1.675 1.425zm14.975 0l-.475-2.125h-1.65zm-18.05-1.9l-1.2-1.175.7-.475zm.475-.225l-.975-2.375 1.2.95zm24-.725l.725-2.85-.95-.7zm-9.5-2.125h2.6l-.475-.95zm8.075-5.95l.475-1.2-1.175.475zm17.85-5l1.9-2.125 6.175-1.925v-.225l-6.175 2.15-1.9 1.9zm-23.55-1.9l2.375-1.425-2.15.225zm12.6-.7l2.15-1.2h-1.2l.475-2.15zm39.95 0l2.6-3.1-.475-1.425.425-.275.05.025.3-.225.425-.25 1.2.475-.725-.7 1.425-1.2-2.325 1.675-.35.2-1.375-.45.95 1.425h-1.425l.475 1.675zm-40.9-1.675l.95-.95h-1.2zm-11.175-1.2l4.05-4.025-1.925 1.175.25-1.9h2.375l-.225 1.675 1.175-.475v-2.25l-.15-.275-2.225-2 1.025-.225-.05-.075-1.7-.425-1.175 1.675 1.425-.475 1.425 1.425-3.1 2.15.475 1.65zm13.325-.7l2.375-1.2 2.125-4.275-.7-1.425-1.9.25 1.175.7-2.85 2.15-1.2 2.375 1.675-1.675-.95 2.15 1.675-1.9.7.95zm-14.75-1.2l.475-2.6.225 1.9.95-.95-.7 1.175 1.175-.475-2.125-3.325v-2.625l1.425.725-.475-1.9-1.675 1.9.95 3.325-.225 1.9-.95.475zm6.175-3.075l-.95-.475.725-.725.475 1.2zm-9.75-.475h1.9v-1.2l-1.65-.475v-1.675l1.65 1.675-1.175-1.9.95-.95-1.425 1.175v-.225zm12.85-.475l4.275-3.35-2.375-3.325-3.575 4.525zm47.8-.25l.475-.475-1.925-2.625zm-34.5-2.375l.475-.725-1.425-.225zm-82.025-1.425l-2.15-1.425-.225-.725 1.175.25zm2.375-.475l-1.175-2.85-1.45.7-.225-2.85-1.9-.7 2.125-.95-3.325-4.3 1.675 1.425 1.425.95.225-1.425-.7.475-1.9-3.55.225-.95.25.7 3.8-.7-1.9-1.425.475-1.9.95.475-1.425-2.4.725-.95-3.35.725-1.65-1.2h1.65l-.225-1.425-3.8-1.425 3.55-3.075 2.625.7-2.15-1.65-2.6.95-4.525-2.85 4.75-.975.95 1.45 7.625-2.15 3.55.475.25.7-2.375 1.2h1.425l2.6 2.625-.475 1.9-2.6.7h-.25l.725 2.15v.225l-.25.475-1.175.475 1.65-.225.25 1.175-1.9 2.4-.25 5.45-3.075 1.9 2.6-.475-1.425.95 1.9.25 2.625 3.1-5 1.425 4.05 3.075zm81.8-1.675l-1.2-.95.95-.225 2.15-1.2-.7-2.125-3.35 1.9 2.15-.25-1.675 2.15zm-86.075-.7l.225-2.625.475.95zm97.25-1.675l.25-4.525-1.45 3.35zm16.875-.475l.475-.7.725.7-4.05-5.225v-.95l-.225-1.425 1.175-.95 1.425 1.425-.475-2.625 1.9.25-1.9-1.675.475.95-2.85 1.9.475 4.05-.95.95-3.325 1.2-2.625-.25-1.8-1.275-1.275-1.1-.175.05-.075-.05-2.85 1.175 2.925-1.125 1.45 1.05 1.8 1.525 2.85.225 3.1-1.425.725-.475-.25 1.2 1.2-.475 2.125 1.9zm-75.85-.7l1.9-.25-.7-2.125-3.1-1.2.475 2.15 1.425-.25zm-38.525-1.2l-1.175-.95h1.425zm66.35-.225v-2.15l-1.425 1.675zm-9.975-.475l-.725-.25.725-.95 1.175.725zm17.1-.25l1.2-.95-1.9-.25zm60.4-1.425l1.425-.95-.95-.95zm-78.7-.25l.475-2.125 2.375 2.125zm-60.875-.475l-2.375-1.175 1.425-.725-1.425-1.175-3.1 1.425.475-1.9-1.9-.725 2.375-1.9-3.075-1.425 2.6-.7-4.025.225 1.175-.95-1.65-.475 1.65-.725-1.65-.225 1.65-.25-1.175-.7 4.275-.25 4.05-.225 2.125 6.425 2.375.7-.225 3.325h-2.625l1.2.475-.725.95-1.175-1.175zm55.4-1.65l-1.9-1.425.25-1.9zm-20.2-1.425l1.65-.475-1.425-.25.25-1.425-.475 1.2-1.2-.725zm6.175-4.525l-.7-1.675-.475 1.45-1.925-.725 1.675-4.75v1.65l1.9 2.15zm-5-1.425l-.475-1.425 1.675-.475v1.9zm80.85-3.325l-1.425-2.675.45-2.175.05-.175 1.875-1.4-1.425-1.2v-.225l-.475-5.95.25 5.95.225 1.675-.45 1.15-.025.025-.025.15-.675 1.75.225.425v.05zm-73.475-1.2l-1.175-.7 1.175-.475zm58.5-3.55l.25-.475.225-.725-.25.725zm19.975-.725l-.475-.25-.725-.225.725.25zm-9.275-5.7l1.425-.95v-1.9l-.475-4.05-2.15-1.2-.225 1.675h1.425l-.475 2.375 1.2.25.475 2.125zm-28.3-5.475l-.7-.25h-1.425l-.725-.225.725.25h1.425zm-75.6-.475l-.475-.95v-.475l-.25-.475.225.475v.475zm72.025 0l-.475-.25h-1.425l-.7-.225.7.25h1.425zm3.575-.225l8.8-3.35 1.2.725.95-4.275-3.1-.725-.475-2.125-2.625-1.425 2.15 1.425.475 2.6 2.625.475v2.625zm-7.6-.25l-.475-.25h-1.425l-.725-.225.725.25h1.425zm-68.725-1.9l-.225-.475v-.725l-.5-.95.475.95v.725zm20.2-23.075l-2.6-1.9.7-3.325 1.9 1.9zm-1.175-6.175l-3.1-.725-.225-7.125 3.55.725.95 4.275zm-17.35-1.2l-2.625-.7 1.425-1.425 1.675.95zm56.825-9.025l-1.2-.475 4.525-2.85-.725 2.125zm-7.85-2.15l-.725-.95 1.425-.225zm-14.5-.225l-9.275-.25.475-1.65 6.65-3.575zm23.775-9.525v-1.425l3.575-.7 4.275.475.475 1.175-1.675-.95zm-27.525-.025l.275-.95.975-.1-.1.95z" fill="#346733" fill-rule="evenodd"/><text transform="matrix(.990766 0 0 -.990766 49.591563 22.872909)" clip-path="url(#A)"><tspan style="writing-mode:lr-tb" x="0 3.96 7.9200001 11.88 15.84 17.82 20.900881 24.86088 28.820881 30.80088 34.76088 38.720879 40.700878 44.660881 48.62088 50.822639 54.782639 58.742641 60.944401 64.904404" font-size="7.92000008px" fill="#fff" font-family="Times">2008 Jun 12 03:54:25</tspan></text><text transform="matrix(.990766 0 0 -.990766 135.581582 23.346573)" clip-path="url(#B)"><tspan style="writing-mode:lr-tb" x="0 5.0251198 11.21256 15.85488 17.594879 19.91256 21.652559 27.84 30.930241 33.247921 35.1828 37.11768 40.597679 42.337681 48.907921 51.998161 53.933041 57.41304 60.503281 62.43816" font-size="6.96000004px" font-family="Times">OMC - Martin Weinelt</tspan></text><path d="M355.767 380.735v.238-.238z" fill="#137ac9"/><g fill="#fcc407"><path d="M335.08 449.216h-.238.238zm-76.329-43.99v.238-.238zm-3.805-30.199zm-10.463-86.315v.238-.238zm250.149-13.791v.238-.238zm4.042-22.351v-.713.713z"/><path d="M498.438 298.461v.238-.238zm.238-45.891v-.713.713zM78.987 334.129v.238-.238zm-1.427-83.462v-.238.238z"/></g><text transform="matrix(.990766 0 0 -.990766 407.204457 42.365002)" clip-path="url(#C)"><tspan style="writing-mode:lr-tb" x="0 6.96" font-size="13.92000008px" font-family="Times">km</tspan></text><text transform="matrix(.522274 0 0 -.522274 -480.183355 105.156794)" clip-path="url(#A)"><tspan style="writing-mode:lr-tb" x="0 3.96 7.9200001 11.88 15.84 17.82 20.900881 24.86088 28.820881 30.80088 34.76088 38.720879 40.700878 44.660881 48.62088 50.822639 54.782639 58.742641 60.944401 64.904404" font-size="7.92000008px" fill="#fff" font-family="Times">2008 Jun 12 04:45:24</tspan></text><text transform="matrix(.522274 0 0 -.522274 -434.854448 105.406482)" clip-path="url(#B)"><tspan style="writing-mode:lr-tb" x="0 5.0251198 11.21256 15.85488 17.594879 19.91256 21.652559 27.84 30.930241 33.247921 35.1828 37.11768 40.597679 42.337681 48.907921 51.998161 53.933041 57.41304 60.503281 62.43816" font-size="6.96000004px" font-family="Times">OMC - Martin Weinelt</tspan></text><text transform="matrix(.522274 0 0 -.522274 -291.670759 115.431885)" clip-path="url(#D)"><tspan style="writing-mode:lr-tb" x="0 6.96" font-size="13.92000008px" font-family="Times">km</tspan></text><g stroke-linejoin="bevel" stroke="#fff" fill="none"><g transform="matrix(.415825 0 0 -.415825 73.387268 502.533234)" stroke-width="1.501" stroke-linecap="square"><path d="M470.95 555.5l17.67-4.63 6.86 3.43 1.2 5.15 1.72-2.75 4.46 1.03 2.4 2.92m-57.3-36.03l-3.94 6.35 1.71 3.43-6.86 2.23-1.72 6.86v9.78m34.31 5.15l-.51-2.92m-40.66-3.95l-.51-1.71-3.44 1.03"/><path d="M425.66 550.35l-6.86-11.49m67.56-13.22l-2.33 4.98 2.83 2.71v18.69m-49.71-5.61l-3.94-7.55-9.27-1.03m32.24-27.87l6.75 3.74m86.24-5.03l-9.09-6.35-13.72.51-5.15 3.44m30.37-14.76l-10.3-4.12-4.63 2.41m-155.59-1.2l-6.18 3.43 7.38 6.86m123 61.76l5.14 5.66 2.75-1.72 2.92 2.91m-74.29 8.58l5.15-12-9.78-6.35v-4.46m17.16 25.05l2.23 2.91 2.4-2.91 4.46 2.4 5.83-2.4 4.46 2.91-1.03-5.66 6.87-5.15-6.35-6.86-1.72-5.14m44.61 18.87l-8.07 3.43-9.09-2.4-4.63 2.4.69 6.17-2.92 1.2m17.15-22.81l-11.49 7.37"/><path d="M430.29 551.55l1.71 5.15 5.15 1.03m-11.49-7.38v.52h.68m50.27 47.52l-1.72-6.35 2.23-1.72-7.37-2.23-1.2-3.94-10.81.51m40.66-7.37l-2.92-6.35-8.58-2.23-2.23 3.94-5.14-2.23m-92.64 36.54l9.09 3.43m40.66-57.81l-2.4 4.12m-37.06 54.9l9.09 3.43m-10.81-4.12l1.715.688-1.72-.69zm39.46-1.72h.52m97.17-39.59l-7.45-3.81-8.58 2.23-.51-.52m17.87 44.37l1.51 3.67 15.44.52 10.29-5.67 10.3 2.92m-244.12 22.3l7.38-13.72-1.72-6.86 3.43 1.71 4.12-10.98 5.66-2.74-2.23-4.63-12.01-5.15m54.9 13.72l-9.78-9.09m100.01-7.55l5.148 1.716 10.979-3.945 9.605 10.294 13.209-2.918.535-.268 6.855-1.423 4.563-10.753 4.966-4.082m1.49-53.631l-2.967-6.151-2.035.133m-.628 55.878l-4.171-1.326-9.003 3.627M531.25 419.41l-2.554-18.715-10.888-9.784M411.46 514.22v-.571m-1.72 5.721l1.717-5.146M880.39 173.39l1.715 1.144-.572-.572h-.569l-.57-.57zm131.51 352.27l-.572-1.146v-.57l-.571-.572.571 1.716.6.57zM516.11 396.42v.572l-6.288-1.144-.572 4.575-4.003.57-5.716 13.724-3.432 1.145-4.576 13.153 1.716 4.003-5.719 1.145-4.002 5.719-.571 13.725 2.286 4.003-2.858 2.857v8.007l-2.858 1.717-2.288 8.577-2.753-.571m41.634-81.777l1.713-5.719 2.227-2.393 3.614 5.196 8.472.791 3.274-9.602 5.196-4.292m4.094 8.589l.57 7.434 4.574 4.003-1.714 7.431 9.149 23.448-1.715 3.431 7.434 6.292M534.41 525.09l12.009-2.86 1.144-7.433m54.327 28.023l2.858 4.57 9.721-2.86 3.431 2.86m-22.87-11.43l-4.004-4.003-10.294 4.575M556.72 503.36l14.294 2.859"/><path d="M556.72 503.36l14.294 2.859M568.15 545.1l-10.294-1.145m-7.436-79.485l12.579-23.444m-6.289 62.334l-5.148-12.009M541.27 380.98l3.433 2.86.57 5.716 4.574-7.433M571.01 506.22l3.428 9.722M557.86 543.96l-10.866-1.71-10.451 4.237m44.187-9.967l-3.431-8.577"/><path d="M577.3 527.95l6.29-4.002m-36.03-9.148l3.431-2.859-1.715-3.43m-1.716 6.289l3.431-2.859-1.715-3.43m45.754 33.169l6.863 1.145m-33.743 2.285h6.861m2.859-23.45l5.72 2.287m-8.58 21.153l.572-6.288M529.26 514.8l-6.863-1.143m29.743-37.177l.572 10.292m22.868 52.038l5.146-2.286m14.874 4.006l-.571-4.575M552.71 486.78l-1.146 4.575m22.876 24.585l4.003 3.431M549.28 508.51l4.003-1.715m-4.003 1.715l4.003-1.715m1.147-.005l2.287-3.432"/><path d="M554.43 506.79l2.287-3.432m21.153 18.302l.572-2.288M553.28 474.77l-1.144 1.716m1.144 30.304h1.146m-1.146 0h1.146m41.174 33.74l-.571 1.145M552.71 473.62l.57 1.144m125.81 33.166l-6.859 14.295 3.427 5.147m-1.138.578l-6.859-.571m46.319-32.029v2.86l-5.718 1.144-1.145 6.286-6.858-1.144 1.145 4.575m14.866-15.431l1.882-.946 2.844 2.061 3.848-1.4v-2.001M679.09 507.93l5.719.573 1.716-4.002 2.286 1.715M667.65 530.81v-3.43m24.59-23.45l9.151 5.146m-12.581-2.856l3.431-2.288m24.019-10.292l-1.146 1.145m-1.134.565l1.144-.571m7.426-38.879l-7.432 8.577 1.145 2.859 2.855-1.145-.57 2.859 5.146-.572-4.574 3.433 3.432 4.575-2.858 5.719m5.146 9.145v-.571l3.567-.695 2.725-2.738 1.441-1.627m64.897-65.849l-6.861-2.286M762.58 428.44l-2.859-5.146-3.432 5.146-4.005-1.715 2.288 1.144-4.002 3.431m-20.01 13.16l5.718-9.15-.572-4.003M776.31 413l-8.006.572-1.716-4.003-1.145 6.29M730.56 444.46l-4.005 6.291"/><path d="M730.56 444.46l-4.005 6.291M750.57 431.3l-2.286-4.002-6.292-1.145m.008.007l-6.291 5.146M725.41 482.2h-5.717m42.887-53.76l2.859-4.003v-8.577m25.161 1.72l-14.296-4.572M724.84 454.18l1.717-3.431m-4.007 5.151l2.286-1.716m7.739 31.772l-2.708-5.139-1.684 1.864-2.773-.481m109.8-121.81v1.144l-4.575-1.144-5.146 6.863 1.716 14.867m1.715-53.18l-2.86 3.429 6.86 10.294 5.147.572 1.144 4.003M815.2 405.57l-9.149-.571-3.43 9.15m-.011.001l-5.719.572 1.144 5.717-.57-.572M844.93 260.89l-1.146 7.434 2.287 3.432M828.92 328.94l5.719-8.007 5.718 2.859 2.859-3.431-.572-10.294 4.003-9.722M834.07 240.3l8.576 6.86M830.07 207.7l-14.867 2.288-1.719 10.866 4.577 10.866 4.574 4.575 4.003-1.715 7.434 5.719"/><path d="M830.06 207.7h1.144M457.78 100.76l-24.592-38.885-4.002 1.716m-58.906-.568l-1.144 2.287 4.004 1.716 9.148-2.288 25.162 3.432 4.004-2.287 2.858-4.004 10.865 2.859 4.002-1.143m4.581 663.365l-.572-.571 8.007-4.005 1.145-8.005 10.294-4.575v-6.291m1.716-125.243l-6.862-3.432-9.723 1.144-8.002 10.294 4.57-1.716 1.717 5.147m80.06 61.193l-.569-.571m.569-23.449l-2.285-.572-1.717 6.858M434.9 668.63l-3.431 3.431-1.712 15.441-6.291 5.717 5.146 12.01 4.571 4.575 2.289 15.44M434.9 609.15h.572m70.348 17.73l3.432-8.578 4.004-.571-2.288-3.434 2.859-.569-3.432-2.86 1.715-4.575-22.874-3.431 2.858 9.149 13.73 14.86z"/><path d="M516.11 621.74l-5.145-3.432m-1.715-12.018l3.432-2.861-4.002-6.286m-32.6 2.287l10.863.572 1.714-6.29 6.291-2.287M555.57 718.38l-2.859 12.579.57 1.144M547.56 514.8l-1.144 7.433-12.009 2.86 3.357 6.4-4.426 8.604 3.195 6.393 3.196 8.851-3.688 5.655-.495-.445-4.003 4.003 1.714 4.575-4.573 5.719 4.294 4.103 12.949 1.091 9.638-5.767 5.145-2.286m96.08 84.061l-4.572 2.857-17.729 3.431.572 4.575-4.574 4.004M516.11 650.9l1.717 1.145 5.718-8.58-6.289-16.009-1.146-.572m108.08 84.636l5.146 9.721M533.26 612.01l-1.714 3.432 4.003 5.146-4.003 8.008 3.431 2.286 1.146 6.292m82.347-88.634l-.571-1.146M576.73 587.42l-7.432-12.01m49.172-26.87l11.438-.572M661.94 679.5l-7.433 7.43m5.713 8l-15.69 9.48 8.87 6.73-3.06 6.11-4.59.61-5.5 7.34-8.25.3 1.83-15.89-.91-11.31h8.86l13.45-11.62 4.99 8.25 5.15 1.15m-36.6-131.53l4.003-1.144v-4.575m-4.003 5.719l-3.431 3.432.571 4.003"/><path d="M631.63 552.54l-1.146 4.574M560.72 571.98l5.722 2.856m2.858.574l-2.858-.57m64.038-17.73l2.287 1.714M576.73 587.42l-3.961 11.529M532.12 628.6l-12.006 3.428m-3.434-5.148l1.716-3.432-2.288-1.716m166.412.578l-4.575 4.004 5.721 7.432-1.146 4.003 12.008 13.152 6.865-1.144-2.288 17.156 6.86 6.291 10.294.572 4.574 3.43.572 6.863 2.287-1.146.572 4.003 5.146 2.288m-72.62-33.164l14.296-8.577M780.31 596.57l-5.719-1.715-11.438 3.43-2.855-1.715-9.15 7.431-2.288 7.437-4.575 3.431m16.585-58.329l-9.146.572-1.716 2.857 2.857 1.145h-2.857l-3.435 8.578 2.861 4.575-6.292 2.859M682.52 622.3l-8.578-1.144-1.716-6.862-6.862-3.431-8.006 2.859m53.182 8.018l-6.289-1.146.569-5.146-2.857-1.716-9.149 12.01-10.294-3.433m-8-94.359h1.143v-.571"/><path d="M695.1 624.02l-1.717-5.146-6.86-1.144 1.715-2.86-8.576-6.861m8.578 34.891l-2.859 2.285-2.286-2.285-8.578 2.857-2.288 2.859M686.53 600l-9.73-4-6.859 4.004-4.002-1.717"/><path d="M686.53 600l-9.73-4-6.859 4.004-4.002-1.717"/><path d="M686.53 600l-9.73-4-6.859 4.004-4.002-1.717m23.451-41.747l-5.147-1.143 2.858-2.285-4.574-4.005h-8.578l-1.716-3.432m70.907 31.455l-2.86 2.288-10.291-4.575-8.006 10.294M631.06 547.39l-1.145.572m36.025 50.328h-18.299l-3.428 2.857"/><path d="M665.94 598.29h-18.299l-3.428 2.857m35.447 6.863l9.724-1.717-2.86-6.289m.006-.004l9.722 2.283 3.434-7.43M661.94 679.5l6.291-5.721-1.717-16.584 5.72-8.008m22.296 53.753v-3.432l-29.164-3.43m27.454-70.338l-4.003-5.147-6.861 1.146M667.65 530.81l1.146 14.868h3.431m-40.597 6.862v-1.142m93.21 139.532l-5.146 2.288M670.52 613.16l9.146-5.146m-9.146 5.146l9.146-5.146m-7.436 41.166l-1.143-1.714M631.63 551.4l-.571-4.006M724.84 690.93h.571M847.8 475.34l-2.286 14.869-4.004 5.719 1.144 6.863-6.863 5.718.572 13.153 4.574 4.574 4.577-4.002 6.289 5.717-2.288 5.148.861-.371m8.024-2.378l-.889-.689-7.145 3.062"/><path d="M831.78 456.47l-.568 1.145.568-.572m19.44 73.197l-7.436 6.291-4.003 12.582-5.717-8.008-5.146-1.145-1.716 17.157h-2.859l-2.288 6.862-13.725 5.146-2.859 7.435 1.145 7.436-5.145 8.578v5.716l-9.15 3.432 2.288 10.866-1.716 2.858 1.716 4.004 2.861-1.145-.572 5.146 6.285 10.294 5.146-2.86 2.286 2.288-2.286 10.862M850.65 533.1l-10.291 17.729v5.145l5.716 3.433-.565 7.433 2.283 3.431-5.145 5.721 4.571 2.859-2.854 5.716 2.854 8.578-10.862 17.157 2.287 10.294m46.886-77.206l6.291 5.714 1.145-2.286 5.719-1.145"/><path d="M875.24 584.56l.571-12.007-2.287-3.43M792.32 601.72l-4.573-7.434-4.574 3.431-2.859-1.144m32.596-29.163l-1.717-5.146-29.163 2.288"/><path d="M812.91 567.41l-1.717-5.146-29.163 2.288m29.74-50.332l1.715-1.144-1.143 9.151 6.859-2.288-1.144-4.003 5.146 1.143"/><path d="M817.48 529.09l7.436-4.003 2.858-10.865-4.576 2.858m-11.438-2.86l-1.146-4.003 2.289-4.001 8.577-4.576-2.857-4.002 1.716-4.574"/><path d="M845.5 473.05l-5.146.572-12.579 16.013M822 526.5l-6.804 11.174 2.285 2.285 5.718-5.717m-17.729-.002v2.288l4.003-1.146-1.716-7.436 4.003-13.725m11.44 20.019l2.86-4.575h5.717l4.576-8.577M819.77 563.4l-1.144-9.722-4.574-4.573-5.148 1.145m9.726-25.16l-3.432-.572-1.144 5.721-2.289.571 1.145 5.146m-4.01 14.294l.572-4.003 4.004-2.858-.572-6.293M782.03 564.55l-6.863-6.291-3.431 1.145-6.862 3.431-3.433-6.291h-.571m28.59-24.024l-2.287-4.005-.571 1.717-8.006-2.86-12.582 12.582"/><path d="M789.46 532.52l-2.287-4.005-.571 1.717-8.006-2.86-12.582 12.582M874.1 560.54l-.57 8.578m-53.19-76.048l7.436-3.433M766.02 539.96l-18.196-4.364-6.966.361-10.863 12.581 13.151 28.593m46.314-44.611l1.717 3.431 2.285-2.288 6.291 4.003m4.007-3.426l-4.004 3.431m18.874-12.581l-1.144 4.003m-6.296 9.147l1.717-2.286m-9.147-1.714h1.715m7.435 2.86l-.571.572m35.451-62.332v-1.716l-3.427-3.431-.573-6.292-9.148-8.577-2.86 1.716m57.178-87.5l-5.146 18.871-11.438-2.857-6.861 6.289-6.863 12.008-10.294-9.72-8.006-.572-8.578 5.719-4-2.859-1.716 4.573 2.86 4.575-1.146 4.576 7.434 8.576-.572 5.147-6.86 5.146 7.434 13.154 3.431 1.716-4.003 2.287-2.86 10.294"/><path d="M827.2 382.12l.572 14.298m7.438-36.028l5.716-9.722-1.713-3.432M904.98 546.82v-2.858l-6.29 1.714M827.2 399.28l-5.721-1.716.572 4.576-2.859 3.431h-4.002m32.03 66.909l-1.711.572m66.331 62.908l-3.433 1.143-2.859 6.859M888.96 369.54l.571-4.575 10.294-17.729-4.574-17.156.571-9.721-1.717-7.435-6.287-11.438-4.001.572-4.575-5.719 1.716-7.434-4.574-6.86-1.145-5.718-8.578-12.01-2.858-13.151-6.863 3.429 2.858 6.863-.572 8.006-14.294-10.866v2.288m2.288 38.884l4.003-.571 1.716-9.722-4.003-13.153-2.86-4.572m.574 28.598l.572-.572M846.07 258.6l1.146-4.575-4.571-6.863m29.165-40.032l-1.717 2.287 3.434 2.288 6.29 9.72 3.431.572.571 6.861 6.29 5.718 7.436 11.438"/><path d="M872.38 207.13l-1.716.571-2.858-4.003-3.431-1.715-7.437-1.143-5.146-5.148-1.718-5.718-22.872-12.006"/><path d="M831.21 207.7h2.285l-1.717-7.434 1.146-4.574h6.86l-12.577-17.729M900.4 230.58l2.287 5.719m-2.287-5.719l-2.858-2.859m-.002 18.299l1.717 1.715m3.433-11.435l1.713 1.716m1.147 1.144l1.717 4.001m-1.717-4.001l-1.146-1.144M298.8 81.322l15.438-9.721-2.857-.572 8.004-4.575m-98.355 30.31l-12.577 10.291v-.572l-24.02 19.444-13.724 13.723 1.715-1.144-8.577 9.151-11.438 10.294-2.859 2.86M298.8 81.323l-44.034 36.598-30.88 37.171M194.15 197.98l13.154-19.442 5.719-3.432h-2.289l13.151-20.014M146.12 248.31l-2.286-1.144-2.859 4.575 1.144 10.865"/><path d="M148.4 248.3h3.433l11.438-6.863 6.29-8.578 3.431-1.715 18.299-24.018v-4.004l2.858-5.145M146.12 248.31h2.287m-6.297 14.29l1.145 4.575 4.004-3.431.571 2.286-1.717 10.292 7.436 5.147v20.016l5.717.572m-2.856 16.013l.57-2.286 8.575-5.146 2.288-3.431-1.715-2.289m.002.002l2.287-2.858h-9.146m-5.721 18.878l2.859-2.859M322.25 697.22l17.155-2.288v-5.72l7.436-1.144 11.438 4.002 1.145-22.873-2.288-3.43m-4.576-3.427v-.572m-15.44-10.298l.571.572m-.001-2.862h.572m118.378 227.6l4.575-5.719 7.435-2.858.572-4.006-4.003-1.715-4.575-9.722-10.294 3.434-14.869-4.006-9.721 2.86-15.441-6.291-7.434 1.144-4.004-5.147-7.436-3.427M433.76 726.96l2.858 18.299-1.716 10.295-4.003 2.286 5.719 13.154 10.864 3.431 2.859 6.289 12.582 4.002 5.718 5.146 14.294-5.717 33.167 16.012"/><path d="M375.43 827.61l6.289-5.72 2.288-19.441-7.434-.572v-6.292l-10.292-5.717-13.726-16.014m-6.865 81.776l.572-1.715m26.308 9.145l2.859-3.432-1.716-7.43-5.72-6.292m92.647 6.864l-1.144-5.146 17.726-15.441 5.146-24.59-6.291-9.149-1.143-11.438m-6.284 72.624l4.004 5.718.571 9.724 4.572 3.432M350.84 850.48l-1.145 4.004 4.575 3.429m-6.29-34.883l1.145 7.433 6.291 5.719-2.86 1.146 4.576 4.572 5.146.571 1.716 5.72m-20.584-.571l9.148 3.432 2.859-2.287 7.433.572"/><path d="M411.46 795.58l38.887-14.868M368 845.9h-4.003l-1.144 3.434m12.577-21.724l-29.167-5.147m45.177 18.867h-12.007l-5.718 10.866m10.295-49.756l13.153.57 14.298-7.436M342.84 851.05l3.427 2.859m118.373 3.431l4.003 2.286M343.41 848.77v-1.145m204.15 31.445l-6.291-5.719M672.23 804.73l-8.578 9.146-4.001.572-4.002 31.45-3.431 1.145-5.148 6.862-1.144 7.434-2.286-.57-2.86 2.858v3.433m-124.67-66.9l33.736 13.722v-3.43l8.58-.572-3.432-71.481-1.717-6.29M526.41 879.64l5.145-4.003 9.722-2.289-3.431-10.865-5.72-1.145 9.149-18.871 9.148-1.714-.572-26.878m81.209-88.635l-1.717-4.003M557.86 795.01l51.467-6.291 1.146-1.717.572 1.717 13.724-2.859m90.351 50.9l-4.002 6.863 3.431 2.857m14.861-157.27l1.146.572"/><path d="M792.9 698.94l-3.433 2.858 2.859 5.148-3.433 2.858 1.146 10.294M719.7 793.87l-9.146 2.858v5.716l-3.433 3.433m6.279 23.443l-5.146 2.858-5.146 8.579.571 3.428 9.147-3.428M729.77 699.95l-12.93 1.84 2.86-8.57m54.32 64.62v3.43l11.438 8.576M719.7 793.87l14.867-.571 1.144 6.861 15.44-25.732 42.317-34.885 1.145-16.582-4.573-2.86-22.875 9.722-12.977-7.498"/><path d="M719.7 793.87l14.867-.571 1.144 6.861 15.44-25.732 42.317-34.885 1.145-16.582-4.573-2.86-22.875 9.722m21.155-37.753l2.284 2.86m-2.284-2.86l2.284 2.86m-62.904-4.57l-2.289.571m32.939 33.059l1.666-2.501m65.474-45.999l-1.145-8.578 6.86-8.578-.569-4.005-4.002 1.717-2.861-7.434-5.719 1.715-9.718-5.146v-1.146m.004 1.145l20.015-10.294 10.291-13.149v-1.146m36.594-36.031l-1.144 22.872-4.575 6.861-3.43.571-1.146 9.723.573 2.86 4.002-1.716 1.716 4.001 3.432-1.144 6.291 6.29-9.723 10.866m.004.006l-2.287 1.716-1.716 8.005M973.03 529.66l-.57-2.859 1.144-1.144-8.576-10.866-1.145 1.715 1.716 6.863-3.432-1.715-1.144-14.868-8.005 14.297-4.002-4.005v2.86l-5.148 2.288 2.288 6.289 4.576-2.287-1.144 9.723 4.002-1.716 1.144 4.573h2.858l5.719 8.009m28.019-65.187l-1.144 4.001 1.144 6.863-1.716 5.719 3.434 8.577-1.146 2.858 8.578 2.859v-2.288l2.288 12.01h4.002l5.146 7.435.57 14.293M904.98 546.82l-.572 3.431 2.288 7.434 15.442-6.86 4.574-8.006 6.859-2.288 6.291-8.578m31.458-9.723l.569-5.146-5.718-11.438 2.861-4.002-8.008-21.158-.1-1.799m-2.184-21.077l-1.145-2.86 1.715-1.715 3.432 2.287.572-2.859 3.431 3.431 3.433 5.717 1.144 10.293 4.002 7.435 1.717-10.294 3.431 5.147 1.715-2.86 2.288 6.863 1.143-5.147M939.86 531.95l4.005-5.72-5.721-9.723.572-4.002 6.291 4.574 8.007-19.441-5.146-2.859-5.719 8.007.571 12.58m-30.88 20.594l20.014-6.863-.571-2.287 6.861-10.294"/><path d="M985.61 473.05l.574.572m26.316 70.338v4.573M994.19 422.15l-1.714 5.719-2.86-4.575-.572 5.718-2.283 1.145 2.283 13.726-1.712 2.859 1.144 3.431-1.715 2.288.571 3.431-.571 3.432 4.571 6.29-.57 3.431-1.717-1.144m2.285 13.159v.572m22.27-13.152v2.86l1.144 1.713-1.144 4.002-3.432-9.72-2.857 1.716-2.288-5.146-2.861 1.145-1.143 4.002.571 3.43m-3.4-14.872l.571-3.433-1.145-4.575-1.715 1.717-.572-2.86-1.145 2.288.572 4.575-1.145 2.288-1.715.566-1.144-3.428v2.288h-3.434m25.782 20.014l-1.715 14.298.572 9.723 4.575 6.291m-8.032-52.042h-6.862l-2.287 5.716-1.145-3.428"/><path d="M1001.1 488.49l-.572 1.716-5.146-13.153-.572 5.719-2.286-4.002m26.876 2.86l-.57 5.146 1.713 1.143-1.143 7.433.572 7.436m-6.372-44.608l-1.146-3.428-1.714 1.144-.572-4.003-1.716 3.432M988.47 469.05l.568-1.144 2.288 13.151 1.146-2.288m26.328 1.711l-.569-10.291-2.861-6.292m-13.77 8.583l.57 4.575-1.715 1.716.572 9.723m12.573-20.014l.571-4.003-.571-6.289m6.3 44.602v4.002l-.572.572.572 1.143m-6.3-50.327l1.716 4.575M986.18 473.62l2.286 1.144m.004-5.714v5.717m5.72-52.617l.572-1.145m24.638 60.625l-.57-1.143M149.55 160.81l-2.287 1.716-6.861 7.434-1.716 3.43-4.003 5.147-11.436 12.008M48.897 301.49l-1.143 2.287M123.24 190.55l-4.005 4.573-5.715 5.718-9.149 13.152M31.741 347.24l2.287-8.007 1.145-3.43v-1.145l2.287-6.86-.573 1.144m9.152-21.732l-4.004 8.578-2.288 5.147m6.864-15.445l-.572 1.145"/><path d="M46.039 306.64l.572-1.717m-1.145 3.997l1.145-3.432m-6.864 15.452v1.145m-2.859 6.855l.572-1.715M12.298 445.6l-.572-4.575-1.715 1.716m21.73-38.311l-4.571 7.434M226.18 725.82l1.715-3.434 26.877 15.44 2.288-11.436h8.578l5.146-18.3 23.445 10.866 5.146-20.59 22.874-1.144M317.1 824.75l-4.003-2.858-4.575 6.291h-8.579l1.146 3.432-2.859 5.146 3.431 4.004"/><path d="M251.91 786.43l-14.295-21.729-13.726-6.863-2.287 1.716M215.31 783l11.437 4.001 27.447 17.154.572-4-4.004-6.861m27.458 37.746l.571-1.146-2.288-5.718-2.857-1.143 2.857-1.717-2.857-5.146m-57.766-37.75l12.578 3.432 5.146 5.146 4.003 1.144-8.577-7.433-10.866-5.146M302.8 803.59l-29.734-13.725-.572 1.715-9.723-4.576-1.713 1.146-4.004-5.72-5.146 4.002M302.8 803.59l1.715-5.147-1.715-1.716 4.575-64.049 13.152 5.146-24.02-28.593M319.96 840.76l.571 6.858M226.18 799.01l2.86-2.286 7.435 2.86-1.716-4.005"/><path d="M278.22 830.46l4.575-.571 3.431 4.003 2.858-2.286m57.186-9.146l-5.719-2.859-10.864.571-.572 2.288-3.43-1.716-8.579 4.003M269.64 812.16l-7.435-2.857-2.856.57m-5.149-5.713v2.286l3.433.571 1.715 2.858m60.612 30.885l23.444 6.862M320.53 737.82l32.023 36.025M250.76 785.29v8.005m41.75 42.315v-2.858l-3.43-1.144"/><path d="M270.21 811.02l3.431 5.145m18.869 19.445l5.719 1.145M237.04 795.58h-2.288m35.458 15.44l-.572 1.145M237.04 795.58l.571-2.286M342.83 851.05l.571-2.287m.009-1.143l-1.144-.572M455.49 962.57l30.31 2.285 2.857 5.72 6.291 4.005h15.441l1.715-4.005h4.002M413.75 903.66l3.431-6.287 8.579-4.577 6.857-.57 4.576 4.576 3.432-.572 16.013-19.443M437.2 951.7l2.857-1.717 4.003 1.144-3.433-6.291 8.006.572 1.716-2.288 2.857 2.859 4.576 1.146 2.288-1.717 3.431 2.287 3.433-5.146v-4.005l-5.719-2.286 5.146-5.148-1.715-2.854h-9.722l.571-5.719-16.585-1.144m56.61-29.173h8.005l4.575-4.002-1.145-1.713 9.148-1.145m.007 26.31l-5.145-2.286-8.007 4.574.572 4.574M445.2 957.42l6.292-1.715 5.719 2.857 9.149-2.286 2.287 3.432 10.866-4.003 2.288-8.007 13.722-8.002 4.575-15.441m-44.028-1.145l11.438 1.144 14.293 3.432-.572-6.863-9.146-5.719-5.719-13.152 9.718-8.004M346.84 877.36v-17.729l-2.285-1.143 1.141-2.856M477.8 878.5l-13.15-.572-1.715 1.716 10.866 8.009 2.282 6.289 9.724-1.716 1.715 2.286"/><path d="M372.57 863.06l-4.003 4.575-2.858-.571-1.145 6.86M502.96 920.82l-.569-2.859h-16.012l-4.003 6.862m-59.476.577l16.011 2.285v-6.289l-13.724-2.859M356.56 881.93l-.572-17.155-1.715-6.861M454.35 956.85l-5.719 1.146 1.144 3.429h-3.432M363.99 883.08l.572-9.151M487.52 894.51l8.007-2.286M455.49 962.57h-7.435m54.905-41.75l-2.856 3.431M346.84 877.36l4.574 4.002m3.426.568h1.715M591.6 978l-1.717-2.856 5.146-3.431 12.739-7.764M534.98 982.01l-2.859-2.287v-8.579l-16.009-.571m31.448-91.503l1.144.572-1.144 7.433h6.292l-.573 2.286 9.723 2.287-.572 2.289 10.864 4.001v3.433l6.862 1.144 5.719 6.29 5.146 1.145 10.867-3.431 11.434 4.574-1.716 6.291 5.146.572-11.438 9.15-3.427 11.435 10.29-3.43 28.594-5.146 30.881 2.857v2.289l13.152 1.716M640.78 867.06l-.572 9.147-8.008 2.289-1.142 4.574 6.289-.572 8.578 4.004 5.721 6.861 4.574-1.146 1.143 4.575 9.148-1.716 9.149 2.288 12.582-2.288 3.431-2.859M642.49 969.43l-1.145-1.144-11.435 1.144 2.854 1.715"/><path d="M516.11 885.36h3.999l6.292-5.719M516.11 911.67l5.146 1.716 16.013 1.717 4.573-4.574 5.147 1.143 8.578-3.431h8.004l2.289-2.286 16.582.57m16.018 42.315l1.716 4.576h2.859l9.723-8.577h-3.434l1.146-2.289h-5.719l-1.716 2.858h-5.721l1.14 3.43M612.76 911.1l2.857-2.288 9.151.572 11.436-4.003 7.437-6.287.702-.153"/><path d="M645.35 918.53l4.003-4.002-.572-4.575-8.577-8.008M611.04 967.71l18.87 1.716m-19.44-26.876l2.86-2.287-3.434-4.573m-11.436 5.15l-1.716 5.145m48.606-27.455l-4.575 5.146m-.575 6.294l.572-6.289M598.46 940.84l3.433-2.288m89.777-46.322l6.292-5.146 9.147-1.146 14.868-10.294 10.295-4.003 22.874-28.021-7.434 3.431-29.737 2.289-3.434-2.861"/><path d="M700.25 894.51v19.443l5.144 2.286m-5.144-21.729l7.432-9.146M1012.5 548.54l2.343 6.66m5.057.2v-2.859l1.143-2.857 1.144 1.717.572-5.147v-4.574m5.141 10.86l-.571 4.002M1.433 518.8v-3.429m9.721 45.749l-.571 3.433v1.715m-.572-123.528l-1.144 1.713-.571 4.575-1.146 8.577-.571 1.716-1.145 6.861v13.154l-1.144 9.15.57 14.293"/><path d="M2.577 532.52v6.86l.571 4.005v2.283l2.287 7.436v-1.146l-.572-5.146v-13.15m0 .008l1.717 16.014v-1.145l2.858 9.72.572 1.146v-2.86m.573-134.965v-1.716 3.432l1.144-5.146m1.715 127.53l-1.144-1.144.573 5.719-1.718-4.003-1.143 1.715v8.576l1.143 4.575m-6.29-58.328l-1.714 5.145v10.292l-.571-.571m-.001 14.864v-8.579l-.57-1.715v-1.717L1.433 508.5m1.144 8.58v15.442M1.433 518.8v-10.29m12.009 37.17l1.145 1.146m-4.004 19.434l.571 5.719-1.143 2.856v6.291l1.143 10.293 2.86 6.862 1.715 6.29-1.715-22.301.572-3.432 1.144 3.432.572-1.717m-.573 24.026l1.716 4.003v-3.433l2.288 6.863 1.716 8.576 1.145 1.146 1.713 6.289 4.576-.57"/><path d="M23.736 602.29l-1.715.572v11.44l-1.715 1.716m-5.72-69.198v.569l.572-2.857M320.53 851.05l-4.001-4.004-12.008-2.86-2.859-3.43m-23.442-9.716l-1.716 2.857 2.288 1.717 1.144 6.862m-1.146 24.014l1.715-8.578-9.15-7.433 2.859-2.287-1.144-3.434m-17.16-12.578l1.717-4-4.004-8.579-9.721-4.004-6.862 1.716m29.17 25.157l1.715 1.713 3.432-1.141 3.43 2.283 2.287-1.711-1.716-3.432 4.576 2.286m-13.724.002l-2.859-8.578-7.431-1.716"/><path d="M320.53 847.62v8.006m-71.48-18.296l10.293-4.575m61.187 22.875l.572 3.999-6.862 6.865 3.431 7.433m-1.141 2.283l1.143-2.288m-1.143 2.868l-1.716-.572M445.77 1002l13.725.57 5.147 1.716 38.313 2.287 4.003 1.145h9.148m18.874-25.708l1.716 1.717-1.144 2.858 16.011-1.715 2.288 1.715 9.15-1.715v1.715l5.719.571h6.288l4.574-2.286 14.869 4.571 6.862-.569.572-4.574-6.863 1.715-5.72-2.286 3.433-3.432-1.144-2.289m41.179-6.866l3.431 1.718-4.003 1.716 1.717 5.143-4.576 1.715-3.431 4.006 8.007 1.143 6.861-1.143-2.86 4.574 8.008 1.717-1.145-1.717 6.291-2.859 1.717-3.432-10.865-2.857-1.146-3.435 2.86-2.854 10.294-2.86 13.17-1.73 4.574-2.86 4.57-.57"/><path d="M646.49 974l-4.001-4.575M561.29 1006l14.868-1.145 6.863-3.431 8.005-1.717 1.717-2.287 13.153-2.859-1.715-1.715 26.304-7.436M528.12 1008.3l-12.007-.57M561.29 1022l-7.433.572h-13.16l-8.005 2.287-16.343.985M551 984.87v7.433l-17.156.572-.572 9.722 12.58 4.003m-1.722 1.1l-19.445 1.143-.572 8.579h-8.002l.24 8.421-1.172 1.952m36.961-22.295H559l9.15 4.003 12.579 1.145m13.161 1.652l-19.445 5.146-6.289 2.287"/><path d="M609.32 1010.6l4.577 2.86-1.145 1.715-1.145 1.145-6.291.571-2.856 1.714h5.144l3.433-.569.572-1.144 6.859-1.145m1.152-9.147l.572-1.716 5.147-1.715-2.288-2.288 2.859-1.717m1.14-3.434v-1.717l-21.157 1.717v-1.145M544.13 1007.7l2.857.57 14.297-2.286m19.446 4.616l2.289 2.288 9.722-.57m1.149-.018l15.438-1.718 10.293-4.003m56.609-40.009l12.583-6.292M627.05 996.3l-1.144 2.859"/><path d="M552.14 1005.5l-24.016 2.858M561.29 1022l2.86-1.716m48.03-4.484l.572 1.144m-48.602 3.356l4.003-.572m24.587-7.428h1.146m98.934-54.31l-4.003 2.286M960.92 478.68l-.473-8.492 2.287-5.147-2.287-1.145-1.715-6.289M557.77 639.95l3-4-1.8-4.18-.95-.44-2 4.75-11.75-1.5-8 2-14.5 3.37m55.33-40.41l-10.66-2-1-12.5-9.17-10.34m-38.67 20.5l8 8.5-.44 3.26 7.78 1.91 1.33 3.17m35.5 16.91h-7l-4.75 2.38M436.58 609.4l.67-4.12-4.39-2.52-.66-7.71 2.39-.53.13-4.39 5.59.8 4.78-4.12 2.79 5.58 2.26-5.58 5.31 3.19 2.13-5.71-5.58-2.13 1.6-4.25m240.93 125.03l.57 2.859 3.44.57 3.23-.42 15.07-4.16m-200.3-181.12l12.56-1.3.59-4.58M629.86 693.1l4.28-1.83 4.58-11.61-6.11 1.52"/></g><g transform="matrix(.415071 0 0 -.415071 73.998886 502.143097)" stroke-width="1.5"><path d="M639.76 875.96l-5.55-6.88-4-10.85-7.61.54-1.01 18.59-6.99-4.2-4.19 2.8-8.36 4.22m104.5-47.03l-27.67-6.1-22.36 6.99m-66.89 47.83l-8.56-.32-5.59-8.39H564.3l-11.88 14.1" stroke-linecap="square"/><path d="M589.63 881.87l10.87-1.33 1.55-.36m.08.36l-.54-4.35-10.33.28-.55 4.89" stroke-dasharray="1.5"/></g></g><g stroke-miterlimit="10" stroke-width=".238" fill="none" stroke="#000" stroke-opacity=".468"><path d="M224.511 83.98c6.568-2.046 13.259-3.569 19.974-4.992 6.465-1.096 12.888-2.368 19.497-2.853 6.866-.858 13.837-1.269 20.924-1.189 4.445-.657 8.993.348 13.553 0l13.792 1.189c6.497.623 12.877 1.746 19.259 2.853l19.022 4.755c5.871 1.742 11.692 3.613 17.358 5.945 5.071 1.806 9.948 4.271 14.979 6.42l9.987 5.231m-209.719 0l14.743-7.37c4.83-2.235 9.985-4.262 14.979-6.182l11.651-3.804"/><path d="M430.432 446.363c-3.507 3.8-7.521 7.101-11.456 10.446-2.736 2.316-5.666 4.373-8.513 6.546l-7.71 5.125c-2.235 1.517-4.374 3.212-6.899 4.228-1.033.586-2.062 1.211-2.99 1.951M318.673 76.134c6.194 4.54 5.033 16.435 6.182 24.571 1.295 55.911-5.569 110.225-12.126 164.937l-24.729 145.042m121.268-299.12c19.159 14.929 17.615 42.923 14.267 64.438-7.134 43.308-26.712 83.849-48.981 123.167-24.505 40.789-53.323 79.055-86.55 111.517m195.453-209.477c10.917 23.458 4.44 50.871-6.181 71.808-15.311 30.221-39.63 54.569-66.102 75.375-36.301 27.617-79.234 49.382-123.167 62.297"/><path d="M497.249 332.94c-6.678 31.354-34.776 53.066-62.296 64.2-44.92 18.78-97.913 20.568-146.945 13.553m149.558 30.439c-20.907 19.414-53.376 14.47-77.277 6.658-25.269-8.031-49.752-21.53-72.283-37.092m61.105 82.271c-11.811 1.85-20.31-11.45-27.343-19.973-13.868-19.854-24.02-40.539-33.764-62.296m-30.677 89.165c7.346-2.574 9.064-13.107 12.603-20.448 7.827-23.21 13.055-45.59 18.071-68.716m-121.269 53.735c18.259 11.514 42.288 2.764 60.157-6.895 22.606-12.052 42.889-29.064 61.108-46.842M92.541 374.79c10.636 24.902 36.762 38.641 60.633 44.465 43.935 10.697 92.06 4.152 134.818-8.56M78.749 243.058c-5.352 25.7 4.582 51.473 19.735 71.095 28.91 38.444 73.184 62.456 118.175 79.178 23.293 7.889 47.011 14.037 71.332 17.358M138.433 134.866c-19.238 19.581-15.795 51.477-9.035 75.138 13.203 45.521 42.099 88.212 73.472 124.356 25.309 28.825 53.626 54.698 85.123 76.326M226.889 83.029c-10.528 4.589-10.382 19.389-11.888 29.96-1.185 48.323 9.133 93.719 19.735 139.812 13.803 53.577 30.75 106.958 53.262 157.881"/><path d="M214.762 123.215c46.436-13.794 98.877-14.101 145.28-.238 37.983 10.947 74.555 32.244 100.341 61.108 25.72 28.478 41.769 65.517 41.611 103.908m-428 .006c-.14-36.106 13.853-70.318 36.618-98.201 26.71-32.093 64.149-54.578 104.145-66.576m9.754 83.455c41.863-12.485 90.371-12.279 131.727 1.665 44.725 14.051 86.365 45.364 105.572 88.453 9.997 21.47 13.646 46.323 10.224 70.857-4.442 29.4-19.512 57.528-41.61 78.703m-247.287 28.305c-30.4-17.243-56.403-42.987-69.905-74.899-9.104-20.672-12.646-44.188-9.273-67.528 4.399-35.095 25.229-67.795 53.023-90.116 19.682-16.42 43.471-28.106 67.529-35.429m26.871 105.328c42.206-12.818 92.713-2.771 123.167 30.672 19.61 21.096 26.644 54.296 14.267 80.606-15.722 37.072-57.36 57.756-97.012 58.493-35.787 1.476-73.675-13.101-95.586-42.324-17.326-22.79-20.427-55.663-5.945-80.606 12.452-23.363 35.471-39.272 61.108-46.84z"/></g><g fill="none"><g transform="matrix(.415825 0 0 -.415825 73.387268 502.533234)" stroke="#fff" stroke-width="1.5" stroke-linejoin="bevel" stroke-dasharray="1.5"><path d="M266.75 691.48l30.509 14.729M610.4 680.21l8.75 1.25m5.44 30.89l1.134-2.694-.636-.921M658.53 597.7l-3.75 7.5m215.89-77.82v10.293l-12.009 14.867 1.714 4.003 2.289-1.716 1.717 6.862 9.722-1.144m8.577-28.025l1.716 2.286-4.002-6.291-4.003 1.717-5.146-4.004-8.577 7.435-4.259-3.313m100.331-72.74l-2.859 5.716-.572-4.001-1.717-1.144v3.432l-1.144-3.432-1.144 1.144v6.29l-2.288 3.431m-.576 26.874l1.716-6.291-1.716-8.579.572-12.009M625.4 786.48l28.75-6.25m.92 116.57l-3.43-1.718-8.008 4.004m8.438-5.426l-.43 1.42m14.39-297.38l1.25 7.5 7.5-1.25v-6.25"/><path d="M644.34 898.94l12.446-2.704M518.4 623.45l4.12-2.12 6.5 8.75m105.12 77.08l-4.89 3.67 1.22-6.11-.92-.31v-5.19l3.37-.92 1.52-4.28-1.52-2.75m215.49-155.72l.59 4.85-2.36 5.78 1.65 3.31 9.57-1.89-1.65 6.5 3.54 5.43 4.96 3.55 10.28-2.01M632.92 698.3l-.92-6.11m-7.23 93.67l6.859.57 12.009-13.149M888.88 539l-1.88-3.75m-28.75 11.87l3.13 1.25"/><path d="M872.63 527.75l-1.88 3.75m3.53 28.98l3.42-10.04 8.27-6.74m66.74-45.82l3.66-27.88 4.37.59m-90.24 56.1l6.85-6.85 3.07.48 2.48 2.83-2.01 5.91m-23.03.7l11.46-1.41m16.21 15.04l3.432-1.716.571-5.72-5.146-1.144"/></g><path d="M502.005 287.999c.586 73.573-39.97 145.569-103.194 183.087-63.756 39.384-148.307 41.154-213.69 4.552C119.962 440.623 75.829 369.441 74.248 295.37c-3.779-78.048 40.051-155.954 108.425-193.548C247.56 64.147 332.448 64.9 396.67 103.724c64.522 37.128 105.879 109.799 105.334 184.275z" stroke="#aaa" stroke-width="1.189" stroke-miterlimit="10"/></g><g fill-rule="evenodd" transform="matrix(.78048 0 0 -.78048 73.385216 502.697723)"><circle r="275" cx="275" cy="275" opacity=".26" fill="url(#G)"/></g></g></svg>