<svg xmlns="http://www.w3.org/2000/svg" height="542" width="542" viewBox="0 0 541.48 541.48"><defs><clipPath id="A"><path d="m0 0z"/></clipPath><clipPath id="B"><path d="m0 0z"/></clipPath><clipPath id="C"><path d="m0 0z"/></clipPath><clipPath id="D"><path d="m0 0z"/></clipPath><radialGradient id="E" gradientUnits="userSpaceOnUse" cy="139.37" cx="99.958" gradientTransform="matrix(-.21405 1.3758 -1.2457 -.19403 303.11 18.168)" r="45.07"><stop stop-opacity="0" offset="0"/><stop stop-opacity=".024" offset=".493"/><stop stop-opacity=".035" offset=".571"/><stop stop-opacity=".067" offset=".636"/><stop stop-opacity=".149" offset=".696"/><stop stop-opacity=".213" offset=".73"/><stop stop-opacity=".546" offset="1"/></radialGradient></defs><g transform="matrix(1.25 0 0 -1.25 -89.27 630.74)"><text transform="matrix(.99077 0 0 -.99077 49.592173 22.87309)" clip-path="url(#A)"><tspan x="0 3.96 7.92 11.88 15.84 17.82 20.9009 24.8609 28.8209 30.8009 34.7609 38.7209 40.7009 44.6609 48.6209 50.8226 54.7826 58.7426 60.9444 64.9044" font-size="7.92px" font-family="Times" fill="#fff">2008 Jun 12 03:54:25</tspan></text><text transform="matrix(.99077 0 0 -.99077 135.581104 23.346676)" clip-path="url(#B)"><tspan x="0 5.02512 11.2126 15.8549 17.5949 19.9126 21.6526 27.84 30.9302 33.2479 35.1828 37.1177 40.5977 42.3377 48.9079 51.9982 53.933 57.413 60.5033 62.4382" font-size="6.96px" font-family="Times">OMC - Martin Weinelt</tspan></text><path d="M355.77 380.737v.238-.238z" fill="#137ac9"/><g fill="#fcc407"><path d="M335.083 449.219h-.238.238zm-76.329-43.99v.238-.238zm-3.805-30.199zm-10.463-86.316v.238-.238zm250.15-13.791v.238-.238zm4.042-22.352v-.713.713z"/><path d="M498.441 298.464v.238-.238zm.238-45.892v-.713.713zm-419.691 81.56v.238-.238zm-1.427-83.462v-.238.238z"/></g><text transform="matrix(.99077 0 0 -.99077 407.210606 42.365498)" clip-path="url(#C)"><tspan x="0 6.96" font-size="13.92px" font-family="Times">km</tspan></text><text transform="matrix(.52227 0 0 -.52227 -480.180089 105.15635)" clip-path="url(#A)"><tspan x="0 3.96 7.92 11.88 15.84 17.82 20.9009 24.8609 28.8209 30.8009 34.7609 38.7209 40.7009 44.6609 48.6209 50.8226 54.7826 58.7426 60.9444 64.9044" font-size="7.92px" font-family="Times" fill="#fff">2008 Jun 12 04:45:24</tspan></text><text transform="matrix(.52227 0 0 -.52227 -434.852281 105.405995)" clip-path="url(#B)"><tspan x="0 5.02512 11.2126 15.8549 17.5949 19.9126 21.6526 27.84 30.9302 33.2479 35.1828 37.1177 40.5977 42.3377 48.9079 51.9982 53.933 57.413 60.5033 62.4382" font-size="6.96px" font-family="Times">OMC - Martin Weinelt</tspan></text><path d="M-329.563 313.353h-.251.251z" fill="#dcdcdc"/><path d="M-318.783 322.127v.125-.125z" fill="#fff"/><g fill="#dcdcdc"><path d="M-326.68 341.806zm-3.008 6.267h-.125.125zm-42.241-26.698zm52.018 27.952zm-30.083 8.273h-1.003 1.003zm-.501-.752z"/><path d="M-349.994 357.6h-1.003 1.003zm-.501-.752zm-31.211-2.883z"/><path d="M-381.706 353.965zm138.255-124.843v-.501.501z"/><path d="M-243.576 256.697v-.125.125zm.125-27.576v-.501.501zm-221.986-.752v-.125.125z"/></g><text transform="matrix(.52227 0 0 -.52227 -291.666762 115.431488)" clip-path="url(#D)"><tspan x="0 6.96" font-size="13.92px" font-family="Times">km</tspan></text><path d="M287.57 436.22v2.378-2.378m39.24-7.13v-.238.238" fill="#dcdcdc"/><path d="M324.43 497.34h-.476.476" fill="#fff"/><path d="M330.85 497.34 279 496.15" fill="#dcdcdc"/><path d="M279.96 501.62h-.951.951m-3.1-.71h-1.903 1.903m-19.26-1.19h-.476.476" fill="#fff"/><path d="M287.57 501.86h-2.14 2.14m-8.57-5.71" fill="#dcdcdc"/><path d="M279.96 501.62h-.951.951m-3.1-.71h-1.903 1.903m-19.26-1.19h-.476.476m12.37-155.77h-.238.238" fill="#fff"/><g fill="#dcdcdc"><path d="M287.57 204.59v1.427-1.427M74.005 301.38v-.951.951"/><path d="M74.005 301.38v-.951.951M282.33 197.46v-.238.238m77.06-53.75"/></g><path d="M501.6 287.83v6.65l-.24 1.19v4.52l-.23.95v2.38l-.24.95v1.19l-.24 1.19v2.14l-.24 1.19v1.19l-.24.95v1.19l-.23 1.19-.24.95v1.19l-.24 1.19-.24.95v1.19l-.23 1.19-.24.95-.24 1.19v.95l-.48 2.38-.23.95-.48 2.38-.24.95-.23 1.19-.24.95-.48 2.38-.24.95-.23 1.19-.24.95-.24 1.19-.24.95-.23 1.19-.48 1.19-.24.95-.24 1.19-.23.95-.48 1.19-.24.95-.24 1.19-.47.95-.24 1.19-.24.95-.47 1.19-.24.95-.48 1.19-.23.95-.48 1.19-.24.95-.47.95-.48 1.19-.24.95-.47 1.19-.48.95-.24.95-.47 1.19-.48.95-.23 1.19-.96 1.91-.47 1.19-1.43 2.85-.24 1.19-.95 1.9-.47 1.19-1.43 2.85-.71 1.19-2.38 4.76-.48 1.19-.71.95-.95 1.9-.72.95-.95 1.91-.71.95-.95 1.9-.71 1.19-.48.95-.71.95-.48.95-.71.95-.48.72-.71.95-.48.95-.71.95-.48.95-1.42 1.91-.48.95-1.43 1.9-.71.71-.48.95-2.14 2.86-.71.71-.47.95-1.43 1.9-.71.72-1.43 1.9-.72.71-1.42 1.91-.72.71-.71.95-.71.72-.72.95-.71.71-.71.95-2.38 2.38-.71.95-.72.71-.71.96-.95.71-.72.71-.71.95-3.09 3.1-.95.71-.72.95-.95.71-3.09 3.09-.95.72-.71.71-.95.72-.72.71-.95.71-1.66 1.67-.96.71-.71.71-1.9 1.43-.71.71-.96.48-.95.71-.71.72-2.85 2.14-.72.71-.95.71-.95.48-.95.71-.72.72-.95.71-.95.48-1.9 1.42-.95.48-.95.71-.95.48-1.91 1.42-.71.48-.95.71-.95.48-.95.71-1.91.95-1.19.72-.95.47-.95.72-1.9.95-.95.71-2.86 1.43-.95.71-1.19.48-3.8 1.9-1.19.47-.95.72-1.9.95-1.19.48-1.91.95-.95.23-1.19.48-1.9.95-1.19.48-1.9.95-1.19.24-1.9.95-1.19.47-.95.24-1.19.48-.95.47-.95.24-1.19.48-.95.23-1.19.48-.95.24-1.19.47-.96.24-1.18.48-.96.23-1.18.48-.96.24-1.19.23-.95.48-1.19.24-.95.24-1.19.47-.95.24-1.19.24-.95.24-1.19.23-.95.48-2.38.47-.95.24-1.19.24-.95.24-1.19.24-.95.23-2.38.48-.95.24-1.19.23h-1.19l-.95.24-1.19.24-.95.24-1.19.24h-1.19l-.95.23-1.19.24h-1.18l-.96.24-1.19.24h-1.18l-.96.24h-1.18l-1.19.23h-.96l-1.18.24h-1.19l-.95.24h-2.38l-1.19.24h-2.14l-1.19.23h-4.28l-1.19.24h-12.37l-1.19-.24h-4.28l-1.19-.23h-2.14l-1.19-.24h-2.37l-.96-.24h-1.18l-1.19-.24h-.95l-1.19-.23h-1.19l-.95-.24h-1.19l-1.19-.24-.95-.24h-1.19l-1.19-.24-.95-.23h-1.19l-1.19-.24-.95-.24-1.19-.24-.95-.24h-1.19l-1.19-.23-.95-.24-2.38-.48-.95-.23-1.19-.24-.95-.24-1.19-.24-.95-.24-2.38-.47-.95-.48-1.19-.23-.95-.24-1.19-.24-.95-.24-1.19-.47-.95-.24-1.19-.24-.95-.48-1.19-.23-.95-.24-1.19-.48-.95-.23-1.19-.48-.95-.24-1.19-.47-.95-.24-1.19-.48-.96-.23-1.18-.48-.96-.24-.95-.47-1.19-.48-.95-.24-1.19-.47-1.9-.95-1.19-.24-1.9-.95-1.19-.48-1.9-.95-1.19-.48-.95-.23-1.91-.95-1.18-.48-1.91-.95-.95-.72-1.19-.47-3.8-1.9-1.19-.48-.95-.71-2.86-1.43-.95-.71-1.9-.95-.95-.72-.95-.47-1.19-.72-1.9-.95-.96-.71-.95-.48-.95-.71-.71-.48-1.9-1.42-.96-.48-.95-.71-.95-.48-1.9-1.42-.95-.48-.95-.71-.72-.72-.95-.71-.95-.48-.95-.71-.71-.71-2.86-2.14-.71-.72-.95-.71-.95-.48-.72-.71-1.9-1.43-.71-.71-.95-.71-1.67-1.67-.95-.71-.71-.71-.96-.72-.71-.71-.95-.72-3.09-3.09-.95-.71-.72-.95-.95-.71-3.09-3.1-.71-.95-.72-.71-.95-.71-.71-.96-.71-.71-.72-.95-2.38-2.38-.71-.95-.71-.71-.72-.95-.71-.72-.71-.95-.72-.71-1.42-1.91-.72-.71-1.42-1.9-.72-.72-1.42-1.9-.48-.95-.71-.71-2.14-2.86-.48-.95-.71-.71-1.43-1.9-.48-.95-1.42-1.91-.48-.95-.71-.95-.48-.95-.71-.95-.48-.72-.71-.95-.47-.95-.72-.95-.47-.95-.72-1.19-.95-1.9-.71-.95-.95-1.91-.72-.95-.948-1.9-.714-.95-.475-1.19-2.379-4.76-.713-1.19-1.427-2.85-.476-1.19-.951-1.9-.238-1.19-1.427-2.85-.475-1.19-.951-1.91-.238-1.19-.476-.95-.476-1.19-.237-.95-.476-.95-.476-1.19-.237-.95-.476-1.19-.476-.95-.238-.95-.475-1.19-.238-.95-.476-1.19-.237-.95-.476-1.19-.238-.95-.238-1.19-.475-.95-.238-1.19-.238-.95-.476-1.19-.237-.95-.238-1.19-.238-.95-.476-1.19-.238-1.19-.237-.95-.238-1.19-.238-.95-.238-1.19-.238-.95-.475-2.38-.238-.95-.238-1.19-.238-.95-.475-2.38-.238-.95-.476-2.38v-.95l-.238-1.19-.237-.95-.238-1.19v-1.19l-.238-.95-.238-1.19v-1.19l-.238-.95-.237-1.19v-1.19l-.238-.95v-1.19l-.238-1.19v-2.14l-.238-1.19v-1.19l-.238-.95v-2.38l-.238-.95v-4.52l-.237-1.19v-13.31l.237-1.19v-4.52l.238-.95v-2.38l.238-.95v-1.19l.238-1.19v-2.14l.238-1.19v-1.19l.238-.95v-1.19l.237-1.19.238-.95v-1.19l.238-1.19.238-.95v-1.19l.238-1.19.237-.95.238-1.19v-.95l.476-2.38.238-.95.475-2.38.238-.95.238-1.19.238-.95.475-2.38.238-.95.238-1.19.238-.95.238-1.19.237-.95.238-1.19.476-1.19.238-.95.238-1.19.237-.95.476-1.19.238-.95.238-1.19.475-.95.238-1.19.238-.95.476-1.19.237-.95.476-1.19.238-.95.475-1.19.238-.95.476-.95.476-1.19.237-.95.476-1.19.476-.95.237-.95.476-1.19.476-.95.238-1.19.951-1.9.475-1.19 1.427-2.86.238-1.19.951-1.9.476-1.19 1.427-2.85.713-1.19 2.379-4.76.475-1.19.714-.95.948-1.9.72-.95.95-1.9.71-.96.95-1.9.72-1.19.47-.95.72-.95.47-.95.71-.95.48-.72.71-.95.48-.95.71-.95.48-.95 1.42-1.9.48-.95 1.43-1.91.71-.71.48-.95 2.14-2.86.71-.71.48-.95 1.42-1.9.72-.72 1.42-1.9.72-.71 1.42-1.91.72-.71.71-.95.71-.71.72-.95.71-.72.71-.95 2.38-2.38.72-.95.71-.71.71-.95.95-.72.72-.71.71-.95 3.09-3.09.95-.72.72-.95.95-.71 3.09-3.09.95-.72.71-.71.96-.71.71-.72.95-.71 1.67-1.66.95-.72.71-.71 1.9-1.43.72-.71.95-.48.95-.71.71-.71 2.86-2.15.71-.71.95-.71.95-.48.95-.71.72-.71.95-.72.95-.47 1.9-1.43.95-.48.95-.71.96-.48 1.9-1.42.71-.48.95-.71.95-.48.96-.71 1.9-.95 1.19-.72.95-.47.95-.71 1.9-.96.95-.71 2.86-1.426.95-.713 1.19-.476 3.8-1.903 1.19-.475.95-.714 1.91-.951 1.18-.476 1.91-.951.95-.238 1.19-.475 1.9-.952 1.19-.475 1.9-.951 1.19-.238 1.9-.951 1.19-.476.95-.238 1.19-.476.95-.475.96-.238 1.18-.476.96-.237 1.19-.476.95-.238 1.19-.476.95-.237 1.19-.476.95-.238 1.19-.475.95-.238 1.19-.238.95-.476 1.19-.238.95-.237 1.19-.476.95-.238 1.19-.238.95-.237 1.19-.238.95-.476 2.38-.476.95-.237 1.19-.238.95-.238 1.19-.238.95-.238 2.38-.475.95-.238 1.19-.238h1.19l.95-.238 1.19-.238.95-.237 1.19-.238h1.19l.95-.238 1.19-.238h1.19l.95-.238 1.19-.237h1.19l.95-.238h1.19l1.19-.238h.95l1.19-.238h1.18l.96-.238h2.37l1.19-.238h2.14l1.19-.237h4.28l1.19-.238h12.37l1.19.238h4.28l1.19.237h2.14l1.19.238h2.38l.95.238h1.19l1.18.238h.96l1.19.238h1.18l.96.238h1.18l1.19.237.96.238h1.18l1.19.238.95.238h1.19l1.19.238.95.237 1.19.238.95.238h1.19l1.19.238.95.238 2.38.475.95.238 1.19.238.95.238 1.19.238.95.237 2.38.476.95.476 1.19.238.95.237 1.19.238.95.238 1.19.476.95.237 1.19.238.95.476 1.19.238.96.238 1.18.475.96.238 1.18.476.96.237 1.19.476.95.238 1.19.476.95.237 1.19.476.95.238.95.475 1.19.476.95.238 1.19.476 1.9.951 1.19.238 1.9.951 1.19.475 1.9.952 1.19.475.95.238 1.91.951 1.19.476 1.9.951.95.714 1.19.475 3.8 1.903 1.19.476.95.713 2.86 1.426.95.71 1.9.96.95.71.95.47 1.19.72 1.91.95.95.71.95.48.95.71.71.48 1.91 1.42.95.48.95.71.95.48 1.9 1.43.95.47.95.72.72.71.95.71.95.48.95.71.72.71 2.85 2.15.71.71.95.71.96.48.71.71 1.9 1.43.71.71.96.72 1.66 1.66.95.71.72.72.95.71.71.71.95.72 3.09 3.09.95.71.72.95.95.72 3.09 3.09.71.95.72.71.95.72.71.95.72.71.71.95 2.38 2.38.71.95.71.72.72.95.71.71.71.95.72.71 1.42 1.91.72.71 1.43 1.9.71.72 1.43 1.9.47.95.71.71 2.14 2.86.48.95.71.71 1.43 1.91.48.95 1.42 1.9.48.95.71.95.48.95.71.95.48.72.71.95.48.95.71.95.48.95.71 1.19.95 1.9.71.96.95 1.9.72.95.95 1.9.71.95.48 1.19 2.38 4.76.71 1.19 1.43 2.85.47 1.19.95 1.9.24 1.19 1.43 2.86.47 1.19.96 1.9.23 1.19.48.95.47 1.19.24.95.48.95.47 1.19.24.95.48 1.19.47.95.24.95.48 1.19.23.95.48 1.19.24.95.47 1.19.24.95.24 1.19.47.95.24 1.19.24.95.48 1.19.23.95.24 1.19.24.95.48 1.19.23 1.19.24.95.24 1.19.24.95.23 1.19.24.95.48 2.38.24.95.23 1.19.24.95.48 2.38.23.95.48 2.38v.95l.24 1.19.24.95.23 1.19v1.19l.24.95.24 1.19V260l.24.95.23 1.19v1.19l.24.95v1.19l.24 1.19v2.14l.24 1.19v1.19l.24.95v2.38l.23.95v4.52l.24 1.19v5.47" fill="#fff"/><path d="M177.91 361.32l2.63-2.38v-1.41l-3.1-2.85.47-1.19-3.07 2.13-1.91-1.19.47-1.66-1.9 1.91-.72-.97.72-1.19-1.42-3.79 1.89-3.09-1.66-1.66-.94-3.82 1.66 2.85 1.66-.47.24-4.76-2.85-.24-.71 2.38-1.91-2.14-.25-2.37.25 1.19 1.19-.95-.47-1.68-.72.97-.94-1.44h1.19v-1.91l-3.35-6.89-4.75 1.91-3.57 6.67 1.66 4.75 1.91.7 1.66 2.37 2.08-.25-1.34 1.59-.95 1.69-.69 1.54-.25.91-.12.79.34.34-.07.81-.37 1.07-.41 1.14-.51.99-.67 1.34-.78 1.41.18.34-.34 1.28-.42 1.41-.91 1.58-.58.25-.2.74-.63 1.62-.63 1.42-.4 1.4-.8 5.52.15-6.1.5-4.04-1.44-3.34-1.44-.95-2.85.47-.22.25-2.15 2.13-1.91 3.82.25 4.51-2.13 2.37-4.29.48-1.66 3.34-.97-1.19.47-1.19-1.18 1.19-.7-.97-1.66 3.79-1.68-.44-1.19-1.19.96-.97-2.15-2.37v-1.19l-.72.49.5 1.41-.97-.94v-2.38l-.72-.47-.47-2.15-.94-.22 1.19-1.44-1.66.25 1.41-.97-.22-4.29.69-.94 1.69 1.66.47-.94.22-5 1.91-1.41 1.91.69.24-1.88 1.66-.25-2.85-3.1-1.68-3.57-8.32-7.13-2.22-7-2.76-3.45.71-1.19-1.18-12.61-.97-2.85.97-3.82-.72-5.47-1.44-4.51.47-3.57.72-3.56.72-13.08-1.66-4.76-.25-9.76 3.34-2.38 1.66.72 7.36-2.6 1.91.94 7.38-1.44 1.19 2.38 6.89-1.88 1.66 2.13 2.38-.94 1.9 2.38 2.85-.72.97 4.28 1.19.7.72-.94 4.97 4.5-1.41 5.73-3.56 3.56-.97 2.6.47 4.54 1.44 2.13-8.33-4.51-3.32 2.38-1.43-.25-1.44 2.63 2.38 4.98-1.19 1.18-1.88-4.03-.25 5.47 1.19 1.91-1.44 5.23.97 6.88-.97.72 1.44-.22.25 1.66v.47l1.66-1.66.71 1.19.7-2.16 1.43-.22v-.72l-.24-8.57 1.9-2.38 1.66-5.23 2.16-2.13h5.47v-5.72l6.17-4.98 4.29-3.34 13.55-3.07-.22-3.1 1.66-.72v-3.32l.52-.15.42.62.42-.89 1.01-.3-.47-1.43 1.89.72-1.42-.95 1.66-3.34 3.82-.72-.97-1.19-4.04.5 4.76-7.63 4.29.49 1.19 3.79 1.9-.72-1.43-.69-.25-1.19 1.19-.25-1.19-.94.72-2.38-1.42-2.87.48-14.02 6.16-19.03.72-4.03.97-4.04 3.32-3.57 1.66.69.96 1.91 3.08.25-.95.72 1.19 1.66.47.72 1.91-.25v4.76l.94 2.13 1.44 2.87-.47 6.42.94 1.9 2.38-.24 1.44 1.9 3.56.23v1.68l6.67 3.32 3.56 3.32 4.76 1.44 2.6 2.37-.47 2.38 3.1.94.94 1.69.47-2.38 1.68 1.66 1.19-1.91v1.66l.7-1.19.96 1.19.94-1.19.47 2.16.97-2.16 1.19 2.63.22-2.16.72.5-.22 2.38 2.6-.25 4.04-9.76.96 1.19-.24-1.41 2.62-.97.94-2.13-2.13.25 1.66-2.16.72 1.91 1.41-6.66-1.41-5.48 1.41.97-.94-1.44.94.97 1.19-1.44.72 1.44.97-1.44.94 1.66 2.38.47-.72 1.44 1.19-1.19 1.43 1.19v2.38l1.66-3.57 1.44.25v-5.95l1.19-4.76.47 1.42 1.66-4.04-.47-3.1 1.19-.72-1.66-3.32.47-2.37.72.94-.25-.94-1.66-6.2 1.41.72 5.01-5.7.47-.47 1.66-7.13 2.62-4.76 8.33-4.76 1.66 1.42 1.18-.94-3.09 4.5v5.48l-1.19 2.38-5.95 4.75-4.03 1.19-1.66 5.23-.47 1.91-2.38-.25-.25 2.63v1.18l3.1 5.95v1.44l-.25 2.6h.25l3.56.72-.47-2.85 3.32.22 3.35-1.88 1.66-4.29 1.66.94.24-2.13.94.72 4.51-2.15-1.19-4.29h1.91l3.35 2.38-1.44 1.91 2.63-1.19-.97 1.43-.47.47.94-.47.72-.71-.47.71-.47.72 1.66-.49-1.44.71h1.44l-.25.97 1.91-.49 6.19 3.81.47 4.51.94.25-2.13 8.79-2.38 2.85-4.28 2.38-5.48 6.91.72 3.57 2.38 1.66-.22 1.66.94-.23-.72 1.19h2.38l1.43 2.13 2.38.25.23 1.41 2.15-1.66 1.66 1.44 1.19-.97-.94-2.13 1.19-2.37 1.19.22v4.06l.22-.72 4.04 1.66v.94h2.38v1.19l1.9-.47-.22 2.63.69-1.66.5 1.19.94-.5-.94 3.1 3.57-2.6-.5.94 1.91 1.44.25-.97 1.41 1.44.96-.72 2.85 1.66.72 1.19-.96.47 2.37.96.25 1.42.94-.7 1.44 2.38-1.19.69 2.85.5-.47 1.41h1.44l-.72 1.44h1.41v1.41l1.19-.69-.94 2.6 1.19 1.43h-1.19l.72.23-.97.96 1.44-.24h.47l1.43 5-.96.72 3.09 1.19-1.19 1.41 1.19 1.19-1.19.72 1.66.47-.22 1.43-1.66-.96 1.88 2.15-.69.23-2.15.71-3.32-1.18 4.75 3.81-4.04 2.6h-2.15l5.72.25-3.81 2.63-2.85 5.94h-.97l-2.6.69-.25 1.19 1.91 2.88.72 1.19-.72.69 1.66.25-.22 1.91 3.07 2.13 1.68-.23v2.13l-5.72.25-1.91-1.68-1.88-1.89-1.91 3.79h-3.34l-.22 2.63 3.32 1.19 2.15 3.57 1.88 3.32 2.16 1.43 1.66-1.9-1.91-4.51 1.91.47-1.66-2.85 5.7 5.94 5.22.23-.22-3.1 1.41-.47-1.66-.72-.47-1.88 1.66.22-.47-.72 1.44.25.22.72 2.63-.47 1.9-3.1-1.43.72-.72-1.44 1.19-1.19v1.19l.47-1.9 1.19.24-.7-4.28 1.42-1.44-.94-.22.94-.97 1.43 2.38.72-1.19v1.69l1.19-.72-.72 1.41 2.13-.47v1.91l1.44-.25.22 3.81-1.41 3.82-4.53 4.75-3.07 1.19-.25 1.89 4.28 5.72-1.19 3.32 1.66 2.62-.47 1.19h1.42l.24 3.32 3.82-1.19 3.57 4.54 1.88 11.89-.22 9.26v1.91l-1.91 3.32-1.19 2.38-.94 5.47-3.35 2.38h1.19l-.22 1.19-4.06 1.44-.7.22-1.9-.94.47-.97-1.44-2.38-.69 2.88-.5-2.63-1.66 2.85-1.66-.94-1.66.72 2.38 6.89.47 4.75.25 6.67 4.04 3.09.94-.49v1.19l3.56 1.43-.71 1.91 4.75.94-.94-1.41.94-.5 3.57 4.29-1.19.72-.69-.94-.97 1.19-1.91 6.41 2.16 4.29.94-1.44.47-.94.97-.72v.22l.22.72 1.19-1.41-1.19 4.51.72.94-2.6 1.91.47 1.43 1.19.23-.25-1.41 4.04-3.57-.47-2.85 1.9-5.01 1.44-4.5-.97-1.91 1.91-3.82 3.32-4.5 12.14-10.71-1.19 5.95-2.13 1.91 1.66 1.88v.25l-.25.24-1.19 1.19-.02.03-.7.67-.69.49.69 4.04-3.56 3.32.96 1.66-3.81 2.16-.72 1.65-1.88-.94-4.29 6.64.47.97 1.19-.25-.94 2.85 1.88-1.41-1.19 2.13.97 2.62 2.85-.47-1.44 1.19-2.38 5.7-1.19 5 1.69 1.42-1.19 1.43-6.19 1.66.94-.47-2.13.23.47-1.66-.72.47-.69-.95 1.41 4.04-.94.97-1.19 1.41-2.63.97v.94l3.1-1.44v1.91l2.85-.22 1.66.94-.94.72 1.43-.25-.49.96-1.41-.24-.97 1.19-1.41.71-.72-.47.94 1.42h-1.41l.94.47-1.91 1.43-2.85-.72-.72-1.18.25-.95 3.1-.71-5.23.94-5.47-1.89-4.29-1.43-.47-2.38-1.44-.72-.71-.47.24-.25 1.19-.94 2.38-.25.47-.94-2.38-.72-2.13.47.47-1.18-3.09-2.61.71-1.9-3.09 1.19v-.25l-.22.25-3.35.94-2.38-1.19-1.66-2.6h-5.22l.22 1.19h-2.38l-.94-.47.72-2.63-1.66 1.66 1.19-.72-.25 1.44-2.13-1.44 1.88 1.69-5.94-1.44.96-.72-.72-.94-.47-.72.72.47h.22v-.22l.25-.5.47-.47.47-.22.72-.72h-.25l-1.88-.47.7-1.44-2.85.72-1.66-1.44-2.13.97.47-3.81-5.23 2.84 1.19.72-1.69.47.72.72-1.66 1.19-2.38-.47-2.62.94-.22-3.09-3.1-.23-1.91.23.25 1.18-3.57-.22-1.66-1.66-1.43 2.13-.25-.94-.94.94-1.66-.25v-1.18l1.19.24-4.54-1.9-.69-1.19 1.19 2.62 5.45 5.23-1.66 1.44 1.44-.72v.94l-3.1 2.38-3.82-1.19.72 1.19-2.85.25 1.66.94-1.9.96-2.14-1.9-.24-1.66h-1.89l.7-1.19-.7.69-3.09-1.19.47.72-2.38.25-.47-.72h1.19l-7.14-1.44-.47-1.66-.71.97.47-3.1-7.14.22-.94-3.07 2.13-2.87-1.66-4.98-.25-.72-.72.94-.22.72 1.19 2.16-1.44-.97 2.85 3.1-2.13.47-2.38 2.38-1.19-.23v-1.19l-2.13.7 1.42-3.32-2.38 1.19 1.19 5-.72-1.68-3.32-1.66v-2.6l-.94-1.69-1.91-2.38 2.85-.47 1.66-1.41-.22-2.16-1.69-1.18 1.44-1.19-1.91 1.19 1.19 3.81h-2.6l-1.69-3.1-5.69-3.56-3.1 2.62 3.82-.25 4.75 3.57-.47 2.13 1.88 2.88 1.44 2.37v1.89l3.1 3.09-.97.97-1.39.69h1.17l.94.97-1.19.22-.94-1.19-.47.25-3.57-3.32-2.63-.72-2.13-3.09-.71-1.19 1.41-.72.25-1.91-2.63-1.88-1.19 3.79.5-.47-1.2 1.29.53-1.07-.95-3.66-.04-.5-3.76-1.91-5.92-1.37-5.6-.95-5.31-7.21h-.52l-1.03-.39-.38-.94-1.66-1.87-3.33-3.56-4.49-4.53-1.66-.18-2.29-1.24-.28-1.22.89-1.49.08-.98-.98-1.1-2.24-.33-3.41 1.06-1.15-.19-.43-1.18.1-3.93.51-.21.42-.7 1.56-.08 2.12.05.96-.34.48-1-.44-.75-3.44-1.86-.38-1.05-.42-.19-.19-.52.53-1.12 1.87-1.72-.57-.3.9-1.76.73-.92-.07-.63-.65-.72-.78-.8-2.3 1.53-1.7-.79-.69 3.13-1.37.4-.28-.19-1.58 1.97-.48.93-.57 1.23-1.19 1.06-1.94.13-3.63 1.43-2.78.27-.54-.44-1.77-2.12-.64-4.5-1.66-1.8-1.28-1.31-.26-1.29-.51-1.32" fill="#346733"/><g fill="#b9b9b9"><path d="M131.57 374.6l1.88.28 1.44-2.16 2.13 5.72-.47.7 3.82.96 3.79 3.57-.47-.96.94-.48 2.38 2.63-.48-.72 1.91.25 1.44.69 2.13-.69-.72-1.68-.72 1.43.25-.94-.72-.25 1.66-2.62-.69-1.19-2.38.49.94-.71-1.91-2.63v-1.41l5.48-.97-1.66 1.44-.25.72.72 2.37 2.38.7-1.44-.94 2.38.24 5.47-2.62-2.13-.72-.96 1.19-.7-3.1.23 1.19-3.1-1.66-1.41.72.08-3.41.8-5.53.4-1.4.62-1.42.64-1.61.19-.75.59-.24.9-1.58.43-1.41.33-1.29-.18-.33.78-1.42.67-1.34.51-.99.41-1.14.37-1.06.08-.82-.34-.34.12-.78.24-.92.69-1.54.95-1.69 1.28-1.62-1.05 1.96.72 8.55 2.6 3.81-1.41-.71 1.41 4.5 3.34 2.38 2.38-1.19 2.38 1.69 4.29-.49.51 1.31.27 1.3 1.27 1.3 1.67 1.81.64 4.49 1.76 2.12.54.45 2.78-.27 3.62-1.42 1.92-.17 1.19-1.1.58-1.24.55-.91 1.53-1.95.29.23 1.37-.4.68-3.14 1.7.79 2.31-1.52.78.79.65.73.06.63-.73.92-.9 1.76.57.3-1.78 1.72-.54 1.11.19.52.43.19.38 1.06 3.44 1.85.44.75-.48 1-.96.35-2.12-.06-1.56.08-.42.7-.51.22-.16 3.92.43 1.19 1.15.18 3.41-1.06 2.24.33.98 1.1-.08.99-.89 1.48.28 1.23 2.29 1.23 1.66.19 4.49 4.53 3.26 3.48 1.66 1.88.38.94 1.02.39h.52l5.36 7.28 5.6.95 5.92 1.37 3.76 1.91.04.5.95 3.66-.53 1.09-2.87 3.2-1.19-.47-.69-2.38-1.44.25v.22l-1.19-.94.72 2.13-2.62-.47-1.91 1.19-1.66-.72-.72.49-3.32-.49-5.22-5.23 2.3-1.36 4.11 1.14-1.19-3.1h-.25l1.44 3.1-4.04-1.19-.07.05-.17-.05-2.38 1.41 5.47 5.48 3.32.24-.69.47 1.88 1.42 1.44-.23-.72.47-3.1-.94.72.94-5.23.47-.24-.94-1.19.72-2.13-1.44-1.66.72.94 2.13 2.38-.22.96.94-1.19 3.32-.49-1.66-6.64-5.23.22 2.85-2.85-.22-1.66-.25-.71-.24-.72-.95-1.42-1.66-.24.47-.47 1.66h-.97l.97.25v1.91l-1.66-.72-.25-2.15-1.91-.7.25 3.79 2.38 2.38 1.9.47v2.38l.95-.22 1.43 2.85 1.19-7.86 1.88.25 2.88.47 1.66 2.85.22.47.72 5.25-.94 1.41-1.44-.47 1.91.72-.72.94.97.47.47-.69.22 1.19-1.66-.25.72 1.44h-1.19l.94 1.19.5.47.22-1.44h1.44l.71 2.38h-1.9l2.13.25.25.94-2.63-.72-.47.25 2.13.94-3.57-.47 2.88.72v1.19l-3.57-.72.47 1.66-.97-.7-.94-.49.72.97h-2.85l.69.22.95.25h-1.17l1.41.47-.94.24-1.19-.96.47 1.43-2.6-.71-.96.71v-1.43l-.47 1.43-1.91-.94 1.66.94-.94.25-.47-.72-.25.95-.72-1.42-1.41.94-.47-1.18-.72 1.43-.47-.72h-2.16l.72-.71-1.19.94-.72-.7.25.47-2.38-.24.47-.72-1.66.96.23-.71-.94.24-.72-.71-.47.47.94.47-3.32.24-.05-.19-.67.66-1.91-.94.72.94-1.19-.94.97 1.89-.97-1.42-.22 1.66-.72-.71-.72-.23.47.7-.72-.47.72 1.43-.94-.47-.47-1.68.22 1.68-.94-.25-.47-1.19v.95l-.25-.7h-.71v-1.19h.71l-.94-.96 1.19.25-.96-.48-1.19.23 1.19.72-.23 1.66-.72-.95v.72l-.96-.72.49-.24h-.96l-.94-.47h.94l-1.66-.47 1.66-.97-2.85.72-.94-.72.94-.69-1.44.22-.22-.94h-.72l.72 1.19-1.44-.97-2.13-2.38.47-1.19 3.1.25-.25-1.19 2.85.94-4.98-2.85.22-.47-1.66-.72 1.44.25-2.15-.72-3.32-3.32h-.95l-2.87-2.15.25-1.66 2.62.94-.24-1.66 4.51 1.66 3.09 2.16.25-.47.22 1.18.97-1.18 1.19.47-1.19-.97h1.91l.22.97 1.19-.47 2.62 2.6v.96l7.61 3.57-.72-.97 3.1-.47.94-.24 2.63.24 2.84 1.91-.47-.72 1.91.94-.47-.94 1.41.47.47-1.9-2.38-2.14h-9.01l-3.82-3.09-3.09-1.19-.72-1.91.72-.22-1.91-.97 5.72-4.04-1.19-.71-.25-2.6-1.66 1.9-1.43-.49-.23 2.87-2.62 1.41-2.6-2.13.47-.96-3.57-1.89-1.19.23 1.91 2.62-.97.72-3.32-1.19-4.75-3.57-.25.7 2.3.84-1.83-.59-.69.47h-.25l-.72-.47v-.25l.25-.22h-.72l-.94.22 1.41.25-1.19.71 1.19 2.13-3.32 2.38-1.19-.72 2.13 3.57-1.41 1.69 1.19.47-.25 1.19 1.66 1.9 2.63 1.19 2.38-.25.71 1.44 3.32.94-1.9 1.44-7.36-3.57.22-.25-1.19-1.18-.47.24-2.38-2.87 1.19 2.16-1.66-.72 1.19 1.19-.47.94-.97-1.19.72 2.38-.94.24-1.43-1.66-.72.47 1.9 1.66-2.84-.71-.72-1.19-.25 1.19-.69-1.42-.72 2.85-1.91-1.43-.47.24-1.44.72 2.16 3.32-3.35-2.85.25 1.66 1.41 1.19-.22 1.66-.97-1.19.5.72-1.69-1.19-1.88-3.32-2.87-2.62-.94-1.19-1.66-.94-.25-.47-5.23-3.35 3.82 8.32 1.19 1.44-.5 1.19-2.13-2.38-5.23-3.81-2.15-1.41-.22-.5-.97-.69-.47-.97v.47l-2.6-2.6-1.44-2.85-3.81-4.76.49-.49-1.44-3.79 1.19.47-.24-.94 1.68 1.19.22-.25h.25l.72.72.47.72 1.41 1.19.25.22 2.38.72 1.19-1.66 2.38 2.38.94.22.49-.47-1.68-4.51 3.09-.97-1.19-3.07-4.03-5-5.01-13.08-2.6-3.82-2.15-1.19v-.94l2.15 1.44.72-.5 1.66 3.1 1.66.97v-1.91l-.94-2.16.94.72 2.13 7.38 1.19.72v2.6l3.57 5.23 1.43 3.57 3.1 2.87 1.41-1.19-2.6-2.87 1.41.25-4.26-6.2v-1.66l-1.19-2.85.23 1.66-.72-4.03-1.19-3.1-3.57-2.85-1.41-3.1-1.44-3.09.47-.47h-.69l-.97-1.91.97-3.79-.72-.25-.25 3.35-.94-.5-2.15-3.79.71-.25-.94-2.13.94.72-.47-1.91 2.13 3.79.25-1.66.72 2.16.72-.5-.5-1.88 1.14 1.36-.17-.89 1.19 2.13.47 2.38-.72.25-.67-3.37.45 3.84.69-.25.72.97-.22-1.19 2.6 4.75.47-.24-.94-3.32.94 1.41v-1.66l.97 2.62 1.41-1.43.49-3.57-1.9-.72 1.13.18m149.63 127.3l-.47-.25 2.13.25h-1.66z"/><path d="M280.43 501.61h-4.51l-.72-.22h-3.09l-.72-.25h-2.6l-.72-.22h-1.91l-.34-.17-.38-.08h-1.19l-.47-.24h-1.66l-.96-.23h-1.19l-.47-.25h-.94l-1.91-.22-.94-.25h-.25l-1.29-.24h-.37l-.74-.18.59.08-6.76-1.32h.72l2.38.47h-.48l1.44.25-.96-.25 1.43.25-.96-.25 2.62.25-1.19-.25 1.91.25h-.25l1.44.23-.97-.23 1.91.23-1.19-.23h.97l.79.23h3.47l.72.47h-.94l1.19.24h.47l1.9.47h1.19l.72.25 2.03.13-.15-.13h.97l.42-.22-.2-.03.5-.22h.47l3.32.22v-.22l1.19.22 2.85-.22 1.43.22h5.01l1.41.25-1.41.23 1.19.24h-1.19l-.72.25 2.6.47h-3.32l-1.19.22zm-33.54-3.79l-1.29-.24h-1.09l-.22-.23h-.72l-.12-.12-.52-.1.57.15-.87-.17h-.25l-.07-.08-.87-.17.84.15-.02-.03-.52-.12h-.55l-.2-.18-.12-.02-.08-.02h-.32l-1.09-.3.7.12.07.03.79.15.65.14-.15-.14 1.88.47h.5l.39.19.45.1-.15-.05 1.19.23h.25l.94.24zm-7.51-1.48l-.81-.18-.33-.12.57.12.57.18zm-1.14-.3l-2.99-.59 1.9.22 1.09.37zm-2.99-.59l-1.91-.47 1.04.14 1.34.33h-.47zm-.87-.33l-.57-.14 1.19.22-.62-.08zm18.68 3.94l-.45-.05h.22l.23.05zm-.45-.05h-.47l-1.19-.24 1.66.24zm40.18 2.85l2.18-.1-.27.1h-1.91zm2.18-.1l.45-.15h3.32l-3.77.15zm3.77-.15l1.56-.17-.37.17h-1.19z"/></g><path d="M300.3 501.44l.1-.05h.3l-.4.05z" fill="#fff"/><path d="M300.7 501.39l8.52-.96 3.22-.35.34-.35 1.89-.25h.49l.94-.24-1.66-.47h-6.66l.72-.23-1.66.23h-1.44l1.44-.48h1.41l-.72-.24 2.63-.47h-.47l-2.16.47-2.38.49-1.41-.25-3.09.25-2.13-.49.24-.05-2.4-.42 1.19-.47-3.42.57-.37.37h-1.44l1.02-.25 1.83-.69h-1.91l-.69.47-3.34-.72 1.9-.94h-1.9l1.18-.25-1.18-.47 2.62-.22-.96-.25 3.81-.25-.72 1.19 1.19-.22 1.66 1.19h1.69v-1.44l1.41-.47 1.66.72.96-1.19-1.43.22 3.09-.69-.72-.25-.47-.25-.94.25 2.13-2.13 3.32.69-.69.25.94.47.25.25-3.1.94 1.19-.22.94.47h-1.19l-.22.47h3.32l.47.72 1.44-.47-1.66-.5h1.41l-.72-.22 2.87-.72-.24.72h-1.19l.47.47 1.19-.72h.96l1.42-.22 2.84-.5.97-.69 2.13-.72.25-.97 4.28-.47-1.43.72-2.85.25 4.04-.25-.25.72.49.22.7-.47.25.47.71-.69h-1.18l1.41-1.19 2.87-.5 3.57-1.66-.72-.22-1.91.47.25-.72 2.13-.94 1.91-1.68.94-.94 3.57-1.19-1.42-.25-.49-.22h3.1l-.48-1.19-.47-.72.47.47.95-.22 4.28-1.44-2.38.22v.03h-.22l-.97.22 1.19-.4v-.07h.25l3.57-1.44 1.41-.69-1.19-.25 2.63-.72.94.47.97-3.07v-2.15l3.09-5.23v-.72l-1.19.25.94-1.44-.94-.22 1.66-.97-1.66.47-.49-.47 2.15-1.19.72-1.19 1.66-.47h-.97l1.44-1.43 1.19-.7 3.82-1.9.69-1.91 1.91-.94 2.15 1.41 1.66-.22v1.66l1.66-.25-.25.96.5-1.18-1.69-.25 2.63.25.72-2.16h-1.66l3.32-4.29 1.44 1.19.22-.69 1.91-.25.24 2.63-.71.47.94-.25-1.91 1.66v.72l1.19-.94 1.68.22 1.41-.94v-.94l2.16-1.69-.5-.69 5.95-3.82h1.19l-.22.72.71-.47.23 1.41.72-1.41 2.37-.49-1.43 2.38 3.09-.48 1.66-1.41-1.88 2.6.47.25 1.19.47-2.63 1.19 1.66-.25-1.88 2.16 2.13-1.66 2.85-.97 4.29-4.28.47-.7 1.66-.49-.23.25-.24.24h.96l-8.57 7.36-1.91 1.91-2.6 1.91v-.72l-1.19.25-8.1 5.45-1.41 1.68 1.66-1.19.47.69.25-1.18 1.41-1.19 3.35-1.42-.72.95 2.38-1.42-2.63 2.38-.94.47h.47l-1.19.47-.25.72-1.66.94-.72-.47-2.13 1.44 1.44-.72-1.19.72h.69l-1.41 1.19.94-.72-.22.72.94-.25-.72.94.72.5-2.85 2.6.47.72-.71.47-.65.37 1.36-.37.25 2.15-1.19.7-.72-.47v.47l-.96.24 1.68-.24-.72.71-2.84.48h2.13l-.25.49-1.19.47 1.44-.47-.47.69.71-.47v.47l.23-.47.24.25.95-.47-.23 1.41 2.6-1.19-2.85 1.44h.48l2.62-.72-2.23 1.12.57-.18-.49.5 1.68-.97h.22v-.22h.72l-1.19.69 1.44-.69.22.22-2.38 1.19 1.19-.47-.71.72 1.18-.97v.72l.95-.47h.24l.97-.47h.45l-.92.47.57-.25.35-.22.49-.25-.72.42.97-.42-1.93 1.29.74-.32-.25.22-.22.08-.25.17-2.38 1.19 1.66-.72-1.66.94.47-.22-.71.47h-.23l-.25.25-1.41.69-.25.25-1.43.72-.22.22-.03.02-.22.23-.47.25-.25.22h-.47l-.47.25-.25.22-.47.25h-.47l-.25.24-.94.48h-.25l-1.41.71h-.25l-.94.47h-.25l-.94.47-.25.25h-.47l-.94.47h-.25l-.47.23-.96.49h-.23l-.47.22-.49.25h-.22l-.48.23-.49.24h-.22l-.97.47-.69.25h-.28l-.44.22h-.25l-.94.5h-.25l-.72.22-.22.25h-.25l-.62.2-.1.02-.47.25-.72.25H357l-.94.47h-.25l-.47.22h-.24l-.47.25-.72.25h-.47l-.47.22h-.25l-.22.25h-.25l-.35.1-.12.12h-.25l-.47.25h-.72l-.22.25h-.25l-.47.22h-.25l-.69.25h-.25l-.25.22h-.69l-.25.25h-.25l-.69.25h-.5l-.22.22h-.47l-.37.12-.13.13h-.22l-.47.22h-.72l-.47.25h-.25l-.47.25h-.72l-.24.22h-.47l-.47.25h-.72l-.23.22h-.49l-.47.25h-.47l-.47.24h-.47l-.5.23h-.69l-.5.25h-.22l-.47.22h-.72l-.62.12v.03l.25-.03-.35.13h-.22l.17-.08h-.1l-.05.03-.52.05h-.22v.17l-.25.07h-.72l-.47.23h-.72l-.74.24h-.44l-1.27.33.08-.1-1.42.24h.23l-.13.13-.81.12-.72.23h-1.19l-.72.24h-.72l-.69.23h-.5l-.69.24h-.72l-.2.08-1.09.17h-.62l-.72.22h-1.18l-.72.25h-1.41l-.72.23h-1.19l-.72.24h-1.41l-.5.25h-1.88l-.5.22h-2.6l-.72.25h-2.32z" fill="#b9b9b9"/><path d="M325.96 498.42l.2-.03-.3.15.1-.12zm1.24-.27l-.15.14h-.49l.64-.14zm1.27-.33l-.23.23h-.44l.67-.23zm4.08-.76l-.15.05-.22.05.1-.05.27-.05z" fill="#fff"/><path d="M384.58 476.89h-.23l1.19-.47-.96.47zm21.65-32.35v-1.66l3.81-3.57-.72.72v.47l-.94.47.47.5-1.66 1.19h.72l-1.68 1.88zM294.7 494.48l-4.76.25.25-.25 1.19-.22-1.44.22-1.19.25.72-.25h-1.9l-1.66.25.47-.25.72-.22-.72-.47-1.44.69-.47.25-.72-.25.25.5-1.44-.25-.94.47 1.44.47-1.44-.22-1.91.22-.72-.22-2.6 1.19.94.47 1.91.47-1.91.47 3.57.24h2.63l.94.72-5.95-.24.47-.23-1.88.23-.25-.23-1.43.23h-2.38l1.44.24h-.95l-10.23-.47 6.17-.25h-2.38l.72-.24h-5.94l1.66-.47h-1.66l.71-.23h1.91l-.72-.24h1.19l.94.24.72-.24v.24l1.66-.49 1.19.49.5-.49-1.69-.22 1.44-.25-1.66-.23-1.44.23-.47-.23v.23l-1.66-.47.94.47-3.56.25.96-.72h-1.68l.96-.25-1.43-.22h1.66l-1.89-.25h1.19l-1.19-.22 1.42-.25.47.47.49-.22 1.19.47-.49-.47.71.47-.22-.47.7.22h1.18l-1.18-.22h1.18l.97.22.94-.22v.47l.25-.47.47.22.25-.22.22.22.72-.22 1.19.22-1.44-.47 3.82.25-2.13-.25.69-.25.97.25-.67-.32-2.18-.15.94-.25 3.81.25-.96-.47-.47-.25 1.01.25h.18l-1.44-.5 1.68-.22 1.19.47-.72-.47 1.66.94-.24-.47.96.25-1.43-.72 2.15.47-1.19-.72 1.66-.22 1.41.69v-.69l1.44.69-.47-.47h.94l-1.19-.47 2.38.25-1.19-.72 2.85-.25.97.47-1.66.25h1.88l1.19-.47.25.22 1.18.5-.94-.97 1.42-1.19 3.56.47-1.19.5 1.91-.25-1.66.47 1.91-.22-1.44.94 1.19-.25.94.25-1.66.47.47.72.25-.25 5.48-.47-.47.72-.97.47-2.13-.22-.72.69zm-19.97-.22l-3.56-.47.22-.25 1.44-.25.71.5 1.19.47zm3.79 6.41l-2.6-.24h-.49l3.09.24zm9.05-.24l-1.19-.23.47-.25.72.48zm6.41-.23l-3.32-.47h2.13l1.66.22-.47.25zm-35.77-.39l-.12-.08h-.28l.4.08zm26.04-.08l-.72-.25h1.66l-.94.25zm-27.75-.2l-.1-.05h-.22l.32.05zm32.73-.05l-1.42-.24h3.08l-.48-.47 4.04-.72.72.24.97-.47 1.41.95 1.91.24h-2.63l-.47.47-3.79-.47-.97.47h-2.37zm-28.29-.94l-.25-.25 1.43.25h-1.18zm13.55-.25l.24-.47-2.62.23 2.38.24z" fill="#b9b9b9"/><path d="M323.24 498.29h.72l3.09-.47-1.9.23-1.91.24zm-23.59-.44l4.56-.74h-1.9l-2.66.74zm17.4-.27l1.43-.47h-1.43v.47zm4.06 0l1.81-.2-.4.2.97-.23.22.23.72-.23h-1.19l-.32.03.07-.03-1.88.23zm7.83 0h.24l.95-.23-1.19.23z" fill="#fff"/><path d="M280.9 496.86l-.22-.7h2.38l.22.7h-2.38z" fill="#b9b9b9"/><path d="M315.16 496.86h.94l.47-.22-1.41.22zm6.42 0h.22l.72-.22-.94-.25v.47zm7.85 0h1.66l1.41-.27v.05l1.44-.25h-.42l-1.02.2v-.2l1.19-.47-1.19.24-1.41.23h1.41l-3.07.47zm-1.68-.22l.72-.48-.95.23.23.25zm-13.31-.25l2.61-.23 1.9-.49-4.51.72zm8.55-.23l1.19-.49-2.85.25 1.66.24zm.72 0l1.44-.24h-.47l-.97.24zm-11.17-.49l1.43-.22-1.19-.25-.24.47zm16.89 0h1.66l-.62-.2.15-.02h-.25l.1.02-1.04.2zm2.13 0l1.19-.22h-1.19v.22zm-16.4-.47h2.38v-.22l2.38-.5-2.63.5-2.13.22zm14.74 0l2.38-.47-2.15.25-.23.22z" fill="#fff"/><path d="M287.57 494.98l-.72-.25h.72l.94.25h-.94z" fill="#b9b9b9"/><path d="M335.6 494.98l5.72-1.69 3.57-.94.47-.25-4.53.97-5.23 1.91zm2.63 0l2.13-.5-2.13.25v.25z" fill="#fff"/><path d="M307.78 494.01l2.38-1.41 2.38.47-2.63.94h-2.13z" fill="#b9b9b9"/><path d="M343.21 493.79l.71-.15v.15l.72-.3.94-.2.25-.22-.72.22-.47.2-.72.15v-.1l-.71.25zm-12.84-.5l3.57-1.19-2.38.5-1.19.69z" fill="#fff"/><path d="M293.51 493.07l1.19-.72-.25-.94-1.88-.97 1.88-.22 2.88.47 2.13 1.91-3.57.47h-2.38z" fill="#b9b9b9"/><path d="M335.6 493.07l2.38-.25.25-.22-2.63.47z" fill="#fff"/><path d="M241.19 492.82l-1.66-.47-.47.25-.49-.5v.5l-1.89-.5.23.25-1.19-.47.47.47-.7-.47v.22l-.96-.22.44.22h.03l.49.25-.69-.3-1.68-.42-1.44-.22-2.85-1.44.47.72-.72-.47.25.22-.97-.47h-.69l-.25-.25-.25.25-.22-.25h-.72l-.24-.22-1.89-.72 2.38.72-1.91-.97 1.42.5-.7-.5 1.41.25-.94-.47 1.19.47-.96-.47.96.22-.47-.47 2.06.45.79.27-1.66-.94 1.19.22-1.44-.47 1.66.25-1.41-.49.94.24-.72-.47 1.44.47-1.66-.72h.94l1.66.72-1.41-.72 2.85.25-1.66-.47.69-.25h.25l-1.91-1.19 1.44-.24-.97-.47-.22.47-.97-.23h.97l-.97-.24-.94-.94 1.19.22-1.66-.7 1.91-1.18-.5-.72 2.38.22-2.38-.47-1.19-.94h.72l-1.19-.47-1.41-1.91.94-2.63 3.32 1.91.25.94v.25l1.44.72-.72-1.19.82.54-1.07-1.51 1.44.25-.23 1.36 1.17.77.97-.94-1.44-.47v-.97l2.85 1.69-.47-.72 1.66.47-4.51-1.91-3.35-.47.5-.72h-1.19l-.5-.47 2.16.47.94-.47.47.47.5-.22.47.69.47-.47 2.62.97-.24.69.72-.22.71.47-.96-.94 1.43.22v.97l1.42.22-.7-1.19 1.66 1.19-.47-.72 1.41.5-1.66-.72v-.72l.47-.25-1.66-.94 1.44.94-2.38-.69-.49-1.19h1.19l1.43.47-1.19.23 1.44.24 1.66-.24-2.15-.95-.47-.24.47-.47.96.47.72.49.94-.25 1.44.95-.97-.95 2.16.72-2.38-.96-.5-.23 1.91-.24.47.24 1.44.72-.47-.72v-.24l.22.24.97.72 1.91.22-.97-1.18-.72-.72 1.69-.23 1.18.72.7.23-.22-.48v-.24l.71.24.94.25-.71.7 1.43-.47 1.91-.95 2.6-1.18v.94l1.19-.23v-1.43l1.19 1.19.47.24-.22-.49-.47-1.66 2.38-.94 1.41 1.19-1.19.71.72.23.47.25-2.13 1.9 4.28-1.68-.49 1.68 1.19-.96 2.15 2.15.47-.72-2.38-1.66.47-1.19 1.91.95.94-.47 1.91 2.6.47-.95-1.88-1.65 4.04 1.9-1.44 1.19h2.63v.7l-2.16-.48-.94.48 3.1.49h-2.63l1.16.47h.03l.47-.25h1.44v.25l-2.38.22.35-.17-1.07.42h4.04l-2.13 1.19h2.13v.72l1.43-1.19 1.66.94h.25l-.25.25-.22.07v.15l.94.25-.94 1.19 1.19-.25-.72.72.94-.47 1.19 1.44-.47.47-1.91-.47.48 1.88 1.9.25 2.63 1.66-3.35.71-2.37-.47-.47.47 2.62.25h-2.38l4.04.47-3.1.23 1.19.49-1.19.22h-1.9l.72-.22h-1.66l-1.44-.72h-3.32l-5.23.72.47.7-.94-.23-2.15.94-2.38.25 1.44.47-1.19-.25v.5l-.47-.5.69.97-2.38-.47 1.19-.72-1.41.47-1.66-.47.94.47-1.66-.47.72.72-.5-.25-1.41-.25.94.25-2.6.25 3.32.22 1.66.72-3.32-.25-2.38-.69h-.25l-.22.94-1.44-.47v.22l1.19.25-1.66.25.25.05.22.42-1.65-.25 4.03.97-1.9-.25 1.43.25-.25.47-1.28-.74-2.28-.7 3.56 1.66-3.09-.94 2.87.94-2.62-.47 1.43.72h-1.09l-1.78-1.19-.94-.25 2.85 1.69-2.38-.72 1.44.72h-1.44l-.94-.72-1.44-.25 2.38.97-.94-.25-.47.47-.97-.72-3.32-.47 2.13.47-1.19-.22 1.66.94-.94-.27-.47-.2.12.1.35.37-1.66-.47.72.47-1.69-.47 1.44.47zm.84-.37l.35.1.72.27-1.07-.37zm.82-.35h1.19l.72.72h-.94l-.97-.72zm5.82.25l.37.25-.47-.25h.1zm.62-2.08l-.02-.05.24.1-.22-.05zm.22.05l1.66.37.97.72-2.63-1.09z" fill="#b9b9b9"/><path d="M334.88 492.82l2.28-.67-.84.45 1.66-.5-1.41.5 2.13-.72 6.41-1.19 2.16-.72 3.07-1.66-2.13.94-1.66.25-1.66.47.22-.72-2.38 1.44-5.47 1.19-2.38.94z" fill="#fff"/><path d="M316.1 492.35l-.24-.47h1.68l-.25-.47-.94.22h-1.86l-.05.03-.24.44-.47-.22-.25-.25 2.87-1.66-1.91-1.91.72-.71 1.66-.48 2.13 1.66-.22-1.88.94-.25v.72l.72-.47.72.22.94-.47h-1.66l1.19-.71 2.38-.23-1.66-.72 5.22-.71 2.38.24-1.19.47h1.19l-3.34 1.19 4.06-.96.22.49-4.03 1.66-1.66.94 6.66-2.13h.22l.25.72-2.38 1.41.72.47-5.47 1.69-4.04.22-.72.97-4.29.94z" fill="#b9b9b9"/><path d="M337.51 492.05l1.43-.42h.7l-2.13.42zm-5.7-.17h.94l.25-1.19-1.19 1.19zm1.19 0l1.88-.25.25-.47-2.13.72z" fill="#fff"/><path d="M286.85 491.63l-3.57-.22 1.44-.72 2.85-.25h.94l-.7.97h-.24l-.72.22z" fill="#b9b9b9"/><path d="M335.38 491.63h.22l1.66-.72-1.19.25-.69.47z" fill="#fff"/><path d="M304.68 491.16l-2.13-.25.72-.47-2.38.47-2.87-1.19 5-.69 1.66 2.13zm2.38 0l-1.41-.94 1.66-.72-2.38-.47 3.1-.72.69-.25.25.72.94-.47-1.19.72h-.22l.47.22.47.25 1.66-.97.97.5-1.44 1.41-.47.47-1.44.25-.22-.25-1.44.25zm-52.79-.25l-1.91-.94h2.63l1.66.47-.25.25-.47.22-1.91-.47.25.47z" fill="#b9b9b9"/><path d="M335.85 490.69l1.66-1.44-2.13 1.19.47.25zm-.97-.72l-.22-.47-.72.22.94.25z" fill="#fff"/><path d="M289.23 489.5l-1.66-.25-.72-.22h.96l-.24-.25-.47-.47h.47l1.43-.47 4.76.47 1.88-.72.25.47.72-.94 1.19-.47-2.16.22 1.91-.47-.47-.24 2.38.24h-.47l.22 1.91-1.66.72-1.66-.25-.72.47-4.04.25-.24-.47-1.66.47zm10.23-3.1l-.47-.71 2.6-.48-.47 1.19h-1.66zm1.19 2.13l.24-1.41 2.6.47-2.84.94z" fill="#b9b9b9"/><path d="M346.08 488.31l1.19-.72-.97.25-.22.47z" fill="#fff"/><path d="M313.97 488.06l-1.43-.47 1.9-.72.72.25-.96.94h-.23z" fill="#b9b9b9"/><path d="M341.55 487.59l2.15-1.19.69.25.97-.25 2.13-.47-2.6.23 3.32-.95 1.19-.94-2.85.7.22-.23-1.88.72 1.41-.96 2.85-.94-.69-.25-7.14 2.62-.25.23-.71.49 1.9-.49h.47l-1.66.71-1.9.48 2.38.24z" fill="#fff"/><path d="M287.57 487.35l-1.44-.23-.22-.96h1.66l1.43-.23.23-.72-1.66.48-.95.24-.49-.96-1.88-.23.94-.24-1.44-.23 1.19-.24-1.41-.25 3.32-.47h-3.32l2.6-.47-3.07-.47.69-.47h-1.88l-.5-.5 1.44-.22h-1.44l.5-.47-.72.22-2.16-2.13 2.88.94-1.69-.94h1.69l-1.91-.25-1.44-.72-.22-.69 1.66-.72 2.13.72-.72-.72 4.76.22h.25l1.19.5 1.18.22-.94 1.19 2.38-.94.94.47-1.19.72 1.66-.72 2.38.72-1.19.22.47.25h-1.66l1.66.72-3.07-.25 2.85.25-.97.72-3.07-.72 1.89.47.49.47-1.91-.47h-.96l.96.47-1.43-.22-.47-.25-1.66-.94.94.94h-1.41l2.13.47 1.9.25-1.43 1.41 1.9-1.19 1.66-.22-1.66 2.13h-1.43l1.43.25-.71.47 1.9-.72 1.37.25-1.61-.72.49-.47h1.19l-.25-1.44.47.47 2.16-2.38 1.66.72-.72.72h1.91l-.97.72 1.19-.47.25.47-1.19.22.94.72-3.32.47h2.85l-1.41.97h.94l-.47.47-1.91.24.25-.71-.72.71-.97-1.19-.22.7-.45-.2.67.92-1.41-.23v.23l-.96-.72.49 1.68-2.15-.72 1.9.95 2.85-.95-.94 1.19 2.85.47-.72.47-.47-.47-.47.47-.25-.22-.47.22-.25-.22-.94.47-.94-.47-.97.47v-.47l-.94.47.47-.72-1.43.95h-.94zm17.11 0l-1.19-.23-.22-1.91.7.25.71-.25.72-.24v.96l.94-.96v.96l1.91-.24-2.6.47-.25.24h1.44l-.25.72-1.91.23zm7.14-1.66l-1.91-.72.72-.47.97.24.69-.24-.94-1.42h1.66l.47 1.42 1.91-.72.71-1.88 1.19-.25-.72.47 2.16-.22-1.44.47 2.63-.47-1.91.69 2.85-.47-.94.96h-2.38l.94.48-2.85.47 3.79-.47-1.19.94-4.03.47-2.38.72zm-15.68-.23l-.5-.25.97-.24-.47.49zm2.38-.49v-.47l1.88-.23-1.88.7zm24-.7l.47-1.19 1.91-.49v-.47l.47-.72 2.87-1.19.7.72h6.19l-.72.47.47 1.44-3.07.72h-1.91l-7.38.71zm-22.59-.24l-1.41-.47 1.88-1.19.72 1.19-1.19.47z" fill="#b9b9b9"/><path d="M367.95 484.03l2.38-1.19h.72l-.72-.72.22.47-2.6 1.44z" fill="#fff"/><path d="M302.08 483.56v-1.44l2.6-1.41.47.69-.94.5 1.44.22-1.44.25-1.43.94-.7.25z" fill="#b9b9b9"/><path d="M352.72 483.56l-.47-.25 1.66-2.38h-.23l-1.66 2.38.7.25zm23.78-1.19l.5-.25.69-.22.49-.25h-.49l-.94.47-.25.25z" fill="#fff"/><path d="M311.6 481.9l-1.69-.5 2.16-.69.71.47-1.18.72zm8.54-.25l-1.19-.25 2.38-.22-1.19.47zm-2.13-.25l-3.34-.47.96-.72 1.66-.47h5.48l-1.91.47v.72l-3.32-.22.47.69z" fill="#b9b9b9"/><path d="M379.13 481.18l.94-.47h.22l-.45.22-.24.25h-.47z" fill="#fff"/><path d="M308.5 480.93l.47-.47h2.38l-2.85.47z" fill="#b9b9b9"/><path d="M352.02 480.93h.23l-.72-1.41 2.15-1.19v-1.19h-3.09l2.85.47-2.38 2.13.96 1.19zm25.2-.22l1.44-.97.22-.22 1.26-.7-1.01.45-.25.25-1.66 1.19z" fill="#fff"/><path d="M380.81 480.46l1.41-.72-.25.25-.94.47h-.22zm1.88-.94l.94-.5.38-.12-.13.12-.94.5h-.25zm1.32-.62l.12-.1.47-.25h.22l-.47.25-.34.1zm-4.41.12l.74-.3.69-.39-1.43.69zm5.74-.72l.2-.22.92-.45-.2.2-.92.47zm1.39-.94l.97-.47.34-.12-.12.12-.47.25-.25.22h-.47zm1.31-.59l.13-.13.94-.47h.22l-.94.47-.35.13zm-150.66-.35l-2.13-1.44 2.13.72v.72zm-22.82-.25l-.72-.47.2.05.52.42zm-.52-.42l-2.11-1.71v.72l-1.18-.72 1.66 1.66-3.79-2.13-.48.94-1.18-1.43-1.44-.95-1.91-1.18-.22-1.19-.25-1.44 1.44-.69.69.47-.47-.72 4.29 1.91.47-.47-.23.69 1.89.72-1.19.25 1.43 1.18-1.9-.24 2.37.71-.94.25.94.47.72.47-2.13.25 2.6.47 2.85 1.41-2.38-.69 1.91.69-1.66-.22 1.19.72-.99-.2zm21.45.2l-1.43-.25-2.13-.94 2.77.47-1.11-.72 1.19.25.71.94-.67-.42.67.67zm154.36-.02l.23-.23.47-.25-.25.25-.45.23z" fill="#b9b9b9"/><path d="M373.18 475.7h1.66l1.44-.72-2.16.47-.94.25z" fill="#fff"/><path d="M391.26 474.98l.95-.47-.25.25-.47.22h-.23zm.7-.22l.47-.32.15-.05-.62.37zm.62-.37l.57-.35-.23.23-.34.12zm.57-.35l.24-.25.9-.44-1.14.69zm1.14-.69l1.24-.74-.23.24-1.01.5zm-1.86 1.09l-.22.07.47-.24-.25.17zm-154.09-.17l-1.19-.95 1.19.47v.48zm157.23-1.69l.2-.2 1.44-.72-1.64.92zm1.64-.92l.69-.47.5-.24-.25.24-.47.23-.47.24zm-158.15.72l-.72-.49 1.66.24-.94.25z" fill="#b9b9b9"/><path d="M374.37 472.38h1.66l-.72-.49-.94.49zm5.47-1.19l.95-.49h-.77l-.42.25.24.24z" fill="#fff"/><path d="M399.34 470.48l.4-.33.32-.15-.72.48zm.72-.48l.72-.49-.25.25-.47.24zm.72-.49l-.67.35.42-.35.59-.35-.34.35zm.34-.35l.13-.12.62-.32-.75.44zm.75-.44l.37-.2-.05.05-.32.15zm.37-.2l.42-.42.72-.25-1.14.67zm-2.13 1.34l-.37.29-.15.08.22-.23.3-.14zM248.8 460l-4.98-1.89 2.6-.49-1.41-.22.94-.48-.94-.49-1.69 1.44-1.19-.47.97-1.19-1.19.71-.47-.71v.94l-1.91-1.19-1.19-.94 6.89.72.47-.25.97-.47 1.19.94 1.65 1.19h-1.18l2.62.96-4.28-.96 3.09 1.43h-1.9l.94.72 1.19-.25-1.19.95zm2.37-2.38l-1.41-.7.23-.24.47-.72-1.42.25-.47-1.66 3.32-.25.94 1.19-1.18.25 1.43.47-1.91-.25 1.44 1.19.22.25-1.41-.25-.25.47zm143.17-.7l.49-.71 1.19-.47-1.68 1.18zm1.9-.71v-.97l1.19-.69h-.47l1.66-.5-.47-.69.94-.72.72.47-.72.72 1.19-.72-2.38 2.13-.47-.22v.72l-1.19.47zm-217.35-.72l-.72-.25.47-.47 1.66.47-1.41.25zm66.59-.25l-.97-.47h1.69l-.72.47zm-75.39-.47l-1.68-1.19-.69.25-1.44-1.91-.94.47-.72-1.41v1.66l-.72-.97-.25.5-.69-.97-.25.25-.25-.72h-.47l-.22-1.66v-1.44l5.23 2.38.72-.47 2.6 1.66v1.19l.47-.22.72.69-.95-.22.95.72-.95.47-.71-.97h-.95l1.19 1.91zm7.61 0l-2.16-1.41.72.22 1.44 1.19zm66.59-.22l-2.38-.72.94-.47-1.41-.5 1.66-.22 1.91 1.19-.72.72zm-66.37-.5l-2.38-1.41-.69.72-.72-1.44-3.81-.94 1.43.22.72-.22-1.19-.72.47.47-3.09-1.19-.94-.47.69.22-.47-1.88h-1.19l-1.41-1.19.22-.25-1.91-.47-.69-.96.47 1.68-.97.23v-.72l-1.19-.7-1.18.7-2.38-3.07.49-.72-1.43-.25.71 1.66-2.15.25-.94-2.63 1.19.72-1.19-4.51.47-1.19.72.22.47 1.69.25-.72 2.13.47 1.66 1.19.24 1.66 1.91.97.47.47.47.72-.22-.72 1.19.47 1.66 2.13 4.51 2.87 1.43 2.38-.24-1.19.71.94.25-.72 2.85.47.94 2.88 2.85-.25.72 2.13-2.38-.94.47.94z" fill="#b9b9b9"/><path d="M383.63 453.58h.25l.47-.22 1.07-.42.37-.08.15-.15.79-.32 1.66-2.13-1.19-.25v-1.19l-.22.03v-.03l-1.91.25 1.91-.22.22 1.63 1.19-.22-2.45 2.45-.52.23-1.07.17-.72.47z" fill="#fff"/><path d="M173.41 452.86v-.69l.94.69h-.94z" fill="#b9b9b9"/><path d="M355.81 448.82l-1.66-1.19.72-.47 1.66-1.43-.24.96-.48 2.13z" fill="#346733"/><path d="M262.12 448.35l-3.81-.47 2.63-.25 1.18.72zM120.85 335.86l-3.08 2.85.47 1.68-.96 1.89-3.32.96-.94 5.48-1.44 3.32.47 1.66-.72 3.56.72 1.66-.47 3.35-2.38.72-2.62-3.57-1.66.22.72 3.82.24 5.22 1.66 3.57.72 4.76-.49 1.66 1.9 6.19.97 1.41 2.13.72 1.91 3.35 2.13 1.41-.72.25 1.44 2.6-1.19 1.9.72 3.1-.72.94 1.19 3.1v3.81l-.72.23.25 1.43-.97.25.72 1.66.72.94.94 2.38 2.15 2.85v.49l-2.85-2.37-.49.94-1.66-1.44-2.38-3.32-.22-.25h-.23l.7.97-.72-.97-.47-.69.22.47-1.88-2.63v-.22l-1.69-2.38-1.41-2.15.23.47-2.13-3.79-.95-1.19-2.87-5-2.13-4.04-.248-.25-2.378-4.51-.694-1.19-.272-.62-.446-.81-.471-1.19.223.71-.941-1.9h.223l-.694-1.19-.248-.47-.718-1.66-.223-.72v.25l-.719-1.44-.247-.72-.223-.22-1.189-2.85-.719-1.68-.247-.7-.223-.49-.496-1.42-.223-.47-.248-.71-.222-.48-.496-1.43-.223-.47-.248-.72-.223-.47-.495-1.44-.223-.47-.248-.72-.223-.47-.247-.72v-.47l-.248-.47v-.3l-.099-.29-.124-.13v-.24l-.248-.48-.223-.71-.247-.47-.248-.72v-.47l-.223-.23v-.49l-.248-.47-.223-.72-.248-.47v-.72l-.247-.22v-.47l-.223-.25v-.25l-.248-.69v-.5l-.223-.47v-.22l-.248-.5-.247-.69v-.5l-.223-.47v-.22l-.248-.5v-.69l-.223-.25v-.24l-.248-.7v-.49l-.247-.47v-.23l-.223-.49v-.47l-.248-.47v-.25l-.223-.7v-.49l-.248-.47v-.47l-.248-.47v-.72l-.223-.47v-.47l-.247-.5v-.47l-.223-.72v-.34l-.025-.15-.223-.2v-.72l-.248-.72v-.47l-.099-.64-.124-.32v-.48l-.247-.71.198.39-.025-.1v-.05l-.173-.47-.223-.47v-.49l-.248-.7v-.96l-.248-1.19-.693-4.04v.25l-.248-2.38-.471-3.1-.248-1.43v-.47l-.222-.47-.248-4.04-.248-1.44v-.94l-.223-1.69.223 1.19-.223-1.88v.22L74 301.62v-1.18l-.223-3.1-.247-4.51v-11.67l.718-10.7.471-4.76.248-1.9-.248.49 1.437-9.29v-1.19l.693-3.56v-.72l.198-.37.05-.3v-.52l.149-.27v-.03l.099-.57v-.07l.024-.1.199-1.09.247-1.14v-.05l.025-.1.198-.89v-.2l.075-.12v-.03l.173-.79v-.5l.124-.1v-.02l.124-.57v-.25l.124-.25v-.02l.099-.37v-.3l.247-.72.223-.89v-.3l.149-.27v-.02l1.288-5.21v-.22l.099-.17v-.03l.843-3.37.718-2.15v-.23l.173-.34.025-.05.05-.08v-.47l.223-.24v-.48l.223-.19.024-.03v-.72l.248-.47.223-.24v-.48l.248-.47v-.49l.223-.22v-.48l.495-.96v-.22l.223-.5v-.47l.471-.94v-.25l.248-.47v-.47l.247-.47.223-.25v-.47l.248-.47v-.5l.223-.22.248-.45v-.52l.247-.47.1-.1.123-.34v-.27l.273-.55.198-.59v-.05l.074-.13.174-.57.248-.59v-.13l.099-.09v-.03l.371-.87v-.19l.223-.48.099-.09.149-.35v-.27l.471-.97.074-.07.173-.4v-.22l.223-.5.124-.1v-.02l.124-.28v-.29l.471-.97.099-.07v-.03l.148-.34v-.28l.223-.47.149-.12v-.03l.347-.81v-.23l.223-.47.124-.12.346-.82v-.25l.248-.47.074-.07.174-.4.471-.91v-.05l.47-.95.05-.05.421-.81v-.32l.248-.48.223-.24.495-.94v-.25l.471-.94.223-.25.718-1.44v-.22l.471-.97.248-.22.47-.97.198-.17.05-.1v-.42l.223-.5.248-.22.47-.96.223-.2.025-.03.471-.96.024-.03.223-.44.223-.47.25-.25v-.23l.47-.96.25-.47.22-.23.25-.49.22-.47.25-.22.25-.5.22-.22 1.19-2.38.72-.72 1.19-2.38.47-.47.47-.96.24-.23.25-.47.47-.49.72-1.42.47-.47.72-1.43.69-.72-.47.72 1.66-.94-2.6 4.75-3.34 5.45-.94 2.38.47-.94h1.19l-.23 1.66 3.57-1.66.22.25.25 2.13-2.38 5.94.47.25-1.66 4.51.23 1.19-2.13 3.57-1.66 5.69.22.97-.47.47.25 1.66-1.66 4.29.22 3.31 1.19 3.1.25.97 1.41-.25-.47 1.44 1.19-.97 4.28 4.04 5.48.96 4.75 3.1 8.33 11.17.47 1.66.25.94 1.18-.22-.96.47 1.44 4.29-.97 1.19h-3.79l-4.53 2.85h-2.38l-1.41 1.66-2.85.71-2.16 6.42-1.41.72h2.13l.25 1.66-2.63 10.7-1.44 2.85-.22 1.68v.7l-.72-.94.72 11.64-.96 4.76 2.15 7.85.22-.72.5 4.06-.72 4.98.94 3.35.47-.72v3.09l2.88 13.31.47 5 1.41 3.32-1.19-5.7v-4.28l3.82 4.28m-8.58-160.77l.25-.47.25-.25-.5.72zm.5-.72l.22-.22.47-.97.5-.47.47-.94.47-.47-2.13 3.32v-.25zm2.13-3.07l.47-.97.47-.47-.94 1.44zm100.35 281.56l.47.72-1.88-.24 1.41-.48zm-3.09 1.91l-.23-.72 1.42.47-1.19.25zm.96-.72l-2.15-.47.96-.24 1.19.71zm54.45-1.19l-.94-.94h.23l1.9.47-.94.47h-.25zm-2.13-.24l-.47-.94 1.19.24-.72.7z" fill="#b9b9b9"/><path d="M192.39 445.21l-.2-.89h1.91l-2.13-.48-.47.7.89.67z" fill="#fff"/><path d="M392.92 444.32l.95-1.66 1.18.69-.71.97h-1.42z" fill="#b9b9b9"/><path d="M285.19 442.66l-3.1-2.63 1.44-.72 2.38.47.47 1.19-1.19 1.69zm-3.32-3.1l-.25-.97h1.19l.72.5-1.66.47zm4.26 0l-3.32-1.44 1.91-1.66 2.85-.25v2.38l-.72.72-.72-.47v.72z" fill="#346733"/><path d="M410.51 439.31l-.94-.22 1.66-2.16-.47 1.19-.25 1.19z" fill="#b9b9b9"/><path d="M213.84 438.37l2.63-.25-2.16-.72-.47.97zm-2.85-.47l.47-1.69h-.94l.47 1.69z" fill="#fff"/><path d="M289.23 437.65l-1.42-3.81 3.79 1.43-1.41 1.66-.72-.94-.24 1.66zm67.3 0l-.94-.72 1.66-.22-.72.94zm-26.4-.25l-4.04-.69 2.15-1.19 1.89.22v1.66z" fill="#346733"/><path d="M171.28 436.21l-.24-1.18-.25.71-1.19-.94.72.72-.72.22 1.68.47z" fill="#fff"/><path d="M321.33 435.99l.97-1.44-.97.25-1.91.47.25-2.13 2.38-1.43 1.44.71 2.6 1.42-.47.27.24 1.88h-4.53z" fill="#346733"/><path d="M255.71 435.52l-1.44-.25-4.76-.47-.47-1.66-2.62-.25.47-.94-.69.94-1.91-.47 1.19-1.18h-1.91l1.66-1.19.97 1.19.69-.72-.22.94.71-.7.7 1.19.25-.71 1.18 1.18.48-.71 1.43.47 2.13.96h7.39l1.41 1.89-4.04-.48-2.6.97z" fill="#b9b9b9"/><path d="M177.23 435.27v-.94l1.41.94v-1.19l-1.91-.71-1.41 1.18 1.91.72z" fill="#fff"/><path d="M413.14 434.33l.22-.96.94-.23-1.16 1.19zm1.21-1.21l.92-1.88-.47 1.41-.45.47z" fill="#b9b9b9"/><path d="M215.03 432.89l-2.62-1.65-.7.47 3.32 1.18z" fill="#fff"/><path d="M166.53 432.42l-1.44-.71v-.95l1.66.95-.22.71zm.47-.71l-3.57-3.57 1.41.94 1.91.25 1.66 1.43-1.41-.71.94.94-.94.72zm75.38-.47l-.47-.72-1.44.24.97-.96-3.82-.72-.71-1.19 1.43-.47-1.66-2.13 3.32-1.91.72 4.04 1.66 1.66 2.38.72-.94.96-1.44.48z" fill="#b9b9b9"/><path d="M199.57 430.99l-.72-2.13-.22 1.19.94.94z" fill="#fff"/><path d="M327.28 430.99l-.47-1.91v-.22l2.84.94-.22.72-2.15.47z" fill="#346733"/><path d="M206.24 430.52h.94l-1.19-.94.25.94zm-15.71-1.19l.47-.94-.94-.72-.84.84-1.79-1.09 1.69 1.19.1-.1 1.31.82zm3.35 0l.47-.47-2.16-1.44 1.69.72-.5-.94.97.94-.25-.94-3.32-.25-2.35-1.16.44.69 3.1.94 1.91 1.19v.72zm2.6-.25l-2.85-4.51.72 1.91-1.56-.92-.08-.15.45-1.56 1.41.97v-.97l-2.13-.94-2.38.22v-.69l-.72.69 1.19 1.69-.22-1.19h1.66l.74 1.78-.02.1.1.05.37.92 1.41.47 1.91 2.13zm159.33 0l-.71-.47-1.42-.72.72-1.66.94-2.13-1.66-1.91 1.42 1.91-.95.47.25 1.66-.96 1.91 1.66.72.71.22zm-15.45-.69l.47-3.57-.23.22-.24 3.35zm-152.43-.72l1.66-.25-1.91-.22-.47-.72.72 1.19z" fill="#fff"/><path d="M173.88 426.48l-1.66-1.19 3.1.94-1.44.25zm-10.92-.25v-.72l.69.72h-.69z" fill="#b9b9b9"/><path d="M188.43 425.76l.91-.47-1.66-.72.75 1.19zm99.14 0l1.43-1.44 2.6.5v.94l1.66-.72-2.85-1.19-.94-.72-1.43.72.12-.47h.12l.23-1.43-.35 1.43h-.59l-.95.25.95.47.47.22-.47 1.44z" fill="#fff"/><path d="M179.61 424.82l-.5-.97.5-.47.22.94-.22.5zm49.94 0l-1.91-.25-.47-1.44 2.13.25.25 1.44z" fill="#b9b9b9"/><path d="M301.12 424.57l-1.66-.25 1.19-.69.47.94z" fill="#346733"/><path d="M178.17 424.1l-1.66-1.19 2.13-.47-.47 1.66z" fill="#b9b9b9"/><path d="M201.7 422.91l-.69-1.91-.25.72-1.66-1.43 2.6 2.62zm-1.66-.25l-.71-.94-.23.72.94.22z" fill="#fff"/><path d="M240.25 422.19l-.97-1.19.47-1.43.97.49v.47l-.47 1.66z" fill="#b9b9b9"/><path d="M190.53 421.47h2.38l-1.91-4.28-3.32-.22 2.85 4.5zm8.32-.94l-.47-2.15-3.09-3.32-1.41-.25-.5 1.44 1.19-.47.97 2.6 1.9 1.91-1.19-1.66 1.66 1.43-1.19-1.68h.95l1.18 2.15zm-17.36-1.19l.97-.47-1.91-1.19-1.19-1.68 2.13 3.34zm111.55-.24h.22l-3.32-2.6 1.19-1.19-1.19.94-2.37-.94 5.47 3.79z" fill="#fff"/><path d="M206.71 416.72l-1.19-2.13v.22l1.19 1.91z" fill="#b9b9b9"/><path d="M318.95 414.59l.72-7.14 4.76-6.91 8.07-3.07 7.63 1.19.7-.97-.7.72-5.47-1.44 2.85-3.32-.47-3.81-6.42-4.26 6.42 6.17-1.91 4.53-6.42 2.13-.96-2.13-2.6.22h2.6l.72 1.44-3.79 1.91-5.26 6.88-.47 7.86zm-136.74-.72h1.19l-.72-1.19-.47 1.19z" fill="#fff"/><path d="M124.19 412.21l-.97-1.66h.72l.72.94-.47.72z" fill="#b9b9b9"/><path d="M192.91 411.96l.97-.22-.5-.72-.47.94zm79.45-.22v-.25l-.25-1.66-.72 1.41.72.25.25.25zm-5.26-.25h1.91l.72-1.44-2.38-8.79 2.13 8.79-2.38 1.44z" fill="#fff"/><path d="M387.2 411.24l-.69-1.19 1.19-1.41-.5 2.6z" fill="#346733"/><path d="M274.24 409.83l2.15-.72-3.56.25 1.41.47zm-83.93-.47l.94-.97-.94.48v-.7h-.25l-.25-1.91-1.88-.71.69 3.09.25-1.43 1.44 2.15z" fill="#fff"/><path d="M129.42 408.39l-2.13-2.84 1.41.47 2.38 2.37h-1.66z" fill="#b9b9b9"/><path d="M240.72 408.17l3.32-.72-1.66-.47-1.66 1.19zm32.11-1.91l4.28-.24-3.34-.23-.94.47z" fill="#fff"/><path d="M125.85 405.55l-4.51-4.76.69-1.44 2.88 2.63 1.88 2.62-.94.95z" fill="#b9b9b9"/><path d="M236.19 404.36l-1.41-3.57-.08-.07-.17-.4-2.6-1.91 2.13-7.13 9.04-3.1 5.23-3.57.94-4.03.96-.72 1.91-1.19 3.79-5.48.47-2.38-1.88 3.82-4.29 5-.96.95-.94 3.31-4.29 3.35-9.51 3.1.47-1.69-1.41-2.6 1.19 2.6-2.85 9.76 2.77 2.31 1.49 3.64zm32.82-4.04l.25-1.66 1.24.17.17.05.03-.02.22.02 1.44-1.19v-2.85l-.25 2.85-1.41 1.17-.2-.03-1.24-.42-.03-.05.03-.2-.67-1.68-1.24-3.54-.89-2.01 2.08-3.69-2.13 3.57.05.12-.05.1 2.18 5.45.64 1.88-.22 1.96zm-78.01-.25l1.44-.47-3.57-2.38 2.13 2.85zm153.64-2.38l3.82-7.13h-.97l.72.25-1.19 2.37-2.38 4.51zm-155.3-.47v-2.85l3.1-.96 1.19-1.89-.25-3.09-.22-.97.94.97v-1.19l2.4-.67h.3l.87.67-.67-.67.91-.05h-.96l.05.05h-.2l-.08-.05-.22.05-4.31.2-.94-.5-1.19-.47-.47-1.41 1.66-.5-2.38-.94.94-1.19-1.88.47h.69l.72 3.35 3.57 1.66.47 1.19v2.85l-.94 1.9-3.32 1.19.22 2.85zm24.25-2.13l-1.88-3.57-1.43-.24-.48-1.19.95-.72-.72.25-.7-1.44.7 2.85-.94.72h1.66l-.47 1.19 1.65.24 1.66 1.91zm-54.45-2.15l-.42-7.88.89-.2-2.84-3.34-1.44 1.43-1.88-.94-1.44.94 1.44-.72 2.13 1.44 1.19-1.44 1.9 1.66.05 1.17-.05.02.47 7.86z" fill="#fff"/><path d="m119.19 391.52l-1.19-1.43-1.42-5.95 3.79 2.85-1.18 4.53z" fill="#b9b9b9"/><path d="M207.43 389.84l-.72-1.66h-.03l-.22-.47h-3.07l3.29.47.75 1.66zm118.19-5.23l-.72-.94 1.19-.96-1.89.49 1.42 1.41zm-1.46-1.46l-.2-.44-2.38-2.13-.25-.25-3.32 1.9-3.34.48 3.56-.48 3.35-1.65 2.58 2.57z" fill="#fff"/><path d="M399.81 380.33l.72-3.07.25 1.88-.97 1.19z" fill="#346733"/><path d="M181.98 380.1l-2.37-.24-1.69-1.66-.69-2.38-1.19.47h-.25l-5-3.32 4.75 3.32 1.44.97 2.13 2.6 2.87.24z" fill="#fff"/><path d="M122.75 379.39l-.72-.47v-.97l.72 1.44z" fill="#b9b9b9"/><path d="M371.99 377.95l-.47-.69 2.13-1.44-1.66 2.13zm1.66-2.13l-.94-1.91 1.66-3.32 3.57-3.34 2.13-3.57 7.13-13.3-.47 3.09 1.91.23 1.19-1.66-.47 1.43-4.54 3.32-1.66 4.76 1.44 1.44 2.6-1.19-4.04 3.56-4.5 4.04-5.01 6.42z" fill="#346733"/><path d="M171.75 377.01l-.24-1.44-.43-.37-.04-.1-.15-.05-.8-.67-3.34-1.88-1.41.47 1.19 1.41.47-1.19 1.66 1.91.24-.72 1.99.67.19.15.67 1.81z" fill="#fff"/><path d="M362.23 376.29v-1.66l1.19.94-1.19.72z" fill="#346733"/><path d="M128.23 372.72l-.25-1.41.25-.5.72 1.44-.72.47z" fill="#b9b9b9"/><path d="M370.33 371.31l.22-.5.25-.22 1.66-.96.47-2.61v1.42l.25-1.19 1.19.25-1.19-.95-1.44-1.43-1.88-3.82.94-1.19h-.72v-6.17l-3.79-4.75-1.68-3.35-3.07-2.6 3.32 4.51-2.63-.72 2.87.97 4.98 7.13-.22 2.38-.72.47.72.72v.22l-.49 1.91 3.09 6.67.25.47-.47 1.66-1.44.71-.94.47.47.5zm-169.1-1.68l-.22-1.66-1.19.24 1.41 1.42z" fill="#fff"/><path d="M118.47 366.55l-.94-1.19.47-2.62 1.19-2.38.71.72-.71.22-.72 5.25z" fill="#b9b9b9"/><path d="M240 366.31l1.66-.25-1.41-1.19-1.44.97 1.19.47zm52.32-.95h1.66l.47-1.68.72-5.45-.47.69v-.69l1.19-1.91-.72-1.9-.22 2.13-1.19.24h.94l-.94 8.08-2.16-.22.23-1.64.02-.02-.02-.03.24-1.88-.69 1.41.45.47v.05l-1.89 1.64 2.38.71zm15.21-.96h.97v-5.48l-2.16-2.37 1.19-.48-5.45-4.03-.96-2.13-2.38-1.19-2.6.69 3.56.97 2.61 3.09 3.34 4.51 1.88 6.42zm-35.89-.94l.22-.97-2.85-.94.72-2.13-.94-2.16-.72 3.82 3.57 2.38z" fill="#fff"/><path d="M123 361.08l-.25-.72 1.19.72H123z" fill="#b9b9b9"/><path d="M135.11 360.83l-1.18-2.38v1.44l1.18.94z" fill="#fff"/><path d="M400.53 356.32l-1.44-1.43.25-4.04 1.19 5.47z" fill="#346733"/><path d="M193.63 350.85l1.43-1.66 1.66.22-2.84-1.19-.72-1.66 1.19-3.09-1.44-.48-2.85-1.65v-1.66l-2.38.47h-.72l.25 1.66-2.38.96 1.66 3.79 2.63 2.85 1.66-.94.72 1.66.47-1.19.47.72 1.19 1.19z" fill="#fff"/><path d="M125.6 350.6l-.22-2.85 2.13-.47.25 1.19 1.66.25-3.82 1.88zm273.02-.22l-.94-.25V348l.47-1.44.47 3.82zm-10.92-1.44l2.85-7.85-2.16-.94.97-.95-.72-1.68-.25-.47 2.16-3.32 2.13 2.13-2.6.47-.25 1.44 1.66-.47.72 1.9 4.28-.49v3.81l2.6 3.57-.94-.72-1.66 3.35-.25-1.91-2.37-.72-6.17 2.85z" fill="#346733"/><path d="M288.51 348.72l.72-1.69-1.19-2.13.47 3.82zm-17.59-2.38l.94-1.69-1.88-.69h-.25l-.72 1.41 1.91.97zm-124.86-.72l2.85-.47-1.9-1.19-.95 1.66zm103.45-.25l-.94-.72 1.66-1.41-2.28-1.24-.32-.24.7-1.14-1.19-.23 2.13-1.68-.94-.69-2.38 2.37 1.68 1.37-.02.05.34.19 1.56 1.24-1.65 1.91 1.65.22zm80.39-.94l1.19-.72-1.91-2.13.72 2.85zm-59.45-3.09l1.91-.95-.97-.49-.94 1.44zm-120.82-.48l.94-.24v-.23l-.69-3.34-1.44-.22 1.19 4.03zm76.35-1.18l7.14-3.35 2.37.25-2.37-.94-6.45 3.07-3.79-1.66-1.43-3.57-.72 3.57 2.63 1.66 2.62.97zm143.39-.25l-.23-2.6-1.66 2.13 1.89.47zm-100.58-1.41l.94-.72-1.91-1.44.97 2.16z" fill="#fff"/><path d="M393.87 334.92l-1.42-.72 1.66-1.66-2.37.47v-2.62l.71-2.38.47.49h.23l.49-.96.23-.94.47-5.01-2.85-7.13-1.41.72.47 1.9-1.19-.96.72-6.64-7.39-3.1-4.51-6.91.7-1.19 3.34.72v2.38l.72-.94 3.57 3.79 2.85 1.18.22-3.31 2.38-.72.25 1.19 1.66 2.84-1.66.97v1.66l.94-.94v.94l1.19-.25-.7-1.19 2.85 1.44.72 2.38.94-1.66-.25 2.6h1.44l-.47 2.16h.94l.25-1.44v-1.19l.22.47.97 3.34-1.44 1.66-.22 2.85-1.91 4.04 1.19.97-.72 4.98-4.28 5.72z" fill="#346733"/><path d="M241.66 334.45v-2.63l-1.41 1.66 1.41.97zm-164.092-5.72v-.1l-.075-.35.075.45zm62.302-3.57l.97-3.1 1.9-1.88-1.68.94-1.19 4.04zm-59.676-2.13v-.25l-.471-2.6.223-.25-.223-.94.223-2.38-.942.7 1.19 5.72zm143.636 0h4.75l.72-.72-2.38-.94-3.09 1.66zm28.53-6.67l.47-.94-1.88.47 1.41.47zm-145.07-.94l-1.18-3.56-.7.49-.02-.02-.35.29-.59.42-2.85-1.9 2.38 2.38 1.06-.9.37-.27 1.88 3.07z" fill="#fff"/><path d="M387.92 303.04l-1.91-.23-1.41-2.37-.72.47-1.43-3.57.96.72 1.19-2.38.72 1.19.94 2.6 1.91-.47.72 2.62-.97 1.42zm-8.79-4.98l-3.32-3.1 1.66-1.44-1.19.72.72-1.91 1.66.97-1.19 1.41.71.97 1.42-2.16-.47-4.98 1.66-.47v2.13l.47-2.62 1.43 1.91.25 6.41-3.81 2.16z" fill="#346733"/><path d="M288.51 295.9l1.19-2.38-2.13.97-1.19.47 1.19.47.94.47z" fill="#fff"/><path d="M152.73 288.3l2.13-.47.96.47h-3.09z" fill="#346733"/><path d="M344.64 287.11l.47-.94-2.13-1.19.72.47-.97.72 1.44-.47-.72 1.18 1.19.23zm1.91-.23l.17-.27.05.03v-.08l.72-1.11-.94-.25.22 1.36-.05.05-1.36-.44 1.19.71zm1.91-3.56l-2.63-.72-.72-3.35-4.75-5.69-.72-.94h-.03l-.19-.25v-1.91h1.9l-.49-1.41-2.13 1.19.72 2.13-1.91.72-4.51 1.41 1.88.49 2.16-1.68.72-.22.47.22h1.19l.47.25h.47l4.75 5.94.72 3.32 2.63.5zm2.13-1.91l1.43-1.44-1.18-.94-.72.72-.25.47.25.22.47.97z" fill="#fff"/><path d="M341.79 280.22l2.13-.25-1.66-.47-.47.72z" fill="#b9b9b9"/><path d="M380.79 277.84l-1.42-1.43.7-.23.72 1.66z" fill="#346733"/><path d="M109.2 276.88l-.25-.94.72-.95-.47 1.66v.23zm-19.469-.28l.198-.19.149-.45-.149.22-.198.42z" fill="#b9b9b9"/><path d="M187.93 276.41l-1.68-1.89v.23l1.68 1.66zm160.53-2.13l.47-.97-1.66-.69 1.19 1.66zm-91.81-.25l2.38-.23-2.38-1.18v1.41zm-180.742-.94l.941-.72.248-.25 1.66-4.04-1.908 3.35-.47 1.19h-.471v-2.88l-.917-1.86.198-2.65-.222 2.63.024.02-.024.2.47 1.91.471 3.1zm25.222-2.85l.94-.5-.72-1.66-.22 2.16zm228.3-1.91l-1.91-1.44-1.18.72 3.09.72z" fill="#fff"/><path d="M95.701 268.28l.174-.2.495-.72-.248.25-.421.67z" fill="#b9b9b9"/><path d="M256.9 267.61l1.41-.94-1.41-.72v1.66z" fill="#fff"/><path d="M97.064 266.67l.248-.25.173-.49-.173.24-.248.5z" fill="#b9b9b9"/><path d="M75.66 265.48l.248-.72v-.47l.248-1.19-.248-.96-.248 3.34z" fill="#fff"/><path d="M358.66 259.54l-3.56-7.14v-1.91l3.09-3.34 2.16 11.67-1.69.72z" fill="#346733"/><path d="M104.92 257.85l.72-.47.17-.17-.65.42-.24.22z" fill="#b9b9b9"/><path d="M256.18 256.66l-2.85-1.66-.72-6.17.47 6.17 3.1 1.66z" fill="#fff"/><path d="M106.82 256.19l.25-.22.22-.5-.47.72z" fill="#b9b9b9"/><path d="M246.67 253.34l4.28-4.75-3.57 2.84-.71 1.91zm-158.153-3.09l-.248-1.91-1.189-.47v1.66l1.437.72zm7.605-2.13l.248-7.86-.966 5.23.718 2.63zm-10.231-1.91l.471-.72-.694-.47.223 1.19zm4.038-1.19l1.437-.94-.718.22.247-1.19-.966 1.91z" fill="#fff"/><path d="M434.54 244.55l-.72-.97.47-.47.25 1.44z" fill="#b9b9b9"/><path d="m135.61 243.58l1.41-1.66h1.66l-3.07 1.66z" fill="#346733"/><path d="M85.421 242.89l.247-1.91-.495-.25.248 2.16zm3.815-1.19l.693-.25.496-1.19.693.47.248-1.19.718-.71.471-2.61h.719v-.96l-1.19.72v-2.6l-1.189-.25.942-1.66-.471-.25-.718 1.44.247-1.66-.47.22v1.44l-.966 1.9-.471-.96-.248 2.85.496 5.25zm-3.345-4.53l1.437-8.8v-.72l1.412-3.79 1.685-6.66-1.189 2.13-.967 4.29-1.659 5.47-.719 5.95v2.13z" fill="#fff"/><path d="M364.61 235.26l-5.45-.7.22-8.32-1.66.22h-.25l-.47-1.41 1.19-3.09.47-.97 1.44-.94v1.43l1.44-.24-.72-3.1 2.38-.22 1.41 1.66 3.1-2.16-.48 2.63 2.85-2.63 2.38.5.25-1.44.22 1.91-1.41-.47-.97 1.66 1.44.94-.94.47h-1.44l-.47-1.41-1.19 1.9-1.9-.71.24-1.19-2.15 1.41-1.41 2.87 3.07 6.42-1.41 2.85.22 2.13zm-38.99-.7l-5.7-.96-2.16-2.6 1.66-3.1 1.91-.47 2.85 2.13 1.91 3.82-.47 1.18z" fill="#346733"/><path d="M86.857 221.96h.694v-1.66l-.471.47-.223 1.19zm1.412-.97l.471-.94-.471.25v.69zm2.379-1.66l1.189-2.85-.942 1.44-.247 1.41z" fill="#fff"/><path d="M376.28 217.67l-2.85-.94 2.85-2.16v-1.19h-2.38l.47-1.9 2.38-2.85-.25 1.19.97.24-1.12 3.1 2.53-.25-1.19 3.57-1.41 1.19zm-16.43-.72l1.69-1.41v-.25l1.41-2.13.97.22.22 3.1-4.29.47zm10.01-.94v-2.38l1.19 1.19 1.66-.97-2.85 2.16z" fill="#346733"/><path d="M89.929 213.63l.248-1.19-.248.23v.96z" fill="#fff"/><path d="M365.58 212.44l.94-4.75 3.56 3.32v1.43l-.94-.72-3.56.72zm7.6-.25l-1.44-4.75-.69-2.13.94 2.13 1.19 1.66v3.09z" fill="#346733"/><path d="M101.82 210.54v-.95l.72-1.68-.47 1.68-.25.95z" fill="#b9b9b9"/><path d="M370.33 210.54l-.96-3.32-.48-.5-.94-.69 2.13-2.16.97.97-.5 2.38.97 2.84-1.19.48z" fill="#346733"/><path d="M94.686 209.59l.817-2 .372-.37 1.437-5.01.247-2.13 2.601-6.66-1.412 2.13-2.155 6.19v1.19l-1.66 5.23-.247.94v.49z" fill="#fff"/><path d="M357.47 209.1l.25-2.38-.94.72.22-1.66-1.66-1.91-5.22-6.66 2.85 2.38 2.37 4.06.47.22 2.85 2.38-1.19 2.85zm20.71-.47l.48-2.85-2.38-.72v-1.66h-1.44l-2.13-2.63.47 1.69-1.66.69-3.81-3.56-.95-3.08.95-.49 1.43 3.34 2.85-.72.72 1.66 2.13-.94-.47-3.56 3.1-.72.94.94.47-1.66.96 1.66-1.18 2.15.94 2.13 1.9-2.84-.24 2.13 1.43 1.68-.94 3.79h-1.19l.23 2.38-2.61 1.19zm-4.53-.23l-.47-.49-.47-.94.72-.47 1.88.94-.22.96h-1.44zm-111.77-.24l-.94-.94.71-.97.23 1.91zm-46.85-4.29l.47-.22 1.19-.97-1.19.47-.22-1.19-.72-4.03-.47.96.69-4.28.97-3.35 3.79-.22 1.91 2.38-1.66 5.22-3.57 5.23h-1.19z" fill="#346733"/><path d="M471.87 202.68l.48-1.91.47-.22-.95 2.13zm-18.55-.22l3.34-.72.95-2.63.47 2.38-4.76.97zm14.99-1.19l.94-.72 1.44.22-2.38.5z" fill="#b9b9b9"/><path d="M92.555 201.02l1.189-1.66-.941 1.19v-.96l-.248 1.43z" fill="#fff"/><path d="M461.42 200.77l.47-1.88.94-.96.72.96-2.13 1.88zm3.32-.47l.94-.94.97.72-1.91.22zm-8.57-.22l-1.66-1.44.47-1.43-2.13-3.32-1.91-1.44.25 1.69-.72-1.91-3.81-2.63h2.87l3.57 3.1 2.6 3.57-.22.94 1.18 2.62-.49.25zm15.46-1.19l-1.19-.25-.47-.24-.47-.94.71.47 1.42.96zm2.15 0l-1.43-.25.96-.24.47.49zm-28.78-.25l-2.38-1.9 1.43.72.95 1.18zm21.18-.71l-.5-1.19h.97l-.47 1.19zm11.39-1.66l-.22-.95-.47-1.43.94 1.19-.25 1.19z" fill="#b9b9b9"/><path d="M367.23 195.32l-.24-.96 1.43.96h-1.19z" fill="#346733"/><path d="M477.57 194.14l-.47-.72v-.72l.47 1.44z" fill="#b9b9b9"/><path d="M348.68 192.7l-2.85-5.48-1.91-.71.97-.48-.72-1.18-5-1.66-3.32-5.01-5.95-2.38-.96-4.26-4.51.7-.94.96-2.88-3.09v-2.63l1.44-.69-.47-1.69 1.66-.47h-1.19l1.44-.94-.97-.97 2.16.72.94-5.22 5.22.94.72-2.13 4.29 2.37 2.13-.24v-.94l3.09.71.25-2.37 1.41.71 4.76 3.32-.72.72.72-.25 1.19 2.38-1.66.97 2.13 2.6.72-.47 2.38 1.91-.47 2.6 2.13 2.38-.7.96 1.89-.72 2.15 1.19-4.04 1.91-.49.94 1.19.47-3.79 3.57 2.6.49-1.41 1.42 4.28 1.43-1.68 1.42 4.06 2.37-3.34.72-1.42-.72.23 1.44-1.66-.94.47 1.88-2.13 1.44-.97-1.66-.47 1.66z" fill="#346733"/><path d="M437.39 188.88L425.03 187l-5.95-.49-2.37-2.13v-.72l-2.16-1.42-2.13-3.34-1.91-1.66-1.41 2.13-.49-1.41-.95 1.19-.47 4.75-5-.71-3.79-2.85-.69-1.56.19 1.09-1.19-.72.95-.47-.23-.5 3.35.97 1.19-1.91 4.98 2.38-.95-2.13-1.18.47-1.66-1.91-2.38-.72 2.6-.47.25-2.38 1.66 1.44.47 1.19 1.19-.72 2.84.94-.94-.94 1.66-.25 8.57 1.19-.24-1.19.96.47v-1.65l1.19-.72-.96-.94 1.9.47-1.66-.95 1.19-.47-.72-2.15 3.1 2.15 2.6-1.9 3.1 1.9h1.19l2.15 2.61h-2.87l3.81 1.9-.71.47 1.43.47-.47 1.19 2.13.25-.25.94.5-.47.47.97.22-.72 3.1.94 3.1-3.1h.24l4.76 2.38.69-.22 1.91 2.6-1.91-1.19-.22.25h-.47l.94 1.19-1.91-.94.25 1.41-1.43-1.19-.72 1.91-2.13.24-.47 1.89 2.37 1.68-.47 1.19-4.53-1.19.25 1.88-3.1 1.19zm-15.93-18.53l-2.85-1.19-1.9-3.09 1.19.47 2.84 2.13.72 1.68z" fill="#b9b9b9"/><path d="M264.25 188.66l.48-1.44.49.72-.97.72zm125.58-.47l-.94-2.38.94.7v1.68z" fill="#346733"/><path d="M112.3 187v-.72l.72-.96-.72 1.68z" fill="#b9b9b9"/><path d="M387.92 186.28l-1.91-4.28.97-3.57 2.6-1.44-1.41 1.44-.47 2.38 3.32.25-2.38.94 1.66 1.43v1.66l-3.57-3.09 1.44 1.43-.25 2.85z" fill="#346733"/><path d="M411.48 185.81l1.88-.72 1.19.47-3.07.25zm4.51-1.68l-4.51-1.19h1.88l2.63 1.19zm-301.56-.7l.97-1.19-.5.95-.47.24z" fill="#b9b9b9"/><path d="M269.73 183.19l1.19-3.1 5-3.32 3.32-4.53 3.82-1.89 1.19-4.53 3.32-2.38 1.18-.94 4.76-6.91 8.8-5.95 2.37-1.66-.22 1.19 2.38-.72.47.97 1.41-1.19 1.44 7.85-1.66 2.38-2.85.23-.5-.95.5 1.42-1.44.24-.24 2.85-4.27.97 1.89 2.85-1.66.94-.77-.4-.52.72.35-.07-1.19.94-.97.47-.22-.94-5.23 4.51-.25-1.66-3.56 3.56-.95.72-5.94 3.1.47 1.19-2.85 2.6-8.57 1.44z" fill="#346733"/><path d="M398.87 182.47l-3.57-1.41 2.38.47h.22l.97.94z" fill="#b9b9b9"/><path d="M378.66 182l-4.29-3.82-10.45-.94-.97-1.91-1.19.47-.94-1.19v-.47l-.72-2.13-.72.23.97-2.38-.5.49-1.41-1.9v-2.16l-2.15-3.07.49-2.16 2.13.47-.25-4.26-.22-1.68 1.91.25 1.66.24-.72 7.61 2.13 1.41h1.19l-.94-2.6 2.62-.97-.49-2.13h1.68l.47 1.19 2.6.94-2.37 1.91 1.19 1.44-4.04 3.1 1.19-.25 6.19 5.23-6.19-1.66-1.91-2.38-1.41-.25-2.16 1.91.72 3.34 14.05 3.32 2.85 4.76zm-60.65-2.38l-.96-.72.71-1.19.97 1.19h-.25l-.47.72zm68.5-1.66l-.72-.72.47-.94 1.44.69-1.19.97z" fill="#346733"/><path d="M468.31 176.99l-.25-1.41 1.68 1.19-1.43.22zm-72.54-.22l-2.13-1.19 1.89.22.24.97zm-270.39-1.19l-.97-.47.97-2.63-.97-.47-.94 1.42.72-2.13-.72.47v-1.66l-.25 1.19-.47-.72.47-1.19-.47.25-.22.94h-.72l.47-1.19-.94 1.19-3.34 1.66.24-2.38 3.57-7.36-.47-1.44.69-2.13 4.76-7.38 2.38-2.85h.25l3.32-2.13-2.38 12.59-.7 2.37.7.25-1.66 3.57h.47l1.19-1.91.25.97-2.85 7.13-2.38 3.07v.97z" fill="#b9b9b9"/><path d="M386.73 175.11l-.72-1.19 2.38.47-.47.47-1.19.25zm-115.34-.97l3.1-1.41-1.91 1.19v.22h-1.19zm10.7 0l2.38-1.66-1.19-.24-1.19 1.9zm113.44-1.18l-4.27-.95-3.34-1.9-.47-1.44.94 1.68.97-.71 4.75 1.66 2.85-.48-1.43 2.14zm-16.4-1.42l-2.63-.24-.69-1.44 3.32 1.68zm-5.95-.24l-2.38-.25.25-.94h.22l1.91 1.19z" fill="#346733"/><path d="M408.61 170.58l-1.42-1.19.23-.72-.47-2.85 1.9 2.63-.24 2.13z" fill="#b9b9b9"/><path d="M277.58 169.86l-.96-.22 1.19-1.44 1.68-1.19.22 1.44-2.13 1.41zm18.31-.22l.25-1.44.69.72-.94.72zm8.79-.48l-1.41-.49.94-.22.47-.47v1.18zm79.2-.24l-2.62-1.44 2.15-.94 1.91 1.44-1.44.94z" fill="#346733"/><path d="M429.79 166.29l-1.19-1.19-.72-2.85-1.66-2.13.94.47-1.91-4.03-.22-2.85-4.76-7.86-1.43-.71-1.19-.25-1.19.72-5.95-.47-3.09.71 2.62 4.04-.25.94 1.69.72.22 1.19 1.66 1.66-.94.72-1.91-2.13.25 1.19-1.19-.97.72.97-2.16-1.66-1.18.22-1.91-1.19-.47.97-1.41-.97-4.29.25-.72-.72 2.85.25-.22-1.44-4.07-1.66-.47.47-1.66-1.43.47-.7-1.18.47.47-.72-1.19-.24-.47-1.89-1.66-.96-1.66-2.38 1.66-.47-1.44-1.44-.69.5-.72-1.19v.69h-1.66l-1.19-1.19.22-.94-.67.67.67 1.24-2.38 1.19h-1.66l-.94-1.66-.25.69-.94-.94-.71.47-.48-1.91-.96.97-1.66-1.91.94-.72-2.13-.47 1.19-.71-1.91.24-1.19-1.19.47-.71.97.71-1.44-1.66 1.91.47-2.13-.96-2.63.25-.24-1.19h1.43l-.25-.94-1.18.22-.23-1.41-1.66 2.37-2.87-2.62.49-1.91-4.75-4.04-3.82-1.43-3.09-.94-6.17-2.85-1.69.22-7.82-4.04-1.19-1.41-.97 1.19-2.85-5.48 1.91-3.09-.97.47-.47-.47-.47 1.19.47-1.91-1.91.47 4.29-4.509v-1.189l-.22-.942 1.88-1.684-1.19-2.131-2.38-.718v-1.189h4.07l3.79.47 6.41 2.874h.25l10.23 2.378 2.85 1.883 5.47 2.377 15.21 5.72 7.14 1.42-.94-.95 1.41.25.25-1.43-.94-.25 1.66.25.47.71 6.41 4.29.72.94-.72-1.66-2.13-1.44-.96-1.18-1.19-.48-.7-.71 2.38 1.19 2.13 1.9.25-.47-2.38-1.91 2.13 1.19h.94v-.24h-.22l-1.19-1.42h.22l.5-.24 5.23 2.15 3.09 2.13 1.89.94-.7-.47 1.41.72 5.01 3.32-1.44-.69.72.47 5.23 3.56 3.34 3.1 2.38 2.13 3.32 3.1 4.29 4.04 3.09 3.32 2.13 2.37 2.63 3.35.69 1.91 2.16 3.07-.47 2.15-1.69-.24 1.19 2.37-.47-.72-.72.25-.47-1.19-.22.25-.72-.72.47 4.29-4.76-.5.95 4.29-.95.47.95 3.57-1.66.96-2.13-1.66.47 3.57-1.66 4.26z" fill="#b9b9b9"/><path d="M304.46 165.35l-.25-.72h1.91l-1.66.72zm-20.93-3.32l-1.19-.72 2.38-1.66-1.19 2.38zm87.74-.25l-1.19-1.9-.47-2.14 1.91 1.66h-.97l.72 2.38zm-61.11-.94l-2.63-.25-.94-1.43h2.38l.72-1.89 2.85-.49.47 1.44-1.91.24-.94 2.38zm59.92 0l-1.41-.72-.25-1.9.95.24.49 1.19.22 1.19zm-53.98-2.38l-.24-1.9h1.43l.94 1.41-2.13.49zm-27.82-1.9l.95-1.44v.96l-.95.48zm95.13-.97l-2.85-.47-.72-1.19 3.57 1.66zm1.19-1.41l-7.13-2.63-5.23-3.79-.5-1.19-.47-.96 1.91.47 1.66 1.19 9.76 6.91zm-7.13-1.19l-1.91-.47-.72-.97 2.16.72.47.72zm-2.63-.97l-1.19-.47.47-.47.72.94zm-4.98-.69l-1.44-1.69-3.32-.94-3.56.25-1.69-1.44-.69-.47h.69l5.73.94 4.75 2.63-.47.72z" fill="#346733"/><path d="M411.95 150.83l-1.19-1.19-.25-.94 1.66.72-.22 1.41zm-14.74-.47l-1.68-.22-.48-.72-1.41.47 1.66-1.44 1.91 1.91zm-3.57-.94l-1.19-1.44 1.89.72-.7.72z" fill="#b9b9b9"/><path d="M309.91 148.45l-.94-1.88-2.13-.72 4.76-.47-.25-1.19 5.22-.49 3.57.72 6.91-.94 11.65.47 2.13-.25-.47 2.62-4.51-.47-2.16 2.13-5.45.47-2.38-1.65-5.25-.23-2.38 1.41-8.32.47zm29.51 0l-5.01-.94 2.85-.24 2.16 1.18z" fill="#346733"/><path d="M443.34 147.76l-1.44-1.91-.22-.47 1.66 2.38z" fill="#b9b9b9"/><path d="M352.72 147.51l-.7-.47 1.89-.96-4.04.24-1.41-1.18.94-.95 7.85 2.85-4.53.47zm-5.95-1.43l-.94-1.66h2.13l.5 1.66h-1.69zm-4.26-.47l-1.91-.23 2.13-1.68 2.16 1.68-2.38.23zm17.12 0l-3.57-1.19 3.32-.72h.25l1.41-.47 1.44.96v.23l-2.63 1.19h-.22z" fill="#346733"/><path d="M147.01 143.48l1.68-1.44-.72 1.19-.96.25zm4.75-.72l.25-.94h.72l-.97.94zm265.66-1.91l-.96-2.85-.22-.22.47 1.41.22.47.25.72.24.47zm-29.97-4.76l-1.44-1.9v1.18l1.44.72zm27.18-2.4l-.08-.2-.22-.49-.47-1.42-.25-.22.25.7.22.47.25.71.3.45zm-1.84-4.06l-.12-.42-.25-.47-.17-.25.17.47.25.47.12.2zm-1.19-2.38l-.12-.42-.25-.47-.17-.25.17.47.25.47.12.2zm-1.19-2.38l-.12-.42-.22-.22.22.44.12.2zm-.76-1.36l-.08-.25-.25-.47-.22-.25.22.47.33.5zm-.97-1.71l-.07-.2-.2-.2.27.4zm-.77-1.14l-.25-.5-.17-.27.17.52.25.25zm-.72-1.21l-.24-.47-.23-.25.23.49.24.23zm-.24-7.86l-.23-.22-.91-.54 1.14.76zm-.95-1.88l-1.43-.97-2.85-1.41-1.19-.96v-.23l2.38 1.42.47.24 2.85 1.91H406zm-5.47-3.57l-.47-.24-.72-.48h.25l.94.72zm-5.7.7l-3.81-1.42h.72l3.09 1.42zM214.56 86.622l1.17-.322-.23.099-.94.223zm1.17-.322l.49-.248v.099l-.49.149zm.49-.248v-.123h.25l-.25.123zm.25-.123l.69-.248.25-.075 1.19-.396h.25l-2.38.719z" fill="#b9b9b9"/><path d="M101.35 276.4c.5-.41 2.02-.4 1.51-1.35-.38-.39-.86-1.72.16-1.3.87.47 1.9 1.09 2.89.59.68-.46 1.07-1.21 1.51-1.87.41-.81.64-1.71 1.09-2.49.83-.45 1.46-1.22 1.07-2.23-.29-.94.43-1.7.6-2.58.28-1.23.41-2.52 1.1-3.61a1.79 1.79 0 0 0 .16-.44m166.54.47l-2.79.9" fill="none"/><path d="M274.436 263.36l3.867-1.226-.358.092-3.867 1.226z" fill="maroon"/><path d="M117.78 338.74l-1.73-4.16-1.13-5.65.02-4.18 3.78 4.21 2.13 6.9-3.07 2.88z" fill-rule="evenodd" fill="#346733"/><g stroke="#fff"><path d="M396.76 106.61l.48-.24 5.23 2.14 4.52 3.09-.24-.24-1.19-.71 1.9.95-.71-.47 1.43.71 4.99 3.33-1.43-.71.72.47 5.23 3.57 3.33 3.09 2.38 2.14 3.33 3.09 4.28 4.05 3.09 3.33 2.14 2.37m-36.62-31.15l.95.71 2.38 1.43.47.24 2.85 1.9h-.23l2.14 1.43-3.57-2.38-2.85-1.43-1.19-.95v-.24l-.48-.23-.71-.48h.24zm9.75 6.66l.47.47-.47-.47z" stroke-linejoin="bevel" stroke-width=".365" fill="none"/><g fill="none" transform="matrix(.99091 0 0 .99091 218.159973 439.790009)" stroke-linejoin="bevel" stroke-width=".368"><path d="M0 0h-.24M0 0v-.24"/><g stroke-width=".368"><path d="M-67.68-20.16l2.4-2.64-.72-2.4-1.44-1.68.96.48v-1.44l-.96-1.2m-.96 16.56l3.12 2.4 2.16 1.2 1.2-.72.96.96 2.16.72.96 1.68"/><path d="M-53.52-21.84l-.24.48m-14.88.24l.96.96M-8.16 3.36l-.24-.24.24 1.68-2.16-.48-.24.72-5.76-1.2-.72.72-5.28-1.44-1.44-1.2-.96 1.2-2.4-.24-5.04-2.64-1.2-1.2h-1.2l-2.88-1.68-.96.24-3.12-1.2v.96m-26.64-8.16l.48.48-.48.48m.24.24l3.6 4.08m-1.44-17.28l5.04 3.84.72 1.2 1.2.48m-7.44 6.48l2.4 2.64v1.92m-4.32-6h-.24"/><path d="M-53.52-6.24l-.96-2.64m-10.56-27.36l1.92.24 4.56 5.28 2.88 1.2 3.12 3.84-.96 3.84M-5.76 3.84l-2.4-.48M-.24 0l-1.68.72-4.32-.96-.24 2.16L-4.8 3.6l-.96.24-2.88-4.32-8.16-4.32m13.92 2.4L-6-3.84l-.96-1.92-3.12-.72-8.16-6.72-1.44-.24-1.68-3.12m-26.88-3.12l1.44-.48 1.44-3.36-1.2-3.6"/><path d="M-48.24-19.68l1.44-.48 1.44-3.36-1.2-3.6m-2.4-1.2l-2.64-1.44-1.92 2.4"/><path d="M-48.96-28.32l-2.64-1.44-1.92 2.4m.72-21.84l-1.44-2.16 2.16-1.92-.48-1.92m-.48 13.2l2.4-1.68-.72-2.16M-40.56-24l.48 3.6-1.2.48m-2.64-12.48l-.24 4.56"/><path d="M-43.92-32.4l-.24 4.56m-13.68-9.84l.72-3.12m35.76 24.24l-9.6-1.44m-13.2-9.84l3.6 3.84M0-.24l-.72-1.2-2.16-1.2H.48m-47.52-32.88l3.12 3.12m-14.4-2.16l-2.16 1.68m2.16-1.68l.48-3.12m7.2-1.2l-2.4-3.12m4.56 2.16l-2.16.96m4.08 11.76l-1.2-1.2h-1.2"/><path d="M-46.56-27.12l-1.2-1.2h-1.2m-4.32-18.72l.48-2.16m-4.32 8.4l.72-1.68m7.92 2.64v2.16m-6-3.36l-1.92-1.44m5.76 18.72v1.92m-1.92-3.6l1.92 1.68m15.36 2.88l-3.6-2.4M-53.04-42l-1.44.96m3.12-4.8l-1.44-1.2M-40.56-24l1.68.72m-8.88-14.16l.72 1.92m1.2 7.68l-.72.72"/><path d="M-45.84-27.84l-.72.72m2.4-.72l-1.44-.24"/><path d="M-44.16-27.84l-1.44-.24m-2.16-9.36l-.72-.24m13.2 16.8h.72m-11.04-7.2l-.24.24"/><path d="M-45.6-28.08l-.24.24m-6.96-19.2h-.48m18.96 26.64l-.24-.48m3.6 2.88l-1.2-.24m.96-46.32l-5.76-.96-1.2-2.16m-.24.24l-.96 2.4m18.24-8.16l-.96-.48-1.2 1.44-2.64-.96-.72 2.64-1.2-1.44m10.32-4.08l-1.68-.72-.72 3.12m-9.12 6.48l.24 1.2-1.68-.24-.72 1.92m-8.16-.72l-.96-.96m12.48-6l.24 4.08-1.44.72m9.12-6.48l-.72.24-.48.24m5.76.72l2.4.24 1.2 2.16 1.92-.72-.96 1.68.96.24-.96.96.96.96 4.32-.96m-8.16-8.16l-1.44-1.44-2.4 1.44M22.8-86.4l.72-3.12M8.88-73.2l2.16-.96v.96l.24-1.92 2.88-.24-1.68-1.92m-12 8.64l4.32-.24 1.44.96M18-76.32l2.88.72-1.44-1.44 1.92-2.88M-2.88-68.4l3.36-.24"/><path d="M-2.88-68.4l3.36-.24m8.88-.72l.72-2.4-1.2-1.44m-2.64 5.28l3.12-1.44M-14.4-74.4l-.96 1.92m27.84-4.8l2.16-.48L18-76.32m3.36-3.6l1.44-6.48m-27.12 18h1.44m-11.52-6l.72-.96m8.16 7.44l1.2-.48m-9.36-7.68v.72m59.76-20.88l6 2.64 4.32-1.44.72-1.92.48-.24m7.2-.24l1.2 1.2-.96 2.4 2.64 4.08 2.4-.96m-43.2 0l4.56.24 2.16-4.08m-10.08 5.04V-90l1.92 1.68 1.44-2.4m81.84-3.6l-4.56.24-.96-.96m-33.12 4.32l5.28-1.92.24-2.64 2.4-1.44 4.8 1.44 6-1.44m26.64 3.6l.96 4.56.72 3.6-2.4 2.16 1.44 2.16 4.56 1.92 6.96-1.2 6.48-7.68.48-.72m28.08 119.28l.96-.96-27.84 3.36m30.72 3.12l-2.4.96-1.68.48 1.2-1.44-4.08-1.44 1.44-.96 3.12-1.44-2.4-.72.96-.96M-48 12.72l-1.2.24-2.4-2.64m-15.84-39.36l-1.44-2.64h.96l-.96-1.68m-9.36 2.88l-.24-1.68 1.68-1.44-2.4-4.8 1.92-2.4m1.68 21.6l3.84 1.92 1.68 3.6 1.68 1.2m-48.48-51.12l.24.24h.96l1.92 2.4 1.68-.24 1.44 1.92m24.96 32.16l.96.72.72 1.68 1.92 1.92.72-.24 1.2 1.44v-1.44l1.44.24-1.68-2.16 1.92.96-.96-1.68 2.16.96.24 1.68 1.2.96m0-.24l-.72-1.2h.96l-.48-1.44.96-.72-.48-1.68 1.68 1.68H-72l1.68 2.88 1.68 1.68"/><path d="M-76.8-33.36l.48-.24 1.92 1.68 1.2-.24-.24-2.64 1.68-1.2m-8.16 14.16l1.44 1.68-.72.48 3.6 1.2.72-1.68-.96-2.16M-93.36-56.4v-.24m6.72 6.96v.96l-1.92-1.68m20.16 19.2l-3.36.72m1.68 16.8l.24 1.2 1.68 1.68m0 .96l.24.24m-12.72-23.04l1.68 2.16h.72l.24 2.16 1.2 1.44-.72 1.92m-39.12-38.4l3.84 5.76.96 2.4 2.88 5.04 1.44.48 4.08 4.8.96.24M-72-25.68l-.24-1.68 1.2.48-.24-2.64-1.68-2.16m-14.16 11.52l.96 2.64m17.76 5.28l-1.2-.72m-18.72-10.08l.72 2.4m0 0l.24.48-.24-.48zm-.48-11.76l.72.96M-93.6-55.2l.48-.48"/><path d="M-77.04-23.28l.48.48m3.36-9.36l.24.48m-16.32-1.92l.48.48m-3.36-1.92l.24-.24m6 8.4h.24m-1.68-20.16l2.64 1.68.48-.72.96 1.44.24-.72.72 1.68 1.44.96-.48 6L-84-39.6l-3.36-7.44z"/><path d="M-84.48-45.84L-85.2-48m6.72 8.4l-1.44-2.4-1.2-.24m3.36 7.44l-.96.72-2.16-1.2-.24 2.64m12.24-.72v-.24l1.44-1.68-.48-1.92m-9.36-3.6v-.24l-1.92-4.32-.96-.72.24-2.4-1.92-2.4 1.2-4.32 2.64-.96.24-3.36m-18-54.96l1.44.72.24 4.8 4.8-1.2 1.2 4.32-4.8-.24-.72 3.36m-13.92 14.64l-3.12-3.6-.24-.48m33.6 51.12l.96-.96 3.84 1.68 2.16-.24v-3.36l2.64-1.2-2.4-5.04-3.6-3.6.48-3.36"/><path d="M-70.08-38.4l1.92.48 1.68 1.68h1.44m-6.72.24l1.68-.96-.96-3.6m-19.2-14.88l3.6-3.36.72-3.36 1.2.72-.48-1.68-1.92-.72m7.44-33.12l-1.44.72-3.36 4.56-1.2-1.92-1.44.24m-6.24 36.72l-.24-.72 2.88 1.2 4.08 6.24v.24m-11.52-55.2l-1.68-4.8m11.76 52.32l1.68 1.92.48 1.68 2.64 1.2 1.2 2.64 1.2.48M-96-104.64l-1.2-1.2.96-.48-.72-1.2-2.4-2.88m46.8 55.2l-.24-.24m-40.8-47.28l-2.4-1.44M-69.6-54l2.88 5.28m13.92-6.72l1.68-3.36m-31.44-4.8l-.72 1.92h-1.44m-3.36-44.16h2.88m-4.08-4.32l.72-2.16m31.92 49.92l.96-1.2 1.44 1.44"/><path d="M-56.64-62.4h-1.44l-1.44-1.2m5.52 2.4l1.44.96M-66.48-45.6l-.24-2.4m.24 2.4l-1.2.72m-26.16-55.92l.96-.24m-1.68 19.2v-.96m-3.84-22.32l.96.72m30.72 55.68v.72M-54-61.2l-.24-.96m-38.88-11.28l-.48-.48m-1.44-5.28l.48-.48m29.28 13.2l-.96-.48M-69.6-54l-.24-.48m-25.2-22.56l-.48-.72m1.68 3.36l-.24-.96m1.44 4.56l-.48-.72m2.88 3.84l.24-.48m-4.56-7.68l-.24-.72m5.52 11.52l-.48-.72M-95.04-78l.24-.48m3.12 8.64l-.48-.72m4.08 6h-.48m-1.92-4.8l-.48-.48m-1.68-31.44h-.24m13.44 45.84v.24m-6.48 1.44l-1.92 1.68M-85.2-48l-.24-1.2-1.2-.48m20.16-45.12h-1.68l-1.44-3.84-1.2-.96-1.68-7.68 1.44-2.16-4.8-4.56-.48-4.32 1.68-3.84-.24-2.64-1.44-2.4.48-.48-.72-1.68.48-2.4"/><path d="M-75.36-98.64l-4.32 1.68m38.88-25.92l-.72 2.88-3.6 3.36v1.44l-4.08 1.44-2.64-1.2-1.68.72m20.88 9.6l-2.16 3.36-1.2-.24.24-1.44-.72 1.2-3.12-.96-.96-2.16-1.92 1.44m-25.2 18.96l1.92-1.68v-3.12l-1.68-2.64.96-3.12m0 .24l.72-4.56 4.8.48.24-1.68-1.68-1.2.72-2.4m23.52 36.48v-.24l-.24.48"/><path d="M-65.04-99.84l1.44 2.4-.96 2.4 1.2.24.48 4.8m-12.48-9.6l1.2.24 1.92-1.92-.24-1.44 1.2-.24m12 12.96l-.48 4.32-2.16.96v1.92"/><path d="M-59.28-90l-.48 4.32-2.16.96v1.92"/><path d="M-59.28-90l-.48 4.32-2.16.96v1.92m17.28 11.52l-.96-1.2 1.44-2.88-.72-2.4-.96.24.48-1.92m2.88-24l-1.2.48-.72 5.04h-4.56m-2.16 39.12h.24m-11.04-24l-2.64 5.52-1.2.48"/><path d="M-61.92-82.8l-2.64 5.52-1.2.48m2.88-13.2l2.16-2.88 1.44 2.88.96-3.84 2.64.96m-29.52-12.96l2.64-.24 4.08 5.76 2.88.72"/></g></g><g fill="none" stroke-width=".365" stroke-linejoin="bevel"><path d="M130.41 328.49l3.56-10.7-.71-1.19m19.02 29.25l1.43-1.66-.71-2.86m25.21 33.06l-4.76-3.8.48-1.43m-7.85 10.94l.47.24m-25.2-70.16l-1.43 1.19m15.93 39.24l-2.85 1.43"/><path d="M155.85 350.61l-2.85 1.43m23.07-14.75l6.42 12.13 5.94-.71.95-2.38m-45.89-4.28l-.24-.95m24.49 40.19l-1.19-.95m-25.2-70.16l.23-.24m82.29-19.97l-.48-1.19.95 3.33-1.9 1.42v3.57l-4.99 2.38v3.09l-3.57 2.85 2.38.48.24 4.04-2.62 1.19.48 3.09 4.04 3.1 3.8-1.67 1.91 2.14 3.33-.71 5.7 2.14"/><path d="M235.76 329.68l-.24.24h.24m-64.93-37.1l3.57 2.62v1.42l-2.14 1.43 1.43 5.71 1.43 1.19-.72.95.48 1.66 1.19.24 2.61 4.04 3.09-2.85 1.67 1.66h3.8l1.91 2.86 3.09.47 4.75-4.28 2.62.72.71-1.19 5.95 3.33.95-2.38-.95-4.52 4.99 1.43 4.05-1.91m-1.19-.47l-8.33.24-1.66-1.19.47-3.33-2.61-1.9-.24-1.67-3.09.95.48-3.09-2.62-.24-1.67-3.8h-7.61l-2.37-3.81"/></g><g fill="none" transform="matrix(.99091 0 0 .99091 223.390015 288.779999)" stroke-linejoin="bevel" stroke-width=".368"><path d="M0 0l1.2-2.88-1.92-1.2-1.44 1.2.24-4.8.96.24 2.4-2.64"/><g stroke-width=".368"><path d="M-14.16-3.6l-.24-1.92-3.6-3.12m-27.12 32.16l1.2 3.6-1.92.96-.24 1.44m9.6 13.44l-2.64 1.68 1.2 2.88v.24M-1.68 8.4L-5.04 6-13.2 8.16-13.92 6l.96-.72-1.44-2.64 3.12-4.32m-18.48 25.92l.96 2.16-7.2 11.28"/><path d="M-29.76 24.24l.96 2.16-7.2 11.28m24.72-5.28l-.48 2.4-1.2-1.44-2.64 2.4 3.6 1.68-.72.48"/><path d="M-16.56 31.92l3.12-2.16 4.56 1.2-2.4 1.44m-1.44 5.52l.96 1.44h1.92l3.6-2.88.72 2.16 1.92.48m3.12-2.64l8.88-2.16 1.68-2.16m-25.2-1.44h-4.8l-.24-1.2 3.36-1.2M-21.12 36l-.72-.96 1.2-1.2 2.16 2.4 5.76 1.68m-4.08-9.6l2.16-.24 1.44-2.16 4.08-.24m-16.32 4.56l1.68-1.68-.48-3.12-2.64-2.88m6.96 9.6l1.44 1.68.72-.72 2.16.96.48-1.44m-10.32-2.4l1.44.96 1.92-.96 1.92 1.68M-36 37.68l.48 4.32-.96.96m4.8 6.96l6.72-1.92.72-3.6h.96l-.96-1.92"/><path d="M-31.68 49.92l6.72-1.92.72-3.6h.96l-.96-1.92m12.96-44.16l-2.88-1.92M-3.6 39.12l3.12-2.64m-14.64-6.24l.24-.96-.24.96z"/><path d="M-32.64 55.2l.96-5.28m7.44-7.44l-.72-1.44 1.2-.48.24-3.36 1.92-.72m6.48-3.84l-1.44-.72m-3.36.24l-1.2.24m0 3.6l-.48.48m1.44-4.56l-.48.24m30.48-1.44l.72.24.24 2.16 2.16 1.68.72 5.76-1.2.72m0 .24l4.56.72 2.16-1.2-.24 1.68 3.12 5.76 3.84-2.16 2.16.48 1.44 4.8 2.16.24.96 1.92h2.4V51.6l4.8-3.12 1.68-3.6-.72-6.48 6.72-1.44 4.8-2.64 2.4-6 10.08-.48"/><path d="M35.04 53.76l5.76 2.4m11.52-.96l6-1.2 1.2.96M1.44-10.08l2.64-3.12-.96-.48m25.2 71.52l.96-1.68 1.92-.72 1.68.96.96-2.88M10.08 32.16l.72-.72M4.08-13.2l3.36-.24 1.68-1.44M64.8 27.84h2.4l11.76-3.6 6.48 3.6 5.28.24 2.88 1.68 3.6 3.84-1.92 2.4 1.2 2.88 4.56-.72 1.92 2.64 2.88.72 3.36 4.8 6 1.68-4.32 3.84-2.64-1.68-4.56.24.96 7.68h-1.2m-5.52-.72l-1.44-1.68-5.52-2.4-5.28.24L84 55.44m-.48.24l.48-.24m20.88 2.16l2.88-.48 2.4 2.16m35.76-19.68l-2.4 1.68.24-2.16-3.36-2.88.96-2.16-4.08.24-.96-3.6-3.36-4.08m13.68 36.72l1.44-12.24-3.12-.24-1.44-2.4 2.88-4.8.24-1.92-1.44-1.2 1.2-1.2"/><path d="M129.36 64.08l.72-1.44 3.84.72 3.36-1.2 2.4-3.84 6.96 5.04m-4.8-41.52l2.64.96.48 1.44m-12.24 1.2l.24 1.2m8.64-5.76l.24.96m-.48-1.68l-1.44-.96m1.44.96l.24.72m-5.76-1.44l.72-.96"/><path d="M136.08 19.2l.48-.72m2.16.24h.48m-3.36.72l.24-.24m29.52 170.64l-2.4 1.44-1.2.48-6 3.12-7.92 3.36m-263.28-81.6v-1.44l1.44 1.92.24-.72-1.2-2.88 5.76 7.2.96 1.44m20.64 24.72L-88.8 144l-1.44-1.68h-.72l-3.12-2.4.48.72-1.92-1.92-3.84-3.12m7.92-.72l2.64 4.08m-18.24-15.12v.24m2.88 5.04l.24.24m-40.32-78.48l-.48-2.64-.72-2.88.24-.96-.72-5.28.72-.72-.24-4.56.72-.48-.96-5.28V26.4l-.48-1.92-.48.48-.96-2.16m14.4 21.12l.96 13.68-1.92.96.72 3.12.24 4.08 1.2 3.12.48 3.36 2.4 6h.72l2.16 3.6 4.08 6.96m-19.92-29.52l.72 1.68 3.12 7.92.24 1.2.96 2.64 1.2 3.84 3.12 8.16"/><path d="M-144.48 52.08l-.96-3.6-.96-3.84-.24-1.2m1.92-10.08L-144 36l3.12 3.12 4.32 9.36 1.2 5.04 2.16 4.8m-13.68-40.56l.24 2.64.96 4.56.48 3.84m4.32 36.24l-1.2-3.6-.96-3.36v-.24l-.72-2.4-.96-3.84"/><path d="M-144.72 51.12v.72m7.92 15.36l3.6-1.44m-11.52-14.64l.24 1.44v-.48m2.4 7.2l1.44 6.24m-4.8-17.04l1.2 4.08v-1.68m6 18v-2.4l1.44.72m-8.4-38.4l.24 1.68m3.12-24.96l-.24-4.32"/><path d="M-115.68-2.64l-2.88-.96-.72.72-5.04-12.48-.72.72-1.68-1.44-.96-3.12-.48.96-.48-.48-.48-1.68m23.28 60.72l1.2-2.64 2.16 1.2 1.44-.96m-15.12 22.32l-1.2-2.64-13.92-28.08-.96 1.92-.48-1.68-.48 14.16m.48-14.16L-137.04 18l-.96 1.68-3.36-6.24.24-1.92-.72-6-1.2 1.44-.96-.72"/><path d="M-105.12 42.72l-.72-1.92m-22.8-5.28l6.72-11.76.72.24-.48-.72 2.4-3.12M-104.64 42l-.96-1.2m-8.64-21.6l-4.08-1.44-.96 2.4m5.76-56.88l-.48 2.64 1.68 1.68m30.96 53.04v-.72m5.76-33.6l1.92 3.84 1.44-.24.48 2.88 1.44-.24m-13.44 23.28l-2.924 4.925-1.934 1.615-1.621 1.38-.96 1.92"/><path d="M-105.12-15.12l-2.4 2.4-.72-2.4-1.2-.24m18.48 43.44l-.72-1.2.48-1.2m-21.84-59.04l-2.4 1.92.24 1.92 2.16 1.92 1.44-.48m41.28 25.92l2.64.24-.48-3.36M-84.24 22.8l-2.64-2.16m6.48-12.96l-.96 7.2"/><path d="M-80.4 7.68l-.96 7.2m-5.52-36.72l-.72-1.2 1.2-8.4m-18.72 16.32l3.12-5.52-.72-3.36 7.68 4.8 16.32-3.6 3.6 6-.48 3.12-7.44 5.52-.24 10.56"/><path d="M-105.12-15.12l3.12-5.52-.72-3.36 7.68 4.8 16.32-3.6 3.6 6-.48 3.12-7.44 5.52-.24 10.56m13.44-5.76v-1.68"/><path d="M-69.84-3.36v-1.68m-5.28 2.88l1.92-.48m-9.36 24l.48-.72m-1.2-22.08h.48m26.16-12l1.68 3.36 4.08-.24.96 1.68-1.44 1.2 1.2 3.36-2.16 1.92-1.2 6 .48.24"/><path d="M-38.88-1.68l-.48-.48-6.24.48-7.92 5.52M-18-8.64l-6.96-6-3.36.24-1.2 1.44-2.88-2.16-.72-1.44L-31.2-18l-.72-1.92 1.44-1.68.24-5.04L-36-25.2l-1.2.48-2.4-1.68m66.48-22.56v6l-1.2 1.68.72 2.16-2.16 1.92 3.36 1.92-2.88 2.4 1.2 2.64 3.12-2.64.96.72.48-3.6 8.64-1.92-4.8-4.08 1.44-3.12L37.2-42l.96-.24.96-8.88-.96.72-.72-1.2m22.8-39.36l3.36 5.04-1.92 7.2-3.6 4.32 2.88 4.56-.96-.48-4.8 8.4h1.68l.96 4.32 3.12-.24 1.92 2.4 1.92-.24m-61.68 42l-1.2-.72-1.68-3.36 7.92-6.48 4.32-.72 3.12-3.36L21.12-30m26.16 8.16l2.4-1.2 2.16 1.44.96-.72-.72-1.2 1.2.48.24-1.2-1.2-1.2 3.6-.96-1.44-2.16.72-1.92-3.12.72-3.6-2.4L44.64-42l-2.64.96-.96-6.72-1.92-.96m16.8 22.32l.72 1.2 1.68-.96.96-2.88 1.2.24.24-2.88-.24-3.6-3.36-2.88-.72-4.08 4.56.72v-3.6l2.4-.96-1.44-2.88 2.64-.48M21.12-30l3.6-.96.72 5.76 1.68.48 1.2-5.04 10.08-.48-1.2 3.84-5.28 1.92-4.08-3.36"/><path d="M37.2-27.12l2.88.24 2.4 2.64 4.8 2.4M9.12-14.88l9.6-9.6.72.96 6.24-1.92m39.12-24v-.24m-6-42.48l1.44 1.2m8.64 39.84l.48-1.44h1.68l-.24 4.8 1.92-.24.72 1.44 1.92-1.2.96 1.44 2.16-1.2 4.8 3.6 1.92-1.68 3.36-.24-.48-3.12 3.84-.72m-27.12-6h.24m10.8-7.68l.72.96 2.4-.24 3.12-3.12-.24-3.12L85.2-72 84-77.28l3.12-.72-.48 1.68 1.2.24M72.24-48l1.92-2.64.96.24-.48-1.68 1.44-1.44 1.68-.72 1.44 1.2 1.92-.96-.96-.96 2.16-1.44-.96-1.44-2.16.24m-3.6-28.8l-2.16 6.48 2.88 2.88 7.44.48M79.2-57.6l-.72-1.68 4.56-1.92 5.52-6.96M66.96-56.4l-.48-2.16 2.88.24-1.2-7.2.96-.24m19.44-19.92l-2.4-.48 1.68-2.64-4.08.24-2.4-1.92m7.2 22.32l3.12-1.92-.96-.96 1.92-1.68-.48-2.16M67.92-50.64l.96-.72-3.84-4.32 1.92-.72M91.92-78l.48-5.04-3.84-1.92m-19.44 19.2l3.12 2.4 2.16-1.44 1.44 1.44"/><path d="M87.84-76.08l2.4-.24 1.92 1.44m-10.8-15.6l-1.44-.96-.96.96.24-1.44m33.36 47.52l1.92.72.48-1.68-2.16-.24-.24.96m-20.4-30.24v-2.64M64.8-49.68l.72-1.92m2.4.96l-2.4-.96m26.4 1.92l1.2-.72m-4.56-34.56v-.72"/><path d="M92.16-77.52V-78M-117.6 114.72l-1.44-2.4 4.32 6.48-.48-2.16"/><path d="M-127.92 96.48l5.04 9.36-1.68-3.36 7.44 12.96m-23.04-48l-.48-1.92m16.08 36.96l-8.16-17.76m19.68 36.72l-3.36-5.04m-30-160.56l-.24 1.2.48-2.64-.96 3.36-.72 4.32-.72 4.56-.96 5.52m1.92 50.64l-2.16-6.72v.48l.24 3.12-.24.72-.24-.96-.48-2.88m-.48-13.68l.24-3.84v-2.88l.24-2.16v-2.16l-.24-1.68.24-2.88v-2.88l-.24-.48v1.44l-.24 2.4.24-1.2-.24 1.68m5.76 17.52l-.72 1.68v-1.2l-.72-.72-.48 1.68"/><path d="M-147.12-7.68l-.24 2.4-.72-.72-.24-2.88m-.48-2.4l-.48-7.92-.48-1.92.24-4.8-.24-.24-.24 2.4v.48m1.68 33.84l-.96-2.4-.48-7.92v-9.12l-.48 4.8-.48 2.64m2.88 9.12v1.68l-.48 1.2.48 3.36.24 6.24.24.72.48-3.12"/><path d="M-146.64 43.44l-.24-.96m-1.68-52.32l.24 1.92-.96 3.6-.48-3.12m-1.2 14.16V2.88l-.24-3.6v3.84m3.36 4.56l.72-.48m-1.44-17.04l-.24-1.44m11.52-55.44l-.24-1.2.72-2.64m-6.48 13.2l-.48 2.4-1.2 6.48-1.44 4.32m4.32 45.36V.48l-.72-3.36.72-1.44-.24-.96.72-3.84-.24-.96.72-5.04v-1.92l.72-2.64.24-4.8.48-2.4 1.68-1.2 1.44-6.24-.48-2.88.72-2.16-1.92-1.44-.48-6 1.68-1.2 4.56-6.48 6.24-12.96v-1.68l3.12-6.48"/><path d="M-129.12-20.4l-.96-4.32-1.44 1.44-.48-1.68.72-1.92 1.2-4.8.48-5.52.72-1.2v-2.64l1.92-2.64 1.68-4.32 2.64-3.36h.72m-8.64-28.56l-.96 2.4 2.4-3.6.24-.96M-144 6.24l-.96-1.2-.24.72m4.8-28.32l-1.92 5.04-.48-.48-.72 2.16-1.2.48-.24 1.68-.72-.96-1.2 4.56-.24 2.4m8.4-44.4l.48-3.6.48-.72.96 2.16-.48 1.2v1.2l-.72 1.44-.24-.96-.96 1.92.48-2.4m.48-3.84l.72-6 2.4-7.92-2.16 2.88m8.4 25.92l-2.4 3.12-1.44-.96-2.16 1.92-1.2 2.88-.48-.48m4.56-3.84l1.2-7.2v-2.88l-.96-.72"/><path d="M-135.12-69.6l3.6-7.92m-5.76 25.68l.48.24-.72 4.08m6.24 9.84l1.68-.48.48-2.16m-9.84-6.72l-.24-2.64m7.44.72l-.72-1.68-.24-3.6m-6 7.44l-.24-.24m17.04-4.32l1.68.48 1.92-3.12 4.08-.24 2.64-2.4 7.92 4.8-2.4 1.68-6.96 10.8-.48 2.64m-6.72-19.2v-11.52l.96-3.6"/><path d="M-118.08-54l-2.16-1.92M62.88-104.4h1.92m-7.92 10.56l1.92 1.68m42.24-24.48v-1.44l3.36-1.92 4.56.96 2.4 1.92 4.32-.48 3.36 1.2 4.56 10.08 7.44.72m-66.24 1.2h.48l.24.96 2.16-.48 1.44-2.88 2.64.24.96 1.68"/></g></g><path d="M339.45 183.19l2.14-1.67 1.19 3.09m.23-.24l1.19-1.42-.95 1.9" stroke-linejoin="bevel" stroke-width=".365" fill="none"/><g fill="none" transform="matrix(.99091 0 0 .99091 302.820007 169.389999)" stroke-linejoin="bevel" stroke-width=".368"><path d="M0 0l-1.68-.24"/><g stroke-width=".368"><path d="M126.24 18L124.56-.72m-341.52 50.64l.48-2.16.24-1.92 1.44-3.84.72-.72.96-3.84-.96 1.92-3.36 8.88-.24-.48-.96 1.92-.72 1.92-.24 1.44-.96 1.44-.72 2.16-1.2 2.64-.48 2.4-.48 1.44m22.08-36.48l-1.2 1.2-.48-.24-2.88 4.08-1.92 1.68.24-1.2 1.2-3.6 3.36-6.72.72-3.12h-.48l.72-1.92-2.64 5.28-.72 3.12-1.44 1.44-2.16 4.8-.24 2.16.48-.24-1.44 4.8h.48l-.96 2.4m1.68-2.16l1.92-5.52"/><path d="M-213.84 34.32l1.92-3.84-.24 1.2.72-.72-.24 1.2 1.44-1.92-.96 2.16 3.36-3.12m-7.68 9.12l-2.64 7.2-3.12 9.12 1.68-4.32-1.68 6.24"/><path d="M-215.28 37.68v.24m.24-.72l.72-1.68 3.36-7.68 2.88-5.52m3.6-6.96l.48-.72m2.64-4.32l3.84-6.24 1.68-3.12.24-.48-.96 1.44.96-1.44 1.68-2.64.72-.72-.96 1.2 1.2-1.68"/><path d="M-201.36 11.04l-.72 1.92v.48l-1.68 3.36-.24.96m-6.24 12.48l.24-.96 4.08-6.96.72-1.92m-10.08 17.28l.72-1.92.72-1.44m5.76-12l1.68-3.36 2.16-3.84m.24-.48l2.64-4.08v.48m0 15.6l2.16-.72m-5.76-5.52l.96-2.64m-11.04 19.44l-.96 2.16"/><path d="M-193.92-1.92l-1.44 2.4m-8.88 14.64l.24-.48m4.8 11.28l.72-.24"/></g></g><g fill="none" stroke-width=".365"><path d="M129.13 342.83l1.26-.03.33-1.67-4.4-1.65-.98-1.59"/><path d="M127.3 339.74l.18-.64-1.41-1.16-.78.02-2.55-3.5m99.61-37.42l3.86.66 2.69-1.61-.22-2.11-1.53-1.53-2.11-.94-1.24-1.75m-6.36 12.46l1.01-1.08 2.11-1.62 1.42-1.3.08-.89m-9.21 7.61l.07-.55-2.4-.1-.34-.31-.83-.14-1.09-1.16c.37-.66 1.22-1.59 1.42-2.19l1.82-2.19-.94-.73-1.67-1.32-.84-4.13 2.93-3.37m1.14-1.63l1.13-.51.93 1.18.57-.05 2.11.52 1.49-1.14h1.23l1.43-1 .38-.18m40-27.13l2.11.31 2.52-.26 1.75 2.01 1.5.36 1.58.68 1.87-.01 1.28.36-.46-.93.65-.89-.03-.81-1.44-.31-.83-1.13-.46-1.34" stroke-dasharray="0.3648, 0.3648"/><path d="M376.34 150.77l.43-.29.15-1.92m-3.35.29l.85-.22.3.7-.37.42"/><path d="M133.55 391.03l.91.35.12-.19-1.78-3.27-.78-.55" stroke-dasharray="0.3648, 0.3648"/></g></g><path d="M158.39 145.58a44.901 44.901 0 1 1-89.801 0 44.901 44.901 0 1 1 89.801 0z" transform="matrix(4.6514 -1.0283 -1.0279 -4.6498 -90.342 1081.6)" opacity=".259" fill-rule="evenodd" fill="url(#E)"/><g fill="none" transform="matrix(.99091 0 0 .99091 83.080002 350.609985)" stroke-opacity=".467" stroke="#000" stroke-width=".24"><path d="M0 0c9.941 33.796 34.445 63.947 64.32 82.56 42.02 27.14 92.51 35.9 142.08 30.96"/><g stroke-width=".24"><path d="M24-179.04C4.176-148.26-.913-108.772 6.96-72.48c9.522 47.17 38.495 90.5 73.92 121.92 34.973 31.41 79.59 54.71 125.52 64.08"/><path d="M112.8-258c-49.807 28.639-49.061 94.205-41.28 144 8.978 53.73 31.743 106.51 62.64 152.64 20.477 28.88 43.272 55.04 72.24 74.88"/><path d="M184.56-278.16c-7.612 2.547-8.386 13.177-10.8 20.88-7.975 50.458-4.649 103.71-1.68 154.8 4.761 61.63 12.395 123.07 25.44 182.4l8.88 33.6m44.16-388.32c15.166 4.164 20.958 22.988 24.24 37.2 9.441 44.059 5.2 91.39-.24 135.84-9.317 63.08-24.828 125.83-51.12 183.84-5.223 10.81-10.646 21.62-17.04 31.44m121.92-355.2c27.583 19.186 40.018 50.592 42.72 82.32 4.484 55.31-13.982 107.82-41.722 155.44-30.162 49.13-70.8 91.88-122.92 117.44M412.8-126.72c10.646 33.222 7.306 71.645-6.48 103.44-22.645 53.63-67.924 92.91-121.12 116.36-25.34 10.77-51.6 17.82-78.8 20.44"/><path d="M388.8 52.32c-23.879 38.245-67.535 60.283-111.36 64.8-23.6 2.954-48.2 1.323-71.04-3.6"/><path d="M300 131.28c-24.913 12.001-54.235 4.628-76.56-7.44-5.967-2.925-11.418-6.6-17.04-10.32"/><path d="M228.24 151.44c-8.282-.624-12.073-12.663-15.6-20.16-2.457-5.776-4.437-11.774-6.24-17.76m-44.16 34.56c16.41 2.058 28.322-12.925 37.68-24.96l6.48-9.6m-121.92 1.44c29.829 20.581 69.153 18.692 101.76 6.96 6.87-2.323 13.53-5.141 20.16-8.4"/></g><path d="M0 0c9.941 33.796 34.445 63.947 64.32 82.56 42.02 27.14 92.51 35.9 142.08 30.96"/><path d="M35.28-195.12c21.815-27.374 52.811-41.813 84.24-51.84 58.16-16.925 125.27-16.428 182.4 2.88 28.21 9.901 55.99 24.116 75.6 48.96M-9.6-63.36c.063-32.359 22.007-59.595 47.04-77.04 35.803-25.72 78.74-37.9 121.44-43.92 55.87-6.68 113.68-2.13 165.6 17.28 35.71 13.393 71.71 35.025 89.76 69.84 5.11 10.656 8.23 21.975 8.16 33.84M22.08 43.68c-9.073-27.98 5.038-58.027 26.758-76.438C78.218-58.2 114.294-70.59 151.678-77.52c46.98-8.02 97.67-5.82 142.56 7.92 31.28 9.75 62.36 24.749 84 52.32 8.56 11.261 14.44 24.969 15.12 39.12m.002 0c.993 17.007-5.507 33.392-15.84 46.56m-342.24 0c-5.809-7.285-10.288-15.86-13.2-24.72m78 56.88c-6.583-19.996 6.983-39.937 23.28-50.16 30.181-20.314 68.291-24.735 104.4-21.36 28.7 3.831 59.41 13.121 78.48 36.96 11.17 14.139 10.56 36.251-1.68 49.68-18.55 22.009-47.91 30.99-75.36 34.8-37.926 3.989-77.899-.973-109.44-23.52-8.644-6.88-16.529-15.555-19.68-26.4z" stroke-width=".24"/></g><g fill="none"><path d="M501.93 288c.59 73.57-39.97 145.57-103.19 183.09-63.76 39.38-148.31 41.15-213.69 4.55-65.16-35.02-109.29-106.2-110.88-180.27-3.774-78.05 40.06-155.95 108.43-193.55 64.89-37.672 149.77-36.919 214 1.9 64.52 37.13 105.88 109.8 105.33 184.28z" stroke="#aaa" stroke-miterlimit="10" stroke-width="1.189"/><path d="M111.107 261.414c-.099.624-.865 1.416-1.275 2.232-.273.544 0 2.088 0 2.712 0 .752-1.308 1.656-1.594 2.232-.533 1.064-.203 1.216-1.594 1.912-.844.424-.805 1.4-.638 2.072.192.768-1.761.32-2.232.32-.13 0-.014-2.176-.478-.32-.259 1.032-.258 2.096.318 2.872.443.584-1.221.632-1.754.632-.168 0-.318.112-.478.16" stroke="#fff" stroke-width=".32"/></g></g></svg>